<?xml version="1.0" encoding="UTF-8" standalone="no"?><svg xmlns="http://www.w3.org/2000/svg" xmlns:xlink="http://www.w3.org/1999/xlink" contentStyleType="text/css" height="1578px" preserveAspectRatio="none" style="width:1252px;height:1578px;background:#FFFFFF;" version="1.1" viewBox="0 0 1252 1578" width="1252px" zoomAndPan="magnify"><defs/><g><text fill="#000000" font-family="sans-serif" font-size="14" font-weight="bold" lengthAdjust="spacing" textLength="148" x="548" y="28.5352">Grid Select Sequence</text><rect fill="#FFFFFF" height="1402.8008" style="stroke:#181818;stroke-width:1.0;" width="10" x="191" y="150.2871"/><rect fill="#FFFFFF" height="71.6211" style="stroke:#181818;stroke-width:1.0;" width="10" x="418" y="341.1504"/><rect fill="#FFFFFF" height="71.6211" style="stroke:#181818;stroke-width:1.0;" width="10" x="418" y="466.3926"/><rect fill="#FFFFFF" height="56.3105" style="stroke:#181818;stroke-width:1.0;" width="10" x="418" y="603.6348"/><rect fill="#FFFFFF" height="74.6211" style="stroke:#181818;stroke-width:1.0;" width="10" x="418" y="716.5664"/><rect fill="#FFFFFF" height="74.6211" style="stroke:#181818;stroke-width:1.0;" width="10" x="418" y="1060.3613"/><rect fill="#FFFFFF" height="71.6211" style="stroke:#181818;stroke-width:1.0;" width="10" x="752" y="203.9082"/><rect fill="#FFFFFF" height="143.9316" style="stroke:#181818;stroke-width:1.0;" width="10" x="752" y="823.498"/><rect fill="#FFFFFF" height="103.6211" style="stroke:#181818;stroke-width:1.0;" width="10" x="757" y="863.8086"/><rect fill="#FFFFFF" height="143.9316" style="stroke:#181818;stroke-width:1.0;" width="10" x="752" y="1167.293"/><rect fill="#FFFFFF" height="103.6211" style="stroke:#181818;stroke-width:1.0;" width="10" x="757" y="1207.6035"/><rect fill="#FFFFFF" height="151.5869" style="stroke:#181818;stroke-width:1.0;" width="10" x="961" y="1387.501"/><rect fill="#FFFFFF" height="103.6211" style="stroke:#181818;stroke-width:1.0;" width="10" x="966" y="1435.4668"/><rect fill="none" height="147.5527" style="stroke:#000000;stroke-width:1.5;" width="940" x="10" y="165.2871"/><rect fill="none" height="147.5527" style="stroke:#000000;stroke-width:1.5;" width="674" x="10" y="427.7715"/><rect fill="none" height="329.7949" style="stroke:#000000;stroke-width:1.5;" width="1024" x="10" y="674.9453"/><rect fill="none" height="329.7949" style="stroke:#000000;stroke-width:1.5;" width="1024" x="10" y="1018.7402"/><line style="stroke:#181818;stroke-width:0.5;stroke-dasharray:5.0,5.0;" x1="62" x2="62" y1="118.9766" y2="1571.0879"/><line style="stroke:#181818;stroke-width:0.5;stroke-dasharray:5.0,5.0;" x1="195.5" x2="195.5" y1="118.9766" y2="1571.0879"/><line style="stroke:#181818;stroke-width:0.5;stroke-dasharray:5.0,5.0;" x1="423" x2="423" y1="118.9766" y2="1571.0879"/><line style="stroke:#181818;stroke-width:0.5;stroke-dasharray:5.0,5.0;" x1="756.5" x2="756.5" y1="118.9766" y2="1571.0879"/><line style="stroke:#181818;stroke-width:0.5;stroke-dasharray:5.0,5.0;" x1="966" x2="966" y1="118.9766" y2="1571.0879"/><text fill="#000000" font-family="sans-serif" font-size="14" lengthAdjust="spacing" textLength="78" x="20" y="116.0234">Turn Player</text><ellipse cx="62" cy="50.9883" fill="#E2E2F0" rx="8" ry="8" style="stroke:#181818;stroke-width:0.5;"/><path d="M62,58.9883 L62,85.9883 M49,66.9883 L75,66.9883 M62,85.9883 L49,100.9883 M62,85.9883 L75,100.9883 " fill="none" style="stroke:#181818;stroke-width:0.5;"/><rect fill="#E2E2F0" height="30.4883" rx="2.5" ry="2.5" style="stroke:#181818;stroke-width:0.5;" width="141" x="125.5" y="87.4883"/><text fill="#000000" font-family="sans-serif" font-size="14" lengthAdjust="spacing" textLength="127" x="132.5" y="108.0234">TicTacToeView.tsx</text><rect fill="#E2E2F0" height="30.4883" rx="2.5" ry="2.5" style="stroke:#181818;stroke-width:0.5;" width="162" x="342" y="87.4883"/><text fill="#000000" font-family="sans-serif" font-size="14" lengthAdjust="spacing" textLength="148" x="349" y="108.0234">GameGridContext.tsx</text><rect fill="#E2E2F0" height="30.4883" rx="2.5" ry="2.5" style="stroke:#181818;stroke-width:0.5;" width="167" x="673.5" y="87.4883"/><text fill="#000000" font-family="sans-serif" font-size="14" lengthAdjust="spacing" textLength="153" x="680.5" y="108.0234">GameStateContext.tsx</text><rect fill="#E2E2F0" height="30.4883" rx="2.5" ry="2.5" style="stroke:#181818;stroke-width:0.5;" width="166" x="883" y="87.4883"/><text fill="#000000" font-family="sans-serif" font-size="14" lengthAdjust="spacing" textLength="152" x="890" y="108.0234">GameTurnContext.tsx</text><rect fill="#FFFFFF" height="1402.8008" style="stroke:#181818;stroke-width:1.0;" width="10" x="191" y="150.2871"/><rect fill="#FFFFFF" height="71.6211" style="stroke:#181818;stroke-width:1.0;" width="10" x="418" y="341.1504"/><rect fill="#FFFFFF" height="71.6211" style="stroke:#181818;stroke-width:1.0;" width="10" x="418" y="466.3926"/><rect fill="#FFFFFF" height="56.3105" style="stroke:#181818;stroke-width:1.0;" width="10" x="418" y="603.6348"/><rect fill="#FFFFFF" height="74.6211" style="stroke:#181818;stroke-width:1.0;" width="10" x="418" y="716.5664"/><rect fill="#FFFFFF" height="74.6211" style="stroke:#181818;stroke-width:1.0;" width="10" x="418" y="1060.3613"/><rect fill="#FFFFFF" height="71.6211" style="stroke:#181818;stroke-width:1.0;" width="10" x="752" y="203.9082"/><rect fill="#FFFFFF" height="143.9316" style="stroke:#181818;stroke-width:1.0;" width="10" x="752" y="823.498"/><rect fill="#FFFFFF" height="103.6211" style="stroke:#181818;stroke-width:1.0;" width="10" x="757" y="863.8086"/><rect fill="#FFFFFF" height="143.9316" style="stroke:#181818;stroke-width:1.0;" width="10" x="752" y="1167.293"/><rect fill="#FFFFFF" height="103.6211" style="stroke:#181818;stroke-width:1.0;" width="10" x="757" y="1207.6035"/><rect fill="#FFFFFF" height="151.5869" style="stroke:#181818;stroke-width:1.0;" width="10" x="961" y="1387.501"/><rect fill="#FFFFFF" height="103.6211" style="stroke:#181818;stroke-width:1.0;" width="10" x="966" y="1435.4668"/><polygon fill="#181818" points="179,146.2871,189,150.2871,179,154.2871,183,150.2871" style="stroke:#181818;stroke-width:1.0;"/><line style="stroke:#181818;stroke-width:1.0;" x1="62" x2="185" y1="150.2871" y2="150.2871"/><text fill="#000000" font-family="sans-serif" font-size="13" lengthAdjust="spacing" textLength="110" x="69" y="145.5449">selectGameGrid( )</text><path d="M10,165.2871 L77,165.2871 L77,172.5977 L67,182.5977 L10,182.5977 L10,165.2871 " fill="#EEEEEE" style="stroke:#000000;stroke-width:1.5;"/><rect fill="none" height="147.5527" style="stroke:#000000;stroke-width:1.5;" width="940" x="10" y="165.2871"/><text fill="#000000" font-family="sans-serif" font-size="13" font-weight="bold" lengthAdjust="spacing" textLength="22" x="25" y="178.8555">opt</text><text fill="#000000" font-family="sans-serif" font-size="11" font-weight="bold" lengthAdjust="spacing" textLength="114" x="92" y="177.9219">[when game is over]</text><polygon fill="#181818" points="740,199.9082,750,203.9082,740,207.9082,744,203.9082" style="stroke:#181818;stroke-width:1.0;"/><line style="stroke:#181818;stroke-width:1.0;" x1="201" x2="746" y1="203.9082" y2="203.9082"/><text fill="#000000" font-family="sans-serif" font-size="13" lengthAdjust="spacing" textLength="121" x="208" y="199.166">check game is over</text><line style="stroke:#181818;stroke-width:1.0;" x1="762" x2="804" y1="233.2188" y2="233.2188"/><line style="stroke:#181818;stroke-width:1.0;" x1="804" x2="804" y1="233.2188" y2="246.2188"/><line style="stroke:#181818;stroke-width:1.0;" x1="763" x2="804" y1="246.2188" y2="246.2188"/><polygon fill="#181818" points="773,242.2188,763,246.2188,773,250.2188,769,246.2188" style="stroke:#181818;stroke-width:1.0;"/><text fill="#000000" font-family="sans-serif" font-size="13" lengthAdjust="spacing" textLength="169" x="769" y="228.4766">gameMode !== 'ON_GAME'</text><polygon fill="#181818" points="212,271.5293,202,275.5293,212,279.5293,208,275.5293" style="stroke:#181818;stroke-width:1.0;"/><line style="stroke:#181818;stroke-width:1.0;stroke-dasharray:2.0,2.0;" x1="206" x2="756" y1="275.5293" y2="275.5293"/><text fill="#000000" font-family="sans-serif" font-size="13" lengthAdjust="spacing" textLength="50" x="218" y="270.7871">boolean</text><polygon fill="#181818" points="73,300.8398,63,304.8398,73,308.8398,69,304.8398" style="stroke:#181818;stroke-width:1.0;"/><line style="stroke:#181818;stroke-width:1.0;stroke-dasharray:2.0,2.0;" x1="67" x2="190" y1="304.8398" y2="304.8398"/><text fill="#000000" font-family="sans-serif" font-size="13" lengthAdjust="spacing" textLength="72" x="79" y="300.0977">early return</text><polygon fill="#181818" points="406,337.1504,416,341.1504,406,345.1504,410,341.1504" style="stroke:#181818;stroke-width:1.0;"/><line style="stroke:#181818;stroke-width:1.0;" x1="201" x2="412" y1="341.1504" y2="341.1504"/><text fill="#000000" font-family="sans-serif" font-size="13" lengthAdjust="spacing" textLength="158" x="208" y="336.4082">get grid data in (row, col)</text><line style="stroke:#181818;stroke-width:1.0;" x1="428" x2="470" y1="370.4609" y2="370.4609"/><line style="stroke:#181818;stroke-width:1.0;" x1="470" x2="470" y1="370.4609" y2="383.4609"/><line style="stroke:#181818;stroke-width:1.0;" x1="429" x2="470" y1="383.4609" y2="383.4609"/><polygon fill="#181818" points="439,379.4609,429,383.4609,439,387.4609,435,383.4609" style="stroke:#181818;stroke-width:1.0;"/><text fill="#000000" font-family="sans-serif" font-size="13" lengthAdjust="spacing" textLength="139" x="435" y="365.7188">getGameGrid(row, col)</text><polygon fill="#181818" points="212,408.7715,202,412.7715,212,416.7715,208,412.7715" style="stroke:#181818;stroke-width:1.0;"/><line style="stroke:#181818;stroke-width:1.0;stroke-dasharray:2.0,2.0;" x1="206" x2="422" y1="412.7715" y2="412.7715"/><text fill="#000000" font-family="sans-serif" font-size="13" lengthAdjust="spacing" textLength="113" x="218" y="408.0293">selectedGameGrid</text><path d="M10,427.7715 L77,427.7715 L77,435.082 L67,445.082 L10,445.082 L10,427.7715 " fill="#EEEEEE" style="stroke:#000000;stroke-width:1.5;"/><rect fill="none" height="147.5527" style="stroke:#000000;stroke-width:1.5;" width="674" x="10" y="427.7715"/><text fill="#000000" font-family="sans-serif" font-size="13" font-weight="bold" lengthAdjust="spacing" textLength="22" x="25" y="441.3398">opt</text><text fill="#000000" font-family="sans-serif" font-size="11" font-weight="bold" lengthAdjust="spacing" textLength="225" x="92" y="440.4063">[when selected grid is already occupied]</text><polygon fill="#181818" points="406,462.3926,416,466.3926,406,470.3926,410,466.3926" style="stroke:#181818;stroke-width:1.0;"/><line style="stroke:#181818;stroke-width:1.0;" x1="201" x2="412" y1="466.3926" y2="466.3926"/><text fill="#000000" font-family="sans-serif" font-size="13" lengthAdjust="spacing" textLength="198" x="208" y="461.6504">check selected grid is occupied</text><line style="stroke:#181818;stroke-width:1.0;" x1="428" x2="470" y1="495.7031" y2="495.7031"/><line style="stroke:#181818;stroke-width:1.0;" x1="470" x2="470" y1="495.7031" y2="508.7031"/><line style="stroke:#181818;stroke-width:1.0;" x1="429" x2="470" y1="508.7031" y2="508.7031"/><polygon fill="#181818" points="439,504.7031,429,508.7031,439,512.7031,435,508.7031" style="stroke:#181818;stroke-width:1.0;"/><text fill="#000000" font-family="sans-serif" font-size="13" lengthAdjust="spacing" textLength="237" x="435" y="490.9609">selectedGameGrid.occupied === true</text><polygon fill="#181818" points="212,534.0137,202,538.0137,212,542.0137,208,538.0137" style="stroke:#181818;stroke-width:1.0;"/><line style="stroke:#181818;stroke-width:1.0;stroke-dasharray:2.0,2.0;" x1="206" x2="422" y1="538.0137" y2="538.0137"/><text fill="#000000" font-family="sans-serif" font-size="13" lengthAdjust="spacing" textLength="50" x="218" y="533.2715">boolean</text><polygon fill="#181818" points="73,563.3242,63,567.3242,73,571.3242,69,567.3242" style="stroke:#181818;stroke-width:1.0;"/><line style="stroke:#181818;stroke-width:1.0;stroke-dasharray:2.0,2.0;" x1="67" x2="190" y1="567.3242" y2="567.3242"/><text fill="#000000" font-family="sans-serif" font-size="13" lengthAdjust="spacing" textLength="72" x="79" y="562.582">early return</text><polygon fill="#181818" points="406,599.6348,416,603.6348,406,607.6348,410,603.6348" style="stroke:#181818;stroke-width:1.0;"/><line style="stroke:#181818;stroke-width:1.0;" x1="201" x2="412" y1="603.6348" y2="603.6348"/><text fill="#000000" font-family="sans-serif" font-size="13" lengthAdjust="spacing" textLength="157" x="208" y="598.8926">set grid data in (row, col)</text><line style="stroke:#181818;stroke-width:1.0;" x1="428" x2="470" y1="632.9453" y2="632.9453"/><line style="stroke:#181818;stroke-width:1.0;" x1="470" x2="470" y1="632.9453" y2="645.9453"/><line style="stroke:#181818;stroke-width:1.0;" x1="429" x2="470" y1="645.9453" y2="645.9453"/><polygon fill="#181818" points="439,641.9453,429,645.9453,439,649.9453,435,645.9453" style="stroke:#181818;stroke-width:1.0;"/><text fill="#000000" font-family="sans-serif" font-size="13" lengthAdjust="spacing" textLength="310" x="435" y="628.2031">setGameGrid(row, col, gamePlayerKey, gameTurn)</text><polygon fill="#181818" points="212,655.9453,202,659.9453,212,663.9453,208,659.9453" style="stroke:#181818;stroke-width:1.0;"/><line style="stroke:#181818;stroke-width:1.0;stroke-dasharray:2.0,2.0;" x1="206" x2="422" y1="659.9453" y2="659.9453"/><path d="M10,674.9453 L77,674.9453 L77,682.2559 L67,692.2559 L10,692.2559 L10,674.9453 " fill="#EEEEEE" style="stroke:#000000;stroke-width:1.5;"/><rect fill="none" height="329.7949" style="stroke:#000000;stroke-width:1.5;" width="1024" x="10" y="674.9453"/><text fill="#000000" font-family="sans-serif" font-size="13" font-weight="bold" lengthAdjust="spacing" textLength="22" x="25" y="688.5137">opt</text><text fill="#000000" font-family="sans-serif" font-size="11" font-weight="bold" lengthAdjust="spacing" textLength="105" x="92" y="687.5801">[when player wins]</text><polygon fill="#181818" points="406,712.5664,416,716.5664,406,720.5664,410,716.5664" style="stroke:#181818;stroke-width:1.0;"/><line style="stroke:#181818;stroke-width:1.0;" x1="201" x2="412" y1="716.5664" y2="716.5664"/><text fill="#000000" font-family="sans-serif" font-size="13" lengthAdjust="spacing" textLength="112" x="208" y="711.8242">check player wins</text><path d="M433,697.2559 L433,722.2559 L885,722.2559 L885,707.2559 L875,697.2559 L433,697.2559 " fill="#FEFFDD" style="stroke:#181818;stroke-width:0.5;"/><path d="M875,697.2559 L875,707.2559 L885,707.2559 L875,697.2559 " fill="#FEFFDD" style="stroke:#181818;stroke-width:0.5;"/><text fill="#000000" font-family="sans-serif" font-size="13" lengthAdjust="spacing" textLength="431" x="439" y="714.8242">Three same marks are placed in horizontal, vertical, or diagonal row.</text><line style="stroke:#181818;stroke-width:1.0;" x1="428" x2="470" y1="748.877" y2="748.877"/><line style="stroke:#181818;stroke-width:1.0;" x1="470" x2="470" y1="748.877" y2="761.877"/><line style="stroke:#181818;stroke-width:1.0;" x1="429" x2="470" y1="761.877" y2="761.877"/><polygon fill="#181818" points="439,757.877,429,761.877,439,765.877,435,761.877" style="stroke:#181818;stroke-width:1.0;"/><text fill="#000000" font-family="sans-serif" font-size="13" lengthAdjust="spacing" textLength="247" x="435" y="744.1348">checkGameEndWithWin(gamePlayerKey)</text><polygon fill="#181818" points="212,787.1875,202,791.1875,212,795.1875,208,791.1875" style="stroke:#181818;stroke-width:1.0;"/><line style="stroke:#181818;stroke-width:1.0;stroke-dasharray:2.0,2.0;" x1="206" x2="422" y1="791.1875" y2="791.1875"/><text fill="#000000" font-family="sans-serif" font-size="13" lengthAdjust="spacing" textLength="50" x="218" y="786.4453">boolean</text><polygon fill="#181818" points="740,819.498,750,823.498,740,827.498,744,823.498" style="stroke:#181818;stroke-width:1.0;"/><line style="stroke:#181818;stroke-width:1.0;" x1="201" x2="746" y1="823.498" y2="823.498"/><text fill="#000000" font-family="sans-serif" font-size="13" lengthAdjust="spacing" textLength="229" x="208" y="818.7559">setGameEndWithWin(gamePlayerKey)</text><path d="M767,804.1875 L767,829.1875 L1029,829.1875 L1029,814.1875 L1019,804.1875 L767,804.1875 " fill="#FEFFDD" style="stroke:#181818;stroke-width:0.5;"/><path d="M1019,804.1875 L1019,814.1875 L1029,814.1875 L1019,804.1875 " fill="#FEFFDD" style="stroke:#181818;stroke-width:0.5;"/><text fill="#000000" font-family="sans-serif" font-size="13" lengthAdjust="spacing" textLength="241" x="773" y="821.7559">gameMode: ON_GAME -&gt; GAME_OVER</text><line style="stroke:#181818;stroke-width:1.0;" x1="762" x2="809" y1="850.8086" y2="850.8086"/><line style="stroke:#181818;stroke-width:1.0;" x1="809" x2="809" y1="850.8086" y2="863.8086"/><line style="stroke:#181818;stroke-width:1.0;" x1="768" x2="809" y1="863.8086" y2="863.8086"/><polygon fill="#181818" points="778,859.8086,768,863.8086,778,867.8086,774,863.8086" style="stroke:#181818;stroke-width:1.0;"/><text fill="#000000" font-family="sans-serif" font-size="13" lengthAdjust="spacing" textLength="85" x="774" y="846.0664">setGameEnd()</text><line style="stroke:#181818;stroke-width:1.0;" x1="767" x2="809" y1="898.1191" y2="898.1191"/><line style="stroke:#181818;stroke-width:1.0;" x1="809" x2="809" y1="898.1191" y2="911.1191"/><line style="stroke:#181818;stroke-width:1.0;" x1="768" x2="809" y1="911.1191" y2="911.1191"/><polygon fill="#181818" points="778,907.1191,768,911.1191,778,915.1191,774,911.1191" style="stroke:#181818;stroke-width:1.0;"/><text fill="#000000" font-family="sans-serif" font-size="13" lengthAdjust="spacing" textLength="180" x="774" y="893.377">setGameModeToGameOver( )</text><line style="stroke:#181818;stroke-width:1.0;" x1="767" x2="809" y1="940.4297" y2="940.4297"/><line style="stroke:#181818;stroke-width:1.0;" x1="809" x2="809" y1="940.4297" y2="953.4297"/><line style="stroke:#181818;stroke-width:1.0;" x1="768" x2="809" y1="953.4297" y2="953.4297"/><polygon fill="#181818" points="778,949.4297,768,953.4297,778,957.4297,774,953.4297" style="stroke:#181818;stroke-width:1.0;"/><text fill="#000000" font-family="sans-serif" font-size="13" lengthAdjust="spacing" textLength="179" x="774" y="935.6875">setGameResult(PLAYER_WIN)</text><polygon fill="#181818" points="212,963.4297,202,967.4297,212,971.4297,208,967.4297" style="stroke:#181818;stroke-width:1.0;"/><line style="stroke:#181818;stroke-width:1.0;stroke-dasharray:2.0,2.0;" x1="206" x2="756" y1="967.4297" y2="967.4297"/><polygon fill="#181818" points="73,992.7402,63,996.7402,73,1000.7402,69,996.7402" style="stroke:#181818;stroke-width:1.0;"/><line style="stroke:#181818;stroke-width:1.0;stroke-dasharray:2.0,2.0;" x1="67" x2="190" y1="996.7402" y2="996.7402"/><text fill="#000000" font-family="sans-serif" font-size="13" lengthAdjust="spacing" textLength="72" x="79" y="991.998">early return</text><path d="M10,1018.7402 L77,1018.7402 L77,1026.0508 L67,1036.0508 L10,1036.0508 L10,1018.7402 " fill="#EEEEEE" style="stroke:#000000;stroke-width:1.5;"/><rect fill="none" height="329.7949" style="stroke:#000000;stroke-width:1.5;" width="1024" x="10" y="1018.7402"/><text fill="#000000" font-family="sans-serif" font-size="13" font-weight="bold" lengthAdjust="spacing" textLength="22" x="25" y="1032.3086">opt</text><text fill="#000000" font-family="sans-serif" font-size="11" font-weight="bold" lengthAdjust="spacing" textLength="116" x="92" y="1031.375">[when game is draw]</text><polygon fill="#181818" points="406,1056.3613,416,1060.3613,406,1064.3613,410,1060.3613" style="stroke:#181818;stroke-width:1.0;"/><line style="stroke:#181818;stroke-width:1.0;" x1="201" x2="412" y1="1060.3613" y2="1060.3613"/><text fill="#000000" font-family="sans-serif" font-size="13" lengthAdjust="spacing" textLength="124" x="208" y="1055.6191">check game is draw</text><path d="M433,1041.0508 L433,1066.0508 L669,1066.0508 L669,1051.0508 L659,1041.0508 L433,1041.0508 " fill="#FEFFDD" style="stroke:#181818;stroke-width:0.5;"/><path d="M659,1041.0508 L659,1051.0508 L669,1051.0508 L659,1041.0508 " fill="#FEFFDD" style="stroke:#181818;stroke-width:0.5;"/><text fill="#000000" font-family="sans-serif" font-size="13" lengthAdjust="spacing" textLength="215" x="439" y="1058.6191">All grids are occupied with marks.</text><line style="stroke:#181818;stroke-width:1.0;" x1="428" x2="470" y1="1092.6719" y2="1092.6719"/><line style="stroke:#181818;stroke-width:1.0;" x1="470" x2="470" y1="1092.6719" y2="1105.6719"/><line style="stroke:#181818;stroke-width:1.0;" x1="429" x2="470" y1="1105.6719" y2="1105.6719"/><polygon fill="#181818" points="439,1101.6719,429,1105.6719,439,1109.6719,435,1105.6719" style="stroke:#181818;stroke-width:1.0;"/><text fill="#000000" font-family="sans-serif" font-size="13" lengthAdjust="spacing" textLength="256" x="435" y="1087.9297">checkGameEndWithDraw(gamePlayerKey)</text><polygon fill="#181818" points="212,1130.9824,202,1134.9824,212,1138.9824,208,1134.9824" style="stroke:#181818;stroke-width:1.0;"/><line style="stroke:#181818;stroke-width:1.0;stroke-dasharray:2.0,2.0;" x1="206" x2="422" y1="1134.9824" y2="1134.9824"/><text fill="#000000" font-family="sans-serif" font-size="13" lengthAdjust="spacing" textLength="50" x="218" y="1130.2402">boolean</text><polygon fill="#181818" points="740,1163.293,750,1167.293,740,1171.293,744,1167.293" style="stroke:#181818;stroke-width:1.0;"/><line style="stroke:#181818;stroke-width:1.0;" x1="201" x2="746" y1="1167.293" y2="1167.293"/><text fill="#000000" font-family="sans-serif" font-size="13" lengthAdjust="spacing" textLength="149" x="208" y="1162.5508">setGameEndWithDraw( )</text><path d="M767,1147.9824 L767,1172.9824 L1029,1172.9824 L1029,1157.9824 L1019,1147.9824 L767,1147.9824 " fill="#FEFFDD" style="stroke:#181818;stroke-width:0.5;"/><path d="M1019,1147.9824 L1019,1157.9824 L1029,1157.9824 L1019,1147.9824 " fill="#FEFFDD" style="stroke:#181818;stroke-width:0.5;"/><text fill="#000000" font-family="sans-serif" font-size="13" lengthAdjust="spacing" textLength="241" x="773" y="1165.5508">gameMode: ON_GAME -&gt; GAME_OVER</text><line style="stroke:#181818;stroke-width:1.0;" x1="762" x2="809" y1="1194.6035" y2="1194.6035"/><line style="stroke:#181818;stroke-width:1.0;" x1="809" x2="809" y1="1194.6035" y2="1207.6035"/><line style="stroke:#181818;stroke-width:1.0;" x1="768" x2="809" y1="1207.6035" y2="1207.6035"/><polygon fill="#181818" points="778,1203.6035,768,1207.6035,778,1211.6035,774,1207.6035" style="stroke:#181818;stroke-width:1.0;"/><text fill="#000000" font-family="sans-serif" font-size="13" lengthAdjust="spacing" textLength="85" x="774" y="1189.8613">setGameEnd()</text><line style="stroke:#181818;stroke-width:1.0;" x1="767" x2="809" y1="1241.9141" y2="1241.9141"/><line style="stroke:#181818;stroke-width:1.0;" x1="809" x2="809" y1="1241.9141" y2="1254.9141"/><line style="stroke:#181818;stroke-width:1.0;" x1="768" x2="809" y1="1254.9141" y2="1254.9141"/><polygon fill="#181818" points="778,1250.9141,768,1254.9141,778,1258.9141,774,1254.9141" style="stroke:#181818;stroke-width:1.0;"/><text fill="#000000" font-family="sans-serif" font-size="13" lengthAdjust="spacing" textLength="180" x="774" y="1237.1719">setGameModeToGameOver( )</text><line style="stroke:#181818;stroke-width:1.0;" x1="767" x2="809" y1="1284.2246" y2="1284.2246"/><line style="stroke:#181818;stroke-width:1.0;" x1="809" x2="809" y1="1284.2246" y2="1297.2246"/><line style="stroke:#181818;stroke-width:1.0;" x1="768" x2="809" y1="1297.2246" y2="1297.2246"/><polygon fill="#181818" points="778,1293.2246,768,1297.2246,778,1301.2246,774,1297.2246" style="stroke:#181818;stroke-width:1.0;"/><text fill="#000000" font-family="sans-serif" font-size="13" lengthAdjust="spacing" textLength="139" x="774" y="1279.4824">setGameResult(DRAW)</text><polygon fill="#181818" points="212,1307.2246,202,1311.2246,212,1315.2246,208,1311.2246" style="stroke:#181818;stroke-width:1.0;"/><line style="stroke:#181818;stroke-width:1.0;stroke-dasharray:2.0,2.0;" x1="206" x2="756" y1="1311.2246" y2="1311.2246"/><polygon fill="#181818" points="73,1336.5352,63,1340.5352,73,1344.5352,69,1340.5352" style="stroke:#181818;stroke-width:1.0;"/><line style="stroke:#181818;stroke-width:1.0;stroke-dasharray:2.0,2.0;" x1="67" x2="190" y1="1340.5352" y2="1340.5352"/><text fill="#000000" font-family="sans-serif" font-size="13" lengthAdjust="spacing" textLength="72" x="79" y="1335.793">early return</text><polygon fill="#181818" points="949,1383.501,959,1387.501,949,1391.501,953,1387.501" style="stroke:#181818;stroke-width:1.0;"/><line style="stroke:#181818;stroke-width:1.0;" x1="201" x2="955" y1="1387.501" y2="1387.501"/><text fill="#000000" font-family="sans-serif" font-size="13" lengthAdjust="spacing" textLength="133" x="208" y="1382.7588">go to next game turn</text><path d="M976,1360.5352 L976,1400.5352 L1245,1400.5352 L1245,1370.5352 L1235,1360.5352 L976,1360.5352 " fill="#FEFFDD" style="stroke:#181818;stroke-width:0.5;"/><path d="M1235,1360.5352 L1235,1370.5352 L1245,1370.5352 L1235,1360.5352 " fill="#FEFFDD" style="stroke:#181818;stroke-width:0.5;"/><text fill="#000000" font-family="sans-serif" font-size="13" lengthAdjust="spacing" textLength="248" x="982" y="1378.1035">Go to next turn, and change turn player</text><text fill="#000000" font-family="sans-serif" font-size="13" lengthAdjust="spacing" textLength="161" x="982" y="1393.4141">when game does not end.</text><line style="stroke:#181818;stroke-width:1.0;" x1="971" x2="1018" y1="1422.4668" y2="1422.4668"/><line style="stroke:#181818;stroke-width:1.0;" x1="1018" x2="1018" y1="1422.4668" y2="1435.4668"/><line style="stroke:#181818;stroke-width:1.0;" x1="977" x2="1018" y1="1435.4668" y2="1435.4668"/><polygon fill="#181818" points="987,1431.4668,977,1435.4668,987,1439.4668,983,1435.4668" style="stroke:#181818;stroke-width:1.0;"/><text fill="#000000" font-family="sans-serif" font-size="13" lengthAdjust="spacing" textLength="127" x="983" y="1417.7246">advanceGameTurn( )</text><line style="stroke:#181818;stroke-width:1.0;" x1="976" x2="1018" y1="1469.7773" y2="1469.7773"/><line style="stroke:#181818;stroke-width:1.0;" x1="1018" x2="1018" y1="1469.7773" y2="1482.7773"/><line style="stroke:#181818;stroke-width:1.0;" x1="977" x2="1018" y1="1482.7773" y2="1482.7773"/><polygon fill="#181818" points="987,1478.7773,977,1482.7773,987,1486.7773,983,1482.7773" style="stroke:#181818;stroke-width:1.0;"/><text fill="#000000" font-family="sans-serif" font-size="13" lengthAdjust="spacing" textLength="128" x="983" y="1465.0352">increaseGameTurn( )</text><line style="stroke:#181818;stroke-width:1.0;" x1="976" x2="1018" y1="1512.0879" y2="1512.0879"/><line style="stroke:#181818;stroke-width:1.0;" x1="1018" x2="1018" y1="1512.0879" y2="1525.0879"/><line style="stroke:#181818;stroke-width:1.0;" x1="977" x2="1018" y1="1525.0879" y2="1525.0879"/><polygon fill="#181818" points="987,1521.0879,977,1525.0879,987,1529.0879,983,1525.0879" style="stroke:#181818;stroke-width:1.0;"/><text fill="#000000" font-family="sans-serif" font-size="13" lengthAdjust="spacing" textLength="193" x="983" y="1507.3457">toggleGamePlayerKeyOnTurn( )</text><polygon fill="#181818" points="212,1535.0879,202,1539.0879,212,1543.0879,208,1539.0879" style="stroke:#181818;stroke-width:1.0;"/><line style="stroke:#181818;stroke-width:1.0;stroke-dasharray:2.0,2.0;" x1="206" x2="965" y1="1539.0879" y2="1539.0879"/><polygon fill="#181818" points="73,1549.0879,63,1553.0879,73,1557.0879,69,1553.0879" style="stroke:#181818;stroke-width:1.0;"/><line style="stroke:#181818;stroke-width:1.0;stroke-dasharray:2.0,2.0;" x1="67" x2="195" y1="1553.0879" y2="1553.0879"/><!--MD5=[953aa187a8029a0ab06d9ff12e10a368]
@startuml
title Grid Select Sequence
hide footbox

Actor "Turn Player" as Player
participant "TicTacToeView.tsx" as TicTacToeView
participant "GameGridContext.tsx" as GameGrid
participant "GameStateContext.tsx" as GameState
participant "GameTurnContext.tsx" as GameTurn

Player -> TicTacToeView: selectGameGrid( )
activate TicTacToeView

opt when game is over
    TicTacToeView -> GameState: check game is over
    activate GameState
    GameState -> GameState: gameMode !== 'ON_GAME'
    GameState - -> TicTacToeView: boolean
    deactivate GameState
    TicTacToeView - -> Player: early return
end

TicTacToeView -> GameGrid: get grid data in (row, col)
activate GameGrid
GameGrid -> GameGrid: getGameGrid(row, col)
GameGrid - -> TicTacToeView: selectedGameGrid
deactivate GameGrid

opt when selected grid is already occupied
    TicTacToeView -> GameGrid: check selected grid is occupied
    activate GameGrid
    GameGrid -> GameGrid: selectedGameGrid.occupied === true
    GameGrid - -> TicTacToeView:boolean
    deactivate GameGrid
    TicTacToeView - -> Player: early return
end

TicTacToeView -> GameGrid: set grid data in (row, col)
activate GameGrid
GameGrid -> GameGrid: setGameGrid(row, col, gamePlayerKey, gameTurn)
GameGrid - -> TicTacToeView:
deactivate GameGrid

opt when player wins
    TicTacToeView -> GameGrid: check player wins
    note right
    	 Three same marks are placed in horizontal, vertical, or diagonal row.
    end note
    activate GameGrid
    GameGrid -> GameGrid: checkGameEndWithWin(gamePlayerKey)
    GameGrid - -> TicTacToeView: boolean
    deactivate GameGrid

    TicTacToeView -> GameState: setGameEndWithWin(gamePlayerKey)
    note right
    	 gameMode: ON_GAME -> GAME_OVER
    end note
    activate GameState
    GameState -> GameState: setGameEnd()
    activate GameState
    GameState -> GameState: setGameModeToGameOver( )
    GameState -> GameState: setGameResult(PLAYER_WIN)
    GameState - -> TicTacToeView
    deactivate GameState
    deactivate GameState
    TicTacToeView - -> Player: early return
end

opt when game is draw
    TicTacToeView -> GameGrid: check game is draw
    note right
    	 All grids are occupied with marks.
    end note
    activate GameGrid
    GameGrid -> GameGrid: checkGameEndWithDraw(gamePlayerKey)
    GameGrid - -> TicTacToeView: boolean
    deactivate GameGrid
    deactivate GameGrid
    TicTacToeView -> GameState: setGameEndWithDraw( )
    note right
    	 gameMode: ON_GAME -> GAME_OVER
    end note
    activate GameState
    GameState -> GameState: setGameEnd()
    activate GameState
    GameState -> GameState: setGameModeToGameOver( )
    GameState -> GameState: setGameResult(DRAW)
    GameState - -> TicTacToeView
    deactivate GameState
    deactivate GameState
    TicTacToeView - -> Player: early return
end

TicTacToeView -> GameTurn: go to next game turn
note right
     Go to next turn, and change turn player
     when game does not end.
end note
activate GameTurn
GameTurn -> GameTurn: advanceGameTurn( )
activate GameTurn
GameTurn -> GameTurn: increaseGameTurn( )
GameTurn -> GameTurn: toggleGamePlayerKeyOnTurn( )
GameTurn - -> TicTacToeView
deactivate GameTurn
deactivate GameTurn
TicTacToeView - -> Player: 
deactivate TicTacToeView

@enduml

PlantUML version 1.2022.13(Sat Nov 19 22:22:17 JST 2022)
(GPL source distribution)
Java Runtime: OpenJDK Runtime Environment
JVM: OpenJDK 64-Bit Server VM
Default Encoding: UTF-8
Language: ja
Country: JP
--></g></svg>