<?xml version="1.0" encoding="UTF-8" standalone="no"?><svg xmlns="http://www.w3.org/2000/svg" xmlns:xlink="http://www.w3.org/1999/xlink" contentScriptType="application/ecmascript" contentStyleType="text/css" height="1679px" preserveAspectRatio="none" style="width:1296px;height:1679px;" version="1.1" viewBox="0 0 1296 1679" width="1296px" zoomAndPan="magnify"><defs><filter height="300%" id="f1gth28nbour07" width="300%" x="-1" y="-1"><feGaussianBlur result="blurOut" stdDeviation="2.0"/><feColorMatrix in="blurOut" result="blurOut2" type="matrix" values="0 0 0 0 0 0 0 0 0 0 0 0 0 0 0 0 0 0 .4 0"/><feOffset dx="4.0" dy="4.0" in="blurOut2" result="blurOut3"/><feBlend in="SourceGraphic" in2="blurOut3" mode="normal"/></filter></defs><g><text fill="#000000" font-family="sans-serif" font-size="18" lengthAdjust="spacingAndGlyphs" textLength="190" x="550.75" y="26.708">Grid Select Sequence</text><rect fill="#FFFFFF" filter="url(#f1gth28nbour07)" height="1497.0469" style="stroke: #A80036; stroke-width: 1.0;" width="10" x="200.5" y="152.3828"/><rect fill="#FFFFFF" filter="url(#f1gth28nbour07)" height="71.2656" style="stroke: #A80036; stroke-width: 1.0;" width="10" x="427.5" y="342.1797"/><rect fill="#FFFFFF" filter="url(#f1gth28nbour07)" height="71.2656" style="stroke: #A80036; stroke-width: 1.0;" width="10" x="427.5" y="466.7109"/><rect fill="#FFFFFF" filter="url(#f1gth28nbour07)" height="56.1328" style="stroke: #A80036; stroke-width: 1.0;" width="10" x="427.5" y="603.2422"/><rect fill="#FFFFFF" filter="url(#f1gth28nbour07)" height="76.2656" style="stroke: #A80036; stroke-width: 1.0;" width="10" x="427.5" y="717.6406"/><rect fill="#FFFFFF" filter="url(#f1gth28nbour07)" height="76.2656" style="stroke: #A80036; stroke-width: 1.0;" width="10" x="427.5" y="1094.8359"/><rect fill="#FFFFFF" filter="url(#f1gth28nbour07)" height="71.2656" style="stroke: #A80036; stroke-width: 1.0;" width="10" x="774.5" y="205.6484"/><rect fill="#FFFFFF" filter="url(#f1gth28nbour07)" height="172.3984" style="stroke: #A80036; stroke-width: 1.0;" width="10" x="774.5" y="828.0391"/><rect fill="#FFFFFF" filter="url(#f1gth28nbour07)" height="109.2656" style="stroke: #A80036; stroke-width: 1.0;" width="10" x="779.5" y="870.1719"/><rect fill="#FFFFFF" filter="url(#f1gth28nbour07)" height="172.3984" style="stroke: #A80036; stroke-width: 1.0;" width="10" x="774.5" y="1205.2344"/><rect fill="#FFFFFF" filter="url(#f1gth28nbour07)" height="109.2656" style="stroke: #A80036; stroke-width: 1.0;" width="10" x="779.5" y="1247.3672"/><rect fill="#FFFFFF" filter="url(#f1gth28nbour07)" height="202.9648" style="stroke: #A80036; stroke-width: 1.0;" width="10" x="995.5" y="1455.4648"/><rect fill="#FFFFFF" filter="url(#f1gth28nbour07)" height="109.2656" style="stroke: #A80036; stroke-width: 1.0;" width="10" x="1000.5" y="1505.1641"/><rect fill="#FFFFFF" filter="url(#f1gth28nbour07)" height="146.6641" style="stroke: #000000; stroke-width: 2.0;" width="968.5" x="13" y="167.3828"/><rect fill="#FFFFFF" filter="url(#f1gth28nbour07)" height="146.6641" style="stroke: #000000; stroke-width: 2.0;" width="690.5" x="13" y="428.4453"/><rect fill="#FFFFFF" filter="url(#f1gth28nbour07)" height="363.1953" style="stroke: #000000; stroke-width: 2.0;" width="1055.5" x="13" y="674.375"/><rect fill="#FFFFFF" filter="url(#f1gth28nbour07)" height="363.1953" style="stroke: #000000; stroke-width: 2.0;" width="1055.5" x="13" y="1051.5703"/><line style="stroke: #A80036; stroke-width: 1.0; stroke-dasharray: 5.0,5.0;" x1="64" x2="64" y1="121.25" y2="1667.4297"/><line style="stroke: #A80036; stroke-width: 1.0; stroke-dasharray: 5.0,5.0;" x1="205.5" x2="205.5" y1="121.25" y2="1667.4297"/><line style="stroke: #A80036; stroke-width: 1.0; stroke-dasharray: 5.0,5.0;" x1="432" x2="432" y1="121.25" y2="1667.4297"/><line style="stroke: #A80036; stroke-width: 1.0; stroke-dasharray: 5.0,5.0;" x1="779" x2="779" y1="121.25" y2="1667.4297"/><line style="stroke: #A80036; stroke-width: 1.0; stroke-dasharray: 5.0,5.0;" x1="1000" x2="1000" y1="121.25" y2="1667.4297"/><text fill="#000000" font-family="sans-serif" font-size="14" lengthAdjust="spacingAndGlyphs" textLength="77" x="23" y="117.9482">Turn Player</text><ellipse cx="64.5" cy="47.9531" fill="#FEFECE" filter="url(#f1gth28nbour07)" rx="8" ry="8" style="stroke: #A80036; stroke-width: 2.0;"/><path d="M64.5,55.9531 L64.5,82.9531 M51.5,63.9531 L77.5,63.9531 M64.5,82.9531 L51.5,97.9531 M64.5,82.9531 L77.5,97.9531 " fill="none" filter="url(#f1gth28nbour07)" style="stroke: #A80036; stroke-width: 2.0;"/><rect fill="#FEFECE" filter="url(#f1gth28nbour07)" height="30.2969" style="stroke: #A80036; stroke-width: 1.5;" width="118" x="144.5" y="85.9531"/><text fill="#000000" font-family="sans-serif" font-size="14" lengthAdjust="spacingAndGlyphs" textLength="104" x="151.5" y="105.9482">TicTacToeView</text><rect fill="#FEFECE" filter="url(#f1gth28nbour07)" height="30.2969" style="stroke: #A80036; stroke-width: 1.5;" width="137" x="362" y="85.9531"/><text fill="#000000" font-family="sans-serif" font-size="14" lengthAdjust="spacingAndGlyphs" textLength="123" x="369" y="105.9482">GameGridContext</text><rect fill="#FEFECE" filter="url(#f1gth28nbour07)" height="30.2969" style="stroke: #A80036; stroke-width: 1.5;" width="145" x="705" y="85.9531"/><text fill="#000000" font-family="sans-serif" font-size="14" lengthAdjust="spacingAndGlyphs" textLength="131" x="712" y="105.9482">GameStateContext</text><rect fill="#FEFECE" filter="url(#f1gth28nbour07)" height="30.2969" style="stroke: #A80036; stroke-width: 1.5;" width="141" x="928" y="85.9531"/><text fill="#000000" font-family="sans-serif" font-size="14" lengthAdjust="spacingAndGlyphs" textLength="127" x="935" y="105.9482">GameTurnContext</text><rect fill="#FFFFFF" filter="url(#f1gth28nbour07)" height="1497.0469" style="stroke: #A80036; stroke-width: 1.0;" width="10" x="200.5" y="152.3828"/><rect fill="#FFFFFF" filter="url(#f1gth28nbour07)" height="71.2656" style="stroke: #A80036; stroke-width: 1.0;" width="10" x="427.5" y="342.1797"/><rect fill="#FFFFFF" filter="url(#f1gth28nbour07)" height="71.2656" style="stroke: #A80036; stroke-width: 1.0;" width="10" x="427.5" y="466.7109"/><rect fill="#FFFFFF" filter="url(#f1gth28nbour07)" height="56.1328" style="stroke: #A80036; stroke-width: 1.0;" width="10" x="427.5" y="603.2422"/><rect fill="#FFFFFF" filter="url(#f1gth28nbour07)" height="76.2656" style="stroke: #A80036; stroke-width: 1.0;" width="10" x="427.5" y="717.6406"/><rect fill="#FFFFFF" filter="url(#f1gth28nbour07)" height="76.2656" style="stroke: #A80036; stroke-width: 1.0;" width="10" x="427.5" y="1094.8359"/><rect fill="#FFFFFF" filter="url(#f1gth28nbour07)" height="71.2656" style="stroke: #A80036; stroke-width: 1.0;" width="10" x="774.5" y="205.6484"/><rect fill="#FFFFFF" filter="url(#f1gth28nbour07)" height="172.3984" style="stroke: #A80036; stroke-width: 1.0;" width="10" x="774.5" y="828.0391"/><rect fill="#FFFFFF" filter="url(#f1gth28nbour07)" height="109.2656" style="stroke: #A80036; stroke-width: 1.0;" width="10" x="779.5" y="870.1719"/><rect fill="#FFFFFF" filter="url(#f1gth28nbour07)" height="172.3984" style="stroke: #A80036; stroke-width: 1.0;" width="10" x="774.5" y="1205.2344"/><rect fill="#FFFFFF" filter="url(#f1gth28nbour07)" height="109.2656" style="stroke: #A80036; stroke-width: 1.0;" width="10" x="779.5" y="1247.3672"/><rect fill="#FFFFFF" filter="url(#f1gth28nbour07)" height="202.9648" style="stroke: #A80036; stroke-width: 1.0;" width="10" x="995.5" y="1455.4648"/><rect fill="#FFFFFF" filter="url(#f1gth28nbour07)" height="109.2656" style="stroke: #A80036; stroke-width: 1.0;" width="10" x="1000.5" y="1505.1641"/><polygon fill="#A80036" points="188.5,148.3828,198.5,152.3828,188.5,156.3828,192.5,152.3828" style="stroke: #A80036; stroke-width: 1.0;"/><line style="stroke: #A80036; stroke-width: 1.0;" x1="64.5" x2="194.5" y1="152.3828" y2="152.3828"/><text fill="#000000" font-family="sans-serif" font-size="13" lengthAdjust="spacingAndGlyphs" textLength="117" x="71.5" y="147.3169">selectGameGrid( )</text><path d="M13,167.3828 L83,167.3828 L83,174.3828 L73,184.3828 L13,184.3828 L13,167.3828 " fill="#EEEEEE" style="stroke: #000000; stroke-width: 1.0;"/><rect fill="none" height="146.6641" style="stroke: #000000; stroke-width: 2.0;" width="968.5" x="13" y="167.3828"/><text fill="#000000" font-family="sans-serif" font-size="13" font-weight="bold" lengthAdjust="spacingAndGlyphs" textLength="25" x="28" y="180.4497">opt</text><text fill="#000000" font-family="sans-serif" font-size="11" font-weight="bold" lengthAdjust="spacingAndGlyphs" textLength="131" x="98" y="179.5933">[when game is over]</text><polygon fill="#A80036" points="762.5,201.6484,772.5,205.6484,762.5,209.6484,766.5,205.6484" style="stroke: #A80036; stroke-width: 1.0;"/><line style="stroke: #A80036; stroke-width: 1.0;" x1="210.5" x2="768.5" y1="205.6484" y2="205.6484"/><text fill="#000000" font-family="sans-serif" font-size="13" lengthAdjust="spacingAndGlyphs" textLength="124" x="217.5" y="200.5825">check game is over</text><line style="stroke: #A80036; stroke-width: 1.0;" x1="784.5" x2="826.5" y1="234.7813" y2="234.7813"/><line style="stroke: #A80036; stroke-width: 1.0;" x1="826.5" x2="826.5" y1="234.7813" y2="247.7813"/><line style="stroke: #A80036; stroke-width: 1.0;" x1="785.5" x2="826.5" y1="247.7813" y2="247.7813"/><polygon fill="#A80036" points="795.5,243.7813,785.5,247.7813,795.5,251.7813,791.5,247.7813" style="stroke: #A80036; stroke-width: 1.0;"/><text fill="#000000" font-family="sans-serif" font-size="13" lengthAdjust="spacingAndGlyphs" textLength="178" x="791.5" y="229.7153">gameMode !== 'ON_GAME'</text><polygon fill="#A80036" points="221.5,272.9141,211.5,276.9141,221.5,280.9141,217.5,276.9141" style="stroke: #A80036; stroke-width: 1.0;"/><line style="stroke: #A80036; stroke-width: 1.0; stroke-dasharray: 2.0,2.0;" x1="215.5" x2="778.5" y1="276.9141" y2="276.9141"/><text fill="#000000" font-family="sans-serif" font-size="13" lengthAdjust="spacingAndGlyphs" textLength="51" x="227.5" y="271.8481">boolean</text><polygon fill="#A80036" points="75.5,302.0469,65.5,306.0469,75.5,310.0469,71.5,306.0469" style="stroke: #A80036; stroke-width: 1.0;"/><line style="stroke: #A80036; stroke-width: 1.0; stroke-dasharray: 2.0,2.0;" x1="69.5" x2="199.5" y1="306.0469" y2="306.0469"/><text fill="#000000" font-family="sans-serif" font-size="13" lengthAdjust="spacingAndGlyphs" textLength="74" x="81.5" y="300.981">early return</text><polygon fill="#A80036" points="415.5,338.1797,425.5,342.1797,415.5,346.1797,419.5,342.1797" style="stroke: #A80036; stroke-width: 1.0;"/><line style="stroke: #A80036; stroke-width: 1.0;" x1="210.5" x2="421.5" y1="342.1797" y2="342.1797"/><text fill="#000000" font-family="sans-serif" font-size="13" lengthAdjust="spacingAndGlyphs" textLength="159" x="217.5" y="337.1138">get grid data in (row, col)</text><line style="stroke: #A80036; stroke-width: 1.0;" x1="437.5" x2="479.5" y1="371.3125" y2="371.3125"/><line style="stroke: #A80036; stroke-width: 1.0;" x1="479.5" x2="479.5" y1="371.3125" y2="384.3125"/><line style="stroke: #A80036; stroke-width: 1.0;" x1="438.5" x2="479.5" y1="384.3125" y2="384.3125"/><polygon fill="#A80036" points="448.5,380.3125,438.5,384.3125,448.5,388.3125,444.5,384.3125" style="stroke: #A80036; stroke-width: 1.0;"/><text fill="#000000" font-family="sans-serif" font-size="13" lengthAdjust="spacingAndGlyphs" textLength="144" x="444.5" y="366.2466">getGameGrid(row, col)</text><polygon fill="#A80036" points="221.5,409.4453,211.5,413.4453,221.5,417.4453,217.5,413.4453" style="stroke: #A80036; stroke-width: 1.0;"/><line style="stroke: #A80036; stroke-width: 1.0; stroke-dasharray: 2.0,2.0;" x1="215.5" x2="431.5" y1="413.4453" y2="413.4453"/><text fill="#000000" font-family="sans-serif" font-size="13" lengthAdjust="spacingAndGlyphs" textLength="119" x="227.5" y="408.3794">selectedGameGrid</text><path d="M13,428.4453 L83,428.4453 L83,435.4453 L73,445.4453 L13,445.4453 L13,428.4453 " fill="#EEEEEE" style="stroke: #000000; stroke-width: 1.0;"/><rect fill="none" height="146.6641" style="stroke: #000000; stroke-width: 2.0;" width="690.5" x="13" y="428.4453"/><text fill="#000000" font-family="sans-serif" font-size="13" font-weight="bold" lengthAdjust="spacingAndGlyphs" textLength="25" x="28" y="441.5122">opt</text><text fill="#000000" font-family="sans-serif" font-size="11" font-weight="bold" lengthAdjust="spacingAndGlyphs" textLength="262" x="98" y="440.6558">[when selected grid is already occupied]</text><polygon fill="#A80036" points="415.5,462.7109,425.5,466.7109,415.5,470.7109,419.5,466.7109" style="stroke: #A80036; stroke-width: 1.0;"/><line style="stroke: #A80036; stroke-width: 1.0;" x1="210.5" x2="421.5" y1="466.7109" y2="466.7109"/><text fill="#000000" font-family="sans-serif" font-size="13" lengthAdjust="spacingAndGlyphs" textLength="198" x="217.5" y="461.645">check selected grid is occupied</text><line style="stroke: #A80036; stroke-width: 1.0;" x1="437.5" x2="479.5" y1="495.8438" y2="495.8438"/><line style="stroke: #A80036; stroke-width: 1.0;" x1="479.5" x2="479.5" y1="495.8438" y2="508.8438"/><line style="stroke: #A80036; stroke-width: 1.0;" x1="438.5" x2="479.5" y1="508.8438" y2="508.8438"/><polygon fill="#A80036" points="448.5,504.8438,438.5,508.8438,448.5,512.8438,444.5,508.8438" style="stroke: #A80036; stroke-width: 1.0;"/><text fill="#000000" font-family="sans-serif" font-size="13" lengthAdjust="spacingAndGlyphs" textLength="247" x="444.5" y="490.7778">selectedGameGrid.occupied === true</text><polygon fill="#A80036" points="221.5,533.9766,211.5,537.9766,221.5,541.9766,217.5,537.9766" style="stroke: #A80036; stroke-width: 1.0;"/><line style="stroke: #A80036; stroke-width: 1.0; stroke-dasharray: 2.0,2.0;" x1="215.5" x2="431.5" y1="537.9766" y2="537.9766"/><text fill="#000000" font-family="sans-serif" font-size="13" lengthAdjust="spacingAndGlyphs" textLength="51" x="227.5" y="532.9106">boolean</text><polygon fill="#A80036" points="75.5,563.1094,65.5,567.1094,75.5,571.1094,71.5,567.1094" style="stroke: #A80036; stroke-width: 1.0;"/><line style="stroke: #A80036; stroke-width: 1.0; stroke-dasharray: 2.0,2.0;" x1="69.5" x2="199.5" y1="567.1094" y2="567.1094"/><text fill="#000000" font-family="sans-serif" font-size="13" lengthAdjust="spacingAndGlyphs" textLength="74" x="81.5" y="562.0435">early return</text><polygon fill="#A80036" points="415.5,599.2422,425.5,603.2422,415.5,607.2422,419.5,603.2422" style="stroke: #A80036; stroke-width: 1.0;"/><line style="stroke: #A80036; stroke-width: 1.0;" x1="210.5" x2="421.5" y1="603.2422" y2="603.2422"/><text fill="#000000" font-family="sans-serif" font-size="13" lengthAdjust="spacingAndGlyphs" textLength="158" x="217.5" y="598.1763">set grid data in (row, col)</text><line style="stroke: #A80036; stroke-width: 1.0;" x1="437.5" x2="479.5" y1="632.375" y2="632.375"/><line style="stroke: #A80036; stroke-width: 1.0;" x1="479.5" x2="479.5" y1="632.375" y2="645.375"/><line style="stroke: #A80036; stroke-width: 1.0;" x1="438.5" x2="479.5" y1="645.375" y2="645.375"/><polygon fill="#A80036" points="448.5,641.375,438.5,645.375,448.5,649.375,444.5,645.375" style="stroke: #A80036; stroke-width: 1.0;"/><text fill="#000000" font-family="sans-serif" font-size="13" lengthAdjust="spacingAndGlyphs" textLength="323" x="444.5" y="627.3091">setGameGrid(row, col, gamePlayerKey, gameTurn)</text><polygon fill="#A80036" points="221.5,655.375,211.5,659.375,221.5,663.375,217.5,659.375" style="stroke: #A80036; stroke-width: 1.0;"/><line style="stroke: #A80036; stroke-width: 1.0; stroke-dasharray: 2.0,2.0;" x1="215.5" x2="431.5" y1="659.375" y2="659.375"/><path d="M13,674.375 L83,674.375 L83,681.375 L73,691.375 L13,691.375 L13,674.375 " fill="#EEEEEE" style="stroke: #000000; stroke-width: 1.0;"/><rect fill="none" height="363.1953" style="stroke: #000000; stroke-width: 2.0;" width="1055.5" x="13" y="674.375"/><text fill="#000000" font-family="sans-serif" font-size="13" font-weight="bold" lengthAdjust="spacingAndGlyphs" textLength="25" x="28" y="687.4419">opt</text><text fill="#000000" font-family="sans-serif" font-size="11" font-weight="bold" lengthAdjust="spacingAndGlyphs" textLength="123" x="98" y="686.5854">[when player wins]</text><polygon fill="#A80036" points="415.5,713.6406,425.5,717.6406,415.5,721.6406,419.5,717.6406" style="stroke: #A80036; stroke-width: 1.0;"/><line style="stroke: #A80036; stroke-width: 1.0;" x1="210.5" x2="421.5" y1="717.6406" y2="717.6406"/><text fill="#000000" font-family="sans-serif" font-size="13" lengthAdjust="spacingAndGlyphs" textLength="111" x="217.5" y="712.5747">check player wins</text><path d="M442,696.5078 L442,721.5078 L899,721.5078 L899,706.5078 L889,696.5078 L442,696.5078 " fill="#FBFB77" filter="url(#f1gth28nbour07)" style="stroke: #A80036; stroke-width: 1.0;"/><path d="M889,696.5078 L889,706.5078 L899,706.5078 L889,696.5078 " fill="#FBFB77" style="stroke: #A80036; stroke-width: 1.0;"/><text fill="#000000" font-family="sans-serif" font-size="13" lengthAdjust="spacingAndGlyphs" textLength="436" x="448" y="713.5747">Three same marks are placed in horizontal, vertical, or diagonal row.</text><line style="stroke: #A80036; stroke-width: 1.0;" x1="437.5" x2="479.5" y1="751.7734" y2="751.7734"/><line style="stroke: #A80036; stroke-width: 1.0;" x1="479.5" x2="479.5" y1="751.7734" y2="764.7734"/><line style="stroke: #A80036; stroke-width: 1.0;" x1="438.5" x2="479.5" y1="764.7734" y2="764.7734"/><polygon fill="#A80036" points="448.5,760.7734,438.5,764.7734,448.5,768.7734,444.5,764.7734" style="stroke: #A80036; stroke-width: 1.0;"/><text fill="#000000" font-family="sans-serif" font-size="13" lengthAdjust="spacingAndGlyphs" textLength="258" x="444.5" y="746.7075">checkGameEndWithWin(gamePlayerKey)</text><polygon fill="#A80036" points="221.5,789.9063,211.5,793.9063,221.5,797.9063,217.5,793.9063" style="stroke: #A80036; stroke-width: 1.0;"/><line style="stroke: #A80036; stroke-width: 1.0; stroke-dasharray: 2.0,2.0;" x1="215.5" x2="431.5" y1="793.9063" y2="793.9063"/><text fill="#000000" font-family="sans-serif" font-size="13" lengthAdjust="spacingAndGlyphs" textLength="51" x="227.5" y="788.8403">boolean</text><polygon fill="#A80036" points="762.5,824.0391,772.5,828.0391,762.5,832.0391,766.5,828.0391" style="stroke: #A80036; stroke-width: 1.0;"/><line style="stroke: #A80036; stroke-width: 1.0;" x1="210.5" x2="768.5" y1="828.0391" y2="828.0391"/><text fill="#000000" font-family="sans-serif" font-size="13" lengthAdjust="spacingAndGlyphs" textLength="241" x="217.5" y="822.9731">setGameEndWithWin(gamePlayerKey)</text><path d="M789,806.9063 L789,831.9063 L1059,831.9063 L1059,816.9063 L1049,806.9063 L789,806.9063 " fill="#FBFB77" filter="url(#f1gth28nbour07)" style="stroke: #A80036; stroke-width: 1.0;"/><path d="M1049,806.9063 L1049,816.9063 L1059,816.9063 L1049,806.9063 " fill="#FBFB77" style="stroke: #A80036; stroke-width: 1.0;"/><text fill="#000000" font-family="sans-serif" font-size="13" lengthAdjust="spacingAndGlyphs" textLength="249" x="795" y="823.9731">gameMode: ON_GAME -&gt; GAME_OVER</text><line style="stroke: #A80036; stroke-width: 1.0;" x1="784.5" x2="831.5" y1="857.1719" y2="857.1719"/><line style="stroke: #A80036; stroke-width: 1.0;" x1="831.5" x2="831.5" y1="857.1719" y2="870.1719"/><line style="stroke: #A80036; stroke-width: 1.0;" x1="790.5" x2="831.5" y1="870.1719" y2="870.1719"/><polygon fill="#A80036" points="800.5,866.1719,790.5,870.1719,800.5,874.1719,796.5,870.1719" style="stroke: #A80036; stroke-width: 1.0;"/><text fill="#000000" font-family="sans-serif" font-size="13" lengthAdjust="spacingAndGlyphs" textLength="93" x="796.5" y="852.106">setGameEnd()</text><line style="stroke: #A80036; stroke-width: 1.0;" x1="789.5" x2="831.5" y1="904.3047" y2="904.3047"/><line style="stroke: #A80036; stroke-width: 1.0;" x1="831.5" x2="831.5" y1="904.3047" y2="917.3047"/><line style="stroke: #A80036; stroke-width: 1.0;" x1="790.5" x2="831.5" y1="917.3047" y2="917.3047"/><polygon fill="#A80036" points="800.5,913.3047,790.5,917.3047,800.5,921.3047,796.5,917.3047" style="stroke: #A80036; stroke-width: 1.0;"/><text fill="#000000" font-family="sans-serif" font-size="13" lengthAdjust="spacingAndGlyphs" textLength="192" x="796.5" y="899.2388">setGameModeToGameOver( )</text><line style="stroke: #A80036; stroke-width: 1.0;" x1="789.5" x2="831.5" y1="946.4375" y2="946.4375"/><line style="stroke: #A80036; stroke-width: 1.0;" x1="831.5" x2="831.5" y1="946.4375" y2="959.4375"/><line style="stroke: #A80036; stroke-width: 1.0;" x1="790.5" x2="831.5" y1="959.4375" y2="959.4375"/><polygon fill="#A80036" points="800.5,955.4375,790.5,959.4375,800.5,963.4375,796.5,959.4375" style="stroke: #A80036; stroke-width: 1.0;"/><text fill="#000000" font-family="sans-serif" font-size="13" lengthAdjust="spacingAndGlyphs" textLength="186" x="796.5" y="941.3716">setGameResult(PLAYER_WIN)</text><line style="stroke: #A80036; stroke-width: 1.0; stroke-dasharray: 2.0,2.0;" x1="789.5" x2="831.5" y1="978.4375" y2="978.4375"/><line style="stroke: #A80036; stroke-width: 1.0; stroke-dasharray: 2.0,2.0;" x1="831.5" x2="831.5" y1="978.4375" y2="991.4375"/><line style="stroke: #A80036; stroke-width: 1.0; stroke-dasharray: 2.0,2.0;" x1="784.5" x2="831.5" y1="991.4375" y2="991.4375"/><polygon fill="#A80036" points="794.5,987.4375,784.5,991.4375,794.5,995.4375,790.5,991.4375" style="stroke: #A80036; stroke-width: 1.0;"/><polygon fill="#A80036" points="221.5,996.4375,211.5,1000.4375,221.5,1004.4375,217.5,1000.4375" style="stroke: #A80036; stroke-width: 1.0;"/><line style="stroke: #A80036; stroke-width: 1.0; stroke-dasharray: 2.0,2.0;" x1="215.5" x2="778.5" y1="1000.4375" y2="1000.4375"/><polygon fill="#A80036" points="75.5,1025.5703,65.5,1029.5703,75.5,1033.5703,71.5,1029.5703" style="stroke: #A80036; stroke-width: 1.0;"/><line style="stroke: #A80036; stroke-width: 1.0; stroke-dasharray: 2.0,2.0;" x1="69.5" x2="199.5" y1="1029.5703" y2="1029.5703"/><text fill="#000000" font-family="sans-serif" font-size="13" lengthAdjust="spacingAndGlyphs" textLength="74" x="81.5" y="1024.5044">early return</text><path d="M13,1051.5703 L83,1051.5703 L83,1058.5703 L73,1068.5703 L13,1068.5703 L13,1051.5703 " fill="#EEEEEE" style="stroke: #000000; stroke-width: 1.0;"/><rect fill="none" height="363.1953" style="stroke: #000000; stroke-width: 2.0;" width="1055.5" x="13" y="1051.5703"/><text fill="#000000" font-family="sans-serif" font-size="13" font-weight="bold" lengthAdjust="spacingAndGlyphs" textLength="25" x="28" y="1064.6372">opt</text><text fill="#000000" font-family="sans-serif" font-size="11" font-weight="bold" lengthAdjust="spacingAndGlyphs" textLength="135" x="98" y="1063.7808">[when game is draw]</text><polygon fill="#A80036" points="415.5,1090.8359,425.5,1094.8359,415.5,1098.8359,419.5,1094.8359" style="stroke: #A80036; stroke-width: 1.0;"/><line style="stroke: #A80036; stroke-width: 1.0;" x1="210.5" x2="421.5" y1="1094.8359" y2="1094.8359"/><text fill="#000000" font-family="sans-serif" font-size="13" lengthAdjust="spacingAndGlyphs" textLength="126" x="217.5" y="1089.77">check game is draw</text><path d="M442,1073.7031 L442,1098.7031 L676,1098.7031 L676,1083.7031 L666,1073.7031 L442,1073.7031 " fill="#FBFB77" filter="url(#f1gth28nbour07)" style="stroke: #A80036; stroke-width: 1.0;"/><path d="M666,1073.7031 L666,1083.7031 L676,1083.7031 L666,1073.7031 " fill="#FBFB77" style="stroke: #A80036; stroke-width: 1.0;"/><text fill="#000000" font-family="sans-serif" font-size="13" lengthAdjust="spacingAndGlyphs" textLength="213" x="448" y="1090.77">All grids are occupied with marks.</text><line style="stroke: #A80036; stroke-width: 1.0;" x1="437.5" x2="479.5" y1="1128.9688" y2="1128.9688"/><line style="stroke: #A80036; stroke-width: 1.0;" x1="479.5" x2="479.5" y1="1128.9688" y2="1141.9688"/><line style="stroke: #A80036; stroke-width: 1.0;" x1="438.5" x2="479.5" y1="1141.9688" y2="1141.9688"/><polygon fill="#A80036" points="448.5,1137.9688,438.5,1141.9688,448.5,1145.9688,444.5,1141.9688" style="stroke: #A80036; stroke-width: 1.0;"/><text fill="#000000" font-family="sans-serif" font-size="13" lengthAdjust="spacingAndGlyphs" textLength="268" x="444.5" y="1123.9028">checkGameEndWithDraw(gamePlayerKey)</text><polygon fill="#A80036" points="221.5,1167.1016,211.5,1171.1016,221.5,1175.1016,217.5,1171.1016" style="stroke: #A80036; stroke-width: 1.0;"/><line style="stroke: #A80036; stroke-width: 1.0; stroke-dasharray: 2.0,2.0;" x1="215.5" x2="431.5" y1="1171.1016" y2="1171.1016"/><text fill="#000000" font-family="sans-serif" font-size="13" lengthAdjust="spacingAndGlyphs" textLength="51" x="227.5" y="1166.0356">boolean</text><polygon fill="#A80036" points="762.5,1201.2344,772.5,1205.2344,762.5,1209.2344,766.5,1205.2344" style="stroke: #A80036; stroke-width: 1.0;"/><line style="stroke: #A80036; stroke-width: 1.0;" x1="210.5" x2="768.5" y1="1205.2344" y2="1205.2344"/><text fill="#000000" font-family="sans-serif" font-size="13" lengthAdjust="spacingAndGlyphs" textLength="156" x="217.5" y="1200.1685">setGameEndWithDraw( )</text><path d="M789,1184.1016 L789,1209.1016 L1059,1209.1016 L1059,1194.1016 L1049,1184.1016 L789,1184.1016 " fill="#FBFB77" filter="url(#f1gth28nbour07)" style="stroke: #A80036; stroke-width: 1.0;"/><path d="M1049,1184.1016 L1049,1194.1016 L1059,1194.1016 L1049,1184.1016 " fill="#FBFB77" style="stroke: #A80036; stroke-width: 1.0;"/><text fill="#000000" font-family="sans-serif" font-size="13" lengthAdjust="spacingAndGlyphs" textLength="249" x="795" y="1201.1685">gameMode: ON_GAME -&gt; GAME_OVER</text><line style="stroke: #A80036; stroke-width: 1.0;" x1="784.5" x2="831.5" y1="1234.3672" y2="1234.3672"/><line style="stroke: #A80036; stroke-width: 1.0;" x1="831.5" x2="831.5" y1="1234.3672" y2="1247.3672"/><line style="stroke: #A80036; stroke-width: 1.0;" x1="790.5" x2="831.5" y1="1247.3672" y2="1247.3672"/><polygon fill="#A80036" points="800.5,1243.3672,790.5,1247.3672,800.5,1251.3672,796.5,1247.3672" style="stroke: #A80036; stroke-width: 1.0;"/><text fill="#000000" font-family="sans-serif" font-size="13" lengthAdjust="spacingAndGlyphs" textLength="93" x="796.5" y="1229.3013">setGameEnd()</text><line style="stroke: #A80036; stroke-width: 1.0;" x1="789.5" x2="831.5" y1="1281.5" y2="1281.5"/><line style="stroke: #A80036; stroke-width: 1.0;" x1="831.5" x2="831.5" y1="1281.5" y2="1294.5"/><line style="stroke: #A80036; stroke-width: 1.0;" x1="790.5" x2="831.5" y1="1294.5" y2="1294.5"/><polygon fill="#A80036" points="800.5,1290.5,790.5,1294.5,800.5,1298.5,796.5,1294.5" style="stroke: #A80036; stroke-width: 1.0;"/><text fill="#000000" font-family="sans-serif" font-size="13" lengthAdjust="spacingAndGlyphs" textLength="192" x="796.5" y="1276.4341">setGameModeToGameOver( )</text><line style="stroke: #A80036; stroke-width: 1.0;" x1="789.5" x2="831.5" y1="1323.6328" y2="1323.6328"/><line style="stroke: #A80036; stroke-width: 1.0;" x1="831.5" x2="831.5" y1="1323.6328" y2="1336.6328"/><line style="stroke: #A80036; stroke-width: 1.0;" x1="790.5" x2="831.5" y1="1336.6328" y2="1336.6328"/><polygon fill="#A80036" points="800.5,1332.6328,790.5,1336.6328,800.5,1340.6328,796.5,1336.6328" style="stroke: #A80036; stroke-width: 1.0;"/><text fill="#000000" font-family="sans-serif" font-size="13" lengthAdjust="spacingAndGlyphs" textLength="146" x="796.5" y="1318.5669">setGameResult(DRAW)</text><line style="stroke: #A80036; stroke-width: 1.0; stroke-dasharray: 2.0,2.0;" x1="789.5" x2="831.5" y1="1355.6328" y2="1355.6328"/><line style="stroke: #A80036; stroke-width: 1.0; stroke-dasharray: 2.0,2.0;" x1="831.5" x2="831.5" y1="1355.6328" y2="1368.6328"/><line style="stroke: #A80036; stroke-width: 1.0; stroke-dasharray: 2.0,2.0;" x1="784.5" x2="831.5" y1="1368.6328" y2="1368.6328"/><polygon fill="#A80036" points="794.5,1364.6328,784.5,1368.6328,794.5,1372.6328,790.5,1368.6328" style="stroke: #A80036; stroke-width: 1.0;"/><polygon fill="#A80036" points="221.5,1373.6328,211.5,1377.6328,221.5,1381.6328,217.5,1377.6328" style="stroke: #A80036; stroke-width: 1.0;"/><line style="stroke: #A80036; stroke-width: 1.0; stroke-dasharray: 2.0,2.0;" x1="215.5" x2="778.5" y1="1377.6328" y2="1377.6328"/><polygon fill="#A80036" points="75.5,1402.7656,65.5,1406.7656,75.5,1410.7656,71.5,1406.7656" style="stroke: #A80036; stroke-width: 1.0;"/><line style="stroke: #A80036; stroke-width: 1.0; stroke-dasharray: 2.0,2.0;" x1="69.5" x2="199.5" y1="1406.7656" y2="1406.7656"/><text fill="#000000" font-family="sans-serif" font-size="13" lengthAdjust="spacingAndGlyphs" textLength="74" x="81.5" y="1401.6997">early return</text><polygon fill="#A80036" points="983.5,1451.4648,993.5,1455.4648,983.5,1459.4648,987.5,1455.4648" style="stroke: #A80036; stroke-width: 1.0;"/><line style="stroke: #A80036; stroke-width: 1.0;" x1="210.5" x2="989.5" y1="1455.4648" y2="1455.4648"/><text fill="#000000" font-family="sans-serif" font-size="13" lengthAdjust="spacingAndGlyphs" textLength="95" x="217.5" y="1450.3989">go to next turn</text><path d="M1010,1426.7656 L1010,1466.7656 L1284,1466.7656 L1284,1436.7656 L1274,1426.7656 L1010,1426.7656 " fill="#FBFB77" filter="url(#f1gth28nbour07)" style="stroke: #A80036; stroke-width: 1.0;"/><path d="M1274,1426.7656 L1274,1436.7656 L1284,1436.7656 L1274,1426.7656 " fill="#FBFB77" style="stroke: #A80036; stroke-width: 1.0;"/><text fill="#000000" font-family="sans-serif" font-size="13" lengthAdjust="spacingAndGlyphs" textLength="253" x="1016" y="1443.8325">Go to next turn, and change turn player</text><text fill="#000000" font-family="sans-serif" font-size="13" lengthAdjust="spacingAndGlyphs" textLength="166" x="1016" y="1458.9653">when game does not end.</text><line style="stroke: #A80036; stroke-width: 1.0;" x1="1005.5" x2="1052.5" y1="1492.1641" y2="1492.1641"/><line style="stroke: #A80036; stroke-width: 1.0;" x1="1052.5" x2="1052.5" y1="1492.1641" y2="1505.1641"/><line style="stroke: #A80036; stroke-width: 1.0;" x1="1011.5" x2="1052.5" y1="1505.1641" y2="1505.1641"/><polygon fill="#A80036" points="1021.5,1501.1641,1011.5,1505.1641,1021.5,1509.1641,1017.5,1505.1641" style="stroke: #A80036; stroke-width: 1.0;"/><text fill="#000000" font-family="sans-serif" font-size="13" lengthAdjust="spacingAndGlyphs" textLength="135" x="1017.5" y="1487.0981">advanceGameTurn( )</text><line style="stroke: #A80036; stroke-width: 1.0;" x1="1010.5" x2="1052.5" y1="1539.2969" y2="1539.2969"/><line style="stroke: #A80036; stroke-width: 1.0;" x1="1052.5" x2="1052.5" y1="1539.2969" y2="1552.2969"/><line style="stroke: #A80036; stroke-width: 1.0;" x1="1011.5" x2="1052.5" y1="1552.2969" y2="1552.2969"/><polygon fill="#A80036" points="1021.5,1548.2969,1011.5,1552.2969,1021.5,1556.2969,1017.5,1552.2969" style="stroke: #A80036; stroke-width: 1.0;"/><text fill="#000000" font-family="sans-serif" font-size="13" lengthAdjust="spacingAndGlyphs" textLength="135" x="1017.5" y="1534.231">increaseGameTurn( )</text><line style="stroke: #A80036; stroke-width: 1.0;" x1="1010.5" x2="1052.5" y1="1581.4297" y2="1581.4297"/><line style="stroke: #A80036; stroke-width: 1.0;" x1="1052.5" x2="1052.5" y1="1581.4297" y2="1594.4297"/><line style="stroke: #A80036; stroke-width: 1.0;" x1="1011.5" x2="1052.5" y1="1594.4297" y2="1594.4297"/><polygon fill="#A80036" points="1021.5,1590.4297,1011.5,1594.4297,1021.5,1598.4297,1017.5,1594.4297" style="stroke: #A80036; stroke-width: 1.0;"/><text fill="#000000" font-family="sans-serif" font-size="13" lengthAdjust="spacingAndGlyphs" textLength="201" x="1017.5" y="1576.3638">toggleGamePlayerKeyOnTurn( )</text><line style="stroke: #A80036; stroke-width: 1.0; stroke-dasharray: 2.0,2.0;" x1="1010.5" x2="1052.5" y1="1613.4297" y2="1613.4297"/><line style="stroke: #A80036; stroke-width: 1.0; stroke-dasharray: 2.0,2.0;" x1="1052.5" x2="1052.5" y1="1613.4297" y2="1626.4297"/><line style="stroke: #A80036; stroke-width: 1.0; stroke-dasharray: 2.0,2.0;" x1="1005.5" x2="1052.5" y1="1626.4297" y2="1626.4297"/><polygon fill="#A80036" points="1015.5,1622.4297,1005.5,1626.4297,1015.5,1630.4297,1011.5,1626.4297" style="stroke: #A80036; stroke-width: 1.0;"/><polygon fill="#A80036" points="221.5,1631.4297,211.5,1635.4297,221.5,1639.4297,217.5,1635.4297" style="stroke: #A80036; stroke-width: 1.0;"/><line style="stroke: #A80036; stroke-width: 1.0; stroke-dasharray: 2.0,2.0;" x1="215.5" x2="994.5" y1="1635.4297" y2="1635.4297"/><polygon fill="#A80036" points="75.5,1645.4297,65.5,1649.4297,75.5,1653.4297,71.5,1649.4297" style="stroke: #A80036; stroke-width: 1.0;"/><line style="stroke: #A80036; stroke-width: 1.0; stroke-dasharray: 2.0,2.0;" x1="69.5" x2="204.5" y1="1649.4297" y2="1649.4297"/><!--MD5=[de12f22341384c1f3f9c3a536d3eec96]
@startuml
title Grid Select Sequence
hide footbox

Actor "Turn Player" as Player
participant "TicTacToeView" as TicTacToeView
participant "GameGridContext" as GameGrid
participant "GameStateContext" as GameState
participant "GameTurnContext" as GameTurn

Player -> TicTacToeView ++: selectGameGrid( )

opt when game is over
	TicTacToeView -> GameState ++: check game is over
	GameState -> GameState: gameMode !== 'ON_GAME'
	GameState - -> TicTacToeView - -: boolean
	TicTacToeView - -> Player: early return
end

TicTacToeView -> GameGrid: get grid data in (row, col)
activate GameGrid
GameGrid -> GameGrid: getGameGrid(row, col)
GameGrid - -> TicTacToeView: selectedGameGrid
deactivate GameGrid

opt when selected grid is already occupied
TicTacToeView -> GameGrid: check selected grid is occupied
activate GameGrid
	GameGrid -> GameGrid: selectedGameGrid.occupied === true
	GameGrid - -> TicTacToeView:boolean
deactivate GameGrid
TicTacToeView - -> Player: early return
end

TicTacToeView -> GameGrid ++: set grid data in (row, col)
GameGrid -> GameGrid: setGameGrid(row, col, gamePlayerKey, gameTurn)
GameGrid - -> TicTacToeView - -:

opt when player wins
	TicTacToeView -> GameGrid ++: check player wins
	note right
	Three same marks are placed in horizontal, vertical, or diagonal row.
	end note
	GameGrid -> GameGrid: checkGameEndWithWin(gamePlayerKey)
	GameGrid - -> TicTacToeView - -: boolean

	TicTacToeView -> GameState ++: setGameEndWithWin(gamePlayerKey)
	note right
	gameMode: ON_GAME -> GAME_OVER
	end note
	GameState -> GameState ++: setGameEnd()
	GameState -> GameState: setGameModeToGameOver( )
	GameState -> GameState: setGameResult(PLAYER_WIN)
	GameState - -> GameState - -: 
	GameState - -> TicTacToeView - -: 
	TicTacToeView - -> Player: early return
end

opt when game is draw
	TicTacToeView -> GameGrid ++: check game is draw
	note right
	All grids are occupied with marks.
	end note
	GameGrid -> GameGrid: checkGameEndWithDraw(gamePlayerKey)
	GameGrid - -> TicTacToeView - -: boolean
	
	TicTacToeView -> GameState ++: setGameEndWithDraw( )
	note right
	gameMode: ON_GAME -> GAME_OVER
	end note
	GameState -> GameState ++: setGameEnd()
	GameState -> GameState: setGameModeToGameOver( )
	GameState -> GameState: setGameResult(DRAW)
	GameState - -> GameState - -: 
	GameState - -> TicTacToeView - -: 
	TicTacToeView - -> Player: early return
end

TicTacToeView -> GameTurn ++: go to next turn
note right
	Go to next turn, and change turn player
	when game does not end.
end note
GameTurn -> GameTurn ++: advanceGameTurn( )
GameTurn -> GameTurn: increaseGameTurn( )
GameTurn -> GameTurn: toggleGamePlayerKeyOnTurn( )
GameTurn - ->  GameTurn - -:
GameTurn - -> TicTacToeView:

TicTacToeView - -> Player - -: 
@enduml

PlantUML version 1.2020.02(Sun Mar 01 19:22:07 JST 2020)
(GPL source distribution)
Java Runtime: OpenJDK Runtime Environment
JVM: OpenJDK 64-Bit Server VM
Java Version: 11.0.17+8-post-Ubuntu-1ubuntu222.04
Operating System: Linux
Default Encoding: UTF-8
Language: en
Country: US
--></g></svg>