<?xml version="1.0" encoding="UTF-8" standalone="no"?><svg xmlns="http://www.w3.org/2000/svg" xmlns:xlink="http://www.w3.org/1999/xlink" contentStyleType="text/css" height="1690px" preserveAspectRatio="none" style="width:1211px;height:1690px;background:#FFFFFF;" version="1.1" viewBox="0 0 1211 1690" width="1211px" zoomAndPan="magnify"><defs/><g><text fill="#000000" font-family="sans-serif" font-size="14" font-weight="bold" lengthAdjust="spacing" textLength="171" x="516" y="27.9951">Grid Select Sequence</text><rect fill="#FFFFFF" height="1531.0469" style="stroke:#181818;stroke-width:1.0;" width="10" x="167" y="134.5938"/><rect fill="#FFFFFF" height="1472.9141" style="stroke:#181818;stroke-width:1.0;" width="10" x="172" y="171.7266"/><rect fill="#FFFFFF" height="71.2656" style="stroke:#181818;stroke-width:1.0;" width="10" x="399" y="366.5234"/><rect fill="#FFFFFF" height="71.2656" style="stroke:#181818;stroke-width:1.0;" width="10" x="399" y="491.0547"/><rect fill="#FFFFFF" height="56.1328" style="stroke:#181818;stroke-width:1.0;" width="10" x="399" y="627.5859"/><rect fill="#FFFFFF" height="74.2656" style="stroke:#181818;stroke-width:1.0;" width="10" x="399" y="739.9844"/><rect fill="#FFFFFF" height="74.2656" style="stroke:#181818;stroke-width:1.0;" width="10" x="399" y="1109.1797"/><rect fill="#FFFFFF" height="71.2656" style="stroke:#181818;stroke-width:1.0;" width="10" x="746" y="229.9922"/><rect fill="#FFFFFF" height="170.3984" style="stroke:#181818;stroke-width:1.0;" width="10" x="746" y="846.3828"/><rect fill="#FFFFFF" height="109.2656" style="stroke:#181818;stroke-width:1.0;" width="10" x="751" y="886.5156"/><rect fill="#FFFFFF" height="170.3984" style="stroke:#181818;stroke-width:1.0;" width="10" x="746" y="1215.5781"/><rect fill="#FFFFFF" height="109.2656" style="stroke:#181818;stroke-width:1.0;" width="10" x="751" y="1255.7109"/><rect fill="#FFFFFF" height="170.3984" style="stroke:#181818;stroke-width:1.0;" width="10" x="967" y="1454.2422"/><rect fill="#FFFFFF" height="109.2656" style="stroke:#181818;stroke-width:1.0;" width="10" x="972" y="1494.375"/><rect fill="none" height="146.6641" style="stroke:#000000;stroke-width:1.5;" width="943" x="10" y="191.7266"/><rect fill="none" height="146.6641" style="stroke:#000000;stroke-width:1.5;" width="665" x="10" y="452.7891"/><rect fill="none" height="355.1953" style="stroke:#000000;stroke-width:1.5;" width="1026" x="10" y="698.7188"/><rect fill="none" height="355.1953" style="stroke:#000000;stroke-width:1.5;" width="1026" x="10" y="1067.9141"/><line style="stroke:#181818;stroke-width:0.5;stroke-dasharray:5.0,5.0;" x1="61" x2="61" y1="118.5938" y2="1683.6406"/><line style="stroke:#181818;stroke-width:0.5;stroke-dasharray:5.0,5.0;" x1="172" x2="172" y1="118.5938" y2="1683.6406"/><line style="stroke:#181818;stroke-width:0.5;stroke-dasharray:5.0,5.0;" x1="403.5" x2="403.5" y1="118.5938" y2="1683.6406"/><line style="stroke:#181818;stroke-width:0.5;stroke-dasharray:5.0,5.0;" x1="750.5" x2="750.5" y1="118.5938" y2="1683.6406"/><line style="stroke:#181818;stroke-width:0.5;stroke-dasharray:5.0,5.0;" x1="971.5" x2="971.5" y1="118.5938" y2="1683.6406"/><text fill="#000000" font-family="sans-serif" font-size="14" lengthAdjust="spacing" textLength="77" x="20" y="115.292">Turn Player</text><ellipse cx="61.5" cy="50.7969" fill="#E2E2F0" rx="8" ry="8" style="stroke:#181818;stroke-width:0.5;"/><path d="M61.5,58.7969 L61.5,85.7969 M48.5,66.7969 L74.5,66.7969 M61.5,85.7969 L48.5,100.7969 M61.5,85.7969 L74.5,100.7969 " fill="none" style="stroke:#181818;stroke-width:0.5;"/><rect fill="#E2E2F0" height="30.2969" rx="2.5" ry="2.5" style="stroke:#181818;stroke-width:0.5;" width="118" x="113" y="87.2969"/><text fill="#000000" font-family="sans-serif" font-size="14" lengthAdjust="spacing" textLength="104" x="120" y="107.292">TicTacToeView</text><rect fill="#E2E2F0" height="30.2969" rx="2.5" ry="2.5" style="stroke:#181818;stroke-width:0.5;" width="137" x="335.5" y="87.2969"/><text fill="#000000" font-family="sans-serif" font-size="14" lengthAdjust="spacing" textLength="123" x="342.5" y="107.292">GameGridContext</text><rect fill="#E2E2F0" height="30.2969" rx="2.5" ry="2.5" style="stroke:#181818;stroke-width:0.5;" width="145" x="678.5" y="87.2969"/><text fill="#000000" font-family="sans-serif" font-size="14" lengthAdjust="spacing" textLength="131" x="685.5" y="107.292">GameStateContext</text><rect fill="#E2E2F0" height="30.2969" rx="2.5" ry="2.5" style="stroke:#181818;stroke-width:0.5;" width="141" x="901.5" y="87.2969"/><text fill="#000000" font-family="sans-serif" font-size="14" lengthAdjust="spacing" textLength="127" x="908.5" y="107.292">GameTurnContext</text><rect fill="#FFFFFF" height="1531.0469" style="stroke:#181818;stroke-width:1.0;" width="10" x="167" y="134.5938"/><rect fill="#FFFFFF" height="1472.9141" style="stroke:#181818;stroke-width:1.0;" width="10" x="172" y="171.7266"/><rect fill="#FFFFFF" height="71.2656" style="stroke:#181818;stroke-width:1.0;" width="10" x="399" y="366.5234"/><rect fill="#FFFFFF" height="71.2656" style="stroke:#181818;stroke-width:1.0;" width="10" x="399" y="491.0547"/><rect fill="#FFFFFF" height="56.1328" style="stroke:#181818;stroke-width:1.0;" width="10" x="399" y="627.5859"/><rect fill="#FFFFFF" height="74.2656" style="stroke:#181818;stroke-width:1.0;" width="10" x="399" y="739.9844"/><rect fill="#FFFFFF" height="74.2656" style="stroke:#181818;stroke-width:1.0;" width="10" x="399" y="1109.1797"/><rect fill="#FFFFFF" height="71.2656" style="stroke:#181818;stroke-width:1.0;" width="10" x="746" y="229.9922"/><rect fill="#FFFFFF" height="170.3984" style="stroke:#181818;stroke-width:1.0;" width="10" x="746" y="846.3828"/><rect fill="#FFFFFF" height="109.2656" style="stroke:#181818;stroke-width:1.0;" width="10" x="751" y="886.5156"/><rect fill="#FFFFFF" height="170.3984" style="stroke:#181818;stroke-width:1.0;" width="10" x="746" y="1215.5781"/><rect fill="#FFFFFF" height="109.2656" style="stroke:#181818;stroke-width:1.0;" width="10" x="751" y="1255.7109"/><rect fill="#FFFFFF" height="170.3984" style="stroke:#181818;stroke-width:1.0;" width="10" x="967" y="1454.2422"/><rect fill="#FFFFFF" height="109.2656" style="stroke:#181818;stroke-width:1.0;" width="10" x="972" y="1494.375"/><polygon fill="#181818" points="155,130.5938,165,134.5938,155,138.5938,159,134.5938" style="stroke:#181818;stroke-width:1.0;"/><line style="stroke:#181818;stroke-width:1.0;" x1="61.5" x2="161" y1="134.5938" y2="134.5938"/><line style="stroke:#181818;stroke-width:1.0;" x1="177" x2="224" y1="158.7266" y2="158.7266"/><line style="stroke:#181818;stroke-width:1.0;" x1="224" x2="224" y1="158.7266" y2="171.7266"/><line style="stroke:#181818;stroke-width:1.0;" x1="183" x2="224" y1="171.7266" y2="171.7266"/><polygon fill="#181818" points="193,167.7266,183,171.7266,193,175.7266,189,171.7266" style="stroke:#181818;stroke-width:1.0;"/><text fill="#000000" font-family="sans-serif" font-size="13" lengthAdjust="spacing" textLength="117" x="189" y="153.6606">selectGameGrid( )</text><path d="M10,191.7266 L80,191.7266 L80,198.8594 L70,208.8594 L10,208.8594 L10,191.7266 " fill="#EEEEEE" style="stroke:#000000;stroke-width:1.5;"/><rect fill="none" height="146.6641" style="stroke:#000000;stroke-width:1.5;" width="943" x="10" y="191.7266"/><text fill="#000000" font-family="sans-serif" font-size="13" font-weight="bold" lengthAdjust="spacing" textLength="25" x="25" y="204.7935">opt</text><text fill="#000000" font-family="sans-serif" font-size="11" font-weight="bold" lengthAdjust="spacing" textLength="131" x="95" y="203.937">[when game is over]</text><polygon fill="#181818" points="734,225.9922,744,229.9922,734,233.9922,738,229.9922" style="stroke:#181818;stroke-width:1.0;"/><line style="stroke:#181818;stroke-width:1.0;" x1="182" x2="740" y1="229.9922" y2="229.9922"/><text fill="#000000" font-family="sans-serif" font-size="13" lengthAdjust="spacing" textLength="124" x="189" y="224.9263">check game is over</text><line style="stroke:#181818;stroke-width:1.0;" x1="756" x2="798" y1="259.125" y2="259.125"/><line style="stroke:#181818;stroke-width:1.0;" x1="798" x2="798" y1="259.125" y2="272.125"/><line style="stroke:#181818;stroke-width:1.0;" x1="757" x2="798" y1="272.125" y2="272.125"/><polygon fill="#181818" points="767,268.125,757,272.125,767,276.125,763,272.125" style="stroke:#181818;stroke-width:1.0;"/><text fill="#000000" font-family="sans-serif" font-size="13" lengthAdjust="spacing" textLength="178" x="763" y="254.0591">gameMode !== 'ON_GAME'</text><polygon fill="#181818" points="193,297.2578,183,301.2578,193,305.2578,189,301.2578" style="stroke:#181818;stroke-width:1.0;"/><line style="stroke:#181818;stroke-width:1.0;stroke-dasharray:2.0,2.0;" x1="187" x2="750" y1="301.2578" y2="301.2578"/><text fill="#000000" font-family="sans-serif" font-size="13" lengthAdjust="spacing" textLength="51" x="199" y="296.1919">boolean</text><polygon fill="#181818" points="72.5,326.3906,62.5,330.3906,72.5,334.3906,68.5,330.3906" style="stroke:#181818;stroke-width:1.0;"/><line style="stroke:#181818;stroke-width:1.0;stroke-dasharray:2.0,2.0;" x1="66.5" x2="171" y1="330.3906" y2="330.3906"/><text fill="#000000" font-family="sans-serif" font-size="13" lengthAdjust="spacing" textLength="74" x="78.5" y="325.3247">early return</text><polygon fill="#181818" points="387,362.5234,397,366.5234,387,370.5234,391,366.5234" style="stroke:#181818;stroke-width:1.0;"/><line style="stroke:#181818;stroke-width:1.0;" x1="182" x2="393" y1="366.5234" y2="366.5234"/><text fill="#000000" font-family="sans-serif" font-size="13" lengthAdjust="spacing" textLength="159" x="189" y="361.4575">get grid data in (row, col)</text><line style="stroke:#181818;stroke-width:1.0;" x1="409" x2="451" y1="395.6563" y2="395.6563"/><line style="stroke:#181818;stroke-width:1.0;" x1="451" x2="451" y1="395.6563" y2="408.6563"/><line style="stroke:#181818;stroke-width:1.0;" x1="410" x2="451" y1="408.6563" y2="408.6563"/><polygon fill="#181818" points="420,404.6563,410,408.6563,420,412.6563,416,408.6563" style="stroke:#181818;stroke-width:1.0;"/><text fill="#000000" font-family="sans-serif" font-size="13" lengthAdjust="spacing" textLength="144" x="416" y="390.5903">getGameGrid(row, col)</text><polygon fill="#181818" points="193,433.7891,183,437.7891,193,441.7891,189,437.7891" style="stroke:#181818;stroke-width:1.0;"/><line style="stroke:#181818;stroke-width:1.0;stroke-dasharray:2.0,2.0;" x1="187" x2="403" y1="437.7891" y2="437.7891"/><text fill="#000000" font-family="sans-serif" font-size="13" lengthAdjust="spacing" textLength="119" x="199" y="432.7231">selectedGameGrid</text><path d="M10,452.7891 L80,452.7891 L80,459.9219 L70,469.9219 L10,469.9219 L10,452.7891 " fill="#EEEEEE" style="stroke:#000000;stroke-width:1.5;"/><rect fill="none" height="146.6641" style="stroke:#000000;stroke-width:1.5;" width="665" x="10" y="452.7891"/><text fill="#000000" font-family="sans-serif" font-size="13" font-weight="bold" lengthAdjust="spacing" textLength="25" x="25" y="465.856">opt</text><text fill="#000000" font-family="sans-serif" font-size="11" font-weight="bold" lengthAdjust="spacing" textLength="262" x="95" y="464.9995">[when selected grid is already occupied]</text><polygon fill="#181818" points="387,487.0547,397,491.0547,387,495.0547,391,491.0547" style="stroke:#181818;stroke-width:1.0;"/><line style="stroke:#181818;stroke-width:1.0;" x1="182" x2="393" y1="491.0547" y2="491.0547"/><text fill="#000000" font-family="sans-serif" font-size="13" lengthAdjust="spacing" textLength="198" x="189" y="485.9888">check selected grid is occupied</text><line style="stroke:#181818;stroke-width:1.0;" x1="409" x2="451" y1="520.1875" y2="520.1875"/><line style="stroke:#181818;stroke-width:1.0;" x1="451" x2="451" y1="520.1875" y2="533.1875"/><line style="stroke:#181818;stroke-width:1.0;" x1="410" x2="451" y1="533.1875" y2="533.1875"/><polygon fill="#181818" points="420,529.1875,410,533.1875,420,537.1875,416,533.1875" style="stroke:#181818;stroke-width:1.0;"/><text fill="#000000" font-family="sans-serif" font-size="13" lengthAdjust="spacing" textLength="247" x="416" y="515.1216">selectedGameGrid.occupied === true</text><polygon fill="#181818" points="193,558.3203,183,562.3203,193,566.3203,189,562.3203" style="stroke:#181818;stroke-width:1.0;"/><line style="stroke:#181818;stroke-width:1.0;stroke-dasharray:2.0,2.0;" x1="187" x2="403" y1="562.3203" y2="562.3203"/><text fill="#000000" font-family="sans-serif" font-size="13" lengthAdjust="spacing" textLength="51" x="199" y="557.2544">boolean</text><polygon fill="#181818" points="72.5,587.4531,62.5,591.4531,72.5,595.4531,68.5,591.4531" style="stroke:#181818;stroke-width:1.0;"/><line style="stroke:#181818;stroke-width:1.0;stroke-dasharray:2.0,2.0;" x1="66.5" x2="171" y1="591.4531" y2="591.4531"/><text fill="#000000" font-family="sans-serif" font-size="13" lengthAdjust="spacing" textLength="74" x="78.5" y="586.3872">early return</text><polygon fill="#181818" points="387,623.5859,397,627.5859,387,631.5859,391,627.5859" style="stroke:#181818;stroke-width:1.0;"/><line style="stroke:#181818;stroke-width:1.0;" x1="182" x2="393" y1="627.5859" y2="627.5859"/><text fill="#000000" font-family="sans-serif" font-size="13" lengthAdjust="spacing" textLength="158" x="189" y="622.52">set grid data in (row, col)</text><line style="stroke:#181818;stroke-width:1.0;" x1="409" x2="451" y1="656.7188" y2="656.7188"/><line style="stroke:#181818;stroke-width:1.0;" x1="451" x2="451" y1="656.7188" y2="669.7188"/><line style="stroke:#181818;stroke-width:1.0;" x1="410" x2="451" y1="669.7188" y2="669.7188"/><polygon fill="#181818" points="420,665.7188,410,669.7188,420,673.7188,416,669.7188" style="stroke:#181818;stroke-width:1.0;"/><text fill="#000000" font-family="sans-serif" font-size="13" lengthAdjust="spacing" textLength="323" x="416" y="651.6528">setGameGrid(row, col, gamePlayerKey, gameTurn)</text><polygon fill="#181818" points="193,679.7188,183,683.7188,193,687.7188,189,683.7188" style="stroke:#181818;stroke-width:1.0;"/><line style="stroke:#181818;stroke-width:1.0;stroke-dasharray:2.0,2.0;" x1="187" x2="403" y1="683.7188" y2="683.7188"/><path d="M10,698.7188 L80,698.7188 L80,705.8516 L70,715.8516 L10,715.8516 L10,698.7188 " fill="#EEEEEE" style="stroke:#000000;stroke-width:1.5;"/><rect fill="none" height="355.1953" style="stroke:#000000;stroke-width:1.5;" width="1026" x="10" y="698.7188"/><text fill="#000000" font-family="sans-serif" font-size="13" font-weight="bold" lengthAdjust="spacing" textLength="25" x="25" y="711.7856">opt</text><text fill="#000000" font-family="sans-serif" font-size="11" font-weight="bold" lengthAdjust="spacing" textLength="123" x="95" y="710.9292">[when player wins]</text><polygon fill="#181818" points="387,735.9844,397,739.9844,387,743.9844,391,739.9844" style="stroke:#181818;stroke-width:1.0;"/><line style="stroke:#181818;stroke-width:1.0;" x1="182" x2="393" y1="739.9844" y2="739.9844"/><text fill="#000000" font-family="sans-serif" font-size="13" lengthAdjust="spacing" textLength="111" x="189" y="734.9185">check player wins</text><path d="M414,720.8516 L414,745.8516 L871,745.8516 L871,730.8516 L861,720.8516 L414,720.8516 " fill="#FEFFDD" style="stroke:#181818;stroke-width:0.5;"/><path d="M861,720.8516 L861,730.8516 L871,730.8516 L861,720.8516 " fill="#FEFFDD" style="stroke:#181818;stroke-width:0.5;"/><text fill="#000000" font-family="sans-serif" font-size="13" lengthAdjust="spacing" textLength="436" x="420" y="737.9185">Three same marks are placed in horizontal, vertical, or diagonal row.</text><line style="stroke:#181818;stroke-width:1.0;" x1="409" x2="451" y1="772.1172" y2="772.1172"/><line style="stroke:#181818;stroke-width:1.0;" x1="451" x2="451" y1="772.1172" y2="785.1172"/><line style="stroke:#181818;stroke-width:1.0;" x1="410" x2="451" y1="785.1172" y2="785.1172"/><polygon fill="#181818" points="420,781.1172,410,785.1172,420,789.1172,416,785.1172" style="stroke:#181818;stroke-width:1.0;"/><text fill="#000000" font-family="sans-serif" font-size="13" lengthAdjust="spacing" textLength="258" x="416" y="767.0513">checkGameEndWithWin(gamePlayerKey)</text><polygon fill="#181818" points="193,810.25,183,814.25,193,818.25,189,814.25" style="stroke:#181818;stroke-width:1.0;"/><line style="stroke:#181818;stroke-width:1.0;stroke-dasharray:2.0,2.0;" x1="187" x2="403" y1="814.25" y2="814.25"/><text fill="#000000" font-family="sans-serif" font-size="13" lengthAdjust="spacing" textLength="51" x="199" y="809.1841">boolean</text><polygon fill="#181818" points="734,842.3828,744,846.3828,734,850.3828,738,846.3828" style="stroke:#181818;stroke-width:1.0;"/><line style="stroke:#181818;stroke-width:1.0;" x1="182" x2="740" y1="846.3828" y2="846.3828"/><text fill="#000000" font-family="sans-serif" font-size="13" lengthAdjust="spacing" textLength="241" x="189" y="841.3169">setGameEndWithWin(gamePlayerKey)</text><path d="M761,827.25 L761,852.25 L1031,852.25 L1031,837.25 L1021,827.25 L761,827.25 " fill="#FEFFDD" style="stroke:#181818;stroke-width:0.5;"/><path d="M1021,827.25 L1021,837.25 L1031,837.25 L1021,827.25 " fill="#FEFFDD" style="stroke:#181818;stroke-width:0.5;"/><text fill="#000000" font-family="sans-serif" font-size="13" lengthAdjust="spacing" textLength="249" x="767" y="844.3169">gameMode: ON_GAME -&gt; GAME_OVER</text><line style="stroke:#181818;stroke-width:1.0;" x1="756" x2="803" y1="873.5156" y2="873.5156"/><line style="stroke:#181818;stroke-width:1.0;" x1="803" x2="803" y1="873.5156" y2="886.5156"/><line style="stroke:#181818;stroke-width:1.0;" x1="762" x2="803" y1="886.5156" y2="886.5156"/><polygon fill="#181818" points="772,882.5156,762,886.5156,772,890.5156,768,886.5156" style="stroke:#181818;stroke-width:1.0;"/><text fill="#000000" font-family="sans-serif" font-size="13" lengthAdjust="spacing" textLength="93" x="768" y="868.4497">setGameEnd()</text><line style="stroke:#181818;stroke-width:1.0;" x1="761" x2="803" y1="920.6484" y2="920.6484"/><line style="stroke:#181818;stroke-width:1.0;" x1="803" x2="803" y1="920.6484" y2="933.6484"/><line style="stroke:#181818;stroke-width:1.0;" x1="762" x2="803" y1="933.6484" y2="933.6484"/><polygon fill="#181818" points="772,929.6484,762,933.6484,772,937.6484,768,933.6484" style="stroke:#181818;stroke-width:1.0;"/><text fill="#000000" font-family="sans-serif" font-size="13" lengthAdjust="spacing" textLength="192" x="768" y="915.5825">setGameModeToGameOver( )</text><line style="stroke:#181818;stroke-width:1.0;" x1="761" x2="803" y1="962.7813" y2="962.7813"/><line style="stroke:#181818;stroke-width:1.0;" x1="803" x2="803" y1="962.7813" y2="975.7813"/><line style="stroke:#181818;stroke-width:1.0;" x1="762" x2="803" y1="975.7813" y2="975.7813"/><polygon fill="#181818" points="772,971.7813,762,975.7813,772,979.7813,768,975.7813" style="stroke:#181818;stroke-width:1.0;"/><text fill="#000000" font-family="sans-serif" font-size="13" lengthAdjust="spacing" textLength="186" x="768" y="957.7153">setGameResult(PLAYER_WIN)</text><line style="stroke:#181818;stroke-width:1.0;stroke-dasharray:2.0,2.0;" x1="761" x2="803" y1="994.7813" y2="994.7813"/><line style="stroke:#181818;stroke-width:1.0;stroke-dasharray:2.0,2.0;" x1="803" x2="803" y1="994.7813" y2="1007.7813"/><line style="stroke:#181818;stroke-width:1.0;stroke-dasharray:2.0,2.0;" x1="756" x2="803" y1="1007.7813" y2="1007.7813"/><polygon fill="#181818" points="766,1003.7813,756,1007.7813,766,1011.7813,762,1007.7813" style="stroke:#181818;stroke-width:1.0;"/><polygon fill="#181818" points="193,1012.7813,183,1016.7813,193,1020.7813,189,1016.7813" style="stroke:#181818;stroke-width:1.0;"/><line style="stroke:#181818;stroke-width:1.0;stroke-dasharray:2.0,2.0;" x1="187" x2="750" y1="1016.7813" y2="1016.7813"/><polygon fill="#181818" points="72.5,1041.9141,62.5,1045.9141,72.5,1049.9141,68.5,1045.9141" style="stroke:#181818;stroke-width:1.0;"/><line style="stroke:#181818;stroke-width:1.0;stroke-dasharray:2.0,2.0;" x1="66.5" x2="171" y1="1045.9141" y2="1045.9141"/><text fill="#000000" font-family="sans-serif" font-size="13" lengthAdjust="spacing" textLength="74" x="78.5" y="1040.8481">early return</text><path d="M10,1067.9141 L80,1067.9141 L80,1075.0469 L70,1085.0469 L10,1085.0469 L10,1067.9141 " fill="#EEEEEE" style="stroke:#000000;stroke-width:1.5;"/><rect fill="none" height="355.1953" style="stroke:#000000;stroke-width:1.5;" width="1026" x="10" y="1067.9141"/><text fill="#000000" font-family="sans-serif" font-size="13" font-weight="bold" lengthAdjust="spacing" textLength="25" x="25" y="1080.981">opt</text><text fill="#000000" font-family="sans-serif" font-size="11" font-weight="bold" lengthAdjust="spacing" textLength="135" x="95" y="1080.1245">[when game is draw]</text><polygon fill="#181818" points="387,1105.1797,397,1109.1797,387,1113.1797,391,1109.1797" style="stroke:#181818;stroke-width:1.0;"/><line style="stroke:#181818;stroke-width:1.0;" x1="182" x2="393" y1="1109.1797" y2="1109.1797"/><text fill="#000000" font-family="sans-serif" font-size="13" lengthAdjust="spacing" textLength="126" x="189" y="1104.1138">check game is draw</text><path d="M414,1090.0469 L414,1115.0469 L648,1115.0469 L648,1100.0469 L638,1090.0469 L414,1090.0469 " fill="#FEFFDD" style="stroke:#181818;stroke-width:0.5;"/><path d="M638,1090.0469 L638,1100.0469 L648,1100.0469 L638,1090.0469 " fill="#FEFFDD" style="stroke:#181818;stroke-width:0.5;"/><text fill="#000000" font-family="sans-serif" font-size="13" lengthAdjust="spacing" textLength="213" x="420" y="1107.1138">All grids are occupied with marks.</text><line style="stroke:#181818;stroke-width:1.0;" x1="409" x2="451" y1="1141.3125" y2="1141.3125"/><line style="stroke:#181818;stroke-width:1.0;" x1="451" x2="451" y1="1141.3125" y2="1154.3125"/><line style="stroke:#181818;stroke-width:1.0;" x1="410" x2="451" y1="1154.3125" y2="1154.3125"/><polygon fill="#181818" points="420,1150.3125,410,1154.3125,420,1158.3125,416,1154.3125" style="stroke:#181818;stroke-width:1.0;"/><text fill="#000000" font-family="sans-serif" font-size="13" lengthAdjust="spacing" textLength="268" x="416" y="1136.2466">checkGameEndWithDraw(gamePlayerKey)</text><polygon fill="#181818" points="193,1179.4453,183,1183.4453,193,1187.4453,189,1183.4453" style="stroke:#181818;stroke-width:1.0;"/><line style="stroke:#181818;stroke-width:1.0;stroke-dasharray:2.0,2.0;" x1="187" x2="403" y1="1183.4453" y2="1183.4453"/><text fill="#000000" font-family="sans-serif" font-size="13" lengthAdjust="spacing" textLength="51" x="199" y="1178.3794">boolean</text><polygon fill="#181818" points="734,1211.5781,744,1215.5781,734,1219.5781,738,1215.5781" style="stroke:#181818;stroke-width:1.0;"/><line style="stroke:#181818;stroke-width:1.0;" x1="182" x2="740" y1="1215.5781" y2="1215.5781"/><text fill="#000000" font-family="sans-serif" font-size="13" lengthAdjust="spacing" textLength="156" x="189" y="1210.5122">setGameEndWithDraw( )</text><path d="M761,1196.4453 L761,1221.4453 L1031,1221.4453 L1031,1206.4453 L1021,1196.4453 L761,1196.4453 " fill="#FEFFDD" style="stroke:#181818;stroke-width:0.5;"/><path d="M1021,1196.4453 L1021,1206.4453 L1031,1206.4453 L1021,1196.4453 " fill="#FEFFDD" style="stroke:#181818;stroke-width:0.5;"/><text fill="#000000" font-family="sans-serif" font-size="13" lengthAdjust="spacing" textLength="249" x="767" y="1213.5122">gameMode: ON_GAME -&gt; GAME_OVER</text><line style="stroke:#181818;stroke-width:1.0;" x1="756" x2="803" y1="1242.7109" y2="1242.7109"/><line style="stroke:#181818;stroke-width:1.0;" x1="803" x2="803" y1="1242.7109" y2="1255.7109"/><line style="stroke:#181818;stroke-width:1.0;" x1="762" x2="803" y1="1255.7109" y2="1255.7109"/><polygon fill="#181818" points="772,1251.7109,762,1255.7109,772,1259.7109,768,1255.7109" style="stroke:#181818;stroke-width:1.0;"/><text fill="#000000" font-family="sans-serif" font-size="13" lengthAdjust="spacing" textLength="93" x="768" y="1237.645">setGameEnd()</text><line style="stroke:#181818;stroke-width:1.0;" x1="761" x2="803" y1="1289.8438" y2="1289.8438"/><line style="stroke:#181818;stroke-width:1.0;" x1="803" x2="803" y1="1289.8438" y2="1302.8438"/><line style="stroke:#181818;stroke-width:1.0;" x1="762" x2="803" y1="1302.8438" y2="1302.8438"/><polygon fill="#181818" points="772,1298.8438,762,1302.8438,772,1306.8438,768,1302.8438" style="stroke:#181818;stroke-width:1.0;"/><text fill="#000000" font-family="sans-serif" font-size="13" lengthAdjust="spacing" textLength="192" x="768" y="1284.7778">setGameModeToGameOver( )</text><line style="stroke:#181818;stroke-width:1.0;" x1="761" x2="803" y1="1331.9766" y2="1331.9766"/><line style="stroke:#181818;stroke-width:1.0;" x1="803" x2="803" y1="1331.9766" y2="1344.9766"/><line style="stroke:#181818;stroke-width:1.0;" x1="762" x2="803" y1="1344.9766" y2="1344.9766"/><polygon fill="#181818" points="772,1340.9766,762,1344.9766,772,1348.9766,768,1344.9766" style="stroke:#181818;stroke-width:1.0;"/><text fill="#000000" font-family="sans-serif" font-size="13" lengthAdjust="spacing" textLength="146" x="768" y="1326.9106">setGameResult(DRAW)</text><line style="stroke:#181818;stroke-width:1.0;stroke-dasharray:2.0,2.0;" x1="761" x2="803" y1="1363.9766" y2="1363.9766"/><line style="stroke:#181818;stroke-width:1.0;stroke-dasharray:2.0,2.0;" x1="803" x2="803" y1="1363.9766" y2="1376.9766"/><line style="stroke:#181818;stroke-width:1.0;stroke-dasharray:2.0,2.0;" x1="756" x2="803" y1="1376.9766" y2="1376.9766"/><polygon fill="#181818" points="766,1372.9766,756,1376.9766,766,1380.9766,762,1376.9766" style="stroke:#181818;stroke-width:1.0;"/><polygon fill="#181818" points="193,1381.9766,183,1385.9766,193,1389.9766,189,1385.9766" style="stroke:#181818;stroke-width:1.0;"/><line style="stroke:#181818;stroke-width:1.0;stroke-dasharray:2.0,2.0;" x1="187" x2="750" y1="1385.9766" y2="1385.9766"/><polygon fill="#181818" points="72.5,1411.1094,62.5,1415.1094,72.5,1419.1094,68.5,1415.1094" style="stroke:#181818;stroke-width:1.0;"/><line style="stroke:#181818;stroke-width:1.0;stroke-dasharray:2.0,2.0;" x1="66.5" x2="171" y1="1415.1094" y2="1415.1094"/><text fill="#000000" font-family="sans-serif" font-size="13" lengthAdjust="spacing" textLength="74" x="78.5" y="1410.0435">early return</text><polygon fill="#181818" points="955,1450.2422,965,1454.2422,955,1458.2422,959,1454.2422" style="stroke:#181818;stroke-width:1.0;"/><line style="stroke:#181818;stroke-width:1.0;" x1="182" x2="961" y1="1454.2422" y2="1454.2422"/><text fill="#000000" font-family="sans-serif" font-size="13" lengthAdjust="spacing" textLength="58" x="189" y="1449.1763">next turn</text><path d="M982,1435.1094 L982,1460.1094 L1204,1460.1094 L1204,1445.1094 L1194,1435.1094 L982,1435.1094 " fill="#FEFFDD" style="stroke:#181818;stroke-width:0.5;"/><path d="M1194,1435.1094 L1194,1445.1094 L1204,1445.1094 L1194,1435.1094 " fill="#FEFFDD" style="stroke:#181818;stroke-width:0.5;"/><text fill="#000000" font-family="sans-serif" font-size="13" lengthAdjust="spacing" textLength="201" x="988" y="1452.1763">in next turn, change turn player</text><line style="stroke:#181818;stroke-width:1.0;" x1="977" x2="1024" y1="1481.375" y2="1481.375"/><line style="stroke:#181818;stroke-width:1.0;" x1="1024" x2="1024" y1="1481.375" y2="1494.375"/><line style="stroke:#181818;stroke-width:1.0;" x1="983" x2="1024" y1="1494.375" y2="1494.375"/><polygon fill="#181818" points="993,1490.375,983,1494.375,993,1498.375,989,1494.375" style="stroke:#181818;stroke-width:1.0;"/><text fill="#000000" font-family="sans-serif" font-size="13" lengthAdjust="spacing" textLength="135" x="989" y="1476.3091">advanceGameTurn( )</text><line style="stroke:#181818;stroke-width:1.0;" x1="982" x2="1024" y1="1528.5078" y2="1528.5078"/><line style="stroke:#181818;stroke-width:1.0;" x1="1024" x2="1024" y1="1528.5078" y2="1541.5078"/><line style="stroke:#181818;stroke-width:1.0;" x1="983" x2="1024" y1="1541.5078" y2="1541.5078"/><polygon fill="#181818" points="993,1537.5078,983,1541.5078,993,1545.5078,989,1541.5078" style="stroke:#181818;stroke-width:1.0;"/><text fill="#000000" font-family="sans-serif" font-size="13" lengthAdjust="spacing" textLength="135" x="989" y="1523.4419">increaseGameTurn( )</text><line style="stroke:#181818;stroke-width:1.0;" x1="982" x2="1024" y1="1570.6406" y2="1570.6406"/><line style="stroke:#181818;stroke-width:1.0;" x1="1024" x2="1024" y1="1570.6406" y2="1583.6406"/><line style="stroke:#181818;stroke-width:1.0;" x1="983" x2="1024" y1="1583.6406" y2="1583.6406"/><polygon fill="#181818" points="993,1579.6406,983,1583.6406,993,1587.6406,989,1583.6406" style="stroke:#181818;stroke-width:1.0;"/><text fill="#000000" font-family="sans-serif" font-size="13" lengthAdjust="spacing" textLength="201" x="989" y="1565.5747">toggleGamePlayerKeyOnTurn( )</text><line style="stroke:#181818;stroke-width:1.0;stroke-dasharray:2.0,2.0;" x1="982" x2="1024" y1="1602.6406" y2="1602.6406"/><line style="stroke:#181818;stroke-width:1.0;stroke-dasharray:2.0,2.0;" x1="1024" x2="1024" y1="1602.6406" y2="1615.6406"/><line style="stroke:#181818;stroke-width:1.0;stroke-dasharray:2.0,2.0;" x1="977" x2="1024" y1="1615.6406" y2="1615.6406"/><polygon fill="#181818" points="987,1611.6406,977,1615.6406,987,1619.6406,983,1615.6406" style="stroke:#181818;stroke-width:1.0;"/><polygon fill="#181818" points="193,1620.6406,183,1624.6406,193,1628.6406,189,1624.6406" style="stroke:#181818;stroke-width:1.0;"/><line style="stroke:#181818;stroke-width:1.0;stroke-dasharray:2.0,2.0;" x1="187" x2="971" y1="1624.6406" y2="1624.6406"/><line style="stroke:#181818;stroke-width:1.0;stroke-dasharray:2.0,2.0;" x1="182" x2="224" y1="1643.6406" y2="1643.6406"/><line style="stroke:#181818;stroke-width:1.0;stroke-dasharray:2.0,2.0;" x1="224" x2="224" y1="1643.6406" y2="1656.6406"/><line style="stroke:#181818;stroke-width:1.0;stroke-dasharray:2.0,2.0;" x1="177" x2="224" y1="1656.6406" y2="1656.6406"/><polygon fill="#181818" points="187,1652.6406,177,1656.6406,187,1660.6406,183,1656.6406" style="stroke:#181818;stroke-width:1.0;"/><polygon fill="#181818" points="72.5,1661.6406,62.5,1665.6406,72.5,1669.6406,68.5,1665.6406" style="stroke:#181818;stroke-width:1.0;"/><line style="stroke:#181818;stroke-width:1.0;stroke-dasharray:2.0,2.0;" x1="66.5" x2="171" y1="1665.6406" y2="1665.6406"/><!--MD5=[bcc904c21b9a40c8a31945de1d7bf9fe]
@startuml
title Grid Select Sequence
hide footbox

Actor "Turn Player" as Player
participant "TicTacToeView" as TicTacToeView
participant "GameGridContext" as GameGrid
participant "GameStateContext" as GameState
participant "GameTurnContext" as GameTurn

Player -> TicTacToeView ++: 
TicTacToeView -> TicTacToeView ++: selectGameGrid( )

opt when game is over
	TicTacToeView -> GameState ++: check game is over
	GameState -> GameState: gameMode !== 'ON_GAME'
	GameState - -> TicTacToeView - -: boolean
	TicTacToeView - -> Player: early return
end

TicTacToeView -> GameGrid: get grid data in (row, col)
activate GameGrid
GameGrid -> GameGrid: getGameGrid(row, col)
GameGrid - -> TicTacToeView: selectedGameGrid
deactivate GameGrid

opt when selected grid is already occupied
TicTacToeView -> GameGrid: check selected grid is occupied
activate GameGrid
	GameGrid -> GameGrid: selectedGameGrid.occupied === true
	GameGrid - -> TicTacToeView:boolean
deactivate GameGrid
TicTacToeView - -> Player: early return
end

TicTacToeView -> GameGrid ++: set grid data in (row, col)
GameGrid -> GameGrid: setGameGrid(row, col, gamePlayerKey, gameTurn)
GameGrid - -> TicTacToeView - -:

opt when player wins
	TicTacToeView -> GameGrid ++: check player wins
	note right
	Three same marks are placed in horizontal, vertical, or diagonal row.
	end note
	GameGrid -> GameGrid: checkGameEndWithWin(gamePlayerKey)
	GameGrid - -> TicTacToeView - -: boolean

	TicTacToeView -> GameState ++: setGameEndWithWin(gamePlayerKey)
	note right
	gameMode: ON_GAME -> GAME_OVER
	end note
	GameState -> GameState ++: setGameEnd()
	GameState -> GameState: setGameModeToGameOver( )
	GameState -> GameState: setGameResult(PLAYER_WIN)
	GameState - -> GameState - -: 
	GameState - -> TicTacToeView - -: 
	TicTacToeView - -> Player: early return
end

opt when game is draw
	TicTacToeView -> GameGrid ++: check game is draw
	note right
	All grids are occupied with marks.
	end note
	GameGrid -> GameGrid: checkGameEndWithDraw(gamePlayerKey)
	GameGrid - -> TicTacToeView - -: boolean
	
	TicTacToeView -> GameState ++: setGameEndWithDraw( )
	note right
	gameMode: ON_GAME -> GAME_OVER
	end note
	GameState -> GameState ++: setGameEnd()
	GameState -> GameState: setGameModeToGameOver( )
	GameState -> GameState: setGameResult(DRAW)
	GameState - -> GameState - -: 
	GameState - -> TicTacToeView - -: 
	TicTacToeView - -> Player: early return
end

TicTacToeView -> GameTurn ++: next turn
note right
	in next turn, change turn player
end note
GameTurn -> GameTurn ++: advanceGameTurn( )
GameTurn -> GameTurn: increaseGameTurn( )
GameTurn -> GameTurn: toggleGamePlayerKeyOnTurn( )
GameTurn - ->  GameTurn - -:
GameTurn - -> TicTacToeView - -:

TicTacToeView - -> TicTacToeView - -:
TicTacToeView - -> Player - -: 
@enduml

PlantUML version 1.2022.13(Sat Nov 19 22:22:17 JST 2022)
(GPL source distribution)
Java Runtime: OpenJDK Runtime Environment
JVM: OpenJDK 64-Bit Server VM
Default Encoding: UTF-8
Language: en
Country: US
--></g></svg>