<?xml version="1.0" encoding="UTF-8" standalone="no"?><svg xmlns="http://www.w3.org/2000/svg" xmlns:xlink="http://www.w3.org/1999/xlink" contentStyleType="text/css" height="1828px" preserveAspectRatio="none" style="width:1255px;height:1828px;background:#FFFFFF;" version="1.1" viewBox="0 0 1255 1828" width="1255px" zoomAndPan="magnify"><defs/><g><text fill="#000000" font-family="sans-serif" font-size="14" font-weight="bold" lengthAdjust="spacing" textLength="171" x="538" y="27.9951">Grid Select Sequence</text><rect fill="#FFFFFF" height="1669.3125" style="stroke:#181818;stroke-width:1.0;" width="10" x="167" y="134.5938"/><rect fill="#FFFFFF" height="1611.1797" style="stroke:#181818;stroke-width:1.0;" width="10" x="172" y="171.7266"/><rect fill="#FFFFFF" height="71.2656" style="stroke:#181818;stroke-width:1.0;" width="10" x="399" y="366.5234"/><rect fill="#FFFFFF" height="71.2656" style="stroke:#181818;stroke-width:1.0;" width="10" x="399" y="491.0547"/><rect fill="#FFFFFF" height="56.1328" style="stroke:#181818;stroke-width:1.0;" width="10" x="399" y="627.5859"/><rect fill="#FFFFFF" height="74.2656" style="stroke:#181818;stroke-width:1.0;" width="10" x="399" y="739.9844"/><rect fill="#FFFFFF" height="74.2656" style="stroke:#181818;stroke-width:1.0;" width="10" x="399" y="1178.3125"/><rect fill="#FFFFFF" height="71.2656" style="stroke:#181818;stroke-width:1.0;" width="10" x="746" y="229.9922"/><rect fill="#FFFFFF" height="239.5313" style="stroke:#181818;stroke-width:1.0;" width="10" x="746" y="846.3828"/><rect fill="#FFFFFF" height="178.3984" style="stroke:#181818;stroke-width:1.0;" width="10" x="751" y="886.5156"/><rect fill="#FFFFFF" height="109.2656" style="stroke:#181818;stroke-width:1.0;" width="10" x="756" y="928.6484"/><rect fill="#FFFFFF" height="239.5313" style="stroke:#181818;stroke-width:1.0;" width="10" x="746" y="1284.7109"/><rect fill="#FFFFFF" height="178.3984" style="stroke:#181818;stroke-width:1.0;" width="10" x="751" y="1324.8438"/><rect fill="#FFFFFF" height="109.2656" style="stroke:#181818;stroke-width:1.0;" width="10" x="756" y="1366.9766"/><rect fill="#FFFFFF" height="170.3984" style="stroke:#181818;stroke-width:1.0;" width="10" x="1011" y="1592.5078"/><rect fill="#FFFFFF" height="109.2656" style="stroke:#181818;stroke-width:1.0;" width="10" x="1016" y="1632.6406"/><rect fill="none" height="146.6641" style="stroke:#000000;stroke-width:1.5;" width="943" x="10" y="191.7266"/><rect fill="none" height="146.6641" style="stroke:#000000;stroke-width:1.5;" width="665" x="10" y="452.7891"/><rect fill="none" height="424.3281" style="stroke:#000000;stroke-width:1.5;" width="1026" x="10" y="698.7188"/><rect fill="none" height="424.3281" style="stroke:#000000;stroke-width:1.5;" width="1026" x="10" y="1137.0469"/><line style="stroke:#181818;stroke-width:0.5;stroke-dasharray:5.0,5.0;" x1="61" x2="61" y1="118.5938" y2="1821.9063"/><line style="stroke:#181818;stroke-width:0.5;stroke-dasharray:5.0,5.0;" x1="172" x2="172" y1="118.5938" y2="1821.9063"/><line style="stroke:#181818;stroke-width:0.5;stroke-dasharray:5.0,5.0;" x1="403.5" x2="403.5" y1="118.5938" y2="1821.9063"/><line style="stroke:#181818;stroke-width:0.5;stroke-dasharray:5.0,5.0;" x1="750.5" x2="750.5" y1="118.5938" y2="1821.9063"/><line style="stroke:#181818;stroke-width:0.5;stroke-dasharray:5.0,5.0;" x1="1015.5" x2="1015.5" y1="118.5938" y2="1821.9063"/><text fill="#000000" font-family="sans-serif" font-size="14" lengthAdjust="spacing" textLength="77" x="20" y="115.292">Turn Player</text><ellipse cx="61.5" cy="50.7969" fill="#E2E2F0" rx="8" ry="8" style="stroke:#181818;stroke-width:0.5;"/><path d="M61.5,58.7969 L61.5,85.7969 M48.5,66.7969 L74.5,66.7969 M61.5,85.7969 L48.5,100.7969 M61.5,85.7969 L74.5,100.7969 " fill="none" style="stroke:#181818;stroke-width:0.5;"/><rect fill="#E2E2F0" height="30.2969" rx="2.5" ry="2.5" style="stroke:#181818;stroke-width:0.5;" width="118" x="113" y="87.2969"/><text fill="#000000" font-family="sans-serif" font-size="14" lengthAdjust="spacing" textLength="104" x="120" y="107.292">TicTacToeView</text><rect fill="#E2E2F0" height="30.2969" rx="2.5" ry="2.5" style="stroke:#181818;stroke-width:0.5;" width="137" x="335.5" y="87.2969"/><text fill="#000000" font-family="sans-serif" font-size="14" lengthAdjust="spacing" textLength="123" x="342.5" y="107.292">GameGridContext</text><rect fill="#E2E2F0" height="30.2969" rx="2.5" ry="2.5" style="stroke:#181818;stroke-width:0.5;" width="145" x="678.5" y="87.2969"/><text fill="#000000" font-family="sans-serif" font-size="14" lengthAdjust="spacing" textLength="131" x="685.5" y="107.292">GameStateContext</text><rect fill="#E2E2F0" height="30.2969" rx="2.5" ry="2.5" style="stroke:#181818;stroke-width:0.5;" width="141" x="945.5" y="87.2969"/><text fill="#000000" font-family="sans-serif" font-size="14" lengthAdjust="spacing" textLength="127" x="952.5" y="107.292">GameTurnContext</text><rect fill="#FFFFFF" height="1669.3125" style="stroke:#181818;stroke-width:1.0;" width="10" x="167" y="134.5938"/><rect fill="#FFFFFF" height="1611.1797" style="stroke:#181818;stroke-width:1.0;" width="10" x="172" y="171.7266"/><rect fill="#FFFFFF" height="71.2656" style="stroke:#181818;stroke-width:1.0;" width="10" x="399" y="366.5234"/><rect fill="#FFFFFF" height="71.2656" style="stroke:#181818;stroke-width:1.0;" width="10" x="399" y="491.0547"/><rect fill="#FFFFFF" height="56.1328" style="stroke:#181818;stroke-width:1.0;" width="10" x="399" y="627.5859"/><rect fill="#FFFFFF" height="74.2656" style="stroke:#181818;stroke-width:1.0;" width="10" x="399" y="739.9844"/><rect fill="#FFFFFF" height="74.2656" style="stroke:#181818;stroke-width:1.0;" width="10" x="399" y="1178.3125"/><rect fill="#FFFFFF" height="71.2656" style="stroke:#181818;stroke-width:1.0;" width="10" x="746" y="229.9922"/><rect fill="#FFFFFF" height="239.5313" style="stroke:#181818;stroke-width:1.0;" width="10" x="746" y="846.3828"/><rect fill="#FFFFFF" height="178.3984" style="stroke:#181818;stroke-width:1.0;" width="10" x="751" y="886.5156"/><rect fill="#FFFFFF" height="109.2656" style="stroke:#181818;stroke-width:1.0;" width="10" x="756" y="928.6484"/><rect fill="#FFFFFF" height="239.5313" style="stroke:#181818;stroke-width:1.0;" width="10" x="746" y="1284.7109"/><rect fill="#FFFFFF" height="178.3984" style="stroke:#181818;stroke-width:1.0;" width="10" x="751" y="1324.8438"/><rect fill="#FFFFFF" height="109.2656" style="stroke:#181818;stroke-width:1.0;" width="10" x="756" y="1366.9766"/><rect fill="#FFFFFF" height="170.3984" style="stroke:#181818;stroke-width:1.0;" width="10" x="1011" y="1592.5078"/><rect fill="#FFFFFF" height="109.2656" style="stroke:#181818;stroke-width:1.0;" width="10" x="1016" y="1632.6406"/><polygon fill="#181818" points="155,130.5938,165,134.5938,155,138.5938,159,134.5938" style="stroke:#181818;stroke-width:1.0;"/><line style="stroke:#181818;stroke-width:1.0;" x1="61.5" x2="161" y1="134.5938" y2="134.5938"/><line style="stroke:#181818;stroke-width:1.0;" x1="177" x2="224" y1="158.7266" y2="158.7266"/><line style="stroke:#181818;stroke-width:1.0;" x1="224" x2="224" y1="158.7266" y2="171.7266"/><line style="stroke:#181818;stroke-width:1.0;" x1="183" x2="224" y1="171.7266" y2="171.7266"/><polygon fill="#181818" points="193,167.7266,183,171.7266,193,175.7266,189,171.7266" style="stroke:#181818;stroke-width:1.0;"/><text fill="#000000" font-family="sans-serif" font-size="13" lengthAdjust="spacing" textLength="117" x="189" y="153.6606">selectGameGrid( )</text><path d="M10,191.7266 L80,191.7266 L80,198.8594 L70,208.8594 L10,208.8594 L10,191.7266 " fill="#EEEEEE" style="stroke:#000000;stroke-width:1.5;"/><rect fill="none" height="146.6641" style="stroke:#000000;stroke-width:1.5;" width="943" x="10" y="191.7266"/><text fill="#000000" font-family="sans-serif" font-size="13" font-weight="bold" lengthAdjust="spacing" textLength="25" x="25" y="204.7935">opt</text><text fill="#000000" font-family="sans-serif" font-size="11" font-weight="bold" lengthAdjust="spacing" textLength="131" x="95" y="203.937">[when game is over]</text><polygon fill="#181818" points="734,225.9922,744,229.9922,734,233.9922,738,229.9922" style="stroke:#181818;stroke-width:1.0;"/><line style="stroke:#181818;stroke-width:1.0;" x1="182" x2="740" y1="229.9922" y2="229.9922"/><text fill="#000000" font-family="sans-serif" font-size="13" lengthAdjust="spacing" textLength="124" x="189" y="224.9263">check game is over</text><line style="stroke:#181818;stroke-width:1.0;" x1="756" x2="798" y1="259.125" y2="259.125"/><line style="stroke:#181818;stroke-width:1.0;" x1="798" x2="798" y1="259.125" y2="272.125"/><line style="stroke:#181818;stroke-width:1.0;" x1="757" x2="798" y1="272.125" y2="272.125"/><polygon fill="#181818" points="767,268.125,757,272.125,767,276.125,763,272.125" style="stroke:#181818;stroke-width:1.0;"/><text fill="#000000" font-family="sans-serif" font-size="13" lengthAdjust="spacing" textLength="178" x="763" y="254.0591">gameMode !== 'ON_GAME'</text><polygon fill="#181818" points="193,297.2578,183,301.2578,193,305.2578,189,301.2578" style="stroke:#181818;stroke-width:1.0;"/><line style="stroke:#181818;stroke-width:1.0;stroke-dasharray:2.0,2.0;" x1="187" x2="750" y1="301.2578" y2="301.2578"/><text fill="#000000" font-family="sans-serif" font-size="13" lengthAdjust="spacing" textLength="51" x="199" y="296.1919">boolean</text><polygon fill="#181818" points="72.5,326.3906,62.5,330.3906,72.5,334.3906,68.5,330.3906" style="stroke:#181818;stroke-width:1.0;"/><line style="stroke:#181818;stroke-width:1.0;stroke-dasharray:2.0,2.0;" x1="66.5" x2="171" y1="330.3906" y2="330.3906"/><text fill="#000000" font-family="sans-serif" font-size="13" lengthAdjust="spacing" textLength="74" x="78.5" y="325.3247">early return</text><polygon fill="#181818" points="387,362.5234,397,366.5234,387,370.5234,391,366.5234" style="stroke:#181818;stroke-width:1.0;"/><line style="stroke:#181818;stroke-width:1.0;" x1="182" x2="393" y1="366.5234" y2="366.5234"/><text fill="#000000" font-family="sans-serif" font-size="13" lengthAdjust="spacing" textLength="159" x="189" y="361.4575">get grid data in (row, col)</text><line style="stroke:#181818;stroke-width:1.0;" x1="409" x2="451" y1="395.6563" y2="395.6563"/><line style="stroke:#181818;stroke-width:1.0;" x1="451" x2="451" y1="395.6563" y2="408.6563"/><line style="stroke:#181818;stroke-width:1.0;" x1="410" x2="451" y1="408.6563" y2="408.6563"/><polygon fill="#181818" points="420,404.6563,410,408.6563,420,412.6563,416,408.6563" style="stroke:#181818;stroke-width:1.0;"/><text fill="#000000" font-family="sans-serif" font-size="13" lengthAdjust="spacing" textLength="144" x="416" y="390.5903">getGameGrid(row, col)</text><polygon fill="#181818" points="193,433.7891,183,437.7891,193,441.7891,189,437.7891" style="stroke:#181818;stroke-width:1.0;"/><line style="stroke:#181818;stroke-width:1.0;stroke-dasharray:2.0,2.0;" x1="187" x2="403" y1="437.7891" y2="437.7891"/><text fill="#000000" font-family="sans-serif" font-size="13" lengthAdjust="spacing" textLength="119" x="199" y="432.7231">selectedGameGrid</text><path d="M10,452.7891 L80,452.7891 L80,459.9219 L70,469.9219 L10,469.9219 L10,452.7891 " fill="#EEEEEE" style="stroke:#000000;stroke-width:1.5;"/><rect fill="none" height="146.6641" style="stroke:#000000;stroke-width:1.5;" width="665" x="10" y="452.7891"/><text fill="#000000" font-family="sans-serif" font-size="13" font-weight="bold" lengthAdjust="spacing" textLength="25" x="25" y="465.856">opt</text><text fill="#000000" font-family="sans-serif" font-size="11" font-weight="bold" lengthAdjust="spacing" textLength="262" x="95" y="464.9995">[when selected grid is already occupied]</text><polygon fill="#181818" points="387,487.0547,397,491.0547,387,495.0547,391,491.0547" style="stroke:#181818;stroke-width:1.0;"/><line style="stroke:#181818;stroke-width:1.0;" x1="182" x2="393" y1="491.0547" y2="491.0547"/><text fill="#000000" font-family="sans-serif" font-size="13" lengthAdjust="spacing" textLength="198" x="189" y="485.9888">check selected grid is occupied</text><line style="stroke:#181818;stroke-width:1.0;" x1="409" x2="451" y1="520.1875" y2="520.1875"/><line style="stroke:#181818;stroke-width:1.0;" x1="451" x2="451" y1="520.1875" y2="533.1875"/><line style="stroke:#181818;stroke-width:1.0;" x1="410" x2="451" y1="533.1875" y2="533.1875"/><polygon fill="#181818" points="420,529.1875,410,533.1875,420,537.1875,416,533.1875" style="stroke:#181818;stroke-width:1.0;"/><text fill="#000000" font-family="sans-serif" font-size="13" lengthAdjust="spacing" textLength="247" x="416" y="515.1216">selectedGameGrid.occupied === true</text><polygon fill="#181818" points="193,558.3203,183,562.3203,193,566.3203,189,562.3203" style="stroke:#181818;stroke-width:1.0;"/><line style="stroke:#181818;stroke-width:1.0;stroke-dasharray:2.0,2.0;" x1="187" x2="403" y1="562.3203" y2="562.3203"/><text fill="#000000" font-family="sans-serif" font-size="13" lengthAdjust="spacing" textLength="51" x="199" y="557.2544">boolean</text><polygon fill="#181818" points="72.5,587.4531,62.5,591.4531,72.5,595.4531,68.5,591.4531" style="stroke:#181818;stroke-width:1.0;"/><line style="stroke:#181818;stroke-width:1.0;stroke-dasharray:2.0,2.0;" x1="66.5" x2="171" y1="591.4531" y2="591.4531"/><text fill="#000000" font-family="sans-serif" font-size="13" lengthAdjust="spacing" textLength="74" x="78.5" y="586.3872">early return</text><polygon fill="#181818" points="387,623.5859,397,627.5859,387,631.5859,391,627.5859" style="stroke:#181818;stroke-width:1.0;"/><line style="stroke:#181818;stroke-width:1.0;" x1="182" x2="393" y1="627.5859" y2="627.5859"/><text fill="#000000" font-family="sans-serif" font-size="13" lengthAdjust="spacing" textLength="158" x="189" y="622.52">set grid data in (row, col)</text><line style="stroke:#181818;stroke-width:1.0;" x1="409" x2="451" y1="656.7188" y2="656.7188"/><line style="stroke:#181818;stroke-width:1.0;" x1="451" x2="451" y1="656.7188" y2="669.7188"/><line style="stroke:#181818;stroke-width:1.0;" x1="410" x2="451" y1="669.7188" y2="669.7188"/><polygon fill="#181818" points="420,665.7188,410,669.7188,420,673.7188,416,669.7188" style="stroke:#181818;stroke-width:1.0;"/><text fill="#000000" font-family="sans-serif" font-size="13" lengthAdjust="spacing" textLength="323" x="416" y="651.6528">setGameGrid(row, col, gamePlayerKey, gameTurn)</text><polygon fill="#181818" points="193,679.7188,183,683.7188,193,687.7188,189,683.7188" style="stroke:#181818;stroke-width:1.0;"/><line style="stroke:#181818;stroke-width:1.0;stroke-dasharray:2.0,2.0;" x1="187" x2="403" y1="683.7188" y2="683.7188"/><path d="M10,698.7188 L80,698.7188 L80,705.8516 L70,715.8516 L10,715.8516 L10,698.7188 " fill="#EEEEEE" style="stroke:#000000;stroke-width:1.5;"/><rect fill="none" height="424.3281" style="stroke:#000000;stroke-width:1.5;" width="1026" x="10" y="698.7188"/><text fill="#000000" font-family="sans-serif" font-size="13" font-weight="bold" lengthAdjust="spacing" textLength="25" x="25" y="711.7856">opt</text><text fill="#000000" font-family="sans-serif" font-size="11" font-weight="bold" lengthAdjust="spacing" textLength="153" x="95" y="710.9292">[when turn player wins]</text><polygon fill="#181818" points="387,735.9844,397,739.9844,387,743.9844,391,739.9844" style="stroke:#181818;stroke-width:1.0;"/><line style="stroke:#181818;stroke-width:1.0;" x1="182" x2="393" y1="739.9844" y2="739.9844"/><text fill="#000000" font-family="sans-serif" font-size="13" lengthAdjust="spacing" textLength="111" x="189" y="734.9185">check player wins</text><path d="M414,720.8516 L414,745.8516 L871,745.8516 L871,730.8516 L861,720.8516 L414,720.8516 " fill="#FEFFDD" style="stroke:#181818;stroke-width:0.5;"/><path d="M861,720.8516 L861,730.8516 L871,730.8516 L861,720.8516 " fill="#FEFFDD" style="stroke:#181818;stroke-width:0.5;"/><text fill="#000000" font-family="sans-serif" font-size="13" lengthAdjust="spacing" textLength="436" x="420" y="737.9185">Three same marks are placed in horizontal, vertical, or diagonal row.</text><line style="stroke:#181818;stroke-width:1.0;" x1="409" x2="451" y1="772.1172" y2="772.1172"/><line style="stroke:#181818;stroke-width:1.0;" x1="451" x2="451" y1="772.1172" y2="785.1172"/><line style="stroke:#181818;stroke-width:1.0;" x1="410" x2="451" y1="785.1172" y2="785.1172"/><polygon fill="#181818" points="420,781.1172,410,785.1172,420,789.1172,416,785.1172" style="stroke:#181818;stroke-width:1.0;"/><text fill="#000000" font-family="sans-serif" font-size="13" lengthAdjust="spacing" textLength="258" x="416" y="767.0513">checkGameEndWithWin(gamePlayerKey)</text><polygon fill="#181818" points="193,810.25,183,814.25,193,818.25,189,814.25" style="stroke:#181818;stroke-width:1.0;"/><line style="stroke:#181818;stroke-width:1.0;stroke-dasharray:2.0,2.0;" x1="187" x2="403" y1="814.25" y2="814.25"/><text fill="#000000" font-family="sans-serif" font-size="13" lengthAdjust="spacing" textLength="51" x="199" y="809.1841">boolean</text><polygon fill="#181818" points="734,842.3828,744,846.3828,734,850.3828,738,846.3828" style="stroke:#181818;stroke-width:1.0;"/><line style="stroke:#181818;stroke-width:1.0;" x1="182" x2="740" y1="846.3828" y2="846.3828"/><text fill="#000000" font-family="sans-serif" font-size="13" lengthAdjust="spacing" textLength="229" x="189" y="841.3169">set result with winning of turn player</text><path d="M761,827.25 L761,852.25 L1031,852.25 L1031,837.25 L1021,827.25 L761,827.25 " fill="#FEFFDD" style="stroke:#181818;stroke-width:0.5;"/><path d="M1021,827.25 L1021,837.25 L1031,837.25 L1021,827.25 " fill="#FEFFDD" style="stroke:#181818;stroke-width:0.5;"/><text fill="#000000" font-family="sans-serif" font-size="13" lengthAdjust="spacing" textLength="249" x="767" y="844.3169">gameMode: ON_GAME -&gt; GAME_OVER</text><line style="stroke:#181818;stroke-width:1.0;" x1="756" x2="803" y1="873.5156" y2="873.5156"/><line style="stroke:#181818;stroke-width:1.0;" x1="803" x2="803" y1="873.5156" y2="886.5156"/><line style="stroke:#181818;stroke-width:1.0;" x1="762" x2="803" y1="886.5156" y2="886.5156"/><polygon fill="#181818" points="772,882.5156,762,886.5156,772,890.5156,768,886.5156" style="stroke:#181818;stroke-width:1.0;"/><text fill="#000000" font-family="sans-serif" font-size="13" lengthAdjust="spacing" textLength="241" x="768" y="868.4497">setGameEndWithWin(gamePlayerKey)</text><line style="stroke:#181818;stroke-width:1.0;" x1="761" x2="808" y1="915.6484" y2="915.6484"/><line style="stroke:#181818;stroke-width:1.0;" x1="808" x2="808" y1="915.6484" y2="928.6484"/><line style="stroke:#181818;stroke-width:1.0;" x1="767" x2="808" y1="928.6484" y2="928.6484"/><polygon fill="#181818" points="777,924.6484,767,928.6484,777,932.6484,773,928.6484" style="stroke:#181818;stroke-width:1.0;"/><text fill="#000000" font-family="sans-serif" font-size="13" lengthAdjust="spacing" textLength="171" x="773" y="910.5825">setGameEnd(PLAYER_WIN)</text><line style="stroke:#181818;stroke-width:1.0;" x1="766" x2="808" y1="962.7813" y2="962.7813"/><line style="stroke:#181818;stroke-width:1.0;" x1="808" x2="808" y1="962.7813" y2="975.7813"/><line style="stroke:#181818;stroke-width:1.0;" x1="767" x2="808" y1="975.7813" y2="975.7813"/><polygon fill="#181818" points="777,971.7813,767,975.7813,777,979.7813,773,975.7813" style="stroke:#181818;stroke-width:1.0;"/><text fill="#000000" font-family="sans-serif" font-size="13" lengthAdjust="spacing" textLength="192" x="773" y="957.7153">setGameModeToGameOver( )</text><line style="stroke:#181818;stroke-width:1.0;" x1="766" x2="808" y1="1004.9141" y2="1004.9141"/><line style="stroke:#181818;stroke-width:1.0;" x1="808" x2="808" y1="1004.9141" y2="1017.9141"/><line style="stroke:#181818;stroke-width:1.0;" x1="767" x2="808" y1="1017.9141" y2="1017.9141"/><polygon fill="#181818" points="777,1013.9141,767,1017.9141,777,1021.9141,773,1017.9141" style="stroke:#181818;stroke-width:1.0;"/><text fill="#000000" font-family="sans-serif" font-size="13" lengthAdjust="spacing" textLength="186" x="773" y="999.8481">setGameResult(PLAYER_WIN)</text><line style="stroke:#181818;stroke-width:1.0;stroke-dasharray:2.0,2.0;" x1="766" x2="808" y1="1036.9141" y2="1036.9141"/><line style="stroke:#181818;stroke-width:1.0;stroke-dasharray:2.0,2.0;" x1="808" x2="808" y1="1036.9141" y2="1049.9141"/><line style="stroke:#181818;stroke-width:1.0;stroke-dasharray:2.0,2.0;" x1="761" x2="808" y1="1049.9141" y2="1049.9141"/><polygon fill="#181818" points="771,1045.9141,761,1049.9141,771,1053.9141,767,1049.9141" style="stroke:#181818;stroke-width:1.0;"/><line style="stroke:#181818;stroke-width:1.0;stroke-dasharray:2.0,2.0;" x1="761" x2="803" y1="1063.9141" y2="1063.9141"/><line style="stroke:#181818;stroke-width:1.0;stroke-dasharray:2.0,2.0;" x1="803" x2="803" y1="1063.9141" y2="1076.9141"/><line style="stroke:#181818;stroke-width:1.0;stroke-dasharray:2.0,2.0;" x1="756" x2="803" y1="1076.9141" y2="1076.9141"/><polygon fill="#181818" points="766,1072.9141,756,1076.9141,766,1080.9141,762,1076.9141" style="stroke:#181818;stroke-width:1.0;"/><polygon fill="#181818" points="193,1081.9141,183,1085.9141,193,1089.9141,189,1085.9141" style="stroke:#181818;stroke-width:1.0;"/><line style="stroke:#181818;stroke-width:1.0;stroke-dasharray:2.0,2.0;" x1="187" x2="750" y1="1085.9141" y2="1085.9141"/><polygon fill="#181818" points="72.5,1111.0469,62.5,1115.0469,72.5,1119.0469,68.5,1115.0469" style="stroke:#181818;stroke-width:1.0;"/><line style="stroke:#181818;stroke-width:1.0;stroke-dasharray:2.0,2.0;" x1="66.5" x2="171" y1="1115.0469" y2="1115.0469"/><text fill="#000000" font-family="sans-serif" font-size="13" lengthAdjust="spacing" textLength="74" x="78.5" y="1109.981">early return</text><path d="M10,1137.0469 L80,1137.0469 L80,1144.1797 L70,1154.1797 L10,1154.1797 L10,1137.0469 " fill="#EEEEEE" style="stroke:#000000;stroke-width:1.5;"/><rect fill="none" height="424.3281" style="stroke:#000000;stroke-width:1.5;" width="1026" x="10" y="1137.0469"/><text fill="#000000" font-family="sans-serif" font-size="13" font-weight="bold" lengthAdjust="spacing" textLength="25" x="25" y="1150.1138">opt</text><text fill="#000000" font-family="sans-serif" font-size="11" font-weight="bold" lengthAdjust="spacing" textLength="135" x="95" y="1149.2573">[when game is draw]</text><polygon fill="#181818" points="387,1174.3125,397,1178.3125,387,1182.3125,391,1178.3125" style="stroke:#181818;stroke-width:1.0;"/><line style="stroke:#181818;stroke-width:1.0;" x1="182" x2="393" y1="1178.3125" y2="1178.3125"/><text fill="#000000" font-family="sans-serif" font-size="13" lengthAdjust="spacing" textLength="126" x="189" y="1173.2466">check game is draw</text><path d="M414,1159.1797 L414,1184.1797 L648,1184.1797 L648,1169.1797 L638,1159.1797 L414,1159.1797 " fill="#FEFFDD" style="stroke:#181818;stroke-width:0.5;"/><path d="M638,1159.1797 L638,1169.1797 L648,1169.1797 L638,1159.1797 " fill="#FEFFDD" style="stroke:#181818;stroke-width:0.5;"/><text fill="#000000" font-family="sans-serif" font-size="13" lengthAdjust="spacing" textLength="213" x="420" y="1176.2466">All grids are occupied with marks.</text><line style="stroke:#181818;stroke-width:1.0;" x1="409" x2="451" y1="1210.4453" y2="1210.4453"/><line style="stroke:#181818;stroke-width:1.0;" x1="451" x2="451" y1="1210.4453" y2="1223.4453"/><line style="stroke:#181818;stroke-width:1.0;" x1="410" x2="451" y1="1223.4453" y2="1223.4453"/><polygon fill="#181818" points="420,1219.4453,410,1223.4453,420,1227.4453,416,1223.4453" style="stroke:#181818;stroke-width:1.0;"/><text fill="#000000" font-family="sans-serif" font-size="13" lengthAdjust="spacing" textLength="268" x="416" y="1205.3794">checkGameEndWithDraw(gamePlayerKey)</text><polygon fill="#181818" points="193,1248.5781,183,1252.5781,193,1256.5781,189,1252.5781" style="stroke:#181818;stroke-width:1.0;"/><line style="stroke:#181818;stroke-width:1.0;stroke-dasharray:2.0,2.0;" x1="187" x2="403" y1="1252.5781" y2="1252.5781"/><text fill="#000000" font-family="sans-serif" font-size="13" lengthAdjust="spacing" textLength="51" x="199" y="1247.5122">boolean</text><polygon fill="#181818" points="734,1280.7109,744,1284.7109,734,1288.7109,738,1284.7109" style="stroke:#181818;stroke-width:1.0;"/><line style="stroke:#181818;stroke-width:1.0;" x1="182" x2="740" y1="1284.7109" y2="1284.7109"/><text fill="#000000" font-family="sans-serif" font-size="13" lengthAdjust="spacing" textLength="164" x="189" y="1279.645">set result with draw game</text><path d="M761,1265.5781 L761,1290.5781 L1031,1290.5781 L1031,1275.5781 L1021,1265.5781 L761,1265.5781 " fill="#FEFFDD" style="stroke:#181818;stroke-width:0.5;"/><path d="M1021,1265.5781 L1021,1275.5781 L1031,1275.5781 L1021,1265.5781 " fill="#FEFFDD" style="stroke:#181818;stroke-width:0.5;"/><text fill="#000000" font-family="sans-serif" font-size="13" lengthAdjust="spacing" textLength="249" x="767" y="1282.645">gameMode: ON_GAME -&gt; GAME_OVER</text><line style="stroke:#181818;stroke-width:1.0;" x1="756" x2="803" y1="1311.8438" y2="1311.8438"/><line style="stroke:#181818;stroke-width:1.0;" x1="803" x2="803" y1="1311.8438" y2="1324.8438"/><line style="stroke:#181818;stroke-width:1.0;" x1="762" x2="803" y1="1324.8438" y2="1324.8438"/><polygon fill="#181818" points="772,1320.8438,762,1324.8438,772,1328.8438,768,1324.8438" style="stroke:#181818;stroke-width:1.0;"/><text fill="#000000" font-family="sans-serif" font-size="13" lengthAdjust="spacing" textLength="152" x="768" y="1306.7778">setGameEndWithDraw()</text><line style="stroke:#181818;stroke-width:1.0;" x1="761" x2="808" y1="1353.9766" y2="1353.9766"/><line style="stroke:#181818;stroke-width:1.0;" x1="808" x2="808" y1="1353.9766" y2="1366.9766"/><line style="stroke:#181818;stroke-width:1.0;" x1="767" x2="808" y1="1366.9766" y2="1366.9766"/><polygon fill="#181818" points="777,1362.9766,767,1366.9766,777,1370.9766,773,1366.9766" style="stroke:#181818;stroke-width:1.0;"/><text fill="#000000" font-family="sans-serif" font-size="13" lengthAdjust="spacing" textLength="131" x="773" y="1348.9106">setGameEnd(DRAW)</text><line style="stroke:#181818;stroke-width:1.0;" x1="766" x2="808" y1="1401.1094" y2="1401.1094"/><line style="stroke:#181818;stroke-width:1.0;" x1="808" x2="808" y1="1401.1094" y2="1414.1094"/><line style="stroke:#181818;stroke-width:1.0;" x1="767" x2="808" y1="1414.1094" y2="1414.1094"/><polygon fill="#181818" points="777,1410.1094,767,1414.1094,777,1418.1094,773,1414.1094" style="stroke:#181818;stroke-width:1.0;"/><text fill="#000000" font-family="sans-serif" font-size="13" lengthAdjust="spacing" textLength="192" x="773" y="1396.0435">setGameModeToGameOver( )</text><line style="stroke:#181818;stroke-width:1.0;" x1="766" x2="808" y1="1443.2422" y2="1443.2422"/><line style="stroke:#181818;stroke-width:1.0;" x1="808" x2="808" y1="1443.2422" y2="1456.2422"/><line style="stroke:#181818;stroke-width:1.0;" x1="767" x2="808" y1="1456.2422" y2="1456.2422"/><polygon fill="#181818" points="777,1452.2422,767,1456.2422,777,1460.2422,773,1456.2422" style="stroke:#181818;stroke-width:1.0;"/><text fill="#000000" font-family="sans-serif" font-size="13" lengthAdjust="spacing" textLength="146" x="773" y="1438.1763">setGameResult(DRAW)</text><line style="stroke:#181818;stroke-width:1.0;stroke-dasharray:2.0,2.0;" x1="766" x2="808" y1="1475.2422" y2="1475.2422"/><line style="stroke:#181818;stroke-width:1.0;stroke-dasharray:2.0,2.0;" x1="808" x2="808" y1="1475.2422" y2="1488.2422"/><line style="stroke:#181818;stroke-width:1.0;stroke-dasharray:2.0,2.0;" x1="761" x2="808" y1="1488.2422" y2="1488.2422"/><polygon fill="#181818" points="771,1484.2422,761,1488.2422,771,1492.2422,767,1488.2422" style="stroke:#181818;stroke-width:1.0;"/><line style="stroke:#181818;stroke-width:1.0;stroke-dasharray:2.0,2.0;" x1="761" x2="803" y1="1502.2422" y2="1502.2422"/><line style="stroke:#181818;stroke-width:1.0;stroke-dasharray:2.0,2.0;" x1="803" x2="803" y1="1502.2422" y2="1515.2422"/><line style="stroke:#181818;stroke-width:1.0;stroke-dasharray:2.0,2.0;" x1="756" x2="803" y1="1515.2422" y2="1515.2422"/><polygon fill="#181818" points="766,1511.2422,756,1515.2422,766,1519.2422,762,1515.2422" style="stroke:#181818;stroke-width:1.0;"/><polygon fill="#181818" points="193,1520.2422,183,1524.2422,193,1528.2422,189,1524.2422" style="stroke:#181818;stroke-width:1.0;"/><line style="stroke:#181818;stroke-width:1.0;stroke-dasharray:2.0,2.0;" x1="187" x2="750" y1="1524.2422" y2="1524.2422"/><polygon fill="#181818" points="72.5,1549.375,62.5,1553.375,72.5,1557.375,68.5,1553.375" style="stroke:#181818;stroke-width:1.0;"/><line style="stroke:#181818;stroke-width:1.0;stroke-dasharray:2.0,2.0;" x1="66.5" x2="171" y1="1553.375" y2="1553.375"/><text fill="#000000" font-family="sans-serif" font-size="13" lengthAdjust="spacing" textLength="74" x="78.5" y="1548.3091">early return</text><polygon fill="#181818" points="999,1588.5078,1009,1592.5078,999,1596.5078,1003,1592.5078" style="stroke:#181818;stroke-width:1.0;"/><line style="stroke:#181818;stroke-width:1.0;" x1="182" x2="1005" y1="1592.5078" y2="1592.5078"/><text fill="#000000" font-family="sans-serif" font-size="13" lengthAdjust="spacing" textLength="58" x="189" y="1587.4419">next turn</text><path d="M1026,1573.375 L1026,1598.375 L1248,1598.375 L1248,1583.375 L1238,1573.375 L1026,1573.375 " fill="#FEFFDD" style="stroke:#181818;stroke-width:0.5;"/><path d="M1238,1573.375 L1238,1583.375 L1248,1583.375 L1238,1573.375 " fill="#FEFFDD" style="stroke:#181818;stroke-width:0.5;"/><text fill="#000000" font-family="sans-serif" font-size="13" lengthAdjust="spacing" textLength="201" x="1032" y="1590.4419">in next turn, change turn player</text><line style="stroke:#181818;stroke-width:1.0;" x1="1021" x2="1068" y1="1619.6406" y2="1619.6406"/><line style="stroke:#181818;stroke-width:1.0;" x1="1068" x2="1068" y1="1619.6406" y2="1632.6406"/><line style="stroke:#181818;stroke-width:1.0;" x1="1027" x2="1068" y1="1632.6406" y2="1632.6406"/><polygon fill="#181818" points="1037,1628.6406,1027,1632.6406,1037,1636.6406,1033,1632.6406" style="stroke:#181818;stroke-width:1.0;"/><text fill="#000000" font-family="sans-serif" font-size="13" lengthAdjust="spacing" textLength="135" x="1033" y="1614.5747">advanceGameTurn( )</text><line style="stroke:#181818;stroke-width:1.0;" x1="1026" x2="1068" y1="1666.7734" y2="1666.7734"/><line style="stroke:#181818;stroke-width:1.0;" x1="1068" x2="1068" y1="1666.7734" y2="1679.7734"/><line style="stroke:#181818;stroke-width:1.0;" x1="1027" x2="1068" y1="1679.7734" y2="1679.7734"/><polygon fill="#181818" points="1037,1675.7734,1027,1679.7734,1037,1683.7734,1033,1679.7734" style="stroke:#181818;stroke-width:1.0;"/><text fill="#000000" font-family="sans-serif" font-size="13" lengthAdjust="spacing" textLength="135" x="1033" y="1661.7075">increaseGameTurn( )</text><line style="stroke:#181818;stroke-width:1.0;" x1="1026" x2="1068" y1="1708.9063" y2="1708.9063"/><line style="stroke:#181818;stroke-width:1.0;" x1="1068" x2="1068" y1="1708.9063" y2="1721.9063"/><line style="stroke:#181818;stroke-width:1.0;" x1="1027" x2="1068" y1="1721.9063" y2="1721.9063"/><polygon fill="#181818" points="1037,1717.9063,1027,1721.9063,1037,1725.9063,1033,1721.9063" style="stroke:#181818;stroke-width:1.0;"/><text fill="#000000" font-family="sans-serif" font-size="13" lengthAdjust="spacing" textLength="201" x="1033" y="1703.8403">toggleGamePlayerKeyOnTurn( )</text><line style="stroke:#181818;stroke-width:1.0;stroke-dasharray:2.0,2.0;" x1="1026" x2="1068" y1="1740.9063" y2="1740.9063"/><line style="stroke:#181818;stroke-width:1.0;stroke-dasharray:2.0,2.0;" x1="1068" x2="1068" y1="1740.9063" y2="1753.9063"/><line style="stroke:#181818;stroke-width:1.0;stroke-dasharray:2.0,2.0;" x1="1021" x2="1068" y1="1753.9063" y2="1753.9063"/><polygon fill="#181818" points="1031,1749.9063,1021,1753.9063,1031,1757.9063,1027,1753.9063" style="stroke:#181818;stroke-width:1.0;"/><polygon fill="#181818" points="193,1758.9063,183,1762.9063,193,1766.9063,189,1762.9063" style="stroke:#181818;stroke-width:1.0;"/><line style="stroke:#181818;stroke-width:1.0;stroke-dasharray:2.0,2.0;" x1="187" x2="1015" y1="1762.9063" y2="1762.9063"/><line style="stroke:#181818;stroke-width:1.0;stroke-dasharray:2.0,2.0;" x1="182" x2="224" y1="1781.9063" y2="1781.9063"/><line style="stroke:#181818;stroke-width:1.0;stroke-dasharray:2.0,2.0;" x1="224" x2="224" y1="1781.9063" y2="1794.9063"/><line style="stroke:#181818;stroke-width:1.0;stroke-dasharray:2.0,2.0;" x1="177" x2="224" y1="1794.9063" y2="1794.9063"/><polygon fill="#181818" points="187,1790.9063,177,1794.9063,187,1798.9063,183,1794.9063" style="stroke:#181818;stroke-width:1.0;"/><polygon fill="#181818" points="72.5,1799.9063,62.5,1803.9063,72.5,1807.9063,68.5,1803.9063" style="stroke:#181818;stroke-width:1.0;"/><line style="stroke:#181818;stroke-width:1.0;stroke-dasharray:2.0,2.0;" x1="66.5" x2="171" y1="1803.9063" y2="1803.9063"/><!--MD5=[95ec56eae457637c60b16b6ff8564068]
@startuml
title Grid Select Sequence
hide footbox

Actor "Turn Player" as Player
participant "TicTacToeView" as TicTacToeView
participant "GameGridContext" as GameGrid
participant "GameStateContext" as GameState
participant "GameTurnContext" as GameTurn

Player -> TicTacToeView ++: 
TicTacToeView -> TicTacToeView ++: selectGameGrid( )

opt when game is over
	TicTacToeView -> GameState ++: check game is over
	GameState -> GameState: gameMode !== 'ON_GAME'
	GameState - -> TicTacToeView - -: boolean
	TicTacToeView - -> Player: early return
end

TicTacToeView -> GameGrid: get grid data in (row, col)
activate GameGrid
GameGrid -> GameGrid: getGameGrid(row, col)
GameGrid - -> TicTacToeView: selectedGameGrid
deactivate GameGrid

opt when selected grid is already occupied
TicTacToeView -> GameGrid: check selected grid is occupied
activate GameGrid
	GameGrid -> GameGrid: selectedGameGrid.occupied === true
	GameGrid - -> TicTacToeView:boolean
deactivate GameGrid
TicTacToeView - -> Player: early return
end

TicTacToeView -> GameGrid ++: set grid data in (row, col)
GameGrid -> GameGrid: setGameGrid(row, col, gamePlayerKey, gameTurn)
GameGrid - -> TicTacToeView - -:

opt when turn player wins
	TicTacToeView -> GameGrid ++: check player wins
	note right
	Three same marks are placed in horizontal, vertical, or diagonal row.
	end note
	GameGrid -> GameGrid: checkGameEndWithWin(gamePlayerKey)
	GameGrid - -> TicTacToeView - -: boolean

	TicTacToeView -> GameState ++: set result with winning of turn player
	note right
	gameMode: ON_GAME -> GAME_OVER
	end note
	GameState -> GameState ++: setGameEndWithWin(gamePlayerKey)
	GameState -> GameState ++: setGameEnd(PLAYER_WIN)
	GameState -> GameState: setGameModeToGameOver( )
	GameState -> GameState: setGameResult(PLAYER_WIN)
	GameState - -> GameState - -: 
	GameState - -> GameState - -: 
	GameState - -> TicTacToeView - -: 
	TicTacToeView - -> Player: early return
end

opt when game is draw
	TicTacToeView -> GameGrid ++: check game is draw
	note right
	All grids are occupied with marks.
	end note
	GameGrid -> GameGrid: checkGameEndWithDraw(gamePlayerKey)
	GameGrid - -> TicTacToeView - -: boolean
	
	TicTacToeView -> GameState ++: set result with draw game
	note right
	gameMode: ON_GAME -> GAME_OVER
	end note
	GameState -> GameState ++: setGameEndWithDraw()
	GameState -> GameState ++: setGameEnd(DRAW)
	GameState -> GameState: setGameModeToGameOver( )
	GameState -> GameState: setGameResult(DRAW)
	GameState - -> GameState - -: 
	GameState - -> GameState - -: 
	GameState - -> TicTacToeView - -: 
	TicTacToeView - -> Player: early return
end

TicTacToeView -> GameTurn ++: next turn
note right
	in next turn, change turn player
end note
GameTurn -> GameTurn ++: advanceGameTurn( )
GameTurn -> GameTurn: increaseGameTurn( )
GameTurn -> GameTurn: toggleGamePlayerKeyOnTurn( )
GameTurn - ->  GameTurn - -:
GameTurn - -> TicTacToeView - -:

TicTacToeView - -> TicTacToeView - -:
TicTacToeView - -> Player - -: 
@enduml

PlantUML version 1.2022.13(Sat Nov 19 22:22:17 JST 2022)
(GPL source distribution)
Java Runtime: OpenJDK Runtime Environment
JVM: OpenJDK 64-Bit Server VM
Default Encoding: UTF-8
Language: en
Country: US
--></g></svg>