<?xml version="1.0" encoding="UTF-8" standalone="no"?><svg xmlns="http://www.w3.org/2000/svg" xmlns:xlink="http://www.w3.org/1999/xlink" contentStyleType="text/css" height="644px" preserveAspectRatio="none" style="width:1876px;height:644px;background:#FFFFFF;" version="1.1" viewBox="0 0 1876 644" width="1876px" zoomAndPan="magnify"><defs/><g><text fill="#000000" font-family="sans-serif" font-size="14" font-weight="bold" lengthAdjust="spacing" textLength="328" x="767.25" y="23.5352">Relationship Diagram of Hooks and Contexts</text><!--MD5=[ae8439213318281d253ad18006a87dc5]
class UserRegistView--><g id="elem_UserRegistView"><rect codeLine="3" fill="#F1F1F1" height="130.4414" id="UserRegistView" rx="2.5" ry="2.5" style="stroke:#181818;stroke-width:0.5;" width="162" x="1374.5" y="52.9883"/><ellipse cx="1389.5" cy="68.9883" fill="#ADD1B2" rx="11" ry="11" style="stroke:#181818;stroke-width:1.0;"/><path d="M1391.9731,75.1313 Q1391.3921,75.4302 1390.7529,75.5796 Q1390.1138,75.729 1389.4082,75.729 Q1386.9014,75.729 1385.5815,74.0771 Q1384.2617,72.4253 1384.2617,69.3042 Q1384.2617,66.1748 1385.5815,64.5229 Q1386.9014,62.8711 1389.4082,62.8711 Q1390.1138,62.8711 1390.7612,63.0205 Q1391.4087,63.1699 1391.9731,63.4688 L1391.9731,66.1914 Q1391.3423,65.6104 1390.7488,65.3406 Q1390.1553,65.0708 1389.5244,65.0708 Q1388.1797,65.0708 1387.4949,66.1375 Q1386.8101,67.2041 1386.8101,69.3042 Q1386.8101,71.396 1387.4949,72.4626 Q1388.1797,73.5293 1389.5244,73.5293 Q1390.1553,73.5293 1390.7488,73.2595 Q1391.3423,72.9897 1391.9731,72.4087 Z " fill="#000000"/><text fill="#000000" font-family="sans-serif" font-size="14" lengthAdjust="spacing" textLength="130" x="1403.5" y="74.2793">UserRegistView.tsx</text><line style="stroke:#181818;stroke-width:0.5;" x1="1375.5" x2="1535.5" y1="84.9883" y2="84.9883"/><text fill="#000000" font-family="sans-serif" font-size="14" lengthAdjust="spacing" textLength="70" x="1380.5" y="102.5234">yourName</text><text fill="#000000" font-family="sans-serif" font-size="14" lengthAdjust="spacing" textLength="114" x="1380.5" y="119.0117">oppeonentName</text><text fill="#000000" font-family="sans-serif" font-size="14" lengthAdjust="spacing" textLength="108" x="1380.5" y="135.5">inputYourName</text><text fill="#000000" font-family="sans-serif" font-size="14" lengthAdjust="spacing" textLength="144" x="1380.5" y="151.9883">inputOpponentName</text><line style="stroke:#181818;stroke-width:0.5;" x1="1375.5" x2="1535.5" y1="158.9414" y2="158.9414"/><text fill="#000000" font-family="sans-serif" font-size="14" lengthAdjust="spacing" textLength="142" x="1380.5" y="176.4766">handelSubmit(event)</text></g><!--MD5=[9dee31518fe58d48174303dc5f2c1aec]
class TicTacToeView--><g id="elem_TicTacToeView"><rect codeLine="11" fill="#F1F1F1" height="146.9297" id="TicTacToeView" rx="2.5" ry="2.5" style="stroke:#181818;stroke-width:0.5;" width="183" x="876" y="44.4883"/><ellipse cx="901.8" cy="60.4883" fill="#ADD1B2" rx="11" ry="11" style="stroke:#181818;stroke-width:1.0;"/><path d="M904.2731,66.6313 Q903.6921,66.9302 903.0529,67.0796 Q902.4138,67.229 901.7082,67.229 Q899.2014,67.229 897.8815,65.5771 Q896.5617,63.9253 896.5617,60.8042 Q896.5617,57.6748 897.8815,56.0229 Q899.2014,54.3711 901.7082,54.3711 Q902.4138,54.3711 903.0612,54.5205 Q903.7087,54.6699 904.2731,54.9688 L904.2731,57.6914 Q903.6423,57.1104 903.0488,56.8406 Q902.4553,56.5708 901.8244,56.5708 Q900.4797,56.5708 899.7949,57.6375 Q899.1101,58.7041 899.1101,60.8042 Q899.1101,62.896 899.7949,63.9626 Q900.4797,65.0293 901.8244,65.0293 Q902.4553,65.0293 903.0488,64.7595 Q903.6423,64.4897 904.2731,63.9087 Z " fill="#000000"/><text fill="#000000" font-family="sans-serif" font-size="14" lengthAdjust="spacing" textLength="127" x="918.2" y="65.7793">TicTacToeView.tsx</text><line style="stroke:#181818;stroke-width:0.5;" x1="877" x2="1058" y1="76.4883" y2="76.4883"/><text fill="#000000" font-family="sans-serif" font-size="14" lengthAdjust="spacing" textLength="70" x="882" y="94.0234">yourName</text><text fill="#000000" font-family="sans-serif" font-size="14" lengthAdjust="spacing" textLength="114" x="882" y="110.5117">oppeonentName</text><text fill="#000000" font-family="sans-serif" font-size="14" lengthAdjust="spacing" textLength="171" x="882" y="127">gamePlayerNameOnTurn</text><line style="stroke:#181818;stroke-width:0.5;" x1="877" x2="1058" y1="133.9531" y2="133.9531"/><text fill="#000000" font-family="sans-serif" font-size="14" lengthAdjust="spacing" textLength="117" x="882" y="151.4883">selectGameGrid()</text><text fill="#000000" font-family="sans-serif" font-size="14" lengthAdjust="spacing" textLength="103" x="882" y="167.9766">initGameStart()</text><text fill="#000000" font-family="sans-serif" font-size="14" lengthAdjust="spacing" textLength="59" x="882" y="184.4648">goBack()</text></g><!--MD5=[fb70df6079b8c7aa6defa38ba3cf4955]
class GameGridsContext--><g id="elem_GameGridsContext"><rect codeLine="20" fill="#F1F1F1" height="163.418" id="GameGridsContext" rx="2.5" ry="2.5" style="stroke:#181818;stroke-width:0.5;" width="354" x="560.5" y="251.4883"/><ellipse cx="655.75" cy="267.4883" fill="#ADD1B2" rx="11" ry="11" style="stroke:#181818;stroke-width:1.0;"/><path d="M658.2231,273.6313 Q657.6421,273.9302 657.0029,274.0796 Q656.3638,274.229 655.6582,274.229 Q653.1514,274.229 651.8315,272.5771 Q650.5117,270.9253 650.5117,267.8042 Q650.5117,264.6748 651.8315,263.0229 Q653.1514,261.3711 655.6582,261.3711 Q656.3638,261.3711 657.0112,261.5205 Q657.6587,261.6699 658.2231,261.9688 L658.2231,264.6914 Q657.5923,264.1104 656.9988,263.8406 Q656.4053,263.5708 655.7744,263.5708 Q654.4297,263.5708 653.7449,264.6375 Q653.0601,265.7041 653.0601,267.8042 Q653.0601,269.896 653.7449,270.9626 Q654.4297,272.0293 655.7744,272.0293 Q656.4053,272.0293 656.9988,271.7595 Q657.5923,271.4897 658.2231,270.9087 Z " fill="#000000"/><text fill="#000000" font-family="sans-serif" font-size="14" lengthAdjust="spacing" textLength="155" x="676.25" y="272.7793">GameGridsContext.tsx</text><line style="stroke:#181818;stroke-width:0.5;" x1="561.5" x2="913.5" y1="283.4883" y2="283.4883"/><text fill="#000000" font-family="sans-serif" font-size="14" lengthAdjust="spacing" textLength="74" x="566.5" y="301.0234">gameGrids</text><line style="stroke:#181818;stroke-width:0.5;" x1="561.5" x2="913.5" y1="307.9766" y2="307.9766"/><text fill="#000000" font-family="sans-serif" font-size="14" lengthAdjust="spacing" textLength="107" x="566.5" y="325.5117">initGameGrids()</text><text fill="#000000" font-family="sans-serif" font-size="14" lengthAdjust="spacing" textLength="154" x="566.5" y="342">getGameGrid(row, col)</text><text fill="#000000" font-family="sans-serif" font-size="14" lengthAdjust="spacing" textLength="342" x="566.5" y="358.4883">setGameGrid(row, col, gamePlayerKey, gameTurn)</text><text fill="#000000" font-family="sans-serif" font-size="14" lengthAdjust="spacing" textLength="166" x="566.5" y="374.9766">resetGameGrid(row, col)</text><text fill="#000000" font-family="sans-serif" font-size="14" lengthAdjust="spacing" textLength="177" x="566.5" y="391.4648">checkWin(gamePlayerKey)</text><text fill="#000000" font-family="sans-serif" font-size="14" lengthAdjust="spacing" textLength="84" x="566.5" y="407.9531">checkDraw()</text></g><!--MD5=[407986f5752d98a72da282f608205af4]
class GamePlayersContext--><g id="elem_GamePlayersContext"><rect codeLine="30" fill="#F1F1F1" height="163.418" id="GamePlayersContext" rx="2.5" ry="2.5" style="stroke:#181818;stroke-width:0.5;" width="268" x="1321.5" y="251.4883"/><ellipse cx="1367.75" cy="267.4883" fill="#ADD1B2" rx="11" ry="11" style="stroke:#181818;stroke-width:1.0;"/><path d="M1370.2231,273.6313 Q1369.6421,273.9302 1369.0029,274.0796 Q1368.3638,274.229 1367.6582,274.229 Q1365.1514,274.229 1363.8315,272.5771 Q1362.5117,270.9253 1362.5117,267.8042 Q1362.5117,264.6748 1363.8315,263.0229 Q1365.1514,261.3711 1367.6582,261.3711 Q1368.3638,261.3711 1369.0112,261.5205 Q1369.6587,261.6699 1370.2231,261.9688 L1370.2231,264.6914 Q1369.5923,264.1104 1368.9988,263.8406 Q1368.4053,263.5708 1367.7744,263.5708 Q1366.4297,263.5708 1365.7449,264.6375 Q1365.0601,265.7041 1365.0601,267.8042 Q1365.0601,269.896 1365.7449,270.9626 Q1366.4297,272.0293 1367.7744,272.0293 Q1368.4053,272.0293 1368.9988,271.7595 Q1369.5923,271.4897 1370.2231,270.9087 Z " fill="#000000"/><text fill="#000000" font-family="sans-serif" font-size="14" lengthAdjust="spacing" textLength="167" x="1388.25" y="272.7793">GamePlayersContext.tsx</text><line style="stroke:#181818;stroke-width:0.5;" x1="1322.5" x2="1588.5" y1="283.4883" y2="283.4883"/><text fill="#000000" font-family="sans-serif" font-size="14" lengthAdjust="spacing" textLength="86" x="1327.5" y="301.0234">gamePlayers</text><line style="stroke:#181818;stroke-width:0.5;" x1="1322.5" x2="1588.5" y1="307.9766" y2="307.9766"/><text fill="#000000" font-family="sans-serif" font-size="14" lengthAdjust="spacing" textLength="151" x="1327.5" y="325.5117">getGamePlayerName()</text><text fill="#000000" font-family="sans-serif" font-size="14" lengthAdjust="spacing" textLength="104" x="1327.5" y="342">getYourName()</text><text fill="#000000" font-family="sans-serif" font-size="14" lengthAdjust="spacing" textLength="140" x="1327.5" y="358.4883">getOpponentName()</text><text fill="#000000" font-family="sans-serif" font-size="14" lengthAdjust="spacing" textLength="204" x="1327.5" y="374.9766">getGamePlayerKeyRandomly()</text><text fill="#000000" font-family="sans-serif" font-size="14" lengthAdjust="spacing" textLength="256" x="1327.5" y="391.4648">setGamePlayerNames(you, opponent)</text><text fill="#000000" font-family="sans-serif" font-size="14" lengthAdjust="spacing" textLength="158" x="1327.5" y="407.9531">initGamePlayerNames()</text></g><!--MD5=[271274cd3dec61aff7303e0b3e594f59]
class GameStateContext--><g id="elem_GameStateContext"><rect codeLine="40" fill="#F1F1F1" height="130.4414" id="GameStateContext" rx="2.5" ry="2.5" style="stroke:#181818;stroke-width:0.5;" width="265" x="1021" y="267.9883"/><ellipse cx="1072.75" cy="283.9883" fill="#ADD1B2" rx="11" ry="11" style="stroke:#181818;stroke-width:1.0;"/><path d="M1075.2231,290.1313 Q1074.6421,290.4302 1074.0029,290.5796 Q1073.3638,290.729 1072.6582,290.729 Q1070.1514,290.729 1068.8315,289.0771 Q1067.5117,287.4253 1067.5117,284.3042 Q1067.5117,281.1748 1068.8315,279.5229 Q1070.1514,277.8711 1072.6582,277.8711 Q1073.3638,277.8711 1074.0112,278.0205 Q1074.6587,278.1699 1075.2231,278.4688 L1075.2231,281.1914 Q1074.5923,280.6104 1073.9988,280.3406 Q1073.4053,280.0708 1072.7744,280.0708 Q1071.4297,280.0708 1070.7449,281.1375 Q1070.0601,282.2041 1070.0601,284.3042 Q1070.0601,286.396 1070.7449,287.4626 Q1071.4297,288.5293 1072.7744,288.5293 Q1073.4053,288.5293 1073.9988,288.2595 Q1074.5923,287.9897 1075.2231,287.4087 Z " fill="#000000"/><text fill="#000000" font-family="sans-serif" font-size="14" lengthAdjust="spacing" textLength="153" x="1093.25" y="289.2793">GameStateContext.tsx</text><line style="stroke:#181818;stroke-width:0.5;" x1="1022" x2="1285" y1="299.9883" y2="299.9883"/><text fill="#000000" font-family="sans-serif" font-size="14" lengthAdjust="spacing" textLength="76" x="1027" y="317.5234">gameMode</text><text fill="#000000" font-family="sans-serif" font-size="14" lengthAdjust="spacing" textLength="80" x="1027" y="334.0117">gameResult</text><line style="stroke:#181818;stroke-width:0.5;" x1="1022" x2="1285" y1="340.9648" y2="340.9648"/><text fill="#000000" font-family="sans-serif" font-size="14" lengthAdjust="spacing" textLength="105" x="1027" y="358.5">initGameState()</text><text fill="#000000" font-family="sans-serif" font-size="14" lengthAdjust="spacing" textLength="253" x="1027" y="374.9883">setGameEndWithWin(gamePlayerKey)</text><text fill="#000000" font-family="sans-serif" font-size="14" lengthAdjust="spacing" textLength="160" x="1027" y="391.4766">setGameEndWithDraw()</text></g><!--MD5=[99e5bccf41373de8b1fea0e7e19d690b]
class GameTurnContext--><g id="elem_GameTurnContext"><rect codeLine="48" fill="#F1F1F1" height="146.9297" id="GameTurnContext" rx="2.5" ry="2.5" style="stroke:#181818;stroke-width:0.5;" width="184" x="299.5" y="259.4883"/><ellipse cx="314.5" cy="275.4883" fill="#ADD1B2" rx="11" ry="11" style="stroke:#181818;stroke-width:1.0;"/><path d="M316.9731,281.6313 Q316.3921,281.9302 315.7529,282.0796 Q315.1138,282.229 314.4082,282.229 Q311.9014,282.229 310.5815,280.5771 Q309.2617,278.9253 309.2617,275.8042 Q309.2617,272.6748 310.5815,271.0229 Q311.9014,269.3711 314.4082,269.3711 Q315.1138,269.3711 315.7612,269.5205 Q316.4087,269.6699 316.9731,269.9688 L316.9731,272.6914 Q316.3423,272.1104 315.7488,271.8406 Q315.1553,271.5708 314.5244,271.5708 Q313.1797,271.5708 312.4949,272.6375 Q311.8101,273.7041 311.8101,275.8042 Q311.8101,277.896 312.4949,278.9626 Q313.1797,280.0293 314.5244,280.0293 Q315.1553,280.0293 315.7488,279.7595 Q316.3423,279.4897 316.9731,278.9087 Z " fill="#000000"/><text fill="#000000" font-family="sans-serif" font-size="14" lengthAdjust="spacing" textLength="152" x="328.5" y="280.7793">GameTurnContext.tsx</text><line style="stroke:#181818;stroke-width:0.5;" x1="300.5" x2="482.5" y1="291.4883" y2="291.4883"/><text fill="#000000" font-family="sans-serif" font-size="14" lengthAdjust="spacing" textLength="71" x="305.5" y="309.0234">gameTurn</text><text fill="#000000" font-family="sans-serif" font-size="14" lengthAdjust="spacing" textLength="156" x="305.5" y="325.5117">gamePlayerKeyOnTurn</text><line style="stroke:#181818;stroke-width:0.5;" x1="300.5" x2="482.5" y1="332.4648" y2="332.4648"/><text fill="#000000" font-family="sans-serif" font-size="14" lengthAdjust="spacing" textLength="104" x="305.5" y="350">initGameTurn()</text><text fill="#000000" font-family="sans-serif" font-size="14" lengthAdjust="spacing" textLength="138" x="305.5" y="366.4883">advanceGameTurn()</text><text fill="#000000" font-family="sans-serif" font-size="14" lengthAdjust="spacing" textLength="129" x="305.5" y="382.9766">rewindGameTurn()</text><text fill="#000000" font-family="sans-serif" font-size="14" lengthAdjust="spacing" textLength="132" x="305.5" y="399.4648">setFirstGameTurn()</text></g><!--MD5=[45766bac5053e7b4f64dc163870b212a]
class useConstants--><g id="elem_useConstants"><rect codeLine="58" fill="#F1F1F1" height="163.418" id="useConstants" rx="2.5" ry="2.5" style="stroke:#181818;stroke-width:0.5;" width="234" x="850.5" y="474.4883"/><ellipse cx="908.75" cy="490.4883" fill="#ADD1B2" rx="11" ry="11" style="stroke:#181818;stroke-width:1.0;"/><path d="M911.2231,496.6313 Q910.6421,496.9302 910.0029,497.0796 Q909.3638,497.229 908.6582,497.229 Q906.1514,497.229 904.8315,495.5771 Q903.5117,493.9253 903.5117,490.8042 Q903.5117,487.6748 904.8315,486.0229 Q906.1514,484.3711 908.6582,484.3711 Q909.3638,484.3711 910.0112,484.5205 Q910.6587,484.6699 911.2231,484.9688 L911.2231,487.6914 Q910.5923,487.1104 909.9988,486.8406 Q909.4053,486.5708 908.7744,486.5708 Q907.4297,486.5708 906.7449,487.6375 Q906.0601,488.7041 906.0601,490.8042 Q906.0601,492.896 906.7449,493.9626 Q907.4297,495.0293 908.7744,495.0293 Q909.4053,495.0293 909.9988,494.7595 Q910.5923,494.4897 911.2231,493.9087 Z " fill="#000000"/><text fill="#000000" font-family="sans-serif" font-size="14" lengthAdjust="spacing" textLength="109" x="929.25" y="495.7793">useConstants.ts</text><line style="stroke:#181818;stroke-width:0.5;" x1="851.5" x2="1083.5" y1="506.4883" y2="506.4883"/><text fill="#000000" font-family="sans-serif" font-size="14" lengthAdjust="spacing" textLength="139" x="856.5" y="524.0234">GAME_PLAYER_KEYS</text><text fill="#000000" font-family="sans-serif" font-size="14" lengthAdjust="spacing" textLength="222" x="856.5" y="540.5117">DEFAULT_GAME_PLAYER_NAMES</text><text fill="#000000" font-family="sans-serif" font-size="14" lengthAdjust="spacing" textLength="88" x="856.5" y="557">GAME_GRIDS</text><text fill="#000000" font-family="sans-serif" font-size="14" lengthAdjust="spacing" textLength="85" x="856.5" y="573.4883">GAME_TURN</text><text fill="#000000" font-family="sans-serif" font-size="14" lengthAdjust="spacing" textLength="88" x="856.5" y="589.9766">GAME_MODE</text><text fill="#000000" font-family="sans-serif" font-size="14" lengthAdjust="spacing" textLength="98" x="856.5" y="606.4648">GAME_RESULT</text><text fill="#000000" font-family="sans-serif" font-size="14" lengthAdjust="spacing" textLength="79" x="856.5" y="622.9531">SLEEP_TIME</text><line style="stroke:#181818;stroke-width:0.5;" x1="851.5" x2="1083.5" y1="629.9063" y2="629.9063"/></g><!--MD5=[459c93c415d6d7f0f4fefb92fe317108]
class useGameGrids--><g id="elem_useGameGrids"><rect codeLine="68" fill="#F1F1F1" height="163.418" id="useGameGrids" rx="2.5" ry="2.5" style="stroke:#181818;stroke-width:0.5;" width="354" x="461.5" y="474.4883"/><ellipse cx="576.75" cy="490.4883" fill="#ADD1B2" rx="11" ry="11" style="stroke:#181818;stroke-width:1.0;"/><path d="M579.2231,496.6313 Q578.6421,496.9302 578.0029,497.0796 Q577.3638,497.229 576.6582,497.229 Q574.1514,497.229 572.8315,495.5771 Q571.5117,493.9253 571.5117,490.8042 Q571.5117,487.6748 572.8315,486.0229 Q574.1514,484.3711 576.6582,484.3711 Q577.3638,484.3711 578.0112,484.5205 Q578.6587,484.6699 579.2231,484.9688 L579.2231,487.6914 Q578.5923,487.1104 577.9988,486.8406 Q577.4053,486.5708 576.7744,486.5708 Q575.4297,486.5708 574.7449,487.6375 Q574.0601,488.7041 574.0601,490.8042 Q574.0601,492.896 574.7449,493.9626 Q575.4297,495.0293 576.7744,495.0293 Q577.4053,495.0293 577.9988,494.7595 Q578.5923,494.4897 579.2231,493.9087 Z " fill="#000000"/><text fill="#000000" font-family="sans-serif" font-size="14" lengthAdjust="spacing" textLength="115" x="597.25" y="495.7793">useGameGrids.ts</text><line style="stroke:#181818;stroke-width:0.5;" x1="462.5" x2="814.5" y1="506.4883" y2="506.4883"/><text fill="#000000" font-family="sans-serif" font-size="14" lengthAdjust="spacing" textLength="74" x="467.5" y="524.0234">gameGrids</text><line style="stroke:#181818;stroke-width:0.5;" x1="462.5" x2="814.5" y1="530.9766" y2="530.9766"/><text fill="#000000" font-family="sans-serif" font-size="14" lengthAdjust="spacing" textLength="107" x="467.5" y="548.5117">initGameGrids()</text><text fill="#000000" font-family="sans-serif" font-size="14" lengthAdjust="spacing" textLength="154" x="467.5" y="565">getGameGrid(row, col)</text><text fill="#000000" font-family="sans-serif" font-size="14" lengthAdjust="spacing" textLength="342" x="467.5" y="581.4883">setGameGrid(row, col, gamePlayerKey, gameTurn)</text><text fill="#000000" font-family="sans-serif" font-size="14" lengthAdjust="spacing" textLength="166" x="467.5" y="597.9766">resetGameGrid(row, col)</text><text fill="#000000" font-family="sans-serif" font-size="14" lengthAdjust="spacing" textLength="177" x="467.5" y="614.4648">checkWin(gamePlayerKey)</text><text fill="#000000" font-family="sans-serif" font-size="14" lengthAdjust="spacing" textLength="84" x="467.5" y="630.9531">checkDraw()</text></g><!--MD5=[3bc5ff66e1a85a21f345313a9f77016d]
class useGamePlayers--><g id="elem_useGamePlayers"><rect codeLine="78" fill="#F1F1F1" height="97.4648" id="useGamePlayers" rx="2.5" ry="2.5" style="stroke:#181818;stroke-width:0.5;" width="268" x="1601.5" y="507.4883"/><ellipse cx="1667.75" cy="523.4883" fill="#ADD1B2" rx="11" ry="11" style="stroke:#181818;stroke-width:1.0;"/><path d="M1670.2231,529.6313 Q1669.6421,529.9302 1669.0029,530.0796 Q1668.3638,530.229 1667.6582,530.229 Q1665.1514,530.229 1663.8315,528.5771 Q1662.5117,526.9253 1662.5117,523.8042 Q1662.5117,520.6748 1663.8315,519.0229 Q1665.1514,517.3711 1667.6582,517.3711 Q1668.3638,517.3711 1669.0112,517.5205 Q1669.6587,517.6699 1670.2231,517.9688 L1670.2231,520.6914 Q1669.5923,520.1104 1668.9988,519.8406 Q1668.4053,519.5708 1667.7744,519.5708 Q1666.4297,519.5708 1665.7449,520.6375 Q1665.0601,521.7041 1665.0601,523.8042 Q1665.0601,525.896 1665.7449,526.9626 Q1666.4297,528.0293 1667.7744,528.0293 Q1668.4053,528.0293 1668.9988,527.7595 Q1669.5923,527.4897 1670.2231,526.9087 Z " fill="#000000"/><text fill="#000000" font-family="sans-serif" font-size="14" lengthAdjust="spacing" textLength="127" x="1688.25" y="528.7793">useGamePlayers.ts</text><line style="stroke:#181818;stroke-width:0.5;" x1="1602.5" x2="1868.5" y1="539.4883" y2="539.4883"/><text fill="#000000" font-family="sans-serif" font-size="14" lengthAdjust="spacing" textLength="86" x="1607.5" y="557.0234">gamePlayers</text><line style="stroke:#181818;stroke-width:0.5;" x1="1602.5" x2="1868.5" y1="563.9766" y2="563.9766"/><text fill="#000000" font-family="sans-serif" font-size="14" lengthAdjust="spacing" textLength="254" x="1607.5" y="581.5117">getGamePlayerName(gamePlayerKey)</text><text fill="#000000" font-family="sans-serif" font-size="14" lengthAdjust="spacing" textLength="256" x="1607.5" y="598">setGamePlayerNames(you, opponent)</text></g><!--MD5=[25ce75281466841eb35daa014b3cff59]
class useGameMode--><g id="elem_useGameMode"><rect codeLine="84" fill="#F1F1F1" height="97.4648" id="useGameMode" rx="2.5" ry="2.5" style="stroke:#181818;stroke-width:0.5;" width="208" x="1119.5" y="507.4883"/><ellipse cx="1161.05" cy="523.4883" fill="#ADD1B2" rx="11" ry="11" style="stroke:#181818;stroke-width:1.0;"/><path d="M1163.5231,529.6313 Q1162.9421,529.9302 1162.3029,530.0796 Q1161.6638,530.229 1160.9582,530.229 Q1158.4514,530.229 1157.1315,528.5771 Q1155.8117,526.9253 1155.8117,523.8042 Q1155.8117,520.6748 1157.1315,519.0229 Q1158.4514,517.3711 1160.9582,517.3711 Q1161.6638,517.3711 1162.3112,517.5205 Q1162.9587,517.6699 1163.5231,517.9688 L1163.5231,520.6914 Q1162.8923,520.1104 1162.2988,519.8406 Q1161.7053,519.5708 1161.0744,519.5708 Q1159.7297,519.5708 1159.0449,520.6375 Q1158.3601,521.7041 1158.3601,523.8042 Q1158.3601,525.896 1159.0449,526.9626 Q1159.7297,528.0293 1161.0744,528.0293 Q1161.7053,528.0293 1162.2988,527.7595 Q1162.8923,527.4897 1163.5231,526.9087 Z " fill="#000000"/><text fill="#000000" font-family="sans-serif" font-size="14" lengthAdjust="spacing" textLength="117" x="1180.95" y="528.7793">useGameMode.ts</text><line style="stroke:#181818;stroke-width:0.5;" x1="1120.5" x2="1326.5" y1="539.4883" y2="539.4883"/><text fill="#000000" font-family="sans-serif" font-size="14" lengthAdjust="spacing" textLength="76" x="1125.5" y="557.0234">gameMode</text><line style="stroke:#181818;stroke-width:0.5;" x1="1120.5" x2="1326.5" y1="563.9766" y2="563.9766"/><text fill="#000000" font-family="sans-serif" font-size="14" lengthAdjust="spacing" textLength="109" x="1125.5" y="581.5117">initGameMode()</text><text fill="#000000" font-family="sans-serif" font-size="14" lengthAdjust="spacing" textLength="196" x="1125.5" y="598">setGameModeToGameOver()</text></g><!--MD5=[3a23a806d3b93c292a3ae7d3e5f8701c]
class useGameResult--><g id="elem_useGameResult"><rect codeLine="90" fill="#F1F1F1" height="97.4648" id="useGameResult" rx="2.5" ry="2.5" style="stroke:#181818;stroke-width:0.5;" width="203" x="1363" y="507.4883"/><ellipse cx="1400.5" cy="523.4883" fill="#ADD1B2" rx="11" ry="11" style="stroke:#181818;stroke-width:1.0;"/><path d="M1402.9731,529.6313 Q1402.3921,529.9302 1401.7529,530.0796 Q1401.1138,530.229 1400.4082,530.229 Q1397.9014,530.229 1396.5815,528.5771 Q1395.2617,526.9253 1395.2617,523.8042 Q1395.2617,520.6748 1396.5815,519.0229 Q1397.9014,517.3711 1400.4082,517.3711 Q1401.1138,517.3711 1401.7612,517.5205 Q1402.4087,517.6699 1402.9731,517.9688 L1402.9731,520.6914 Q1402.3423,520.1104 1401.7488,519.8406 Q1401.1553,519.5708 1400.5244,519.5708 Q1399.1797,519.5708 1398.4949,520.6375 Q1397.8101,521.7041 1397.8101,523.8042 Q1397.8101,525.896 1398.4949,526.9626 Q1399.1797,528.0293 1400.5244,528.0293 Q1401.1553,528.0293 1401.7488,527.7595 Q1402.3423,527.4897 1402.9731,526.9087 Z " fill="#000000"/><text fill="#000000" font-family="sans-serif" font-size="14" lengthAdjust="spacing" textLength="121" x="1419.5" y="528.7793">useGameResult.ts</text><line style="stroke:#181818;stroke-width:0.5;" x1="1364" x2="1565" y1="539.4883" y2="539.4883"/><text fill="#000000" font-family="sans-serif" font-size="14" lengthAdjust="spacing" textLength="80" x="1369" y="557.0234">gameResult</text><line style="stroke:#181818;stroke-width:0.5;" x1="1364" x2="1565" y1="563.9766" y2="563.9766"/><text fill="#000000" font-family="sans-serif" font-size="14" lengthAdjust="spacing" textLength="113" x="1369" y="581.5117">initGameResult()</text><text fill="#000000" font-family="sans-serif" font-size="14" lengthAdjust="spacing" textLength="191" x="1369" y="598">setGameResult(gameResult)</text></g><!--MD5=[78a636ae5a25bfaa2a4b382c5530d5c2]
class useGameTurn--><g id="elem_useGameTurn"><rect codeLine="96" fill="#F1F1F1" height="113.9531" id="useGameTurn" rx="2.5" ry="2.5" style="stroke:#181818;stroke-width:0.5;" width="155" x="271" y="498.9883"/><ellipse cx="290.95" cy="514.9883" fill="#ADD1B2" rx="11" ry="11" style="stroke:#181818;stroke-width:1.0;"/><path d="M293.4231,521.1313 Q292.8421,521.4302 292.2029,521.5796 Q291.5638,521.729 290.8582,521.729 Q288.3514,521.729 287.0315,520.0771 Q285.7117,518.4253 285.7117,515.3042 Q285.7117,512.1748 287.0315,510.5229 Q288.3514,508.8711 290.8582,508.8711 Q291.5638,508.8711 292.2112,509.0205 Q292.8587,509.1699 293.4231,509.4688 L293.4231,512.1914 Q292.7923,511.6104 292.1988,511.3406 Q291.6053,511.0708 290.9744,511.0708 Q289.6297,511.0708 288.9449,512.1375 Q288.2601,513.2041 288.2601,515.3042 Q288.2601,517.396 288.9449,518.4626 Q289.6297,519.5293 290.9744,519.5293 Q291.6053,519.5293 292.1988,519.2595 Q292.7923,518.9897 293.4231,518.4087 Z " fill="#000000"/><text fill="#000000" font-family="sans-serif" font-size="14" lengthAdjust="spacing" textLength="112" x="306.05" y="520.2793">useGameTurn.ts</text><line style="stroke:#181818;stroke-width:0.5;" x1="272" x2="425" y1="530.9883" y2="530.9883"/><text fill="#000000" font-family="sans-serif" font-size="14" lengthAdjust="spacing" textLength="71" x="277" y="548.5234">gameTurn</text><line style="stroke:#181818;stroke-width:0.5;" x1="272" x2="425" y1="555.4766" y2="555.4766"/><text fill="#000000" font-family="sans-serif" font-size="14" lengthAdjust="spacing" textLength="102" x="277" y="573.0117">setGameTurn()</text><text fill="#000000" font-family="sans-serif" font-size="14" lengthAdjust="spacing" textLength="139" x="277" y="589.5">increaseGameTurn()</text><text fill="#000000" font-family="sans-serif" font-size="14" lengthAdjust="spacing" textLength="143" x="277" y="605.9883">decreaseGameTurn()</text></g><!--MD5=[b011b5ae82fbcca0852cbb113df240ef]
class useGamePlayerKeyOnTurn--><g id="elem_useGamePlayerKeyOnTurn"><rect codeLine="103" fill="#F1F1F1" height="97.4648" id="useGamePlayerKeyOnTurn" rx="2.5" ry="2.5" style="stroke:#181818;stroke-width:0.5;" width="229" x="7" y="507.4883"/><ellipse cx="22" cy="523.4883" fill="#ADD1B2" rx="11" ry="11" style="stroke:#181818;stroke-width:1.0;"/><path d="M24.4731,529.6313 Q23.8921,529.9302 23.2529,530.0796 Q22.6138,530.229 21.9082,530.229 Q19.4014,530.229 18.0815,528.5771 Q16.7617,526.9253 16.7617,523.8042 Q16.7617,520.6748 18.0815,519.0229 Q19.4014,517.3711 21.9082,517.3711 Q22.6138,517.3711 23.2612,517.5205 Q23.9087,517.6699 24.4731,517.9688 L24.4731,520.6914 Q23.8423,520.1104 23.2488,519.8406 Q22.6553,519.5708 22.0244,519.5708 Q20.6797,519.5708 19.9949,520.6375 Q19.3101,521.7041 19.3101,523.8042 Q19.3101,525.896 19.9949,526.9626 Q20.6797,528.0293 22.0244,528.0293 Q22.6553,528.0293 23.2488,527.7595 Q23.8423,527.4897 24.4731,526.9087 Z " fill="#000000"/><text fill="#000000" font-family="sans-serif" font-size="14" lengthAdjust="spacing" textLength="197" x="36" y="528.7793">useGamePlayerKeyOnTurn.ts</text><line style="stroke:#181818;stroke-width:0.5;" x1="8" x2="235" y1="539.4883" y2="539.4883"/><text fill="#000000" font-family="sans-serif" font-size="14" lengthAdjust="spacing" textLength="156" x="13" y="557.0234">gamePlayerKeyOnTurn</text><line style="stroke:#181818;stroke-width:0.5;" x1="8" x2="235" y1="563.9766" y2="563.9766"/><text fill="#000000" font-family="sans-serif" font-size="14" lengthAdjust="spacing" textLength="189" x="13" y="581.5117">initGamePlayerKeyOnTurn()</text><text fill="#000000" font-family="sans-serif" font-size="14" lengthAdjust="spacing" textLength="211" x="13" y="598">toggleGamePlayerKeyOnTurn()</text></g><!--MD5=[174337d06a678160a2cfdeed01de7721]
reverse link UserRegistView to GamePlayersContext--><g id="link_UserRegistView_GamePlayersContext"><path codeLine="109" d="M1455.5,189.7883 C1455.5,209.4483 1455.5,230.9383 1455.5,251.1283 " fill="none" id="UserRegistView-backto-GamePlayersContext" style="stroke:#181818;stroke-width:1.0;stroke-dasharray:7.0,7.0;"/><polygon fill="#181818" points="1455.5,184.9883,1451.5,193.9883,1455.5,189.9883,1459.5,193.9883,1455.5,184.9883" style="stroke:#181818;stroke-width:1.0;"/></g><!--MD5=[f02dd5a5d7dd589288d2d6806a227b88]
reverse link TicTacToeView to GameGridsContext--><g id="link_TicTacToeView_GameGridsContext"><path codeLine="110" d="M884.6,195.7583 C865.15,213.7783 844.36,233.0183 824.73,251.2083 " fill="none" id="TicTacToeView-backto-GameGridsContext" style="stroke:#181818;stroke-width:1.0;stroke-dasharray:7.0,7.0;"/><polygon fill="#181818" points="887.88,192.7283,878.5588,195.9086,884.2115,196.1256,883.9945,201.7783,887.88,192.7283" style="stroke:#181818;stroke-width:1.0;"/></g><!--MD5=[14c9ed68bc88abbb860ec41f84bed8eb]
reverse link TicTacToeView to GamePlayersContext--><g id="link_TicTacToeView_GamePlayersContext"><path codeLine="111" d="M1065.27,154.2483 C1132.96,179.4683 1224.71,215.2283 1303.5,251.4883 C1309.33,254.1683 1315.26,256.9783 1321.22,259.8483 " fill="none" id="TicTacToeView-backto-GamePlayersContext" style="stroke:#181818;stroke-width:1.0;stroke-dasharray:7.0,7.0;"/><polygon fill="#181818" points="1060.63,152.5283,1067.6709,159.4149,1065.3163,154.2714,1070.4599,151.9168,1060.63,152.5283" style="stroke:#181818;stroke-width:1.0;"/></g><!--MD5=[4cd321331402e874aa2a24daa0975c80]
reverse link TicTacToeView to GameStateContext--><g id="link_TicTacToeView_GameStateContext"><path codeLine="112" d="M1035.06,196.3583 C1055.55,219.8183 1077.81,245.3083 1097.45,267.8083 " fill="none" id="TicTacToeView-backto-GameStateContext" style="stroke:#181818;stroke-width:1.0;stroke-dasharray:7.0,7.0;"/><polygon fill="#181818" points="1031.99,192.8383,1034.9037,202.2463,1035.2815,196.6021,1040.9257,196.9799,1031.99,192.8383" style="stroke:#181818;stroke-width:1.0;"/></g><!--MD5=[458d4672a17c73c009c1039fc981c788]
reverse link TicTacToeView to GameTurnContext--><g id="link_TicTacToeView_GameTurnContext"><path codeLine="113" d="M869.58,143.8883 C782.23,167.4183 651.65,205.8483 542.5,251.4883 C523.04,259.6283 502.76,269.4383 483.61,279.3783 " fill="none" id="TicTacToeView-backto-GameTurnContext" style="stroke:#181818;stroke-width:1.0;stroke-dasharray:7.0,7.0;"/><polygon fill="#181818" points="874.33,142.6183,864.6038,141.0687,869.4984,143.9048,866.6623,148.7994,874.33,142.6183" style="stroke:#181818;stroke-width:1.0;"/></g><!--MD5=[dc240c15edcce5978054aee51e126020]
reverse link TicTacToeView to useConstants--><g id="link_TicTacToeView_useConstants"><path codeLine="114" d="M967.5,198.4683 C967.5,276.7483 967.5,395.6983 967.5,474.3683 " fill="none" id="TicTacToeView-backto-useConstants" style="stroke:#181818;stroke-width:1.0;stroke-dasharray:7.0,7.0;"/><polygon fill="#181818" points="967.5,193.4783,963.5,202.4783,967.5,198.4783,971.5,202.4783,967.5,193.4783" style="stroke:#181818;stroke-width:1.0;"/></g><!--MD5=[e5066b5d666859bee8b6d69b098c8cec]
reverse link GameGridsContext to useConstants--><g id="link_GameGridsContext_useConstants"><path codeLine="116" d="M825.78,418.8183 C844.68,436.9683 864.59,456.1083 883.33,474.1083 " fill="none" id="GameGridsContext-backto-useConstants" style="stroke:#181818;stroke-width:1.0;stroke-dasharray:7.0,7.0;"/><polygon fill="#181818" points="822.6,415.7583,826.3209,424.8772,826.2064,419.2215,831.8621,419.107,822.6,415.7583" style="stroke:#181818;stroke-width:1.0;"/></g><!--MD5=[a1f66c080045af8a70bc3ab64340083b]
reverse link GameGridsContext to useGameGrids--><g id="link_GameGridsContext_useGameGrids"><path codeLine="117" d="M698.68,420.6483 C690.79,438.2583 682.52,456.7183 674.73,474.1083 " fill="none" id="GameGridsContext-backto-useGameGrids" style="stroke:#181818;stroke-width:1.0;stroke-dasharray:7.0,7.0;"/><polygon fill="#181818" points="700.72,416.0983,693.3885,422.6746,698.6747,420.6608,700.6885,425.9471,700.72,416.0983" style="stroke:#181818;stroke-width:1.0;"/></g><!--MD5=[7a3c80ba6279f3c46be02023be9bcbb0]
reverse link GamePlayersContext to useConstants--><g id="link_GamePlayersContext_useConstants"><path codeLine="119" d="M1315.28,409.5083 C1311.33,411.2283 1307.4,412.8883 1303.5,414.4883 C1217.22,449.8083 1187.86,436.9983 1102.5,474.4883 C1096.63,477.0683 1090.7,479.8483 1084.77,482.7783 " fill="none" id="GamePlayersContext-backto-useConstants" style="stroke:#181818;stroke-width:1.0;stroke-dasharray:7.0,7.0;"/><polygon fill="#181818" points="1319.69,407.5583,1309.8412,407.5268,1315.1145,409.5744,1313.0669,414.8477,1319.69,407.5583" style="stroke:#181818;stroke-width:1.0;"/></g><!--MD5=[050668626466de976c14fb648cf88e3b]
reverse link GamePlayersContext to useGamePlayers--><g id="link_GamePlayersContext_useGamePlayers"><path codeLine="120" d="M1562.87,418.7383 C1600.88,448.7383 1642.28,481.4083 1675.01,507.2483 " fill="none" id="GamePlayersContext-backto-useGamePlayers" style="stroke:#181818;stroke-width:1.0;stroke-dasharray:7.0,7.0;"/><polygon fill="#181818" points="1558.96,415.6483,1563.532,424.3716,1562.8796,418.7525,1568.4988,418.1002,1558.96,415.6483" style="stroke:#181818;stroke-width:1.0;"/></g><!--MD5=[03c53a3867f4f059d2e6201bb47d3a2a]
reverse link GameStateContext to useConstants--><g id="link_GameStateContext_useConstants"><path codeLine="122" d="M1095.44,402.9783 C1076.47,425.5083 1055.23,450.7483 1035.6,474.0783 " fill="none" id="GameStateContext-backto-useConstants" style="stroke:#181818;stroke-width:1.0;stroke-dasharray:7.0,7.0;"/><polygon fill="#181818" points="1098.48,399.3683,1089.6296,403.6892,1095.265,403.1976,1095.7566,408.8331,1098.48,399.3683" style="stroke:#181818;stroke-width:1.0;"/></g><!--MD5=[ac371e7f51464c8e45158f980fdf5f3d]
reverse link GameStateContext to useGameMode--><g id="link_GameStateContext_useGameMode"><path codeLine="123" d="M1175.8,404.3983 C1186.42,437.9183 1198.84,477.1283 1208.34,507.1383 " fill="none" id="GameStateContext-backto-useGameMode" style="stroke:#181818;stroke-width:1.0;stroke-dasharray:7.0,7.0;"/><polygon fill="#181818" points="1174.3,399.6483,1173.2099,409.4366,1175.8125,404.414,1180.8351,407.0166,1174.3,399.6483" style="stroke:#181818;stroke-width:1.0;"/></g><!--MD5=[4e1d77a966a791b0c48cbd015e3bb9d6]
reverse link GameStateContext to useGameResult--><g id="link_GameStateContext_useGameResult"><path codeLine="124" d="M1249.07,401.9083 C1297,435.9583 1353.88,476.3883 1397.16,507.1383 " fill="none" id="GameStateContext-backto-useGameResult" style="stroke:#181818;stroke-width:1.0;stroke-dasharray:7.0,7.0;"/><polygon fill="#181818" points="1245.11,399.0883,1250.1199,407.5677,1249.1825,401.9891,1254.7612,401.0517,1245.11,399.0883" style="stroke:#181818;stroke-width:1.0;"/></g><!--MD5=[322ed35ac752a093ec61615f52dc0404]
reverse link GameTurnContext to useConstants--><g id="link_GameTurnContext_useConstants"><path codeLine="126" d="M489.64,391.4583 C506.88,400.0483 524.93,408.1383 542.5,414.4883 C666.28,459.2383 709.83,426.7883 832.5,474.4883 C838.35,476.7583 844.24,479.2783 850.11,481.9783 " fill="none" id="GameTurnContext-backto-useConstants" style="stroke:#181818;stroke-width:1.0;stroke-dasharray:7.0,7.0;"/><polygon fill="#181818" points="485.18,389.2083,491.402,396.8428,489.6406,391.4672,495.0163,389.7058,485.18,389.2083" style="stroke:#181818;stroke-width:1.0;"/></g><!--MD5=[1520de90ea4bc549fe0238cd487176af]
reverse link GameTurnContext to useGamePlayerKeyOnTurn--><g id="link_GameTurnContext_useGamePlayerKeyOnTurn"><path codeLine="127" d="M297.6,410.8483 C258.49,442.8583 214.29,479.0383 179.96,507.1383 " fill="none" id="GameTurnContext-backto-useGamePlayerKeyOnTurn" style="stroke:#181818;stroke-width:1.0;stroke-dasharray:7.0,7.0;"/><polygon fill="#181818" points="301.17,407.9183,291.673,410.5273,297.3021,411.0868,296.7426,416.7159,301.17,407.9183" style="stroke:#181818;stroke-width:1.0;"/></g><!--MD5=[e7f648dc2ea7f5f29a01f41293c72613]
reverse link GameTurnContext to useGameTurn--><g id="link_GameTurnContext_useGameTurn"><path codeLine="128" d="M376.07,413.3083 C370.58,441.4983 364.52,472.6483 359.48,498.5383 " fill="none" id="GameTurnContext-backto-useGameTurn" style="stroke:#181818;stroke-width:1.0;stroke-dasharray:7.0,7.0;"/><polygon fill="#181818" points="377.01,408.4483,371.3815,416.5303,376.0652,413.3582,379.2374,418.042,377.01,408.4483" style="stroke:#181818;stroke-width:1.0;"/></g><!--MD5=[f0416e3ec374321f33bc70eee70c6e8e]
@startuml
title Relationship Diagram of Hooks and Contexts

class "UserRegistView.tsx" as UserRegistView {
      yourName
      oppeonentName
      inputYourName
      inputOpponentName
      handelSubmit(event)
}

class "TicTacToeView.tsx" as TicTacToeView {
      yourName
      oppeonentName
      gamePlayerNameOnTurn
      selectGameGrid()
      initGameStart()
      goBack()
}

class "GameGridsContext.tsx" as GameGridsContext {
      gameGrids
      initGameGrids()
      getGameGrid(row, col)
      setGameGrid(row, col, gamePlayerKey, gameTurn)
      resetGameGrid(row, col)
      checkWin(gamePlayerKey)
      checkDraw()
}

class "GamePlayersContext.tsx" as GamePlayersContext {
      gamePlayers
      getGamePlayerName()
      getYourName()
      getOpponentName()
      getGamePlayerKeyRandomly()
      setGamePlayerNames(you, opponent)
      initGamePlayerNames()
}

class "GameStateContext.tsx" as GameStateContext {
      gameMode
      gameResult
      initGameState()
      setGameEndWithWin(gamePlayerKey)
      setGameEndWithDraw()
}

class "GameTurnContext.tsx" as GameTurnContext {
      gameTurn
      gamePlayerKeyOnTurn
      initGameTurn()
      advanceGameTurn()
      rewindGameTurn()
      setFirstGameTurn()
}


class "useConstants.ts" as useConstants {
      GAME_PLAYER_KEYS
      DEFAULT_GAME_PLAYER_NAMES
      GAME_GRIDS
      GAME_TURN
      GAME_MODE
      GAME_RESULT
      SLEEP_TIME
}

class "useGameGrids.ts" as useGameGrids {
      gameGrids
      initGameGrids()
      getGameGrid(row, col)
      setGameGrid(row, col, gamePlayerKey, gameTurn)
      resetGameGrid(row, col)
      checkWin(gamePlayerKey)
      checkDraw()
}

class "useGamePlayers.ts" as useGamePlayers {
      gamePlayers
      getGamePlayerName(gamePlayerKey)
      setGamePlayerNames(you, opponent)
}

class "useGameMode.ts" as useGameMode {
      gameMode
      initGameMode()
      setGameModeToGameOver()
}

class "useGameResult.ts" as useGameResult {
      gameResult
      initGameResult()
      setGameResult(gameResult)
}

class "useGameTurn.ts" as useGameTurn {
      gameTurn
      setGameTurn()
      increaseGameTurn()
      decreaseGameTurn()
}

class "useGamePlayerKeyOnTurn.ts" as useGamePlayerKeyOnTurn {
      gamePlayerKeyOnTurn
      initGamePlayerKeyOnTurn()
      toggleGamePlayerKeyOnTurn()
}

UserRegistView <.. GamePlayersContext
TicTacToeView <.. GameGridsContext
TicTacToeView <.. GamePlayersContext
TicTacToeView <.. GameStateContext
TicTacToeView <.. GameTurnContext
TicTacToeView <.. useConstants

GameGridsContext <.. useConstants
GameGridsContext <.. useGameGrids

GamePlayersContext <.. useConstants
GamePlayersContext <.. useGamePlayers

GameStateContext <.. useConstants
GameStateContext <.. useGameMode
GameStateContext <.. useGameResult

GameTurnContext <.. useConstants
GameTurnContext <.. useGamePlayerKeyOnTurn
GameTurnContext <.. useGameTurn

@enduml	   

PlantUML version 1.2022.13(Sat Nov 19 22:22:17 JST 2022)
(GPL source distribution)
Java Runtime: OpenJDK Runtime Environment
JVM: OpenJDK 64-Bit Server VM
Default Encoding: UTF-8
Language: ja
Country: JP
--></g></svg>