<?xml version="1.0" encoding="UTF-8" standalone="no"?><svg xmlns="http://www.w3.org/2000/svg" xmlns:xlink="http://www.w3.org/1999/xlink" contentStyleType="text/css" height="479px" preserveAspectRatio="none" style="width:1576px;height:479px;background:#FFFFFF;" version="1.1" viewBox="0 0 1576 479" width="1576px" zoomAndPan="magnify"><defs/><g><text fill="#000000" font-family="sans-serif" font-size="14" font-weight="bold" lengthAdjust="spacing" textLength="328" x="617" y="23.5352">Relationship Diagram of Hooks and Contexts</text><!--MD5=[ae8439213318281d253ad18006a87dc5]
class UserRegistView--><g id="elem_UserRegistView"><rect codeLine="3" fill="#F1F1F1" height="48" id="UserRegistView" rx="2.5" ry="2.5" style="stroke:#181818;stroke-width:0.5;" width="162" x="830.5" y="44.4883"/><ellipse cx="845.5" cy="60.4883" fill="#ADD1B2" rx="11" ry="11" style="stroke:#181818;stroke-width:1.0;"/><path d="M847.9731,66.6313 Q847.3921,66.9302 846.7529,67.0796 Q846.1138,67.229 845.4082,67.229 Q842.9014,67.229 841.5815,65.5771 Q840.2617,63.9253 840.2617,60.8042 Q840.2617,57.6748 841.5815,56.0229 Q842.9014,54.3711 845.4082,54.3711 Q846.1138,54.3711 846.7612,54.5205 Q847.4087,54.6699 847.9731,54.9688 L847.9731,57.6914 Q847.3423,57.1104 846.7488,56.8406 Q846.1553,56.5708 845.5244,56.5708 Q844.1797,56.5708 843.4949,57.6375 Q842.8101,58.7041 842.8101,60.8042 Q842.8101,62.896 843.4949,63.9626 Q844.1797,65.0293 845.5244,65.0293 Q846.1553,65.0293 846.7488,64.7595 Q847.3423,64.4897 847.9731,63.9087 Z " fill="#000000"/><text fill="#000000" font-family="sans-serif" font-size="14" lengthAdjust="spacing" textLength="130" x="859.5" y="65.7793">UserRegistView.tsx</text><line style="stroke:#181818;stroke-width:0.5;" x1="831.5" x2="991.5" y1="76.4883" y2="76.4883"/><line style="stroke:#181818;stroke-width:0.5;" x1="831.5" x2="991.5" y1="84.4883" y2="84.4883"/></g><!--MD5=[9dee31518fe58d48174303dc5f2c1aec]
class TicTacToeView--><g id="elem_TicTacToeView"><rect codeLine="6" fill="#F1F1F1" height="48" id="TicTacToeView" rx="2.5" ry="2.5" style="stroke:#181818;stroke-width:0.5;" width="159" x="509" y="44.4883"/><ellipse cx="524" cy="60.4883" fill="#ADD1B2" rx="11" ry="11" style="stroke:#181818;stroke-width:1.0;"/><path d="M526.4731,66.6313 Q525.8921,66.9302 525.2529,67.0796 Q524.6138,67.229 523.9082,67.229 Q521.4014,67.229 520.0815,65.5771 Q518.7617,63.9253 518.7617,60.8042 Q518.7617,57.6748 520.0815,56.0229 Q521.4014,54.3711 523.9082,54.3711 Q524.6138,54.3711 525.2612,54.5205 Q525.9087,54.6699 526.4731,54.9688 L526.4731,57.6914 Q525.8423,57.1104 525.2488,56.8406 Q524.6553,56.5708 524.0244,56.5708 Q522.6797,56.5708 521.9949,57.6375 Q521.3101,58.7041 521.3101,60.8042 Q521.3101,62.896 521.9949,63.9626 Q522.6797,65.0293 524.0244,65.0293 Q524.6553,65.0293 525.2488,64.7595 Q525.8423,64.4897 526.4731,63.9087 Z " fill="#000000"/><text fill="#000000" font-family="sans-serif" font-size="14" lengthAdjust="spacing" textLength="127" x="538" y="65.7793">TicTacToeView.tsx</text><line style="stroke:#181818;stroke-width:0.5;" x1="510" x2="667" y1="76.4883" y2="76.4883"/><line style="stroke:#181818;stroke-width:0.5;" x1="510" x2="667" y1="84.4883" y2="84.4883"/></g><!--MD5=[fb70df6079b8c7aa6defa38ba3cf4955]
class GameGridsContext--><g id="elem_GameGridsContext"><rect codeLine="11" fill="#F1F1F1" height="48" id="GameGridsContext" rx="2.5" ry="2.5" style="stroke:#181818;stroke-width:0.5;" width="187" x="495" y="209.9883"/><ellipse cx="510" cy="225.9883" fill="#ADD1B2" rx="11" ry="11" style="stroke:#181818;stroke-width:1.0;"/><path d="M512.4731,232.1313 Q511.8921,232.4302 511.2529,232.5796 Q510.6138,232.729 509.9082,232.729 Q507.4014,232.729 506.0815,231.0771 Q504.7617,229.4253 504.7617,226.3042 Q504.7617,223.1748 506.0815,221.5229 Q507.4014,219.8711 509.9082,219.8711 Q510.6138,219.8711 511.2612,220.0205 Q511.9087,220.1699 512.4731,220.4688 L512.4731,223.1914 Q511.8423,222.6104 511.2488,222.3406 Q510.6553,222.0708 510.0244,222.0708 Q508.6797,222.0708 507.9949,223.1375 Q507.3101,224.2041 507.3101,226.3042 Q507.3101,228.396 507.9949,229.4626 Q508.6797,230.5293 510.0244,230.5293 Q510.6553,230.5293 511.2488,230.2595 Q511.8423,229.9897 512.4731,229.4087 Z " fill="#000000"/><text fill="#000000" font-family="sans-serif" font-size="14" lengthAdjust="spacing" textLength="155" x="524" y="231.2793">GameGridsContext.tsx</text><line style="stroke:#181818;stroke-width:0.5;" x1="496" x2="681" y1="241.9883" y2="241.9883"/><line style="stroke:#181818;stroke-width:0.5;" x1="496" x2="681" y1="249.9883" y2="249.9883"/></g><!--MD5=[407986f5752d98a72da282f608205af4]
class GamePlayersContext--><g id="elem_GamePlayersContext"><rect codeLine="14" fill="#F1F1F1" height="163.418" id="GamePlayersContext" rx="2.5" ry="2.5" style="stroke:#181818;stroke-width:0.5;" width="388" x="717.5" y="152.4883"/><ellipse cx="823.75" cy="168.4883" fill="#ADD1B2" rx="11" ry="11" style="stroke:#181818;stroke-width:1.0;"/><path d="M826.2231,174.6313 Q825.6421,174.9302 825.0029,175.0796 Q824.3638,175.229 823.6582,175.229 Q821.1514,175.229 819.8315,173.5771 Q818.5117,171.9253 818.5117,168.8042 Q818.5117,165.6748 819.8315,164.0229 Q821.1514,162.3711 823.6582,162.3711 Q824.3638,162.3711 825.0112,162.5205 Q825.6587,162.6699 826.2231,162.9688 L826.2231,165.6914 Q825.5923,165.1104 824.9988,164.8406 Q824.4053,164.5708 823.7744,164.5708 Q822.4297,164.5708 821.7449,165.6375 Q821.0601,166.7041 821.0601,168.8042 Q821.0601,170.896 821.7449,171.9626 Q822.4297,173.0293 823.7744,173.0293 Q824.4053,173.0293 824.9988,172.7595 Q825.5923,172.4897 826.2231,171.9087 Z " fill="#000000"/><text fill="#000000" font-family="sans-serif" font-size="14" lengthAdjust="spacing" textLength="167" x="844.25" y="173.7793">GamePlayersContext.tsx</text><line style="stroke:#181818;stroke-width:0.5;" x1="718.5" x2="1104.5" y1="184.4883" y2="184.4883"/><text fill="#000000" font-family="sans-serif" font-size="14" lengthAdjust="spacing" textLength="376" x="723.5" y="202.0234">gamePlayers: Map&lt;GamePlayerKey, GamePlayerName&gt;</text><line style="stroke:#181818;stroke-width:0.5;" x1="718.5" x2="1104.5" y1="208.9766" y2="208.9766"/><text fill="#000000" font-family="sans-serif" font-size="14" lengthAdjust="spacing" textLength="151" x="723.5" y="226.5117">getGamePlayerName()</text><text fill="#000000" font-family="sans-serif" font-size="14" lengthAdjust="spacing" textLength="104" x="723.5" y="243">getYourName()</text><text fill="#000000" font-family="sans-serif" font-size="14" lengthAdjust="spacing" textLength="140" x="723.5" y="259.4883">getOpponentName()</text><text fill="#000000" font-family="sans-serif" font-size="14" lengthAdjust="spacing" textLength="204" x="723.5" y="275.9766">getGamePlayerKeyRandomly()</text><text fill="#000000" font-family="sans-serif" font-size="14" lengthAdjust="spacing" textLength="256" x="723.5" y="292.4648">setGamePlayerNames(you, opponent)</text><text fill="#000000" font-family="sans-serif" font-size="14" lengthAdjust="spacing" textLength="158" x="723.5" y="308.9531">initGamePlayerNames()</text></g><!--MD5=[271274cd3dec61aff7303e0b3e594f59]
class GameStateContext--><g id="elem_GameStateContext"><rect codeLine="24" fill="#F1F1F1" height="48" id="GameStateContext" rx="2.5" ry="2.5" style="stroke:#181818;stroke-width:0.5;" width="185" x="190" y="209.9883"/><ellipse cx="205" cy="225.9883" fill="#ADD1B2" rx="11" ry="11" style="stroke:#181818;stroke-width:1.0;"/><path d="M207.4731,232.1313 Q206.8921,232.4302 206.2529,232.5796 Q205.6138,232.729 204.9082,232.729 Q202.4014,232.729 201.0815,231.0771 Q199.7617,229.4253 199.7617,226.3042 Q199.7617,223.1748 201.0815,221.5229 Q202.4014,219.8711 204.9082,219.8711 Q205.6138,219.8711 206.2612,220.0205 Q206.9087,220.1699 207.4731,220.4688 L207.4731,223.1914 Q206.8423,222.6104 206.2488,222.3406 Q205.6553,222.0708 205.0244,222.0708 Q203.6797,222.0708 202.9949,223.1375 Q202.3101,224.2041 202.3101,226.3042 Q202.3101,228.396 202.9949,229.4626 Q203.6797,230.5293 205.0244,230.5293 Q205.6553,230.5293 206.2488,230.2595 Q206.8423,229.9897 207.4731,229.4087 Z " fill="#000000"/><text fill="#000000" font-family="sans-serif" font-size="14" lengthAdjust="spacing" textLength="153" x="219" y="231.2793">GameStateContext.tsx</text><line style="stroke:#181818;stroke-width:0.5;" x1="191" x2="374" y1="241.9883" y2="241.9883"/><line style="stroke:#181818;stroke-width:0.5;" x1="191" x2="374" y1="249.9883" y2="249.9883"/></g><!--MD5=[99e5bccf41373de8b1fea0e7e19d690b]
class GameTurnContext--><g id="elem_GameTurnContext"><rect codeLine="27" fill="#F1F1F1" height="48" id="GameTurnContext" rx="2.5" ry="2.5" style="stroke:#181818;stroke-width:0.5;" width="184" x="1140.5" y="209.9883"/><ellipse cx="1155.5" cy="225.9883" fill="#ADD1B2" rx="11" ry="11" style="stroke:#181818;stroke-width:1.0;"/><path d="M1157.9731,232.1313 Q1157.3921,232.4302 1156.7529,232.5796 Q1156.1138,232.729 1155.4082,232.729 Q1152.9014,232.729 1151.5815,231.0771 Q1150.2617,229.4253 1150.2617,226.3042 Q1150.2617,223.1748 1151.5815,221.5229 Q1152.9014,219.8711 1155.4082,219.8711 Q1156.1138,219.8711 1156.7612,220.0205 Q1157.4087,220.1699 1157.9731,220.4688 L1157.9731,223.1914 Q1157.3423,222.6104 1156.7488,222.3406 Q1156.1553,222.0708 1155.5244,222.0708 Q1154.1797,222.0708 1153.4949,223.1375 Q1152.8101,224.2041 1152.8101,226.3042 Q1152.8101,228.396 1153.4949,229.4626 Q1154.1797,230.5293 1155.5244,230.5293 Q1156.1553,230.5293 1156.7488,230.2595 Q1157.3423,229.9897 1157.9731,229.4087 Z " fill="#000000"/><text fill="#000000" font-family="sans-serif" font-size="14" lengthAdjust="spacing" textLength="152" x="1169.5" y="231.2793">GameTurnContext.tsx</text><line style="stroke:#181818;stroke-width:0.5;" x1="1141.5" x2="1323.5" y1="241.9883" y2="241.9883"/><line style="stroke:#181818;stroke-width:0.5;" x1="1141.5" x2="1323.5" y1="249.9883" y2="249.9883"/></g><!--MD5=[45766bac5053e7b4f64dc163870b212a]
class useConstants--><g id="elem_useConstants"><rect codeLine="31" fill="#F1F1F1" height="48" id="useConstants" rx="2.5" ry="2.5" style="stroke:#181818;stroke-width:0.5;" width="141" x="379" y="399.9883"/><ellipse cx="394" cy="415.9883" fill="#ADD1B2" rx="11" ry="11" style="stroke:#181818;stroke-width:1.0;"/><path d="M396.4731,422.1313 Q395.8921,422.4302 395.2529,422.5796 Q394.6138,422.729 393.9082,422.729 Q391.4014,422.729 390.0815,421.0771 Q388.7617,419.4253 388.7617,416.3042 Q388.7617,413.1748 390.0815,411.5229 Q391.4014,409.8711 393.9082,409.8711 Q394.6138,409.8711 395.2612,410.0205 Q395.9087,410.1699 396.4731,410.4688 L396.4731,413.1914 Q395.8423,412.6104 395.2488,412.3406 Q394.6553,412.0708 394.0244,412.0708 Q392.6797,412.0708 391.9949,413.1375 Q391.3101,414.2041 391.3101,416.3042 Q391.3101,418.396 391.9949,419.4626 Q392.6797,420.5293 394.0244,420.5293 Q394.6553,420.5293 395.2488,420.2595 Q395.8423,419.9897 396.4731,419.4087 Z " fill="#000000"/><text fill="#000000" font-family="sans-serif" font-size="14" lengthAdjust="spacing" textLength="109" x="408" y="421.2793">useConstants.ts</text><line style="stroke:#181818;stroke-width:0.5;" x1="380" x2="519" y1="431.9883" y2="431.9883"/><line style="stroke:#181818;stroke-width:0.5;" x1="380" x2="519" y1="439.9883" y2="439.9883"/></g><!--MD5=[459c93c415d6d7f0f4fefb92fe317108]
class useGameGrids--><g id="elem_useGameGrids"><rect codeLine="33" fill="#F1F1F1" height="48" id="useGameGrids" rx="2.5" ry="2.5" style="stroke:#181818;stroke-width:0.5;" width="147" x="555" y="399.9883"/><ellipse cx="570" cy="415.9883" fill="#ADD1B2" rx="11" ry="11" style="stroke:#181818;stroke-width:1.0;"/><path d="M572.4731,422.1313 Q571.8921,422.4302 571.2529,422.5796 Q570.6138,422.729 569.9082,422.729 Q567.4014,422.729 566.0815,421.0771 Q564.7617,419.4253 564.7617,416.3042 Q564.7617,413.1748 566.0815,411.5229 Q567.4014,409.8711 569.9082,409.8711 Q570.6138,409.8711 571.2612,410.0205 Q571.9087,410.1699 572.4731,410.4688 L572.4731,413.1914 Q571.8423,412.6104 571.2488,412.3406 Q570.6553,412.0708 570.0244,412.0708 Q568.6797,412.0708 567.9949,413.1375 Q567.3101,414.2041 567.3101,416.3042 Q567.3101,418.396 567.9949,419.4626 Q568.6797,420.5293 570.0244,420.5293 Q570.6553,420.5293 571.2488,420.2595 Q571.8423,419.9897 572.4731,419.4087 Z " fill="#000000"/><text fill="#000000" font-family="sans-serif" font-size="14" lengthAdjust="spacing" textLength="115" x="584" y="421.2793">useGameGrids.ts</text><line style="stroke:#181818;stroke-width:0.5;" x1="556" x2="701" y1="431.9883" y2="431.9883"/><line style="stroke:#181818;stroke-width:0.5;" x1="556" x2="701" y1="439.9883" y2="439.9883"/></g><!--MD5=[3bc5ff66e1a85a21f345313a9f77016d]
class useGamePlayers--><g id="elem_useGamePlayers"><rect codeLine="35" fill="#F1F1F1" height="97.4648" id="useGamePlayers" rx="2.5" ry="2.5" style="stroke:#181818;stroke-width:0.5;" width="388" x="737.5" y="375.4883"/><ellipse cx="863.75" cy="391.4883" fill="#ADD1B2" rx="11" ry="11" style="stroke:#181818;stroke-width:1.0;"/><path d="M866.2231,397.6313 Q865.6421,397.9302 865.0029,398.0796 Q864.3638,398.229 863.6582,398.229 Q861.1514,398.229 859.8315,396.5771 Q858.5117,394.9253 858.5117,391.8042 Q858.5117,388.6748 859.8315,387.0229 Q861.1514,385.3711 863.6582,385.3711 Q864.3638,385.3711 865.0112,385.5205 Q865.6587,385.6699 866.2231,385.9688 L866.2231,388.6914 Q865.5923,388.1104 864.9988,387.8406 Q864.4053,387.5708 863.7744,387.5708 Q862.4297,387.5708 861.7449,388.6375 Q861.0601,389.7041 861.0601,391.8042 Q861.0601,393.896 861.7449,394.9626 Q862.4297,396.0293 863.7744,396.0293 Q864.4053,396.0293 864.9988,395.7595 Q865.5923,395.4897 866.2231,394.9087 Z " fill="#000000"/><text fill="#000000" font-family="sans-serif" font-size="14" lengthAdjust="spacing" textLength="127" x="884.25" y="396.7793">useGamePlayers.ts</text><line style="stroke:#181818;stroke-width:0.5;" x1="738.5" x2="1124.5" y1="407.4883" y2="407.4883"/><text fill="#000000" font-family="sans-serif" font-size="14" lengthAdjust="spacing" textLength="376" x="743.5" y="425.0234">gamePlayers: Map&lt;GamePlayerKey, GamePlayerName&gt;</text><line style="stroke:#181818;stroke-width:0.5;" x1="738.5" x2="1124.5" y1="431.9766" y2="431.9766"/><text fill="#000000" font-family="sans-serif" font-size="14" lengthAdjust="spacing" textLength="151" x="743.5" y="449.5117">getGamePlayerName()</text><text fill="#000000" font-family="sans-serif" font-size="14" lengthAdjust="spacing" textLength="256" x="743.5" y="466">setGamePlayerNames(you, opponent)</text></g><!--MD5=[25ce75281466841eb35daa014b3cff59]
class useGameMode--><g id="elem_useGameMode"><rect codeLine="41" fill="#F1F1F1" height="48" id="useGameMode" rx="2.5" ry="2.5" style="stroke:#181818;stroke-width:0.5;" width="149" x="195" y="399.9883"/><ellipse cx="210" cy="415.9883" fill="#ADD1B2" rx="11" ry="11" style="stroke:#181818;stroke-width:1.0;"/><path d="M212.4731,422.1313 Q211.8921,422.4302 211.2529,422.5796 Q210.6138,422.729 209.9082,422.729 Q207.4014,422.729 206.0815,421.0771 Q204.7617,419.4253 204.7617,416.3042 Q204.7617,413.1748 206.0815,411.5229 Q207.4014,409.8711 209.9082,409.8711 Q210.6138,409.8711 211.2612,410.0205 Q211.9087,410.1699 212.4731,410.4688 L212.4731,413.1914 Q211.8423,412.6104 211.2488,412.3406 Q210.6553,412.0708 210.0244,412.0708 Q208.6797,412.0708 207.9949,413.1375 Q207.3101,414.2041 207.3101,416.3042 Q207.3101,418.396 207.9949,419.4626 Q208.6797,420.5293 210.0244,420.5293 Q210.6553,420.5293 211.2488,420.2595 Q211.8423,419.9897 212.4731,419.4087 Z " fill="#000000"/><text fill="#000000" font-family="sans-serif" font-size="14" lengthAdjust="spacing" textLength="117" x="224" y="421.2793">useGameMode.ts</text><line style="stroke:#181818;stroke-width:0.5;" x1="196" x2="343" y1="431.9883" y2="431.9883"/><line style="stroke:#181818;stroke-width:0.5;" x1="196" x2="343" y1="439.9883" y2="439.9883"/></g><!--MD5=[3a23a806d3b93c292a3ae7d3e5f8701c]
class useGameResult--><g id="elem_useGameResult"><rect codeLine="42" fill="#F1F1F1" height="48" id="useGameResult" rx="2.5" ry="2.5" style="stroke:#181818;stroke-width:0.5;" width="153" x="7" y="399.9883"/><ellipse cx="22" cy="415.9883" fill="#ADD1B2" rx="11" ry="11" style="stroke:#181818;stroke-width:1.0;"/><path d="M24.4731,422.1313 Q23.8921,422.4302 23.2529,422.5796 Q22.6138,422.729 21.9082,422.729 Q19.4014,422.729 18.0815,421.0771 Q16.7617,419.4253 16.7617,416.3042 Q16.7617,413.1748 18.0815,411.5229 Q19.4014,409.8711 21.9082,409.8711 Q22.6138,409.8711 23.2612,410.0205 Q23.9087,410.1699 24.4731,410.4688 L24.4731,413.1914 Q23.8423,412.6104 23.2488,412.3406 Q22.6553,412.0708 22.0244,412.0708 Q20.6797,412.0708 19.9949,413.1375 Q19.3101,414.2041 19.3101,416.3042 Q19.3101,418.396 19.9949,419.4626 Q20.6797,420.5293 22.0244,420.5293 Q22.6553,420.5293 23.2488,420.2595 Q23.8423,419.9897 24.4731,419.4087 Z " fill="#000000"/><text fill="#000000" font-family="sans-serif" font-size="14" lengthAdjust="spacing" textLength="121" x="36" y="421.2793">useGameResult.ts</text><line style="stroke:#181818;stroke-width:0.5;" x1="8" x2="159" y1="431.9883" y2="431.9883"/><line style="stroke:#181818;stroke-width:0.5;" x1="8" x2="159" y1="439.9883" y2="439.9883"/></g><!--MD5=[78a636ae5a25bfaa2a4b382c5530d5c2]
class useGameTurn--><g id="elem_useGameTurn"><rect codeLine="43" fill="#F1F1F1" height="48" id="useGameTurn" rx="2.5" ry="2.5" style="stroke:#181818;stroke-width:0.5;" width="144" x="1160.5" y="399.9883"/><ellipse cx="1175.5" cy="415.9883" fill="#ADD1B2" rx="11" ry="11" style="stroke:#181818;stroke-width:1.0;"/><path d="M1177.9731,422.1313 Q1177.3921,422.4302 1176.7529,422.5796 Q1176.1138,422.729 1175.4082,422.729 Q1172.9014,422.729 1171.5815,421.0771 Q1170.2617,419.4253 1170.2617,416.3042 Q1170.2617,413.1748 1171.5815,411.5229 Q1172.9014,409.8711 1175.4082,409.8711 Q1176.1138,409.8711 1176.7612,410.0205 Q1177.4087,410.1699 1177.9731,410.4688 L1177.9731,413.1914 Q1177.3423,412.6104 1176.7488,412.3406 Q1176.1553,412.0708 1175.5244,412.0708 Q1174.1797,412.0708 1173.4949,413.1375 Q1172.8101,414.2041 1172.8101,416.3042 Q1172.8101,418.396 1173.4949,419.4626 Q1174.1797,420.5293 1175.5244,420.5293 Q1176.1553,420.5293 1176.7488,420.2595 Q1177.3423,419.9897 1177.9731,419.4087 Z " fill="#000000"/><text fill="#000000" font-family="sans-serif" font-size="14" lengthAdjust="spacing" textLength="112" x="1189.5" y="421.2793">useGameTurn.ts</text><line style="stroke:#181818;stroke-width:0.5;" x1="1161.5" x2="1303.5" y1="431.9883" y2="431.9883"/><line style="stroke:#181818;stroke-width:0.5;" x1="1161.5" x2="1303.5" y1="439.9883" y2="439.9883"/></g><!--MD5=[b011b5ae82fbcca0852cbb113df240ef]
class useGamePlayerKeyOnTurn--><g id="elem_useGamePlayerKeyOnTurn"><rect codeLine="44" fill="#F1F1F1" height="48" id="useGamePlayerKeyOnTurn" rx="2.5" ry="2.5" style="stroke:#181818;stroke-width:0.5;" width="229" x="1340" y="399.9883"/><ellipse cx="1355" cy="415.9883" fill="#ADD1B2" rx="11" ry="11" style="stroke:#181818;stroke-width:1.0;"/><path d="M1357.4731,422.1313 Q1356.8921,422.4302 1356.2529,422.5796 Q1355.6138,422.729 1354.9082,422.729 Q1352.4014,422.729 1351.0815,421.0771 Q1349.7617,419.4253 1349.7617,416.3042 Q1349.7617,413.1748 1351.0815,411.5229 Q1352.4014,409.8711 1354.9082,409.8711 Q1355.6138,409.8711 1356.2612,410.0205 Q1356.9087,410.1699 1357.4731,410.4688 L1357.4731,413.1914 Q1356.8423,412.6104 1356.2488,412.3406 Q1355.6553,412.0708 1355.0244,412.0708 Q1353.6797,412.0708 1352.9949,413.1375 Q1352.3101,414.2041 1352.3101,416.3042 Q1352.3101,418.396 1352.9949,419.4626 Q1353.6797,420.5293 1355.0244,420.5293 Q1355.6553,420.5293 1356.2488,420.2595 Q1356.8423,419.9897 1357.4731,419.4087 Z " fill="#000000"/><text fill="#000000" font-family="sans-serif" font-size="14" lengthAdjust="spacing" textLength="197" x="1369" y="421.2793">useGamePlayerKeyOnTurn.ts</text><line style="stroke:#181818;stroke-width:0.5;" x1="1341" x2="1568" y1="431.9883" y2="431.9883"/><line style="stroke:#181818;stroke-width:0.5;" x1="1341" x2="1568" y1="439.9883" y2="439.9883"/></g><!--MD5=[174337d06a678160a2cfdeed01de7721]
reverse link UserRegistView to GamePlayersContext--><g id="link_UserRegistView_GamePlayersContext"><path codeLine="46" d="M911.5,99.0783 C911.5,114.0583 911.5,133.0583 911.5,151.9983 " fill="none" id="UserRegistView-backto-GamePlayersContext" style="stroke:#181818;stroke-width:1.0;stroke-dasharray:7.0,7.0;"/><polygon fill="#181818" points="911.5,94.4283,907.5,103.4283,911.5,99.4283,915.5,103.4283,911.5,94.4283" style="stroke:#181818;stroke-width:1.0;"/></g><!--MD5=[f02dd5a5d7dd589288d2d6806a227b88]
reverse link TicTacToeView to GameGridsContext--><g id="link_TicTacToeView_GameGridsContext"><path codeLine="47" d="M588.5,99.3983 C588.5,131.1383 588.5,180.6083 588.5,209.6083 " fill="none" id="TicTacToeView-backto-GameGridsContext" style="stroke:#181818;stroke-width:1.0;stroke-dasharray:7.0,7.0;"/><polygon fill="#181818" points="588.5,94.4283,584.5,103.4283,588.5,99.4283,592.5,103.4283,588.5,94.4283" style="stroke:#181818;stroke-width:1.0;"/></g><!--MD5=[14c9ed68bc88abbb860ec41f84bed8eb]
reverse link TicTacToeView to GamePlayersContext--><g id="link_TicTacToeView_GamePlayersContext"><path codeLine="48" d="M640.36,95.7383 C670.86,111.1783 711.24,131.6183 751.5,151.9983 " fill="none" id="TicTacToeView-backto-GamePlayersContext" style="stroke:#181818;stroke-width:1.0;stroke-dasharray:7.0,7.0;"/><polygon fill="#181818" points="636.13,93.5983,642.352,101.2328,640.5906,95.8572,645.9663,94.0958,636.13,93.5983" style="stroke:#181818;stroke-width:1.0;"/></g><!--MD5=[4cd321331402e874aa2a24daa0975c80]
reverse link TicTacToeView to GameStateContext--><g id="link_TicTacToeView_GameStateContext"><path codeLine="49" d="M530.58,95.5683 C496.64,111.2683 453.17,132.1183 415.5,152.4883 C382.14,170.5283 345.34,193.0183 318.92,209.6283 " fill="none" id="TicTacToeView-backto-GameStateContext" style="stroke:#181818;stroke-width:1.0;stroke-dasharray:7.0,7.0;"/><polygon fill="#181818" points="534.99,93.5283,525.1424,93.6857,530.454,95.6317,528.5079,100.9433,534.99,93.5283" style="stroke:#181818;stroke-width:1.0;"/></g><!--MD5=[458d4672a17c73c009c1039fc981c788]
reverse link TicTacToeView to GameTurnContext--><g id="link_TicTacToeView_GameTurnContext"><path codeLine="50" d="M674.84,77.8883 C804.63,91.3583 1043.24,119.6283 1122.5,152.4883 C1155.07,165.9883 1186.99,191.0483 1207.98,209.6283 " fill="none" id="TicTacToeView-backto-GameTurnContext" style="stroke:#181818;stroke-width:1.0;stroke-dasharray:7.0,7.0;"/><polygon fill="#181818" points="669.87,77.3683,678.4106,82.2731,674.8435,77.8828,679.2338,74.3156,669.87,77.3683" style="stroke:#181818;stroke-width:1.0;"/></g><!--MD5=[dc240c15edcce5978054aee51e126020]
reverse link TicTacToeView to useConstants--><g id="link_TicTacToeView_useConstants"><path codeLine="51" d="M535.54,96.3083 C513.9,110.0683 490.85,128.9483 477.5,152.4883 C431.5,233.5983 439.81,350.5583 446.01,399.7783 " fill="none" id="TicTacToeView-backto-useConstants" style="stroke:#181818;stroke-width:1.0;stroke-dasharray:7.0,7.0;"/><polygon fill="#181818" points="539.72,93.7083,529.9607,95.0331,535.4656,96.3351,534.1636,101.8401,539.72,93.7083" style="stroke:#181818;stroke-width:1.0;"/></g><!--MD5=[e5066b5d666859bee8b6d69b098c8cec]
reverse link GameGridsContext to useConstants--><g id="link_GameGridsContext_useConstants"><path codeLine="53" d="M567.6,263.2483 C540.14,300.3983 492.38,364.9883 466.82,399.5583 " fill="none" id="GameGridsContext-backto-useConstants" style="stroke:#181818;stroke-width:1.0;stroke-dasharray:7.0,7.0;"/><polygon fill="#181818" points="570.28,259.6383,561.7104,264.4923,567.3052,263.6571,568.1405,269.2519,570.28,259.6383" style="stroke:#181818;stroke-width:1.0;"/></g><!--MD5=[a1f66c080045af8a70bc3ab64340083b]
reverse link GameGridsContext to useGameGrids--><g id="link_GameGridsContext_useGameGrids"><path codeLine="54" d="M594.81,264.6283 C602.75,301.9783 616.25,365.4083 623.52,399.5583 " fill="none" id="GameGridsContext-backto-useGameGrids" style="stroke:#181818;stroke-width:1.0;stroke-dasharray:7.0,7.0;"/><polygon fill="#181818" points="593.8,259.8983,591.7669,269.535,594.8437,264.7881,599.5906,267.865,593.8,259.8983" style="stroke:#181818;stroke-width:1.0;"/></g><!--MD5=[7a3c80ba6279f3c46be02023be9bcbb0]
reverse link GamePlayersContext to useConstants--><g id="link_GamePlayersContext_useConstants"><path codeLine="56" d="M711.31,311.0583 C707.34,312.5483 703.4,314.0283 699.5,315.4883 C627.61,342.4483 607.45,343.8383 537.5,375.4883 C521.68,382.6483 504.79,391.4583 490.09,399.5383 " fill="none" id="GamePlayersContext-backto-useConstants" style="stroke:#181818;stroke-width:1.0;stroke-dasharray:7.0,7.0;"/><polygon fill="#181818" points="715.73,309.3883,705.8985,308.8031,711.0484,311.1439,708.7075,316.2937,715.73,309.3883" style="stroke:#181818;stroke-width:1.0;"/></g><!--MD5=[050668626466de976c14fb648cf88e3b]
reverse link GamePlayersContext to useGamePlayers--><g id="link_GamePlayersContext_useGamePlayers"><path codeLine="57" d="M920.76,321.9883 C922.7,340.2483 924.68,358.8683 926.4,375.0683 " fill="none" id="GamePlayersContext-backto-useGamePlayers" style="stroke:#181818;stroke-width:1.0;stroke-dasharray:7.0,7.0;"/><polygon fill="#181818" points="920.26,317.3183,917.234,326.6907,920.7886,322.2903,925.1891,325.8449,920.26,317.3183" style="stroke:#181818;stroke-width:1.0;"/></g><!--MD5=[03c53a3867f4f059d2e6201bb47d3a2a]
reverse link GameStateContext to useConstants--><g id="link_GameStateContext_useConstants"><path codeLine="59" d="M307.61,263.2483 C340.61,300.3983 397.98,364.9883 428.69,399.5583 " fill="none" id="GameStateContext-backto-useConstants" style="stroke:#181818;stroke-width:1.0;stroke-dasharray:7.0,7.0;"/><polygon fill="#181818" points="304.32,259.5483,307.2918,268.9381,307.6347,263.2916,313.2812,263.6345,304.32,259.5483" style="stroke:#181818;stroke-width:1.0;"/></g><!--MD5=[ac371e7f51464c8e45158f980fdf5f3d]
reverse link GameStateContext to useGameMode--><g id="link_GameStateContext_useGameMode"><path codeLine="60" d="M280.45,264.6283 C277.87,301.9783 273.48,365.4083 271.12,399.5583 " fill="none" id="GameStateContext-backto-useGameMode" style="stroke:#181818;stroke-width:1.0;stroke-dasharray:7.0,7.0;"/><polygon fill="#181818" points="280.78,259.9283,276.1737,268.6336,280.4379,264.9166,284.1549,269.1808,280.78,259.9283" style="stroke:#181818;stroke-width:1.0;"/></g><!--MD5=[4e1d77a966a791b0c48cbd015e3bb9d6]
reverse link GameStateContext to useGameResult--><g id="link_GameStateContext_useGameResult"><path codeLine="61" d="M253.06,262.7983 C213.82,299.8783 145.04,364.8483 108.3,399.5583 " fill="none" id="GameStateContext-backto-useGameResult" style="stroke:#181818;stroke-width:1.0;stroke-dasharray:7.0,7.0;"/><polygon fill="#181818" points="256.6,259.4583,247.3115,262.733,252.9661,262.8927,252.8065,268.5473,256.6,259.4583" style="stroke:#181818;stroke-width:1.0;"/></g><!--MD5=[35474c8f76436187ff0ed171c4228f6a]
reverse link GameTurnContext to useGamePlayers--><g id="link_GameTurnContext_useGamePlayers"><path codeLine="63" d="M1197.85,261.9883 C1176.56,278.1583 1148.47,298.7583 1122.5,315.4883 C1090.35,336.1983 1054.01,357.2083 1021.72,375.1083 " fill="none" id="GameTurnContext-backto-useGamePlayers" style="stroke:#181818;stroke-width:1.0;stroke-dasharray:7.0,7.0;"/><polygon fill="#181818" points="1201.63,259.1083,1192.0479,261.3851,1197.6542,262.1402,1196.899,267.7464,1201.63,259.1083" style="stroke:#181818;stroke-width:1.0;"/></g><!--MD5=[e7f648dc2ea7f5f29a01f41293c72613]
reverse link GameTurnContext to useGameTurn--><g id="link_GameTurnContext_useGameTurn"><path codeLine="64" d="M1232.5,264.6283 C1232.5,301.9783 1232.5,365.4083 1232.5,399.5583 " fill="none" id="GameTurnContext-backto-useGameTurn" style="stroke:#181818;stroke-width:1.0;stroke-dasharray:7.0,7.0;"/><polygon fill="#181818" points="1232.5,259.9283,1228.5,268.9283,1232.5,264.9283,1236.5,268.9283,1232.5,259.9283" style="stroke:#181818;stroke-width:1.0;"/></g><!--MD5=[1520de90ea4bc549fe0238cd487176af]
reverse link GameTurnContext to useGamePlayerKeyOnTurn--><g id="link_GameTurnContext_useGamePlayerKeyOnTurn"><path codeLine="65" d="M1265.07,262.5683 C1308.81,299.6083 1385.76,364.7783 1426.83,399.5583 " fill="none" id="GameTurnContext-backto-useGamePlayerKeyOnTurn" style="stroke:#181818;stroke-width:1.0;stroke-dasharray:7.0,7.0;"/><polygon fill="#181818" points="1261.32,259.3983,1265.6216,268.2581,1265.1423,262.6216,1270.7789,262.1424,1261.32,259.3983" style="stroke:#181818;stroke-width:1.0;"/></g><!--MD5=[831ba400b143b44f0237e50a424b523a]
@startuml
title Relationship Diagram of Hooks and Contexts

class "UserRegistView.tsx" as UserRegistView {

}
class "TicTacToeView.tsx" as TicTacToeView {

}


class "GameGridsContext.tsx" as GameGridsContext {
}

class "GamePlayersContext.tsx" as GamePlayersContext {
      gamePlayers: Map<GamePlayerKey, GamePlayerName>
      getGamePlayerName()
      getYourName()
      getOpponentName()
      getGamePlayerKeyRandomly()
      setGamePlayerNames(you, opponent)
      initGamePlayerNames()
}

class "GameStateContext.tsx" as GameStateContext {
}

class "GameTurnContext.tsx" as GameTurnContext {
}


class "useConstants.ts" as useConstants {}

class "useGameGrids.ts" as useGameGrids {}

class "useGamePlayers.ts" as useGamePlayers {
      gamePlayers: Map<GamePlayerKey, GamePlayerName>
      getGamePlayerName()
      setGamePlayerNames(you, opponent)
}

class "useGameMode.ts" as useGameMode {}
class "useGameResult.ts" as useGameResult {}
class "useGameTurn.ts" as useGameTurn {}
class "useGamePlayerKeyOnTurn.ts" as useGamePlayerKeyOnTurn {}

UserRegistView <.. GamePlayersContext
TicTacToeView <.. GameGridsContext
TicTacToeView <.. GamePlayersContext
TicTacToeView <.. GameStateContext
TicTacToeView <.. GameTurnContext
TicTacToeView <.. useConstants

GameGridsContext <.. useConstants
GameGridsContext <.. useGameGrids

GamePlayersContext <.. useConstants
GamePlayersContext <.. useGamePlayers

GameStateContext <.. useConstants
GameStateContext <.. useGameMode
GameStateContext <.. useGameResult

GameTurnContext <.. useGamePlayers
GameTurnContext <.. useGameTurn
GameTurnContext <.. useGamePlayerKeyOnTurn

@enduml	   

PlantUML version 1.2022.13(Sat Nov 19 22:22:17 JST 2022)
(GPL source distribution)
Java Runtime: OpenJDK Runtime Environment
JVM: OpenJDK 64-Bit Server VM
Default Encoding: UTF-8
Language: ja
Country: JP
--></g></svg>