<?xml version="1.0" encoding="UTF-8" standalone="no"?><svg xmlns="http://www.w3.org/2000/svg" xmlns:xlink="http://www.w3.org/1999/xlink" contentScriptType="application/ecmascript" contentStyleType="text/css" height="563px" preserveAspectRatio="none" style="width:1452px;height:563px;" version="1.1" viewBox="0 0 1452 563" width="1452px" zoomAndPan="magnify"><defs><filter height="300%" id="fveenha0bx0dg" width="300%" x="-1" y="-1"><feGaussianBlur result="blurOut" stdDeviation="2.0"/><feColorMatrix in="blurOut" result="blurOut2" type="matrix" values="0 0 0 0 0 0 0 0 0 0 0 0 0 0 0 0 0 0 .4 0"/><feOffset dx="4.0" dy="4.0" in="blurOut2" result="blurOut3"/><feBlend in="SourceGraphic" in2="blurOut3" mode="normal"/></filter></defs><g><text fill="#000000" font-family="sans-serif" font-size="18" lengthAdjust="spacingAndGlyphs" textLength="395" x="548" y="16.708">Relationship Diagram of Hooks and Contexts</text><rect fill="#FEFECE" filter="url(#fveenha0bx0dg)" height="84.1719" style="stroke: #A80036; stroke-width: 1.5;" width="132" x="1033" y="66.9531"/><text fill="#000000" font-family="sans-serif" font-size="12" lengthAdjust="spacingAndGlyphs" textLength="118" x="1040" y="80.0918">UserRegistView.tsx</text><line style="stroke: #A80036; stroke-width: 1.5;" x1="1034" x2="1164" y1="84.9219" y2="84.9219"/><text fill="#000000" font-family="sans-serif" font-size="10" lengthAdjust="spacingAndGlyphs" textLength="52" x="1039" y="98.2041">yourName</text><text fill="#000000" font-family="sans-serif" font-size="10" lengthAdjust="spacingAndGlyphs" textLength="82" x="1039" y="109.8447">oppeonentName</text><text fill="#000000" font-family="sans-serif" font-size="10" lengthAdjust="spacingAndGlyphs" textLength="77" x="1039" y="121.4854">inputYourName</text><text fill="#000000" font-family="sans-serif" font-size="10" lengthAdjust="spacingAndGlyphs" textLength="102" x="1039" y="133.126">inputOpponentName</text><text fill="#000000" font-family="sans-serif" font-size="10" lengthAdjust="spacingAndGlyphs" textLength="103" x="1039" y="144.7666">handelSubmit(event)</text><rect fill="#FEFECE" filter="url(#fveenha0bx0dg)" height="95.8125" style="stroke: #A80036; stroke-width: 1.5;" width="136" x="862" y="60.9531"/><text fill="#000000" font-family="sans-serif" font-size="12" lengthAdjust="spacingAndGlyphs" textLength="112" x="874" y="74.0918">TicTacToeView.tsx</text><line style="stroke: #A80036; stroke-width: 1.5;" x1="863" x2="997" y1="78.9219" y2="78.9219"/><text fill="#000000" font-family="sans-serif" font-size="10" lengthAdjust="spacingAndGlyphs" textLength="52" x="868" y="92.2041">yourName</text><text fill="#000000" font-family="sans-serif" font-size="10" lengthAdjust="spacingAndGlyphs" textLength="76" x="868" y="103.8447">opponentName</text><text fill="#000000" font-family="sans-serif" font-size="10" lengthAdjust="spacingAndGlyphs" textLength="124" x="868" y="115.4854">gamePlayerNameOnTurn</text><text fill="#000000" font-family="sans-serif" font-size="10" lengthAdjust="spacingAndGlyphs" textLength="86" x="868" y="127.126">selectGameGrid()</text><text fill="#000000" font-family="sans-serif" font-size="10" lengthAdjust="spacingAndGlyphs" textLength="77" x="868" y="138.7666">initGameStart()</text><text fill="#000000" font-family="sans-serif" font-size="10" lengthAdjust="spacingAndGlyphs" textLength="43" x="868" y="150.4072">goBack()</text><!--MD5=[fb70df6079b8c7aa6defa38ba3cf4955]
class GameGridsContext--><rect fill="#FEFECE" filter="url(#fveenha0bx0dg)" height="137.6328" id="GameGridsContext" style="stroke: #A80036; stroke-width: 1.5;" width="302" x="779" y="216.9531"/><ellipse cx="856.75" cy="232.9531" fill="#ADD1B2" rx="11" ry="11" style="stroke: #A80036; stroke-width: 1.0;"/><path d="M859.7188,238.5938 Q859.1406,238.8906 858.5,239.0313 Q857.8594,239.1875 857.1563,239.1875 Q854.6563,239.1875 853.3281,237.5469 Q852.0156,235.8906 852.0156,232.7656 Q852.0156,229.6406 853.3281,227.9844 Q854.6563,226.3281 857.1563,226.3281 Q857.8594,226.3281 858.5,226.4844 Q859.1563,226.6406 859.7188,226.9375 L859.7188,229.6563 Q859.0938,229.0781 858.5,228.8125 Q857.9063,228.5313 857.2813,228.5313 Q855.9375,228.5313 855.25,229.6094 Q854.5625,230.6719 854.5625,232.7656 Q854.5625,234.8594 855.25,235.9375 Q855.9375,237 857.2813,237 Q857.9063,237 858.5,236.7344 Q859.0938,236.4531 859.7188,235.875 L859.7188,238.5938 Z "/><text fill="#000000" font-family="sans-serif" font-size="12" lengthAdjust="spacingAndGlyphs" textLength="138" x="877.25" y="237.1074">GameGridsContext.tsx</text><line style="stroke: #A80036; stroke-width: 1.5;" x1="780" x2="1080" y1="248.9531" y2="248.9531"/><text fill="#000000" font-family="sans-serif" font-size="11" lengthAdjust="spacingAndGlyphs" textLength="63" x="785" y="263.1636">gameGrids</text><line style="stroke: #A80036; stroke-width: 1.5;" x1="780" x2="1080" y1="269.7578" y2="269.7578"/><text fill="#000000" font-family="sans-serif" font-size="11" lengthAdjust="spacingAndGlyphs" textLength="90" x="785" y="283.9683">initGameGrids()</text><text fill="#000000" font-family="sans-serif" font-size="11" lengthAdjust="spacingAndGlyphs" textLength="129" x="785" y="296.7729">getGameGrid(row, col)</text><text fill="#000000" font-family="sans-serif" font-size="11" lengthAdjust="spacingAndGlyphs" textLength="290" x="785" y="309.5776">setGameGrid(row, col, gamePlayerKey, gameTurn)</text><text fill="#000000" font-family="sans-serif" font-size="11" lengthAdjust="spacingAndGlyphs" textLength="141" x="785" y="322.3823">resetGameGrid(row, col)</text><text fill="#000000" font-family="sans-serif" font-size="11" lengthAdjust="spacingAndGlyphs" textLength="224" x="785" y="335.187">checkGameEndWithWin(gamePlayerKey)</text><text fill="#000000" font-family="sans-serif" font-size="11" lengthAdjust="spacingAndGlyphs" textLength="147" x="785" y="347.9917">checkGameEndWithDraw()</text><!--MD5=[407986f5752d98a72da282f608205af4]
class GamePlayersContext--><rect fill="#FEFECE" filter="url(#fveenha0bx0dg)" height="137.6328" id="GamePlayersContext" style="stroke: #A80036; stroke-width: 1.5;" width="228" x="1116" y="216.9531"/><ellipse cx="1151.25" cy="232.9531" fill="#ADD1B2" rx="11" ry="11" style="stroke: #A80036; stroke-width: 1.0;"/><path d="M1154.2188,238.5938 Q1153.6406,238.8906 1153,239.0313 Q1152.3594,239.1875 1151.6563,239.1875 Q1149.1563,239.1875 1147.8281,237.5469 Q1146.5156,235.8906 1146.5156,232.7656 Q1146.5156,229.6406 1147.8281,227.9844 Q1149.1563,226.3281 1151.6563,226.3281 Q1152.3594,226.3281 1153,226.4844 Q1153.6563,226.6406 1154.2188,226.9375 L1154.2188,229.6563 Q1153.5938,229.0781 1153,228.8125 Q1152.4063,228.5313 1151.7813,228.5313 Q1150.4375,228.5313 1149.75,229.6094 Q1149.0625,230.6719 1149.0625,232.7656 Q1149.0625,234.8594 1149.75,235.9375 Q1150.4375,237 1151.7813,237 Q1152.4063,237 1153,236.7344 Q1153.5938,236.4531 1154.2188,235.875 L1154.2188,238.5938 Z "/><text fill="#000000" font-family="sans-serif" font-size="12" lengthAdjust="spacingAndGlyphs" textLength="151" x="1169.75" y="237.1074">GamePlayersContext.tsx</text><line style="stroke: #A80036; stroke-width: 1.5;" x1="1117" x2="1343" y1="248.9531" y2="248.9531"/><text fill="#000000" font-family="sans-serif" font-size="11" lengthAdjust="spacingAndGlyphs" textLength="74" x="1122" y="263.1636">gamePlayers</text><line style="stroke: #A80036; stroke-width: 1.5;" x1="1117" x2="1343" y1="269.7578" y2="269.7578"/><text fill="#000000" font-family="sans-serif" font-size="11" lengthAdjust="spacingAndGlyphs" textLength="128" x="1122" y="283.9683">getGamePlayerName()</text><text fill="#000000" font-family="sans-serif" font-size="11" lengthAdjust="spacingAndGlyphs" textLength="85" x="1122" y="296.7729">getYourName()</text><text fill="#000000" font-family="sans-serif" font-size="11" lengthAdjust="spacingAndGlyphs" textLength="114" x="1122" y="309.5776">getOpponentName()</text><text fill="#000000" font-family="sans-serif" font-size="11" lengthAdjust="spacingAndGlyphs" textLength="170" x="1122" y="322.3823">getGamePlayerKeyRandomly()</text><text fill="#000000" font-family="sans-serif" font-size="11" lengthAdjust="spacingAndGlyphs" textLength="216" x="1122" y="335.187">setGamePlayerNames(you, opponent)</text><text fill="#000000" font-family="sans-serif" font-size="11" lengthAdjust="spacingAndGlyphs" textLength="134" x="1122" y="347.9917">initGamePlayerNames()</text><!--MD5=[271274cd3dec61aff7303e0b3e594f59]
class GameStateContext--><rect fill="#FEFECE" filter="url(#fveenha0bx0dg)" height="112.0234" id="GameStateContext" style="stroke: #A80036; stroke-width: 1.5;" width="222" x="321" y="229.9531"/><ellipse cx="358.5" cy="245.9531" fill="#ADD1B2" rx="11" ry="11" style="stroke: #A80036; stroke-width: 1.0;"/><path d="M361.4688,251.5938 Q360.8906,251.8906 360.25,252.0313 Q359.6094,252.1875 358.9063,252.1875 Q356.4063,252.1875 355.0781,250.5469 Q353.7656,248.8906 353.7656,245.7656 Q353.7656,242.6406 355.0781,240.9844 Q356.4063,239.3281 358.9063,239.3281 Q359.6094,239.3281 360.25,239.4844 Q360.9063,239.6406 361.4688,239.9375 L361.4688,242.6563 Q360.8438,242.0781 360.25,241.8125 Q359.6563,241.5313 359.0313,241.5313 Q357.6875,241.5313 357,242.6094 Q356.3125,243.6719 356.3125,245.7656 Q356.3125,247.8594 357,248.9375 Q357.6875,250 359.0313,250 Q359.6563,250 360.25,249.7344 Q360.8438,249.4531 361.4688,248.875 L361.4688,251.5938 Z "/><text fill="#000000" font-family="sans-serif" font-size="12" lengthAdjust="spacingAndGlyphs" textLength="140" x="377.5" y="250.1074">GameStateContext.tsx</text><line style="stroke: #A80036; stroke-width: 1.5;" x1="322" x2="542" y1="261.9531" y2="261.9531"/><text fill="#000000" font-family="sans-serif" font-size="11" lengthAdjust="spacingAndGlyphs" textLength="62" x="327" y="276.1636">gameMode</text><text fill="#000000" font-family="sans-serif" font-size="11" lengthAdjust="spacingAndGlyphs" textLength="67" x="327" y="288.9683">gameResult</text><line style="stroke: #A80036; stroke-width: 1.5;" x1="322" x2="542" y1="295.5625" y2="295.5625"/><text fill="#000000" font-family="sans-serif" font-size="11" lengthAdjust="spacingAndGlyphs" textLength="89" x="327" y="309.7729">initGameState()</text><text fill="#000000" font-family="sans-serif" font-size="11" lengthAdjust="spacingAndGlyphs" textLength="210" x="327" y="322.5776">setGameEndWithWin(gamePlayerKey)</text><text fill="#000000" font-family="sans-serif" font-size="11" lengthAdjust="spacingAndGlyphs" textLength="133" x="327" y="335.3823">setGameEndWithDraw()</text><!--MD5=[99e5bccf41373de8b1fea0e7e19d690b]
class GameTurnContext--><rect fill="#FEFECE" filter="url(#fveenha0bx0dg)" height="112.0234" id="GameTurnContext" style="stroke: #A80036; stroke-width: 1.5;" width="166" x="578" y="229.9531"/><ellipse cx="593" cy="245.9531" fill="#ADD1B2" rx="11" ry="11" style="stroke: #A80036; stroke-width: 1.0;"/><path d="M595.9688,251.5938 Q595.3906,251.8906 594.75,252.0313 Q594.1094,252.1875 593.4063,252.1875 Q590.9063,252.1875 589.5781,250.5469 Q588.2656,248.8906 588.2656,245.7656 Q588.2656,242.6406 589.5781,240.9844 Q590.9063,239.3281 593.4063,239.3281 Q594.1094,239.3281 594.75,239.4844 Q595.4063,239.6406 595.9688,239.9375 L595.9688,242.6563 Q595.3438,242.0781 594.75,241.8125 Q594.1563,241.5313 593.5313,241.5313 Q592.1875,241.5313 591.5,242.6094 Q590.8125,243.6719 590.8125,245.7656 Q590.8125,247.8594 591.5,248.9375 Q592.1875,250 593.5313,250 Q594.1563,250 594.75,249.7344 Q595.3438,249.4531 595.9688,248.875 L595.9688,251.5938 Z "/><text fill="#000000" font-family="sans-serif" font-size="12" lengthAdjust="spacingAndGlyphs" textLength="134" x="607" y="250.1074">GameTurnContext.tsx</text><line style="stroke: #A80036; stroke-width: 1.5;" x1="579" x2="743" y1="261.9531" y2="261.9531"/><text fill="#000000" font-family="sans-serif" font-size="11" lengthAdjust="spacingAndGlyphs" textLength="58" x="584" y="276.1636">gameTurn</text><text fill="#000000" font-family="sans-serif" font-size="11" lengthAdjust="spacingAndGlyphs" textLength="129" x="584" y="288.9683">gamePlayerKeyOnTurn</text><line style="stroke: #A80036; stroke-width: 1.5;" x1="579" x2="743" y1="295.5625" y2="295.5625"/><text fill="#000000" font-family="sans-serif" font-size="11" lengthAdjust="spacingAndGlyphs" textLength="85" x="584" y="309.7729">initGameTurn()</text><text fill="#000000" font-family="sans-serif" font-size="11" lengthAdjust="spacingAndGlyphs" textLength="115" x="584" y="322.5776">advanceGameTurn()</text><text fill="#000000" font-family="sans-serif" font-size="11" lengthAdjust="spacingAndGlyphs" textLength="106" x="584" y="335.3823">rewindGameTurn()</text><!--MD5=[459c93c415d6d7f0f4fefb92fe317108]
class useGameGrids--><rect fill="#FEFECE" filter="url(#fveenha0bx0dg)" height="137.6328" id="useGameGrids" style="stroke: #A80036; stroke-width: 1.5;" width="302" x="876" y="414.9531"/><ellipse cx="969.25" cy="430.9531" fill="#ADD1B2" rx="11" ry="11" style="stroke: #A80036; stroke-width: 1.0;"/><path d="M972.2188,436.5938 Q971.6406,436.8906 971,437.0313 Q970.3594,437.1875 969.6563,437.1875 Q967.1563,437.1875 965.8281,435.5469 Q964.5156,433.8906 964.5156,430.7656 Q964.5156,427.6406 965.8281,425.9844 Q967.1563,424.3281 969.6563,424.3281 Q970.3594,424.3281 971,424.4844 Q971.6563,424.6406 972.2188,424.9375 L972.2188,427.6563 Q971.5938,427.0781 971,426.8125 Q970.4063,426.5313 969.7813,426.5313 Q968.4375,426.5313 967.75,427.6094 Q967.0625,428.6719 967.0625,430.7656 Q967.0625,432.8594 967.75,433.9375 Q968.4375,435 969.7813,435 Q970.4063,435 971,434.7344 Q971.5938,434.4531 972.2188,433.875 L972.2188,436.5938 Z "/><text fill="#000000" font-family="sans-serif" font-size="12" lengthAdjust="spacingAndGlyphs" textLength="107" x="989.75" y="435.1074">useGameGrids.ts</text><line style="stroke: #A80036; stroke-width: 1.5;" x1="877" x2="1177" y1="446.9531" y2="446.9531"/><text fill="#000000" font-family="sans-serif" font-size="11" lengthAdjust="spacingAndGlyphs" textLength="63" x="882" y="461.1636">gameGrids</text><line style="stroke: #A80036; stroke-width: 1.5;" x1="877" x2="1177" y1="467.7578" y2="467.7578"/><text fill="#000000" font-family="sans-serif" font-size="11" lengthAdjust="spacingAndGlyphs" textLength="90" x="882" y="481.9683">initGameGrids()</text><text fill="#000000" font-family="sans-serif" font-size="11" lengthAdjust="spacingAndGlyphs" textLength="129" x="882" y="494.7729">getGameGrid(row, col)</text><text fill="#000000" font-family="sans-serif" font-size="11" lengthAdjust="spacingAndGlyphs" textLength="290" x="882" y="507.5776">setGameGrid(row, col, gamePlayerKey, gameTurn)</text><text fill="#000000" font-family="sans-serif" font-size="11" lengthAdjust="spacingAndGlyphs" textLength="141" x="882" y="520.3823">resetGameGrid(row, col)</text><text fill="#000000" font-family="sans-serif" font-size="11" lengthAdjust="spacingAndGlyphs" textLength="146" x="882" y="533.187">checkWin(gamePlayerKey)</text><text fill="#000000" font-family="sans-serif" font-size="11" lengthAdjust="spacingAndGlyphs" textLength="69" x="882" y="545.9917">checkDraw()</text><!--MD5=[3bc5ff66e1a85a21f345313a9f77016d]
class useGamePlayers--><rect fill="#FEFECE" filter="url(#fveenha0bx0dg)" height="86.4141" id="useGamePlayers" style="stroke: #A80036; stroke-width: 1.5;" width="228" x="1213" y="440.9531"/><ellipse cx="1262.75" cy="456.9531" fill="#ADD1B2" rx="11" ry="11" style="stroke: #A80036; stroke-width: 1.0;"/><path d="M1265.7188,462.5938 Q1265.1406,462.8906 1264.5,463.0313 Q1263.8594,463.1875 1263.1563,463.1875 Q1260.6563,463.1875 1259.3281,461.5469 Q1258.0156,459.8906 1258.0156,456.7656 Q1258.0156,453.6406 1259.3281,451.9844 Q1260.6563,450.3281 1263.1563,450.3281 Q1263.8594,450.3281 1264.5,450.4844 Q1265.1563,450.6406 1265.7188,450.9375 L1265.7188,453.6563 Q1265.0938,453.0781 1264.5,452.8125 Q1263.9063,452.5313 1263.2813,452.5313 Q1261.9375,452.5313 1261.25,453.6094 Q1260.5625,454.6719 1260.5625,456.7656 Q1260.5625,458.8594 1261.25,459.9375 Q1261.9375,461 1263.2813,461 Q1263.9063,461 1264.5,460.7344 Q1265.0938,460.4531 1265.7188,459.875 L1265.7188,462.5938 Z "/><text fill="#000000" font-family="sans-serif" font-size="12" lengthAdjust="spacingAndGlyphs" textLength="120" x="1283.25" y="461.1074">useGamePlayers.ts</text><line style="stroke: #A80036; stroke-width: 1.5;" x1="1214" x2="1440" y1="472.9531" y2="472.9531"/><text fill="#000000" font-family="sans-serif" font-size="11" lengthAdjust="spacingAndGlyphs" textLength="74" x="1219" y="487.1636">gamePlayers</text><line style="stroke: #A80036; stroke-width: 1.5;" x1="1214" x2="1440" y1="493.7578" y2="493.7578"/><text fill="#000000" font-family="sans-serif" font-size="11" lengthAdjust="spacingAndGlyphs" textLength="215" x="1219" y="507.9683">getGamePlayerName(gamePlayerKey)</text><text fill="#000000" font-family="sans-serif" font-size="11" lengthAdjust="spacingAndGlyphs" textLength="216" x="1219" y="520.7729">setGamePlayerNames(you, opponent)</text><!--MD5=[25ce75281466841eb35daa014b3cff59]
class useGameMode--><rect fill="#FEFECE" filter="url(#fveenha0bx0dg)" height="86.4141" id="useGameMode" style="stroke: #A80036; stroke-width: 1.5;" width="177" x="247.5" y="440.9531"/><ellipse cx="278.7" cy="456.9531" fill="#ADD1B2" rx="11" ry="11" style="stroke: #A80036; stroke-width: 1.0;"/><path d="M281.6688,462.5938 Q281.0906,462.8906 280.45,463.0313 Q279.8094,463.1875 279.1063,463.1875 Q276.6063,463.1875 275.2781,461.5469 Q273.9656,459.8906 273.9656,456.7656 Q273.9656,453.6406 275.2781,451.9844 Q276.6063,450.3281 279.1063,450.3281 Q279.8094,450.3281 280.45,450.4844 Q281.1063,450.6406 281.6688,450.9375 L281.6688,453.6563 Q281.0438,453.0781 280.45,452.8125 Q279.8563,452.5313 279.2313,452.5313 Q277.8875,452.5313 277.2,453.6094 Q276.5125,454.6719 276.5125,456.7656 Q276.5125,458.8594 277.2,459.9375 Q277.8875,461 279.2313,461 Q279.8563,461 280.45,460.7344 Q281.0438,460.4531 281.6688,459.875 L281.6688,462.5938 Z "/><text fill="#000000" font-family="sans-serif" font-size="12" lengthAdjust="spacingAndGlyphs" textLength="109" x="296.3" y="461.1074">useGameMode.ts</text><line style="stroke: #A80036; stroke-width: 1.5;" x1="248.5" x2="423.5" y1="472.9531" y2="472.9531"/><text fill="#000000" font-family="sans-serif" font-size="11" lengthAdjust="spacingAndGlyphs" textLength="62" x="253.5" y="487.1636">gameMode</text><line style="stroke: #A80036; stroke-width: 1.5;" x1="248.5" x2="423.5" y1="493.7578" y2="493.7578"/><text fill="#000000" font-family="sans-serif" font-size="11" lengthAdjust="spacingAndGlyphs" textLength="89" x="253.5" y="507.9683">initGameMode()</text><text fill="#000000" font-family="sans-serif" font-size="11" lengthAdjust="spacingAndGlyphs" textLength="165" x="253.5" y="520.7729">setGameModeToGameOver()</text><!--MD5=[3a23a806d3b93c292a3ae7d3e5f8701c]
class useGameResult--><rect fill="#FEFECE" filter="url(#fveenha0bx0dg)" height="86.4141" id="useGameResult" style="stroke: #A80036; stroke-width: 1.5;" width="174" x="38" y="440.9531"/><ellipse cx="65.6" cy="456.9531" fill="#ADD1B2" rx="11" ry="11" style="stroke: #A80036; stroke-width: 1.0;"/><path d="M68.5688,462.5938 Q67.9906,462.8906 67.35,463.0313 Q66.7094,463.1875 66.0063,463.1875 Q63.5062,463.1875 62.1781,461.5469 Q60.8656,459.8906 60.8656,456.7656 Q60.8656,453.6406 62.1781,451.9844 Q63.5062,450.3281 66.0063,450.3281 Q66.7094,450.3281 67.35,450.4844 Q68.0063,450.6406 68.5688,450.9375 L68.5688,453.6563 Q67.9438,453.0781 67.35,452.8125 Q66.7563,452.5313 66.1313,452.5313 Q64.7875,452.5313 64.1,453.6094 Q63.4125,454.6719 63.4125,456.7656 Q63.4125,458.8594 64.1,459.9375 Q64.7875,461 66.1313,461 Q66.7563,461 67.35,460.7344 Q67.9438,460.4531 68.5688,459.875 L68.5688,462.5938 Z "/><text fill="#000000" font-family="sans-serif" font-size="12" lengthAdjust="spacingAndGlyphs" textLength="114" x="82.4" y="461.1074">useGameResult.ts</text><line style="stroke: #A80036; stroke-width: 1.5;" x1="39" x2="211" y1="472.9531" y2="472.9531"/><text fill="#000000" font-family="sans-serif" font-size="11" lengthAdjust="spacingAndGlyphs" textLength="67" x="44" y="487.1636">gameResult</text><line style="stroke: #A80036; stroke-width: 1.5;" x1="39" x2="211" y1="493.7578" y2="493.7578"/><text fill="#000000" font-family="sans-serif" font-size="11" lengthAdjust="spacingAndGlyphs" textLength="94" x="44" y="507.9683">initGameResult()</text><text fill="#000000" font-family="sans-serif" font-size="11" lengthAdjust="spacingAndGlyphs" textLength="162" x="44" y="520.7729">setGameResult(gameResult)</text><!--MD5=[78a636ae5a25bfaa2a4b382c5530d5c2]
class useGameTurn--><rect fill="#FEFECE" filter="url(#fveenha0bx0dg)" height="99.2188" id="useGameTurn" style="stroke: #A80036; stroke-width: 1.5;" width="135" x="705.5" y="434.4531"/><ellipse cx="720.5" cy="450.4531" fill="#ADD1B2" rx="11" ry="11" style="stroke: #A80036; stroke-width: 1.0;"/><path d="M723.4688,456.0938 Q722.8906,456.3906 722.25,456.5313 Q721.6094,456.6875 720.9063,456.6875 Q718.4063,456.6875 717.0781,455.0469 Q715.7656,453.3906 715.7656,450.2656 Q715.7656,447.1406 717.0781,445.4844 Q718.4063,443.8281 720.9063,443.8281 Q721.6094,443.8281 722.25,443.9844 Q722.9063,444.1406 723.4688,444.4375 L723.4688,447.1563 Q722.8438,446.5781 722.25,446.3125 Q721.6563,446.0313 721.0313,446.0313 Q719.6875,446.0313 719,447.1094 Q718.3125,448.1719 718.3125,450.2656 Q718.3125,452.3594 719,453.4375 Q719.6875,454.5 721.0313,454.5 Q721.6563,454.5 722.25,454.2344 Q722.8438,453.9531 723.4688,453.375 L723.4688,456.0938 Z "/><text fill="#000000" font-family="sans-serif" font-size="12" lengthAdjust="spacingAndGlyphs" textLength="103" x="734.5" y="454.6074">useGameTurn.ts</text><line style="stroke: #A80036; stroke-width: 1.5;" x1="706.5" x2="839.5" y1="466.4531" y2="466.4531"/><text fill="#000000" font-family="sans-serif" font-size="11" lengthAdjust="spacingAndGlyphs" textLength="58" x="711.5" y="480.6636">gameTurn</text><line style="stroke: #A80036; stroke-width: 1.5;" x1="706.5" x2="839.5" y1="487.2578" y2="487.2578"/><text fill="#000000" font-family="sans-serif" font-size="11" lengthAdjust="spacingAndGlyphs" textLength="111" x="711.5" y="501.4683">setFirstGameTurn()</text><text fill="#000000" font-family="sans-serif" font-size="11" lengthAdjust="spacingAndGlyphs" textLength="117" x="711.5" y="514.2729">increaseGameTurn()</text><text fill="#000000" font-family="sans-serif" font-size="11" lengthAdjust="spacingAndGlyphs" textLength="121" x="711.5" y="527.0776">decreaseGameTurn()</text><!--MD5=[b011b5ae82fbcca0852cbb113df240ef]
class useGamePlayerKeyOnTurn--><rect fill="#FEFECE" filter="url(#fveenha0bx0dg)" height="86.4141" id="useGamePlayerKeyOnTurn" style="stroke: #A80036; stroke-width: 1.5;" width="211" x="459.5" y="440.9531"/><ellipse cx="474.5" cy="456.9531" fill="#ADD1B2" rx="11" ry="11" style="stroke: #A80036; stroke-width: 1.0;"/><path d="M477.4688,462.5938 Q476.8906,462.8906 476.25,463.0313 Q475.6094,463.1875 474.9063,463.1875 Q472.4063,463.1875 471.0781,461.5469 Q469.7656,459.8906 469.7656,456.7656 Q469.7656,453.6406 471.0781,451.9844 Q472.4063,450.3281 474.9063,450.3281 Q475.6094,450.3281 476.25,450.4844 Q476.9063,450.6406 477.4688,450.9375 L477.4688,453.6563 Q476.8438,453.0781 476.25,452.8125 Q475.6563,452.5313 475.0313,452.5313 Q473.6875,452.5313 473,453.6094 Q472.3125,454.6719 472.3125,456.7656 Q472.3125,458.8594 473,459.9375 Q473.6875,461 475.0313,461 Q475.6563,461 476.25,460.7344 Q476.8438,460.4531 477.4688,459.875 L477.4688,462.5938 Z "/><text fill="#000000" font-family="sans-serif" font-size="12" lengthAdjust="spacingAndGlyphs" textLength="179" x="488.5" y="461.1074">useGamePlayerKeyOnTurn.ts</text><line style="stroke: #A80036; stroke-width: 1.5;" x1="460.5" x2="669.5" y1="472.9531" y2="472.9531"/><text fill="#000000" font-family="sans-serif" font-size="11" lengthAdjust="spacingAndGlyphs" textLength="129" x="465.5" y="487.1636">gamePlayerKeyOnTurn</text><line style="stroke: #A80036; stroke-width: 1.5;" x1="460.5" x2="669.5" y1="493.7578" y2="493.7578"/><text fill="#000000" font-family="sans-serif" font-size="11" lengthAdjust="spacingAndGlyphs" textLength="156" x="465.5" y="507.9683">initGamePlayerKeyOnTurn()</text><text fill="#000000" font-family="sans-serif" font-size="11" lengthAdjust="spacingAndGlyphs" textLength="174" x="465.5" y="520.7729">toggleGamePlayerKeyOnTurn()</text><!--MD5=[174337d06a678160a2cfdeed01de7721]
reverse link UserRegistView to GamePlayersContext--><path d="M1132.86,155.1831 C1146.9,173.9431 1163.51,196.1231 1178.98,216.7931 " fill="none" id="UserRegistView&lt;-GamePlayersContext" style="stroke: #A80036; stroke-width: 1.0; stroke-dasharray: 7.0,7.0;"/><polygon fill="#A80036" points="1129.71,150.9831,1131.91,160.5831,1132.71,154.9831,1138.31,155.7831,1129.71,150.9831" style="stroke: #A80036; stroke-width: 1.0;"/><!--MD5=[f02dd5a5d7dd589288d2d6806a227b88]
reverse link TicTacToeView to GameGridsContext--><path d="M930,162.5431 C930,179.6131 930,198.8231 930,216.8631 " fill="none" id="TicTacToeView&lt;-GameGridsContext" style="stroke: #A80036; stroke-width: 1.0; stroke-dasharray: 7.0,7.0;"/><polygon fill="#A80036" points="930,157.3131,926,166.3131,930,162.3131,934,166.3131,930,157.3131" style="stroke: #A80036; stroke-width: 1.0;"/><!--MD5=[14c9ed68bc88abbb860ec41f84bed8eb]
reverse link TicTacToeView to GamePlayersContext--><path d="M981.97,160.2831 C992.56,168.3131 1004.12,175.6931 1016,180.9531 C1050.08,196.0431 1064.36,179.2031 1099,192.9531 C1114.63,199.1531 1130.18,207.5631 1144.83,216.7931 " fill="none" id="TicTacToeView&lt;-GamePlayersContext" style="stroke: #A80036; stroke-width: 1.0; stroke-dasharray: 7.0,7.0;"/><polygon fill="#A80036" points="977.81,157.0631,982.4715,165.739,981.7614,160.1269,987.3735,159.4168,977.81,157.0631" style="stroke: #A80036; stroke-width: 1.0;"/><!--MD5=[4cd321331402e874aa2a24daa0975c80]
reverse link TicTacToeView to GameStateContext--><path d="M856.83,117.7131 C780.37,127.7831 658.23,149.4931 561,192.9531 C539.4,202.6031 517.76,216.1631 498.54,229.8931 " fill="none" id="TicTacToeView&lt;-GameStateContext" style="stroke: #A80036; stroke-width: 1.0; stroke-dasharray: 7.0,7.0;"/><polygon fill="#A80036" points="861.8,117.0631,852.3603,114.2538,856.8415,117.7062,853.3892,122.1874,861.8,117.0631" style="stroke: #A80036; stroke-width: 1.0;"/><!--MD5=[458d4672a17c73c009c1039fc981c788]
reverse link TicTacToeView to GameTurnContext--><path d="M856.94,140.6031 C826.5,154.7431 791.46,172.8531 762,192.9531 C746.13,203.7831 730.19,216.9731 715.82,229.9331 " fill="none" id="TicTacToeView&lt;-GameTurnContext" style="stroke: #A80036; stroke-width: 1.0; stroke-dasharray: 7.0,7.0;"/><polygon fill="#A80036" points="861.78,138.3731,851.932,138.5049,857.2385,140.4648,855.2787,145.7713,861.78,138.3731" style="stroke: #A80036; stroke-width: 1.0;"/><!--MD5=[a1f66c080045af8a70bc3ab64340083b]
reverse link GameGridsContext to useGameGrids--><path d="M965.91,359.5231 C974.85,377.5831 984.41,396.8931 993.24,414.7431 " fill="none" id="GameGridsContext&lt;-useGameGrids" style="stroke: #A80036; stroke-width: 1.0; stroke-dasharray: 7.0,7.0;"/><polygon fill="#A80036" points="963.65,354.9531,964.0469,364.794,965.8632,359.4366,971.2205,361.2529,963.65,354.9531" style="stroke: #A80036; stroke-width: 1.0;"/><!--MD5=[050668626466de976c14fb648cf88e3b]
reverse link GamePlayersContext to useGamePlayers--><path d="M1265.99,359.6631 C1279.51,386.9931 1294.42,417.1231 1306.12,440.7631 " fill="none" id="GamePlayersContext&lt;-useGamePlayers" style="stroke: #A80036; stroke-width: 1.0; stroke-dasharray: 7.0,7.0;"/><polygon fill="#A80036" points="1263.65,354.9531,1264.0469,364.794,1265.8632,359.4366,1271.2205,361.2529,1263.65,354.9531" style="stroke: #A80036; stroke-width: 1.0;"/><!--MD5=[ac371e7f51464c8e45158f980fdf5f3d]
reverse link GameStateContext to useGameMode--><path d="M402.64,346.8831 C387.79,377.2031 370.12,413.2831 356.71,440.6731 " fill="none" id="GameStateContext&lt;-useGameMode" style="stroke: #A80036; stroke-width: 1.0; stroke-dasharray: 7.0,7.0;"/><polygon fill="#A80036" points="405,342.0731,397.4536,348.4017,402.8039,346.565,404.6406,351.9154,405,342.0731" style="stroke: #A80036; stroke-width: 1.0;"/><!--MD5=[4e1d77a966a791b0c48cbd015e3bb9d6]
reverse link GameStateContext to useGameResult--><path d="M316.32,340.3731 C287.33,355.4031 256.85,372.6831 230,390.9531 C208.46,405.6131 186.49,424.1831 168.26,440.7931 " fill="none" id="GameStateContext&lt;-useGameResult" style="stroke: #A80036; stroke-width: 1.0; stroke-dasharray: 7.0,7.0;"/><polygon fill="#A80036" points="320.96,337.9731,311.1271,338.5335,316.5139,340.2605,314.7869,345.6473,320.96,337.9731" style="stroke: #A80036; stroke-width: 1.0;"/><!--MD5=[1520de90ea4bc549fe0238cd487176af]
reverse link GameTurnContext to useGamePlayerKeyOnTurn--><path d="M631.64,346.8831 C616.79,377.2031 599.12,413.2831 585.71,440.6731 " fill="none" id="GameTurnContext&lt;-useGamePlayerKeyOnTurn" style="stroke: #A80036; stroke-width: 1.0; stroke-dasharray: 7.0,7.0;"/><polygon fill="#A80036" points="634,342.0731,626.4536,348.4017,631.8039,346.565,633.6406,351.9154,634,342.0731" style="stroke: #A80036; stroke-width: 1.0;"/><!--MD5=[e7f648dc2ea7f5f29a01f41293c72613]
reverse link GameTurnContext to useGameTurn--><path d="M695.05,346.5331 C711.09,374.6131 730,407.7031 745.17,434.2531 " fill="none" id="GameTurnContext&lt;-useGameTurn" style="stroke: #A80036; stroke-width: 1.0; stroke-dasharray: 7.0,7.0;"/><polygon fill="#A80036" points="692.5,342.0731,693.4992,351.8712,694.9838,346.4126,700.4423,347.8971,692.5,342.0731" style="stroke: #A80036; stroke-width: 1.0;"/><!--MD5=[c230c7f95a2284f9807602d88c972176]
@startuml
title Relationship Diagram of Hooks and Contexts

together {
	object "UserRegistView.tsx" as UserRegistView
	UserRegistView : yourName
	UserRegistView : oppeonentName
	UserRegistView : inputYourName
	UserRegistView : inputOpponentName
	UserRegistView : handelSubmit(event)
	
	object "TicTacToeView.tsx" as TicTacToeView 
	TicTacToeView : yourName
	TicTacToeView : opponentName
	TicTacToeView : gamePlayerNameOnTurn
	TicTacToeView : selectGameGrid()
	TicTacToeView : initGameStart()
	TicTacToeView : goBack()

}
together {
class "GameGridsContext.tsx" as GameGridsContext {
	gameGrids
	initGameGrids()
	getGameGrid(row, col)
	setGameGrid(row, col, gamePlayerKey, gameTurn)
	resetGameGrid(row, col)
	checkGameEndWithWin(gamePlayerKey)
	checkGameEndWithDraw()
}

class "GamePlayersContext.tsx" as GamePlayersContext {
	gamePlayers
	getGamePlayerName()
	getYourName()
	getOpponentName()
	getGamePlayerKeyRandomly()
	setGamePlayerNames(you, opponent)
	initGamePlayerNames()
}

class "GameStateContext.tsx" as GameStateContext {
	gameMode
	gameResult
	initGameState()
	setGameEndWithWin(gamePlayerKey)
	setGameEndWithDraw()
}

class "GameTurnContext.tsx" as GameTurnContext {
	gameTurn
	gamePlayerKeyOnTurn
	initGameTurn()
	advanceGameTurn()
	rewindGameTurn()
}

}

together {

class "useGameGrids.ts" as useGameGrids {
	gameGrids
	initGameGrids()
	getGameGrid(row, col)
	setGameGrid(row, col, gamePlayerKey, gameTurn)
	resetGameGrid(row, col)
	checkWin(gamePlayerKey)
	checkDraw()
}

class "useGamePlayers.ts" as useGamePlayers {
	gamePlayers
	getGamePlayerName(gamePlayerKey)
	setGamePlayerNames(you, opponent)
}

class "useGameMode.ts" as useGameMode {
	gameMode
	initGameMode()
	setGameModeToGameOver()
}

class "useGameResult.ts" as useGameResult {
	gameResult
	initGameResult()
	setGameResult(gameResult)
}

class "useGameTurn.ts" as useGameTurn {
	gameTurn
	setFirstGameTurn()
	increaseGameTurn()
	decreaseGameTurn()
}

class "useGamePlayerKeyOnTurn.ts" as useGamePlayerKeyOnTurn {
	gamePlayerKeyOnTurn
	initGamePlayerKeyOnTurn()
	toggleGamePlayerKeyOnTurn()
}
}

UserRegistView <.. GamePlayersContext

TicTacToeView <.. GameGridsContext
TicTacToeView <.. GamePlayersContext
TicTacToeView <.. GameStateContext
TicTacToeView <.. GameTurnContext

GameGridsContext <.. useGameGrids

GamePlayersContext <.. useGamePlayers

GameStateContext <.. useGameMode
GameStateContext <.. useGameResult

GameTurnContext <.. useGamePlayerKeyOnTurn
GameTurnContext <.. useGameTurn


@enduml	   

PlantUML version 1.2020.02(Sun Mar 01 19:22:07 JST 2020)
(GPL source distribution)
Java Runtime: OpenJDK Runtime Environment
JVM: OpenJDK 64-Bit Server VM
Java Version: 11.0.17+8-post-Ubuntu-1ubuntu222.04
Operating System: Linux
Default Encoding: UTF-8
Language: en
Country: US
--></g></svg>