<?xml version="1.0" encoding="UTF-8" standalone="no"?><svg xmlns="http://www.w3.org/2000/svg" xmlns:xlink="http://www.w3.org/1999/xlink" contentScriptType="application/ecmascript" contentStyleType="text/css" height="560px" preserveAspectRatio="none" style="width:1646px;height:560px;" version="1.1" viewBox="0 0 1646 560" width="1646px" zoomAndPan="magnify"><defs><filter height="300%" id="fxu1nxzgv6xqn" width="300%" x="-1" y="-1"><feGaussianBlur result="blurOut" stdDeviation="2.0"/><feColorMatrix in="blurOut" result="blurOut2" type="matrix" values="0 0 0 0 0 0 0 0 0 0 0 0 0 0 0 0 0 0 .4 0"/><feOffset dx="4.0" dy="4.0" in="blurOut2" result="blurOut3"/><feBlend in="SourceGraphic" in2="blurOut3" mode="normal"/></filter></defs><g><text fill="#000000" font-family="sans-serif" font-size="18" lengthAdjust="spacingAndGlyphs" textLength="395" x="629.5" y="16.708">Relationship Diagram of Hooks and Contexts</text><!--MD5=[ae8439213318281d253ad18006a87dc5]
class UserRegistView--><rect fill="#FEFECE" filter="url(#fxu1nxzgv6xqn)" height="112.0234" id="UserRegistView" style="stroke: #A80036; stroke-width: 1.5;" width="150" x="1204.5" y="35.4531"/><ellipse cx="1219.5" cy="51.4531" fill="#ADD1B2" rx="11" ry="11" style="stroke: #A80036; stroke-width: 1.0;"/><path d="M1222.4688,57.0938 Q1221.8906,57.3906 1221.25,57.5313 Q1220.6094,57.6875 1219.9063,57.6875 Q1217.4063,57.6875 1216.0781,56.0469 Q1214.7656,54.3906 1214.7656,51.2656 Q1214.7656,48.1406 1216.0781,46.4844 Q1217.4063,44.8281 1219.9063,44.8281 Q1220.6094,44.8281 1221.25,44.9844 Q1221.9063,45.1406 1222.4688,45.4375 L1222.4688,48.1563 Q1221.8438,47.5781 1221.25,47.3125 Q1220.6563,47.0313 1220.0313,47.0313 Q1218.6875,47.0313 1218,48.1094 Q1217.3125,49.1719 1217.3125,51.2656 Q1217.3125,53.3594 1218,54.4375 Q1218.6875,55.5 1220.0313,55.5 Q1220.6563,55.5 1221.25,55.2344 Q1221.8438,54.9531 1222.4688,54.375 L1222.4688,57.0938 Z "/><text fill="#000000" font-family="sans-serif" font-size="12" lengthAdjust="spacingAndGlyphs" textLength="118" x="1233.5" y="55.6074">UserRegistView.tsx</text><line style="stroke: #A80036; stroke-width: 1.5;" x1="1205.5" x2="1353.5" y1="67.4531" y2="67.4531"/><text fill="#000000" font-family="sans-serif" font-size="11" lengthAdjust="spacingAndGlyphs" textLength="58" x="1210.5" y="81.6636">yourName</text><text fill="#000000" font-family="sans-serif" font-size="11" lengthAdjust="spacingAndGlyphs" textLength="93" x="1210.5" y="94.4683">oppeonentName</text><text fill="#000000" font-family="sans-serif" font-size="11" lengthAdjust="spacingAndGlyphs" textLength="87" x="1210.5" y="107.2729">inputYourName</text><text fill="#000000" font-family="sans-serif" font-size="11" lengthAdjust="spacingAndGlyphs" textLength="116" x="1210.5" y="120.0776">inputOpponentName</text><line style="stroke: #A80036; stroke-width: 1.5;" x1="1205.5" x2="1353.5" y1="126.6719" y2="126.6719"/><text fill="#000000" font-family="sans-serif" font-size="11" lengthAdjust="spacingAndGlyphs" textLength="117" x="1210.5" y="140.8823">handelSubmit(event)</text><!--MD5=[9dee31518fe58d48174303dc5f2c1aec]
class TicTacToeView--><rect fill="#FEFECE" filter="url(#fxu1nxzgv6xqn)" height="124.8281" id="TicTacToeView" style="stroke: #A80036; stroke-width: 1.5;" width="154" x="778.5" y="28.9531"/><ellipse cx="798" cy="44.9531" fill="#ADD1B2" rx="11" ry="11" style="stroke: #A80036; stroke-width: 1.0;"/><path d="M800.9688,50.5938 Q800.3906,50.8906 799.75,51.0313 Q799.1094,51.1875 798.4063,51.1875 Q795.9063,51.1875 794.5781,49.5469 Q793.2656,47.8906 793.2656,44.7656 Q793.2656,41.6406 794.5781,39.9844 Q795.9063,38.3281 798.4063,38.3281 Q799.1094,38.3281 799.75,38.4844 Q800.4063,38.6406 800.9688,38.9375 L800.9688,41.6563 Q800.3438,41.0781 799.75,40.8125 Q799.1563,40.5313 798.5313,40.5313 Q797.1875,40.5313 796.5,41.6094 Q795.8125,42.6719 795.8125,44.7656 Q795.8125,46.8594 796.5,47.9375 Q797.1875,49 798.5313,49 Q799.1563,49 799.75,48.7344 Q800.3438,48.4531 800.9688,47.875 L800.9688,50.5938 Z "/><text fill="#000000" font-family="sans-serif" font-size="12" lengthAdjust="spacingAndGlyphs" textLength="112" x="813" y="49.1074">TicTacToeView.tsx</text><line style="stroke: #A80036; stroke-width: 1.5;" x1="779.5" x2="931.5" y1="60.9531" y2="60.9531"/><text fill="#000000" font-family="sans-serif" font-size="11" lengthAdjust="spacingAndGlyphs" textLength="58" x="784.5" y="75.1636">yourName</text><text fill="#000000" font-family="sans-serif" font-size="11" lengthAdjust="spacingAndGlyphs" textLength="93" x="784.5" y="87.9683">oppeonentName</text><text fill="#000000" font-family="sans-serif" font-size="11" lengthAdjust="spacingAndGlyphs" textLength="142" x="784.5" y="100.7729">gamePlayerNameOnTurn</text><line style="stroke: #A80036; stroke-width: 1.5;" x1="779.5" x2="931.5" y1="107.3672" y2="107.3672"/><text fill="#000000" font-family="sans-serif" font-size="11" lengthAdjust="spacingAndGlyphs" textLength="100" x="784.5" y="121.5776">selectGameGrid()</text><text fill="#000000" font-family="sans-serif" font-size="11" lengthAdjust="spacingAndGlyphs" textLength="87" x="784.5" y="134.3823">initGameStart()</text><text fill="#000000" font-family="sans-serif" font-size="11" lengthAdjust="spacingAndGlyphs" textLength="49" x="784.5" y="147.187">goBack()</text><!--MD5=[fb70df6079b8c7aa6defa38ba3cf4955]
class GameGridsContext--><rect fill="#FEFECE" filter="url(#fxu1nxzgv6xqn)" height="137.6328" id="GameGridsContext" style="stroke: #A80036; stroke-width: 1.5;" width="302" x="500.5" y="213.9531"/><ellipse cx="578.25" cy="229.9531" fill="#ADD1B2" rx="11" ry="11" style="stroke: #A80036; stroke-width: 1.0;"/><path d="M581.2188,235.5938 Q580.6406,235.8906 580,236.0313 Q579.3594,236.1875 578.6563,236.1875 Q576.1563,236.1875 574.8281,234.5469 Q573.5156,232.8906 573.5156,229.7656 Q573.5156,226.6406 574.8281,224.9844 Q576.1563,223.3281 578.6563,223.3281 Q579.3594,223.3281 580,223.4844 Q580.6563,223.6406 581.2188,223.9375 L581.2188,226.6563 Q580.5938,226.0781 580,225.8125 Q579.4063,225.5313 578.7813,225.5313 Q577.4375,225.5313 576.75,226.6094 Q576.0625,227.6719 576.0625,229.7656 Q576.0625,231.8594 576.75,232.9375 Q577.4375,234 578.7813,234 Q579.4063,234 580,233.7344 Q580.5938,233.4531 581.2188,232.875 L581.2188,235.5938 Z "/><text fill="#000000" font-family="sans-serif" font-size="12" lengthAdjust="spacingAndGlyphs" textLength="138" x="598.75" y="234.1074">GameGridsContext.tsx</text><line style="stroke: #A80036; stroke-width: 1.5;" x1="501.5" x2="801.5" y1="245.9531" y2="245.9531"/><text fill="#000000" font-family="sans-serif" font-size="11" lengthAdjust="spacingAndGlyphs" textLength="63" x="506.5" y="260.1636">gameGrids</text><line style="stroke: #A80036; stroke-width: 1.5;" x1="501.5" x2="801.5" y1="266.7578" y2="266.7578"/><text fill="#000000" font-family="sans-serif" font-size="11" lengthAdjust="spacingAndGlyphs" textLength="90" x="506.5" y="280.9683">initGameGrids()</text><text fill="#000000" font-family="sans-serif" font-size="11" lengthAdjust="spacingAndGlyphs" textLength="129" x="506.5" y="293.7729">getGameGrid(row, col)</text><text fill="#000000" font-family="sans-serif" font-size="11" lengthAdjust="spacingAndGlyphs" textLength="290" x="506.5" y="306.5776">setGameGrid(row, col, gamePlayerKey, gameTurn)</text><text fill="#000000" font-family="sans-serif" font-size="11" lengthAdjust="spacingAndGlyphs" textLength="141" x="506.5" y="319.3823">resetGameGrid(row, col)</text><text fill="#000000" font-family="sans-serif" font-size="11" lengthAdjust="spacingAndGlyphs" textLength="224" x="506.5" y="332.187">checkGameEndWithWin(gamePlayerKey)</text><text fill="#000000" font-family="sans-serif" font-size="11" lengthAdjust="spacingAndGlyphs" textLength="147" x="506.5" y="344.9917">checkGameEndWithDraw()</text><!--MD5=[407986f5752d98a72da282f608205af4]
class GamePlayersContext--><rect fill="#FEFECE" filter="url(#fxu1nxzgv6xqn)" height="137.6328" id="GamePlayersContext" style="stroke: #A80036; stroke-width: 1.5;" width="228" x="1165.5" y="213.9531"/><ellipse cx="1200.75" cy="229.9531" fill="#ADD1B2" rx="11" ry="11" style="stroke: #A80036; stroke-width: 1.0;"/><path d="M1203.7188,235.5938 Q1203.1406,235.8906 1202.5,236.0313 Q1201.8594,236.1875 1201.1563,236.1875 Q1198.6563,236.1875 1197.3281,234.5469 Q1196.0156,232.8906 1196.0156,229.7656 Q1196.0156,226.6406 1197.3281,224.9844 Q1198.6563,223.3281 1201.1563,223.3281 Q1201.8594,223.3281 1202.5,223.4844 Q1203.1563,223.6406 1203.7188,223.9375 L1203.7188,226.6563 Q1203.0938,226.0781 1202.5,225.8125 Q1201.9063,225.5313 1201.2813,225.5313 Q1199.9375,225.5313 1199.25,226.6094 Q1198.5625,227.6719 1198.5625,229.7656 Q1198.5625,231.8594 1199.25,232.9375 Q1199.9375,234 1201.2813,234 Q1201.9063,234 1202.5,233.7344 Q1203.0938,233.4531 1203.7188,232.875 L1203.7188,235.5938 Z "/><text fill="#000000" font-family="sans-serif" font-size="12" lengthAdjust="spacingAndGlyphs" textLength="151" x="1219.25" y="234.1074">GamePlayersContext.tsx</text><line style="stroke: #A80036; stroke-width: 1.5;" x1="1166.5" x2="1392.5" y1="245.9531" y2="245.9531"/><text fill="#000000" font-family="sans-serif" font-size="11" lengthAdjust="spacingAndGlyphs" textLength="74" x="1171.5" y="260.1636">gamePlayers</text><line style="stroke: #A80036; stroke-width: 1.5;" x1="1166.5" x2="1392.5" y1="266.7578" y2="266.7578"/><text fill="#000000" font-family="sans-serif" font-size="11" lengthAdjust="spacingAndGlyphs" textLength="128" x="1171.5" y="280.9683">getGamePlayerName()</text><text fill="#000000" font-family="sans-serif" font-size="11" lengthAdjust="spacingAndGlyphs" textLength="85" x="1171.5" y="293.7729">getYourName()</text><text fill="#000000" font-family="sans-serif" font-size="11" lengthAdjust="spacingAndGlyphs" textLength="114" x="1171.5" y="306.5776">getOpponentName()</text><text fill="#000000" font-family="sans-serif" font-size="11" lengthAdjust="spacingAndGlyphs" textLength="170" x="1171.5" y="319.3823">getGamePlayerKeyRandomly()</text><text fill="#000000" font-family="sans-serif" font-size="11" lengthAdjust="spacingAndGlyphs" textLength="216" x="1171.5" y="332.187">setGamePlayerNames(you, opponent)</text><text fill="#000000" font-family="sans-serif" font-size="11" lengthAdjust="spacingAndGlyphs" textLength="134" x="1171.5" y="344.9917">initGamePlayerNames()</text><!--MD5=[271274cd3dec61aff7303e0b3e594f59]
class GameStateContext--><rect fill="#FEFECE" filter="url(#fxu1nxzgv6xqn)" height="112.0234" id="GameStateContext" style="stroke: #A80036; stroke-width: 1.5;" width="222" x="908.5" y="226.9531"/><ellipse cx="946" cy="242.9531" fill="#ADD1B2" rx="11" ry="11" style="stroke: #A80036; stroke-width: 1.0;"/><path d="M948.9688,248.5938 Q948.3906,248.8906 947.75,249.0313 Q947.1094,249.1875 946.4063,249.1875 Q943.9063,249.1875 942.5781,247.5469 Q941.2656,245.8906 941.2656,242.7656 Q941.2656,239.6406 942.5781,237.9844 Q943.9063,236.3281 946.4063,236.3281 Q947.1094,236.3281 947.75,236.4844 Q948.4063,236.6406 948.9688,236.9375 L948.9688,239.6563 Q948.3438,239.0781 947.75,238.8125 Q947.1563,238.5313 946.5313,238.5313 Q945.1875,238.5313 944.5,239.6094 Q943.8125,240.6719 943.8125,242.7656 Q943.8125,244.8594 944.5,245.9375 Q945.1875,247 946.5313,247 Q947.1563,247 947.75,246.7344 Q948.3438,246.4531 948.9688,245.875 L948.9688,248.5938 Z "/><text fill="#000000" font-family="sans-serif" font-size="12" lengthAdjust="spacingAndGlyphs" textLength="140" x="965" y="247.1074">GameStateContext.tsx</text><line style="stroke: #A80036; stroke-width: 1.5;" x1="909.5" x2="1129.5" y1="258.9531" y2="258.9531"/><text fill="#000000" font-family="sans-serif" font-size="11" lengthAdjust="spacingAndGlyphs" textLength="62" x="914.5" y="273.1636">gameMode</text><text fill="#000000" font-family="sans-serif" font-size="11" lengthAdjust="spacingAndGlyphs" textLength="67" x="914.5" y="285.9683">gameResult</text><line style="stroke: #A80036; stroke-width: 1.5;" x1="909.5" x2="1129.5" y1="292.5625" y2="292.5625"/><text fill="#000000" font-family="sans-serif" font-size="11" lengthAdjust="spacingAndGlyphs" textLength="89" x="914.5" y="306.7729">initGameState()</text><text fill="#000000" font-family="sans-serif" font-size="11" lengthAdjust="spacingAndGlyphs" textLength="210" x="914.5" y="319.5776">setGameEndWithWin(gamePlayerKey)</text><text fill="#000000" font-family="sans-serif" font-size="11" lengthAdjust="spacingAndGlyphs" textLength="133" x="914.5" y="332.3823">setGameEndWithDraw()</text><!--MD5=[99e5bccf41373de8b1fea0e7e19d690b]
class GameTurnContext--><rect fill="#FEFECE" filter="url(#fxu1nxzgv6xqn)" height="112.0234" id="GameTurnContext" style="stroke: #A80036; stroke-width: 1.5;" width="166" x="268.5" y="226.9531"/><ellipse cx="283.5" cy="242.9531" fill="#ADD1B2" rx="11" ry="11" style="stroke: #A80036; stroke-width: 1.0;"/><path d="M286.4688,248.5938 Q285.8906,248.8906 285.25,249.0313 Q284.6094,249.1875 283.9063,249.1875 Q281.4063,249.1875 280.0781,247.5469 Q278.7656,245.8906 278.7656,242.7656 Q278.7656,239.6406 280.0781,237.9844 Q281.4063,236.3281 283.9063,236.3281 Q284.6094,236.3281 285.25,236.4844 Q285.9063,236.6406 286.4688,236.9375 L286.4688,239.6563 Q285.8438,239.0781 285.25,238.8125 Q284.6563,238.5313 284.0313,238.5313 Q282.6875,238.5313 282,239.6094 Q281.3125,240.6719 281.3125,242.7656 Q281.3125,244.8594 282,245.9375 Q282.6875,247 284.0313,247 Q284.6563,247 285.25,246.7344 Q285.8438,246.4531 286.4688,245.875 L286.4688,248.5938 Z "/><text fill="#000000" font-family="sans-serif" font-size="12" lengthAdjust="spacingAndGlyphs" textLength="134" x="297.5" y="247.1074">GameTurnContext.tsx</text><line style="stroke: #A80036; stroke-width: 1.5;" x1="269.5" x2="433.5" y1="258.9531" y2="258.9531"/><text fill="#000000" font-family="sans-serif" font-size="11" lengthAdjust="spacingAndGlyphs" textLength="58" x="274.5" y="273.1636">gameTurn</text><text fill="#000000" font-family="sans-serif" font-size="11" lengthAdjust="spacingAndGlyphs" textLength="129" x="274.5" y="285.9683">gamePlayerKeyOnTurn</text><line style="stroke: #A80036; stroke-width: 1.5;" x1="269.5" x2="433.5" y1="292.5625" y2="292.5625"/><text fill="#000000" font-family="sans-serif" font-size="11" lengthAdjust="spacingAndGlyphs" textLength="85" x="274.5" y="306.7729">initGameTurn()</text><text fill="#000000" font-family="sans-serif" font-size="11" lengthAdjust="spacingAndGlyphs" textLength="115" x="274.5" y="319.5776">advanceGameTurn()</text><text fill="#000000" font-family="sans-serif" font-size="11" lengthAdjust="spacingAndGlyphs" textLength="106" x="274.5" y="332.3823">rewindGameTurn()</text><!--MD5=[45766bac5053e7b4f64dc163870b212a]
class useConstants--><rect fill="#FEFECE" filter="url(#fxu1nxzgv6xqn)" height="137.6328" id="useConstants" style="stroke: #A80036; stroke-width: 1.5;" width="191" x="760" y="411.9531"/><ellipse cx="800.2" cy="427.9531" fill="#ADD1B2" rx="11" ry="11" style="stroke: #A80036; stroke-width: 1.0;"/><path d="M803.1688,433.5938 Q802.5906,433.8906 801.95,434.0313 Q801.3094,434.1875 800.6063,434.1875 Q798.1063,434.1875 796.7781,432.5469 Q795.4656,430.8906 795.4656,427.7656 Q795.4656,424.6406 796.7781,422.9844 Q798.1063,421.3281 800.6063,421.3281 Q801.3094,421.3281 801.95,421.4844 Q802.6063,421.6406 803.1688,421.9375 L803.1688,424.6563 Q802.5438,424.0781 801.95,423.8125 Q801.3563,423.5313 800.7313,423.5313 Q799.3875,423.5313 798.7,424.6094 Q798.0125,425.6719 798.0125,427.7656 Q798.0125,429.8594 798.7,430.9375 Q799.3875,432 800.7313,432 Q801.3563,432 801.95,431.7344 Q802.5438,431.4531 803.1688,430.875 L803.1688,433.5938 Z "/><text fill="#000000" font-family="sans-serif" font-size="12" lengthAdjust="spacingAndGlyphs" textLength="103" x="819.8" y="432.1074">useConstants.ts</text><line style="stroke: #A80036; stroke-width: 1.5;" x1="761" x2="950" y1="443.9531" y2="443.9531"/><text fill="#000000" font-family="sans-serif" font-size="11" lengthAdjust="spacingAndGlyphs" textLength="114" x="766" y="458.1636">GAME_PLAYER_KEYS</text><text fill="#000000" font-family="sans-serif" font-size="11" lengthAdjust="spacingAndGlyphs" textLength="179" x="766" y="470.9683">DEFAULT_GAME_PLAYER_NAMES</text><text fill="#000000" font-family="sans-serif" font-size="11" lengthAdjust="spacingAndGlyphs" textLength="73" x="766" y="483.7729">GAME_GRIDS</text><text fill="#000000" font-family="sans-serif" font-size="11" lengthAdjust="spacingAndGlyphs" textLength="68" x="766" y="496.5776">GAME_TURN</text><text fill="#000000" font-family="sans-serif" font-size="11" lengthAdjust="spacingAndGlyphs" textLength="71" x="766" y="509.3823">GAME_MODE</text><text fill="#000000" font-family="sans-serif" font-size="11" lengthAdjust="spacingAndGlyphs" textLength="81" x="766" y="522.187">GAME_RESULT</text><text fill="#000000" font-family="sans-serif" font-size="11" lengthAdjust="spacingAndGlyphs" textLength="67" x="766" y="534.9917">SLEEP_TIME</text><line style="stroke: #A80036; stroke-width: 1.5;" x1="761" x2="950" y1="541.5859" y2="541.5859"/><!--MD5=[459c93c415d6d7f0f4fefb92fe317108]
class useGameGrids--><rect fill="#FEFECE" filter="url(#fxu1nxzgv6xqn)" height="137.6328" id="useGameGrids" style="stroke: #A80036; stroke-width: 1.5;" width="302" x="422.5" y="411.9531"/><ellipse cx="515.75" cy="427.9531" fill="#ADD1B2" rx="11" ry="11" style="stroke: #A80036; stroke-width: 1.0;"/><path d="M518.7188,433.5938 Q518.1406,433.8906 517.5,434.0313 Q516.8594,434.1875 516.1563,434.1875 Q513.6563,434.1875 512.3281,432.5469 Q511.0156,430.8906 511.0156,427.7656 Q511.0156,424.6406 512.3281,422.9844 Q513.6563,421.3281 516.1563,421.3281 Q516.8594,421.3281 517.5,421.4844 Q518.1563,421.6406 518.7188,421.9375 L518.7188,424.6563 Q518.0938,424.0781 517.5,423.8125 Q516.9063,423.5313 516.2813,423.5313 Q514.9375,423.5313 514.25,424.6094 Q513.5625,425.6719 513.5625,427.7656 Q513.5625,429.8594 514.25,430.9375 Q514.9375,432 516.2813,432 Q516.9063,432 517.5,431.7344 Q518.0938,431.4531 518.7188,430.875 L518.7188,433.5938 Z "/><text fill="#000000" font-family="sans-serif" font-size="12" lengthAdjust="spacingAndGlyphs" textLength="107" x="536.25" y="432.1074">useGameGrids.ts</text><line style="stroke: #A80036; stroke-width: 1.5;" x1="423.5" x2="723.5" y1="443.9531" y2="443.9531"/><text fill="#000000" font-family="sans-serif" font-size="11" lengthAdjust="spacingAndGlyphs" textLength="63" x="428.5" y="458.1636">gameGrids</text><line style="stroke: #A80036; stroke-width: 1.5;" x1="423.5" x2="723.5" y1="464.7578" y2="464.7578"/><text fill="#000000" font-family="sans-serif" font-size="11" lengthAdjust="spacingAndGlyphs" textLength="90" x="428.5" y="478.9683">initGameGrids()</text><text fill="#000000" font-family="sans-serif" font-size="11" lengthAdjust="spacingAndGlyphs" textLength="129" x="428.5" y="491.7729">getGameGrid(row, col)</text><text fill="#000000" font-family="sans-serif" font-size="11" lengthAdjust="spacingAndGlyphs" textLength="290" x="428.5" y="504.5776">setGameGrid(row, col, gamePlayerKey, gameTurn)</text><text fill="#000000" font-family="sans-serif" font-size="11" lengthAdjust="spacingAndGlyphs" textLength="141" x="428.5" y="517.3823">resetGameGrid(row, col)</text><text fill="#000000" font-family="sans-serif" font-size="11" lengthAdjust="spacingAndGlyphs" textLength="146" x="428.5" y="530.187">checkWin(gamePlayerKey)</text><text fill="#000000" font-family="sans-serif" font-size="11" lengthAdjust="spacingAndGlyphs" textLength="69" x="428.5" y="542.9917">checkDraw()</text><!--MD5=[3bc5ff66e1a85a21f345313a9f77016d]
class useGamePlayers--><rect fill="#FEFECE" filter="url(#fxu1nxzgv6xqn)" height="86.4141" id="useGamePlayers" style="stroke: #A80036; stroke-width: 1.5;" width="228" x="1407.5" y="437.9531"/><ellipse cx="1457.25" cy="453.9531" fill="#ADD1B2" rx="11" ry="11" style="stroke: #A80036; stroke-width: 1.0;"/><path d="M1460.2188,459.5938 Q1459.6406,459.8906 1459,460.0313 Q1458.3594,460.1875 1457.6563,460.1875 Q1455.1563,460.1875 1453.8281,458.5469 Q1452.5156,456.8906 1452.5156,453.7656 Q1452.5156,450.6406 1453.8281,448.9844 Q1455.1563,447.3281 1457.6563,447.3281 Q1458.3594,447.3281 1459,447.4844 Q1459.6563,447.6406 1460.2188,447.9375 L1460.2188,450.6563 Q1459.5938,450.0781 1459,449.8125 Q1458.4063,449.5313 1457.7813,449.5313 Q1456.4375,449.5313 1455.75,450.6094 Q1455.0625,451.6719 1455.0625,453.7656 Q1455.0625,455.8594 1455.75,456.9375 Q1456.4375,458 1457.7813,458 Q1458.4063,458 1459,457.7344 Q1459.5938,457.4531 1460.2188,456.875 L1460.2188,459.5938 Z "/><text fill="#000000" font-family="sans-serif" font-size="12" lengthAdjust="spacingAndGlyphs" textLength="120" x="1477.75" y="458.1074">useGamePlayers.ts</text><line style="stroke: #A80036; stroke-width: 1.5;" x1="1408.5" x2="1634.5" y1="469.9531" y2="469.9531"/><text fill="#000000" font-family="sans-serif" font-size="11" lengthAdjust="spacingAndGlyphs" textLength="74" x="1413.5" y="484.1636">gamePlayers</text><line style="stroke: #A80036; stroke-width: 1.5;" x1="1408.5" x2="1634.5" y1="490.7578" y2="490.7578"/><text fill="#000000" font-family="sans-serif" font-size="11" lengthAdjust="spacingAndGlyphs" textLength="215" x="1413.5" y="504.9683">getGamePlayerName(gamePlayerKey)</text><text fill="#000000" font-family="sans-serif" font-size="11" lengthAdjust="spacingAndGlyphs" textLength="216" x="1413.5" y="517.7729">setGamePlayerNames(you, opponent)</text><!--MD5=[25ce75281466841eb35daa014b3cff59]
class useGameMode--><rect fill="#FEFECE" filter="url(#fxu1nxzgv6xqn)" height="86.4141" id="useGameMode" style="stroke: #A80036; stroke-width: 1.5;" width="177" x="986" y="437.9531"/><ellipse cx="1017.2" cy="453.9531" fill="#ADD1B2" rx="11" ry="11" style="stroke: #A80036; stroke-width: 1.0;"/><path d="M1020.1688,459.5938 Q1019.5906,459.8906 1018.95,460.0313 Q1018.3094,460.1875 1017.6063,460.1875 Q1015.1063,460.1875 1013.7781,458.5469 Q1012.4656,456.8906 1012.4656,453.7656 Q1012.4656,450.6406 1013.7781,448.9844 Q1015.1063,447.3281 1017.6063,447.3281 Q1018.3094,447.3281 1018.95,447.4844 Q1019.6063,447.6406 1020.1688,447.9375 L1020.1688,450.6563 Q1019.5438,450.0781 1018.95,449.8125 Q1018.3563,449.5313 1017.7313,449.5313 Q1016.3875,449.5313 1015.7,450.6094 Q1015.0125,451.6719 1015.0125,453.7656 Q1015.0125,455.8594 1015.7,456.9375 Q1016.3875,458 1017.7313,458 Q1018.3563,458 1018.95,457.7344 Q1019.5438,457.4531 1020.1688,456.875 L1020.1688,459.5938 Z "/><text fill="#000000" font-family="sans-serif" font-size="12" lengthAdjust="spacingAndGlyphs" textLength="109" x="1034.8" y="458.1074">useGameMode.ts</text><line style="stroke: #A80036; stroke-width: 1.5;" x1="987" x2="1162" y1="469.9531" y2="469.9531"/><text fill="#000000" font-family="sans-serif" font-size="11" lengthAdjust="spacingAndGlyphs" textLength="62" x="992" y="484.1636">gameMode</text><line style="stroke: #A80036; stroke-width: 1.5;" x1="987" x2="1162" y1="490.7578" y2="490.7578"/><text fill="#000000" font-family="sans-serif" font-size="11" lengthAdjust="spacingAndGlyphs" textLength="89" x="992" y="504.9683">initGameMode()</text><text fill="#000000" font-family="sans-serif" font-size="11" lengthAdjust="spacingAndGlyphs" textLength="165" x="992" y="517.7729">setGameModeToGameOver()</text><!--MD5=[3a23a806d3b93c292a3ae7d3e5f8701c]
class useGameResult--><rect fill="#FEFECE" filter="url(#fxu1nxzgv6xqn)" height="86.4141" id="useGameResult" style="stroke: #A80036; stroke-width: 1.5;" width="174" x="1198.5" y="437.9531"/><ellipse cx="1226.1" cy="453.9531" fill="#ADD1B2" rx="11" ry="11" style="stroke: #A80036; stroke-width: 1.0;"/><path d="M1229.0688,459.5938 Q1228.4906,459.8906 1227.85,460.0313 Q1227.2094,460.1875 1226.5063,460.1875 Q1224.0063,460.1875 1222.6781,458.5469 Q1221.3656,456.8906 1221.3656,453.7656 Q1221.3656,450.6406 1222.6781,448.9844 Q1224.0063,447.3281 1226.5063,447.3281 Q1227.2094,447.3281 1227.85,447.4844 Q1228.5063,447.6406 1229.0688,447.9375 L1229.0688,450.6563 Q1228.4438,450.0781 1227.85,449.8125 Q1227.2563,449.5313 1226.6313,449.5313 Q1225.2875,449.5313 1224.6,450.6094 Q1223.9125,451.6719 1223.9125,453.7656 Q1223.9125,455.8594 1224.6,456.9375 Q1225.2875,458 1226.6313,458 Q1227.2563,458 1227.85,457.7344 Q1228.4438,457.4531 1229.0688,456.875 L1229.0688,459.5938 Z "/><text fill="#000000" font-family="sans-serif" font-size="12" lengthAdjust="spacingAndGlyphs" textLength="114" x="1242.9" y="458.1074">useGameResult.ts</text><line style="stroke: #A80036; stroke-width: 1.5;" x1="1199.5" x2="1371.5" y1="469.9531" y2="469.9531"/><text fill="#000000" font-family="sans-serif" font-size="11" lengthAdjust="spacingAndGlyphs" textLength="67" x="1204.5" y="484.1636">gameResult</text><line style="stroke: #A80036; stroke-width: 1.5;" x1="1199.5" x2="1371.5" y1="490.7578" y2="490.7578"/><text fill="#000000" font-family="sans-serif" font-size="11" lengthAdjust="spacingAndGlyphs" textLength="94" x="1204.5" y="504.9683">initGameResult()</text><text fill="#000000" font-family="sans-serif" font-size="11" lengthAdjust="spacingAndGlyphs" textLength="162" x="1204.5" y="517.7729">setGameResult(gameResult)</text><!--MD5=[78a636ae5a25bfaa2a4b382c5530d5c2]
class useGameTurn--><rect fill="#FEFECE" filter="url(#fxu1nxzgv6xqn)" height="99.2188" id="useGameTurn" style="stroke: #A80036; stroke-width: 1.5;" width="135" x="252" y="431.4531"/><ellipse cx="267" cy="447.4531" fill="#ADD1B2" rx="11" ry="11" style="stroke: #A80036; stroke-width: 1.0;"/><path d="M269.9688,453.0938 Q269.3906,453.3906 268.75,453.5313 Q268.1094,453.6875 267.4063,453.6875 Q264.9063,453.6875 263.5781,452.0469 Q262.2656,450.3906 262.2656,447.2656 Q262.2656,444.1406 263.5781,442.4844 Q264.9063,440.8281 267.4063,440.8281 Q268.1094,440.8281 268.75,440.9844 Q269.4063,441.1406 269.9688,441.4375 L269.9688,444.1563 Q269.3438,443.5781 268.75,443.3125 Q268.1563,443.0313 267.5313,443.0313 Q266.1875,443.0313 265.5,444.1094 Q264.8125,445.1719 264.8125,447.2656 Q264.8125,449.3594 265.5,450.4375 Q266.1875,451.5 267.5313,451.5 Q268.1563,451.5 268.75,451.2344 Q269.3438,450.9531 269.9688,450.375 L269.9688,453.0938 Z "/><text fill="#000000" font-family="sans-serif" font-size="12" lengthAdjust="spacingAndGlyphs" textLength="103" x="281" y="451.6074">useGameTurn.ts</text><line style="stroke: #A80036; stroke-width: 1.5;" x1="253" x2="386" y1="463.4531" y2="463.4531"/><text fill="#000000" font-family="sans-serif" font-size="11" lengthAdjust="spacingAndGlyphs" textLength="58" x="258" y="477.6636">gameTurn</text><line style="stroke: #A80036; stroke-width: 1.5;" x1="253" x2="386" y1="484.2578" y2="484.2578"/><text fill="#000000" font-family="sans-serif" font-size="11" lengthAdjust="spacingAndGlyphs" textLength="111" x="258" y="498.4683">setFirstGameTurn()</text><text fill="#000000" font-family="sans-serif" font-size="11" lengthAdjust="spacingAndGlyphs" textLength="117" x="258" y="511.2729">increaseGameTurn()</text><text fill="#000000" font-family="sans-serif" font-size="11" lengthAdjust="spacingAndGlyphs" textLength="121" x="258" y="524.0776">decreaseGameTurn()</text><!--MD5=[b011b5ae82fbcca0852cbb113df240ef]
class useGamePlayerKeyOnTurn--><rect fill="#FEFECE" filter="url(#fxu1nxzgv6xqn)" height="86.4141" id="useGamePlayerKeyOnTurn" style="stroke: #A80036; stroke-width: 1.5;" width="211" x="6" y="437.9531"/><ellipse cx="21" cy="453.9531" fill="#ADD1B2" rx="11" ry="11" style="stroke: #A80036; stroke-width: 1.0;"/><path d="M23.9688,459.5938 Q23.3906,459.8906 22.75,460.0313 Q22.1094,460.1875 21.4063,460.1875 Q18.9063,460.1875 17.5781,458.5469 Q16.2656,456.8906 16.2656,453.7656 Q16.2656,450.6406 17.5781,448.9844 Q18.9063,447.3281 21.4063,447.3281 Q22.1094,447.3281 22.75,447.4844 Q23.4063,447.6406 23.9688,447.9375 L23.9688,450.6563 Q23.3438,450.0781 22.75,449.8125 Q22.1563,449.5313 21.5313,449.5313 Q20.1875,449.5313 19.5,450.6094 Q18.8125,451.6719 18.8125,453.7656 Q18.8125,455.8594 19.5,456.9375 Q20.1875,458 21.5313,458 Q22.1563,458 22.75,457.7344 Q23.3438,457.4531 23.9688,456.875 L23.9688,459.5938 Z "/><text fill="#000000" font-family="sans-serif" font-size="12" lengthAdjust="spacingAndGlyphs" textLength="179" x="35" y="458.1074">useGamePlayerKeyOnTurn.ts</text><line style="stroke: #A80036; stroke-width: 1.5;" x1="7" x2="216" y1="469.9531" y2="469.9531"/><text fill="#000000" font-family="sans-serif" font-size="11" lengthAdjust="spacingAndGlyphs" textLength="129" x="12" y="484.1636">gamePlayerKeyOnTurn</text><line style="stroke: #A80036; stroke-width: 1.5;" x1="7" x2="216" y1="490.7578" y2="490.7578"/><text fill="#000000" font-family="sans-serif" font-size="11" lengthAdjust="spacingAndGlyphs" textLength="156" x="12" y="504.9683">initGamePlayerKeyOnTurn()</text><text fill="#000000" font-family="sans-serif" font-size="11" lengthAdjust="spacingAndGlyphs" textLength="174" x="12" y="517.7729">toggleGamePlayerKeyOnTurn()</text><!--MD5=[174337d06a678160a2cfdeed01de7721]
reverse link UserRegistView to GamePlayersContext--><path d="M1279.5,152.9131 C1279.5,172.2331 1279.5,193.7631 1279.5,213.6131 " fill="none" id="UserRegistView&lt;-GamePlayersContext" style="stroke: #A80036; stroke-width: 1.0; stroke-dasharray: 7.0,7.0;"/><polygon fill="#A80036" points="1279.5,147.5231,1275.5,156.5231,1279.5,152.5231,1283.5,156.5231,1279.5,147.5231" style="stroke: #A80036; stroke-width: 1.0;"/><!--MD5=[f02dd5a5d7dd589288d2d6806a227b88]
reverse link TicTacToeView to GameGridsContext--><path d="M785.38,157.5931 C765.83,175.7531 744.54,195.5231 724.81,213.8531 " fill="none" id="TicTacToeView&lt;-GameGridsContext" style="stroke: #A80036; stroke-width: 1.0; stroke-dasharray: 7.0,7.0;"/><polygon fill="#A80036" points="789.27,153.9831,779.955,157.1816,785.6081,157.3876,785.4021,163.0407,789.27,153.9831" style="stroke: #A80036; stroke-width: 1.0;"/><!--MD5=[14c9ed68bc88abbb860ec41f84bed8eb]
reverse link TicTacToeView to GamePlayersContext--><path d="M937.72,124.3531 C996.9,147.8531 1078.34,181.2731 1148.5,213.9531 C1154.07,216.5531 1159.76,219.2531 1165.47,222.0331 " fill="none" id="TicTacToeView&lt;-GamePlayersContext" style="stroke: #A80036; stroke-width: 1.0; stroke-dasharray: 7.0,7.0;"/><polygon fill="#A80036" points="932.78,122.4031,939.6768,129.434,937.4292,124.2429,942.6204,121.9952,932.78,122.4031" style="stroke: #A80036; stroke-width: 1.0;"/><!--MD5=[4cd321331402e874aa2a24daa0975c80]
reverse link TicTacToeView to GameStateContext--><path d="M912.1,157.8531 C931.55,180.3231 953.11,205.2431 971.78,226.8131 " fill="none" id="TicTacToeView&lt;-GameStateContext" style="stroke: #A80036; stroke-width: 1.0; stroke-dasharray: 7.0,7.0;"/><polygon fill="#A80036" points="908.75,153.9831,911.6081,163.4082,912.0192,157.7663,917.6611,158.1774,908.75,153.9831" style="stroke: #A80036; stroke-width: 1.0;"/><!--MD5=[458d4672a17c73c009c1039fc981c788]
reverse link TicTacToeView to GameTurnContext--><path d="M773.46,114.9631 C696.94,136.9431 580.23,172.9931 482.5,213.9531 C466.78,220.5431 450.39,228.2931 434.74,236.1631 " fill="none" id="TicTacToeView&lt;-GameTurnContext" style="stroke: #A80036; stroke-width: 1.0; stroke-dasharray: 7.0,7.0;"/><polygon fill="#A80036" points="778.44,113.5331,768.6837,112.1863,773.6362,114.9199,770.9026,119.8725,778.44,113.5331" style="stroke: #A80036; stroke-width: 1.0;"/><!--MD5=[dc240c15edcce5978054aee51e126020]
reverse link TicTacToeView to useConstants--><path d="M855.5,159.2931 C855.5,229.9231 855.5,340.7131 855.5,411.8231 " fill="none" id="TicTacToeView&lt;-useConstants" style="stroke: #A80036; stroke-width: 1.0; stroke-dasharray: 7.0,7.0;"/><polygon fill="#A80036" points="855.5,154.2831,851.5,163.2831,855.5,159.2831,859.5,163.2831,855.5,154.2831" style="stroke: #A80036; stroke-width: 1.0;"/><!--MD5=[e5066b5d666859bee8b6d69b098c8cec]
reverse link GameGridsContext to useConstants--><path d="M726.07,355.6031 C745.15,373.9331 765.61,393.5931 784.5,411.7431 " fill="none" id="GameGridsContext&lt;-useConstants" style="stroke: #A80036; stroke-width: 1.0; stroke-dasharray: 7.0,7.0;"/><polygon fill="#A80036" points="722.28,351.9531,726.0189,361.0647,725.8932,355.4092,731.5487,355.2836,722.28,351.9531" style="stroke: #A80036; stroke-width: 1.0;"/><!--MD5=[a1f66c080045af8a70bc3ab64340083b]
reverse link GameGridsContext to useGameGrids--><path d="M622.44,356.9831 C615.3,374.9131 607.69,394.0431 600.65,411.7431 " fill="none" id="GameGridsContext&lt;-useGameGrids" style="stroke: #A80036; stroke-width: 1.0; stroke-dasharray: 7.0,7.0;"/><polygon fill="#A80036" points="624.44,351.9531,617.4091,358.85,622.6003,356.6024,624.8479,361.7935,624.44,351.9531" style="stroke: #A80036; stroke-width: 1.0;"/><!--MD5=[7a3c80ba6279f3c46be02023be9bcbb0]
reverse link GamePlayersContext to useConstants--><path d="M1160.57,346.6931 C1156.52,348.5031 1152.49,350.2631 1148.5,351.9531 C1070.84,384.8131 1045.09,376.6631 968.5,411.9531 C962.78,414.5831 956.99,417.4431 951.2,420.4331 " fill="none" id="GamePlayersContext&lt;-useConstants" style="stroke: #A80036; stroke-width: 1.0; stroke-dasharray: 7.0,7.0;"/><polygon fill="#A80036" points="1165.33,344.5331,1155.4813,344.5903,1160.7728,346.5903,1158.7728,351.8818,1165.33,344.5331" style="stroke: #A80036; stroke-width: 1.0;"/><!--MD5=[050668626466de976c14fb648cf88e3b]
reverse link GamePlayersContext to useGamePlayers--><path d="M1367.61,355.3131 C1401.78,382.9931 1439.74,413.7331 1469.41,437.7631 " fill="none" id="GamePlayersContext&lt;-useGamePlayers" style="stroke: #A80036; stroke-width: 1.0; stroke-dasharray: 7.0,7.0;"/><polygon fill="#A80036" points="1363.46,351.9531,1367.9227,360.7329,1367.3406,355.1061,1372.9674,354.524,1363.46,351.9531" style="stroke: #A80036; stroke-width: 1.0;"/><!--MD5=[03c53a3867f4f059d2e6201bb47d3a2a]
reverse link GameStateContext to useConstants--><path d="M970.03,343.0731 C951.96,364.6731 931.36,389.2931 912.66,411.6331 " fill="none" id="GameStateContext&lt;-useConstants" style="stroke: #A80036; stroke-width: 1.0; stroke-dasharray: 7.0,7.0;"/><polygon fill="#A80036" points="973.38,339.0731,964.5296,343.394,970.165,342.9025,970.6566,348.538,973.38,339.0731" style="stroke: #A80036; stroke-width: 1.0;"/><!--MD5=[ac371e7f51464c8e45158f980fdf5f3d]
reverse link GameStateContext to useGameMode--><path d="M1036.32,343.8831 C1044.83,374.2031 1054.95,410.2831 1062.63,437.6731 " fill="none" id="GameStateContext&lt;-useGameMode" style="stroke: #A80036; stroke-width: 1.0; stroke-dasharray: 7.0,7.0;"/><polygon fill="#A80036" points="1034.97,339.0731,1033.562,348.8208,1036.3266,343.8856,1041.2619,346.6502,1034.97,339.0731" style="stroke: #A80036; stroke-width: 1.0;"/><!--MD5=[4e1d77a966a791b0c48cbd015e3bb9d6]
reverse link GameStateContext to useGameResult--><path d="M1098.56,342.2031 C1140.17,372.8631 1190.26,409.7731 1228.11,437.6731 " fill="none" id="GameStateContext&lt;-useGameResult" style="stroke: #A80036; stroke-width: 1.0; stroke-dasharray: 7.0,7.0;"/><polygon fill="#A80036" points="1094.3,339.0731,1099.154,347.6427,1098.3188,342.0479,1103.9137,341.2127,1094.3,339.0731" style="stroke: #A80036; stroke-width: 1.0;"/><!--MD5=[322ed35ac752a093ec61615f52dc0404]
reverse link GameTurnContext to useConstants--><path d="M439.42,333.3931 C453.56,340.2231 468.24,346.6931 482.5,351.9531 C593.36,392.8231 631.89,367.8231 741.5,411.9531 C747.59,414.4031 753.74,417.1531 759.86,420.1031 " fill="none" id="GameTurnContext&lt;-useConstants" style="stroke: #A80036; stroke-width: 1.0; stroke-dasharray: 7.0,7.0;"/><polygon fill="#A80036" points="434.65,331.0531,440.9691,338.6075,439.1392,333.2548,444.4918,331.4248,434.65,331.0531" style="stroke: #A80036; stroke-width: 1.0;"/><!--MD5=[1520de90ea4bc549fe0238cd487176af]
reverse link GameTurnContext to useGamePlayerKeyOnTurn--><path d="M279.94,342.3931 C242.44,373.0131 197.36,409.8331 163.28,437.6731 " fill="none" id="GameTurnContext&lt;-useGamePlayerKeyOnTurn" style="stroke: #A80036; stroke-width: 1.0; stroke-dasharray: 7.0,7.0;"/><polygon fill="#A80036" points="284.01,339.0731,274.5073,341.6611,280.1351,342.2331,279.5632,347.8609,284.01,339.0731" style="stroke: #A80036; stroke-width: 1.0;"/><!--MD5=[e7f648dc2ea7f5f29a01f41293c72613]
reverse link GameTurnContext to useGameTurn--><path d="M341.66,344.2331 C337.1,372.1631 331.75,404.9131 327.45,431.2531 " fill="none" id="GameTurnContext&lt;-useGameTurn" style="stroke: #A80036; stroke-width: 1.0; stroke-dasharray: 7.0,7.0;"/><polygon fill="#A80036" points="342.5,339.0731,337.0864,347.3007,341.685,344.0062,344.9794,348.6048,342.5,339.0731" style="stroke: #A80036; stroke-width: 1.0;"/><!--MD5=[b88fabe0df75b4e6a91e6b37fc7294f2]
@startuml
title Relationship Diagram of Hooks and Contexts

class "UserRegistView.tsx" as UserRegistView {
	yourName
	oppeonentName
	inputYourName
	inputOpponentName
	handelSubmit(event)
}

class "TicTacToeView.tsx" as TicTacToeView {
	yourName
	oppeonentName
	gamePlayerNameOnTurn
	selectGameGrid()
	initGameStart()
	goBack()
}

class "GameGridsContext.tsx" as GameGridsContext {
	gameGrids
	initGameGrids()
	getGameGrid(row, col)
	setGameGrid(row, col, gamePlayerKey, gameTurn)
	resetGameGrid(row, col)
	checkGameEndWithWin(gamePlayerKey)
	checkGameEndWithDraw()
}

class "GamePlayersContext.tsx" as GamePlayersContext {
	gamePlayers
	getGamePlayerName()
	getYourName()
	getOpponentName()
	getGamePlayerKeyRandomly()
	setGamePlayerNames(you, opponent)
	initGamePlayerNames()
}

class "GameStateContext.tsx" as GameStateContext {
	gameMode
	gameResult
	initGameState()
	setGameEndWithWin(gamePlayerKey)
	setGameEndWithDraw()
}

class "GameTurnContext.tsx" as GameTurnContext {
	gameTurn
	gamePlayerKeyOnTurn
	initGameTurn()
	advanceGameTurn()
	rewindGameTurn()
}


class "useConstants.ts" as useConstants {
	GAME_PLAYER_KEYS
	DEFAULT_GAME_PLAYER_NAMES
	GAME_GRIDS
	GAME_TURN
	GAME_MODE
	GAME_RESULT
	SLEEP_TIME
}

class "useGameGrids.ts" as useGameGrids {
	gameGrids
	initGameGrids()
	getGameGrid(row, col)
	setGameGrid(row, col, gamePlayerKey, gameTurn)
	resetGameGrid(row, col)
	checkWin(gamePlayerKey)
	checkDraw()
}

class "useGamePlayers.ts" as useGamePlayers {
	gamePlayers
	getGamePlayerName(gamePlayerKey)
	setGamePlayerNames(you, opponent)
}

class "useGameMode.ts" as useGameMode {
	gameMode
	initGameMode()
	setGameModeToGameOver()
}

class "useGameResult.ts" as useGameResult {
	gameResult
	initGameResult()
	setGameResult(gameResult)
}

class "useGameTurn.ts" as useGameTurn {
	gameTurn
	setFirstGameTurn()
	increaseGameTurn()
	decreaseGameTurn()
}

class "useGamePlayerKeyOnTurn.ts" as useGamePlayerKeyOnTurn {
	gamePlayerKeyOnTurn
	initGamePlayerKeyOnTurn()
	toggleGamePlayerKeyOnTurn()
}

UserRegistView <.. GamePlayersContext
TicTacToeView <.. GameGridsContext
TicTacToeView <.. GamePlayersContext
TicTacToeView <.. GameStateContext
TicTacToeView <.. GameTurnContext
TicTacToeView <.. useConstants

GameGridsContext <.. useConstants
GameGridsContext <.. useGameGrids

GamePlayersContext <.. useConstants
GamePlayersContext <.. useGamePlayers

GameStateContext <.. useConstants
GameStateContext <.. useGameMode
GameStateContext <.. useGameResult

GameTurnContext <.. useConstants
GameTurnContext <.. useGamePlayerKeyOnTurn
GameTurnContext <.. useGameTurn

@enduml	   

PlantUML version 1.2020.02(Sun Mar 01 19:22:07 JST 2020)
(GPL source distribution)
Java Runtime: OpenJDK Runtime Environment
JVM: OpenJDK 64-Bit Server VM
Java Version: 11.0.17+8-post-Ubuntu-1ubuntu222.04
Operating System: Linux
Default Encoding: UTF-8
Language: en
Country: US
--></g></svg>