<?xml version="1.0" encoding="UTF-8" standalone="no"?><svg xmlns="http://www.w3.org/2000/svg" xmlns:xlink="http://www.w3.org/1999/xlink" contentStyleType="text/css" height="479px" preserveAspectRatio="none" style="width:1777px;height:479px;background:#FFFFFF;" version="1.1" viewBox="0 0 1777 479" width="1777px" zoomAndPan="magnify"><defs/><g><text fill="#000000" font-family="sans-serif" font-size="14" font-weight="bold" lengthAdjust="spacing" textLength="196" x="783.5" y="23.5352">コンテキストとフックの関連図</text><!--MD5=[ae8439213318281d253ad18006a87dc5]
class UserRegistView--><g id="elem_UserRegistView"><rect codeLine="3" fill="#F1F1F1" height="48" id="UserRegistView" rx="2.5" ry="2.5" style="stroke:#181818;stroke-width:0.5;" width="162" x="930.5" y="44.4883"/><ellipse cx="945.5" cy="60.4883" fill="#ADD1B2" rx="11" ry="11" style="stroke:#181818;stroke-width:1.0;"/><path d="M947.9731,66.6313 Q947.3921,66.9302 946.7529,67.0796 Q946.1138,67.229 945.4082,67.229 Q942.9014,67.229 941.5815,65.5771 Q940.2617,63.9253 940.2617,60.8042 Q940.2617,57.6748 941.5815,56.0229 Q942.9014,54.3711 945.4082,54.3711 Q946.1138,54.3711 946.7612,54.5205 Q947.4087,54.6699 947.9731,54.9688 L947.9731,57.6914 Q947.3423,57.1104 946.7488,56.8406 Q946.1553,56.5708 945.5244,56.5708 Q944.1797,56.5708 943.4949,57.6375 Q942.8101,58.7041 942.8101,60.8042 Q942.8101,62.896 943.4949,63.9626 Q944.1797,65.0293 945.5244,65.0293 Q946.1553,65.0293 946.7488,64.7595 Q947.3423,64.4897 947.9731,63.9087 Z " fill="#000000"/><text fill="#000000" font-family="sans-serif" font-size="14" lengthAdjust="spacing" textLength="130" x="959.5" y="65.7793">UserRegistView.tsx</text><line style="stroke:#181818;stroke-width:0.5;" x1="931.5" x2="1091.5" y1="76.4883" y2="76.4883"/><line style="stroke:#181818;stroke-width:0.5;" x1="931.5" x2="1091.5" y1="84.4883" y2="84.4883"/></g><!--MD5=[9dee31518fe58d48174303dc5f2c1aec]
class TicTacToeView--><g id="elem_TicTacToeView"><rect codeLine="6" fill="#F1F1F1" height="48" id="TicTacToeView" rx="2.5" ry="2.5" style="stroke:#181818;stroke-width:0.5;" width="159" x="509" y="44.4883"/><ellipse cx="524" cy="60.4883" fill="#ADD1B2" rx="11" ry="11" style="stroke:#181818;stroke-width:1.0;"/><path d="M526.4731,66.6313 Q525.8921,66.9302 525.2529,67.0796 Q524.6138,67.229 523.9082,67.229 Q521.4014,67.229 520.0815,65.5771 Q518.7617,63.9253 518.7617,60.8042 Q518.7617,57.6748 520.0815,56.0229 Q521.4014,54.3711 523.9082,54.3711 Q524.6138,54.3711 525.2612,54.5205 Q525.9087,54.6699 526.4731,54.9688 L526.4731,57.6914 Q525.8423,57.1104 525.2488,56.8406 Q524.6553,56.5708 524.0244,56.5708 Q522.6797,56.5708 521.9949,57.6375 Q521.3101,58.7041 521.3101,60.8042 Q521.3101,62.896 521.9949,63.9626 Q522.6797,65.0293 524.0244,65.0293 Q524.6553,65.0293 525.2488,64.7595 Q525.8423,64.4897 526.4731,63.9087 Z " fill="#000000"/><text fill="#000000" font-family="sans-serif" font-size="14" lengthAdjust="spacing" textLength="127" x="538" y="65.7793">TicTacToeView.tsx</text><line style="stroke:#181818;stroke-width:0.5;" x1="510" x2="667" y1="76.4883" y2="76.4883"/><line style="stroke:#181818;stroke-width:0.5;" x1="510" x2="667" y1="84.4883" y2="84.4883"/></g><!--MD5=[fb70df6079b8c7aa6defa38ba3cf4955]
class GameGridsContext--><g id="elem_GameGridsContext"><rect codeLine="11" fill="#F1F1F1" height="48" id="GameGridsContext" rx="2.5" ry="2.5" style="stroke:#181818;stroke-width:0.5;" width="187" x="495" y="209.9883"/><ellipse cx="510" cy="225.9883" fill="#ADD1B2" rx="11" ry="11" style="stroke:#181818;stroke-width:1.0;"/><path d="M512.4731,232.1313 Q511.8921,232.4302 511.2529,232.5796 Q510.6138,232.729 509.9082,232.729 Q507.4014,232.729 506.0815,231.0771 Q504.7617,229.4253 504.7617,226.3042 Q504.7617,223.1748 506.0815,221.5229 Q507.4014,219.8711 509.9082,219.8711 Q510.6138,219.8711 511.2612,220.0205 Q511.9087,220.1699 512.4731,220.4688 L512.4731,223.1914 Q511.8423,222.6104 511.2488,222.3406 Q510.6553,222.0708 510.0244,222.0708 Q508.6797,222.0708 507.9949,223.1375 Q507.3101,224.2041 507.3101,226.3042 Q507.3101,228.396 507.9949,229.4626 Q508.6797,230.5293 510.0244,230.5293 Q510.6553,230.5293 511.2488,230.2595 Q511.8423,229.9897 512.4731,229.4087 Z " fill="#000000"/><text fill="#000000" font-family="sans-serif" font-size="14" lengthAdjust="spacing" textLength="155" x="524" y="231.2793">GameGridsContext.tsx</text><line style="stroke:#181818;stroke-width:0.5;" x1="496" x2="681" y1="241.9883" y2="241.9883"/><line style="stroke:#181818;stroke-width:0.5;" x1="496" x2="681" y1="249.9883" y2="249.9883"/></g><!--MD5=[407986f5752d98a72da282f608205af4]
class GamePlayersContext--><g id="elem_GamePlayersContext"><rect codeLine="14" fill="#F1F1F1" height="163.418" id="GamePlayersContext" rx="2.5" ry="2.5" style="stroke:#181818;stroke-width:0.5;" width="589" x="717" y="152.4883"/><ellipse cx="936.25" cy="168.4883" fill="#ADD1B2" rx="11" ry="11" style="stroke:#181818;stroke-width:1.0;"/><path d="M938.7231,174.6313 Q938.1421,174.9302 937.5029,175.0796 Q936.8638,175.229 936.1582,175.229 Q933.6514,175.229 932.3315,173.5771 Q931.0117,171.9253 931.0117,168.8042 Q931.0117,165.6748 932.3315,164.0229 Q933.6514,162.3711 936.1582,162.3711 Q936.8638,162.3711 937.5112,162.5205 Q938.1587,162.6699 938.7231,162.9688 L938.7231,165.6914 Q938.0923,165.1104 937.4988,164.8406 Q936.9053,164.5708 936.2744,164.5708 Q934.9297,164.5708 934.2449,165.6375 Q933.5601,166.7041 933.5601,168.8042 Q933.5601,170.896 934.2449,171.9626 Q934.9297,173.0293 936.2744,173.0293 Q936.9053,173.0293 937.4988,172.7595 Q938.0923,172.4897 938.7231,171.9087 Z " fill="#000000"/><text fill="#000000" font-family="sans-serif" font-size="14" lengthAdjust="spacing" textLength="142" x="956.75" y="173.7793">GamePlayersContext</text><line style="stroke:#181818;stroke-width:0.5;" x1="718" x2="1305" y1="184.4883" y2="184.4883"/><text fill="#000000" font-family="sans-serif" font-size="14" lengthAdjust="spacing" textLength="376" x="723" y="202.0234">gamePlayers: Map&lt;GamePlayerKey, GamePlayerName&gt;</text><line style="stroke:#181818;stroke-width:0.5;" x1="718" x2="1305" y1="208.9766" y2="208.9766"/><text fill="#000000" font-family="sans-serif" font-size="14" lengthAdjust="spacing" textLength="308" x="723" y="226.5117">getGamePlayerName: () =&gt; GamePlayerName</text><text fill="#000000" font-family="sans-serif" font-size="14" lengthAdjust="spacing" textLength="261" x="723" y="243">getYourName: () =&gt; GamePlayerName</text><text fill="#000000" font-family="sans-serif" font-size="14" lengthAdjust="spacing" textLength="297" x="723" y="259.4883">getOpponentName: () =&gt; GamePlayerName</text><text fill="#000000" font-family="sans-serif" font-size="14" lengthAdjust="spacing" textLength="346" x="723" y="275.9766">getGamePlayerKeyRandomly: () =&gt; GamePlayerKey</text><text fill="#000000" font-family="sans-serif" font-size="14" lengthAdjust="spacing" textLength="577" x="723" y="292.4648">setGamePlayerNames: (you: GamePlayerName, opponent: GamePlayerName) =&gt; void</text><text fill="#000000" font-family="sans-serif" font-size="14" lengthAdjust="spacing" textLength="225" x="723" y="308.9531">initGamePlayerNames: () =&gt; void</text></g><!--MD5=[271274cd3dec61aff7303e0b3e594f59]
class GameStateContext--><g id="elem_GameStateContext"><rect codeLine="24" fill="#F1F1F1" height="48" id="GameStateContext" rx="2.5" ry="2.5" style="stroke:#181818;stroke-width:0.5;" width="185" x="190" y="209.9883"/><ellipse cx="205" cy="225.9883" fill="#ADD1B2" rx="11" ry="11" style="stroke:#181818;stroke-width:1.0;"/><path d="M207.4731,232.1313 Q206.8921,232.4302 206.2529,232.5796 Q205.6138,232.729 204.9082,232.729 Q202.4014,232.729 201.0815,231.0771 Q199.7617,229.4253 199.7617,226.3042 Q199.7617,223.1748 201.0815,221.5229 Q202.4014,219.8711 204.9082,219.8711 Q205.6138,219.8711 206.2612,220.0205 Q206.9087,220.1699 207.4731,220.4688 L207.4731,223.1914 Q206.8423,222.6104 206.2488,222.3406 Q205.6553,222.0708 205.0244,222.0708 Q203.6797,222.0708 202.9949,223.1375 Q202.3101,224.2041 202.3101,226.3042 Q202.3101,228.396 202.9949,229.4626 Q203.6797,230.5293 205.0244,230.5293 Q205.6553,230.5293 206.2488,230.2595 Q206.8423,229.9897 207.4731,229.4087 Z " fill="#000000"/><text fill="#000000" font-family="sans-serif" font-size="14" lengthAdjust="spacing" textLength="153" x="219" y="231.2793">GameStateContext.tsx</text><line style="stroke:#181818;stroke-width:0.5;" x1="191" x2="374" y1="241.9883" y2="241.9883"/><line style="stroke:#181818;stroke-width:0.5;" x1="191" x2="374" y1="249.9883" y2="249.9883"/></g><!--MD5=[99e5bccf41373de8b1fea0e7e19d690b]
class GameTurnContext--><g id="elem_GameTurnContext"><rect codeLine="27" fill="#F1F1F1" height="48" id="GameTurnContext" rx="2.5" ry="2.5" style="stroke:#181818;stroke-width:0.5;" width="184" x="1341.5" y="209.9883"/><ellipse cx="1356.5" cy="225.9883" fill="#ADD1B2" rx="11" ry="11" style="stroke:#181818;stroke-width:1.0;"/><path d="M1358.9731,232.1313 Q1358.3921,232.4302 1357.7529,232.5796 Q1357.1138,232.729 1356.4082,232.729 Q1353.9014,232.729 1352.5815,231.0771 Q1351.2617,229.4253 1351.2617,226.3042 Q1351.2617,223.1748 1352.5815,221.5229 Q1353.9014,219.8711 1356.4082,219.8711 Q1357.1138,219.8711 1357.7612,220.0205 Q1358.4087,220.1699 1358.9731,220.4688 L1358.9731,223.1914 Q1358.3423,222.6104 1357.7488,222.3406 Q1357.1553,222.0708 1356.5244,222.0708 Q1355.1797,222.0708 1354.4949,223.1375 Q1353.8101,224.2041 1353.8101,226.3042 Q1353.8101,228.396 1354.4949,229.4626 Q1355.1797,230.5293 1356.5244,230.5293 Q1357.1553,230.5293 1357.7488,230.2595 Q1358.3423,229.9897 1358.9731,229.4087 Z " fill="#000000"/><text fill="#000000" font-family="sans-serif" font-size="14" lengthAdjust="spacing" textLength="152" x="1370.5" y="231.2793">GameTurnContext.tsx</text><line style="stroke:#181818;stroke-width:0.5;" x1="1342.5" x2="1524.5" y1="241.9883" y2="241.9883"/><line style="stroke:#181818;stroke-width:0.5;" x1="1342.5" x2="1524.5" y1="249.9883" y2="249.9883"/></g><!--MD5=[45766bac5053e7b4f64dc163870b212a]
class useConstants--><g id="elem_useConstants"><rect codeLine="31" fill="#F1F1F1" height="48" id="useConstants" rx="2.5" ry="2.5" style="stroke:#181818;stroke-width:0.5;" width="141" x="379" y="399.9883"/><ellipse cx="394" cy="415.9883" fill="#ADD1B2" rx="11" ry="11" style="stroke:#181818;stroke-width:1.0;"/><path d="M396.4731,422.1313 Q395.8921,422.4302 395.2529,422.5796 Q394.6138,422.729 393.9082,422.729 Q391.4014,422.729 390.0815,421.0771 Q388.7617,419.4253 388.7617,416.3042 Q388.7617,413.1748 390.0815,411.5229 Q391.4014,409.8711 393.9082,409.8711 Q394.6138,409.8711 395.2612,410.0205 Q395.9087,410.1699 396.4731,410.4688 L396.4731,413.1914 Q395.8423,412.6104 395.2488,412.3406 Q394.6553,412.0708 394.0244,412.0708 Q392.6797,412.0708 391.9949,413.1375 Q391.3101,414.2041 391.3101,416.3042 Q391.3101,418.396 391.9949,419.4626 Q392.6797,420.5293 394.0244,420.5293 Q394.6553,420.5293 395.2488,420.2595 Q395.8423,419.9897 396.4731,419.4087 Z " fill="#000000"/><text fill="#000000" font-family="sans-serif" font-size="14" lengthAdjust="spacing" textLength="109" x="408" y="421.2793">useConstants.ts</text><line style="stroke:#181818;stroke-width:0.5;" x1="380" x2="519" y1="431.9883" y2="431.9883"/><line style="stroke:#181818;stroke-width:0.5;" x1="380" x2="519" y1="439.9883" y2="439.9883"/></g><!--MD5=[459c93c415d6d7f0f4fefb92fe317108]
class useGameGrids--><g id="elem_useGameGrids"><rect codeLine="33" fill="#F1F1F1" height="48" id="useGameGrids" rx="2.5" ry="2.5" style="stroke:#181818;stroke-width:0.5;" width="147" x="555" y="399.9883"/><ellipse cx="570" cy="415.9883" fill="#ADD1B2" rx="11" ry="11" style="stroke:#181818;stroke-width:1.0;"/><path d="M572.4731,422.1313 Q571.8921,422.4302 571.2529,422.5796 Q570.6138,422.729 569.9082,422.729 Q567.4014,422.729 566.0815,421.0771 Q564.7617,419.4253 564.7617,416.3042 Q564.7617,413.1748 566.0815,411.5229 Q567.4014,409.8711 569.9082,409.8711 Q570.6138,409.8711 571.2612,410.0205 Q571.9087,410.1699 572.4731,410.4688 L572.4731,413.1914 Q571.8423,412.6104 571.2488,412.3406 Q570.6553,412.0708 570.0244,412.0708 Q568.6797,412.0708 567.9949,413.1375 Q567.3101,414.2041 567.3101,416.3042 Q567.3101,418.396 567.9949,419.4626 Q568.6797,420.5293 570.0244,420.5293 Q570.6553,420.5293 571.2488,420.2595 Q571.8423,419.9897 572.4731,419.4087 Z " fill="#000000"/><text fill="#000000" font-family="sans-serif" font-size="14" lengthAdjust="spacing" textLength="115" x="584" y="421.2793">useGameGrids.ts</text><line style="stroke:#181818;stroke-width:0.5;" x1="556" x2="701" y1="431.9883" y2="431.9883"/><line style="stroke:#181818;stroke-width:0.5;" x1="556" x2="701" y1="439.9883" y2="439.9883"/></g><!--MD5=[3bc5ff66e1a85a21f345313a9f77016d]
class useGamePlayers--><g id="elem_useGamePlayers"><rect codeLine="35" fill="#F1F1F1" height="97.4648" id="useGamePlayers" rx="2.5" ry="2.5" style="stroke:#181818;stroke-width:0.5;" width="589" x="737" y="375.4883"/><ellipse cx="963.75" cy="391.4883" fill="#ADD1B2" rx="11" ry="11" style="stroke:#181818;stroke-width:1.0;"/><path d="M966.2231,397.6313 Q965.6421,397.9302 965.0029,398.0796 Q964.3638,398.229 963.6582,398.229 Q961.1514,398.229 959.8315,396.5771 Q958.5117,394.9253 958.5117,391.8042 Q958.5117,388.6748 959.8315,387.0229 Q961.1514,385.3711 963.6582,385.3711 Q964.3638,385.3711 965.0112,385.5205 Q965.6587,385.6699 966.2231,385.9688 L966.2231,388.6914 Q965.5923,388.1104 964.9988,387.8406 Q964.4053,387.5708 963.7744,387.5708 Q962.4297,387.5708 961.7449,388.6375 Q961.0601,389.7041 961.0601,391.8042 Q961.0601,393.896 961.7449,394.9626 Q962.4297,396.0293 963.7744,396.0293 Q964.4053,396.0293 964.9988,395.7595 Q965.5923,395.4897 966.2231,394.9087 Z " fill="#000000"/><text fill="#000000" font-family="sans-serif" font-size="14" lengthAdjust="spacing" textLength="127" x="984.25" y="396.7793">useGamePlayers.ts</text><line style="stroke:#181818;stroke-width:0.5;" x1="738" x2="1325" y1="407.4883" y2="407.4883"/><text fill="#000000" font-family="sans-serif" font-size="14" lengthAdjust="spacing" textLength="376" x="743" y="425.0234">gamePlayers: Map&lt;GamePlayerKey, GamePlayerName&gt;</text><line style="stroke:#181818;stroke-width:0.5;" x1="738" x2="1325" y1="431.9766" y2="431.9766"/><text fill="#000000" font-family="sans-serif" font-size="14" lengthAdjust="spacing" textLength="308" x="743" y="449.5117">getGamePlayerName: () =&gt; GamePlayerName</text><text fill="#000000" font-family="sans-serif" font-size="14" lengthAdjust="spacing" textLength="577" x="743" y="466">setGamePlayerNames: (you: GamePlayerName, opponent: GamePlayerName) =&gt; void</text></g><!--MD5=[25ce75281466841eb35daa014b3cff59]
class useGameMode--><g id="elem_useGameMode"><rect codeLine="41" fill="#F1F1F1" height="48" id="useGameMode" rx="2.5" ry="2.5" style="stroke:#181818;stroke-width:0.5;" width="149" x="195" y="399.9883"/><ellipse cx="210" cy="415.9883" fill="#ADD1B2" rx="11" ry="11" style="stroke:#181818;stroke-width:1.0;"/><path d="M212.4731,422.1313 Q211.8921,422.4302 211.2529,422.5796 Q210.6138,422.729 209.9082,422.729 Q207.4014,422.729 206.0815,421.0771 Q204.7617,419.4253 204.7617,416.3042 Q204.7617,413.1748 206.0815,411.5229 Q207.4014,409.8711 209.9082,409.8711 Q210.6138,409.8711 211.2612,410.0205 Q211.9087,410.1699 212.4731,410.4688 L212.4731,413.1914 Q211.8423,412.6104 211.2488,412.3406 Q210.6553,412.0708 210.0244,412.0708 Q208.6797,412.0708 207.9949,413.1375 Q207.3101,414.2041 207.3101,416.3042 Q207.3101,418.396 207.9949,419.4626 Q208.6797,420.5293 210.0244,420.5293 Q210.6553,420.5293 211.2488,420.2595 Q211.8423,419.9897 212.4731,419.4087 Z " fill="#000000"/><text fill="#000000" font-family="sans-serif" font-size="14" lengthAdjust="spacing" textLength="117" x="224" y="421.2793">useGameMode.ts</text><line style="stroke:#181818;stroke-width:0.5;" x1="196" x2="343" y1="431.9883" y2="431.9883"/><line style="stroke:#181818;stroke-width:0.5;" x1="196" x2="343" y1="439.9883" y2="439.9883"/></g><!--MD5=[3a23a806d3b93c292a3ae7d3e5f8701c]
class useGameResult--><g id="elem_useGameResult"><rect codeLine="42" fill="#F1F1F1" height="48" id="useGameResult" rx="2.5" ry="2.5" style="stroke:#181818;stroke-width:0.5;" width="153" x="7" y="399.9883"/><ellipse cx="22" cy="415.9883" fill="#ADD1B2" rx="11" ry="11" style="stroke:#181818;stroke-width:1.0;"/><path d="M24.4731,422.1313 Q23.8921,422.4302 23.2529,422.5796 Q22.6138,422.729 21.9082,422.729 Q19.4014,422.729 18.0815,421.0771 Q16.7617,419.4253 16.7617,416.3042 Q16.7617,413.1748 18.0815,411.5229 Q19.4014,409.8711 21.9082,409.8711 Q22.6138,409.8711 23.2612,410.0205 Q23.9087,410.1699 24.4731,410.4688 L24.4731,413.1914 Q23.8423,412.6104 23.2488,412.3406 Q22.6553,412.0708 22.0244,412.0708 Q20.6797,412.0708 19.9949,413.1375 Q19.3101,414.2041 19.3101,416.3042 Q19.3101,418.396 19.9949,419.4626 Q20.6797,420.5293 22.0244,420.5293 Q22.6553,420.5293 23.2488,420.2595 Q23.8423,419.9897 24.4731,419.4087 Z " fill="#000000"/><text fill="#000000" font-family="sans-serif" font-size="14" lengthAdjust="spacing" textLength="121" x="36" y="421.2793">useGameResult.ts</text><line style="stroke:#181818;stroke-width:0.5;" x1="8" x2="159" y1="431.9883" y2="431.9883"/><line style="stroke:#181818;stroke-width:0.5;" x1="8" x2="159" y1="439.9883" y2="439.9883"/></g><!--MD5=[78a636ae5a25bfaa2a4b382c5530d5c2]
class useGameTurn--><g id="elem_useGameTurn"><rect codeLine="43" fill="#F1F1F1" height="48" id="useGameTurn" rx="2.5" ry="2.5" style="stroke:#181818;stroke-width:0.5;" width="144" x="1361.5" y="399.9883"/><ellipse cx="1376.5" cy="415.9883" fill="#ADD1B2" rx="11" ry="11" style="stroke:#181818;stroke-width:1.0;"/><path d="M1378.9731,422.1313 Q1378.3921,422.4302 1377.7529,422.5796 Q1377.1138,422.729 1376.4082,422.729 Q1373.9014,422.729 1372.5815,421.0771 Q1371.2617,419.4253 1371.2617,416.3042 Q1371.2617,413.1748 1372.5815,411.5229 Q1373.9014,409.8711 1376.4082,409.8711 Q1377.1138,409.8711 1377.7612,410.0205 Q1378.4087,410.1699 1378.9731,410.4688 L1378.9731,413.1914 Q1378.3423,412.6104 1377.7488,412.3406 Q1377.1553,412.0708 1376.5244,412.0708 Q1375.1797,412.0708 1374.4949,413.1375 Q1373.8101,414.2041 1373.8101,416.3042 Q1373.8101,418.396 1374.4949,419.4626 Q1375.1797,420.5293 1376.5244,420.5293 Q1377.1553,420.5293 1377.7488,420.2595 Q1378.3423,419.9897 1378.9731,419.4087 Z " fill="#000000"/><text fill="#000000" font-family="sans-serif" font-size="14" lengthAdjust="spacing" textLength="112" x="1390.5" y="421.2793">useGameTurn.ts</text><line style="stroke:#181818;stroke-width:0.5;" x1="1362.5" x2="1504.5" y1="431.9883" y2="431.9883"/><line style="stroke:#181818;stroke-width:0.5;" x1="1362.5" x2="1504.5" y1="439.9883" y2="439.9883"/></g><!--MD5=[b011b5ae82fbcca0852cbb113df240ef]
class useGamePlayerKeyOnTurn--><g id="elem_useGamePlayerKeyOnTurn"><rect codeLine="44" fill="#F1F1F1" height="48" id="useGamePlayerKeyOnTurn" rx="2.5" ry="2.5" style="stroke:#181818;stroke-width:0.5;" width="229" x="1541" y="399.9883"/><ellipse cx="1556" cy="415.9883" fill="#ADD1B2" rx="11" ry="11" style="stroke:#181818;stroke-width:1.0;"/><path d="M1558.4731,422.1313 Q1557.8921,422.4302 1557.2529,422.5796 Q1556.6138,422.729 1555.9082,422.729 Q1553.4014,422.729 1552.0815,421.0771 Q1550.7617,419.4253 1550.7617,416.3042 Q1550.7617,413.1748 1552.0815,411.5229 Q1553.4014,409.8711 1555.9082,409.8711 Q1556.6138,409.8711 1557.2612,410.0205 Q1557.9087,410.1699 1558.4731,410.4688 L1558.4731,413.1914 Q1557.8423,412.6104 1557.2488,412.3406 Q1556.6553,412.0708 1556.0244,412.0708 Q1554.6797,412.0708 1553.9949,413.1375 Q1553.3101,414.2041 1553.3101,416.3042 Q1553.3101,418.396 1553.9949,419.4626 Q1554.6797,420.5293 1556.0244,420.5293 Q1556.6553,420.5293 1557.2488,420.2595 Q1557.8423,419.9897 1558.4731,419.4087 Z " fill="#000000"/><text fill="#000000" font-family="sans-serif" font-size="14" lengthAdjust="spacing" textLength="197" x="1570" y="421.2793">useGamePlayerKeyOnTurn.ts</text><line style="stroke:#181818;stroke-width:0.5;" x1="1542" x2="1769" y1="431.9883" y2="431.9883"/><line style="stroke:#181818;stroke-width:0.5;" x1="1542" x2="1769" y1="439.9883" y2="439.9883"/></g><!--MD5=[174337d06a678160a2cfdeed01de7721]
reverse link UserRegistView to GamePlayersContext--><g id="link_UserRegistView_GamePlayersContext"><path codeLine="46" d="M1011.5,99.0783 C1011.5,114.0583 1011.5,133.0583 1011.5,151.9983 " fill="none" id="UserRegistView-backto-GamePlayersContext" style="stroke:#181818;stroke-width:1.0;stroke-dasharray:7.0,7.0;"/><polygon fill="#181818" points="1011.5,94.4283,1007.5,103.4283,1011.5,99.4283,1015.5,103.4283,1011.5,94.4283" style="stroke:#181818;stroke-width:1.0;"/></g><!--MD5=[f02dd5a5d7dd589288d2d6806a227b88]
reverse link TicTacToeView to GameGridsContext--><g id="link_TicTacToeView_GameGridsContext"><path codeLine="47" d="M588.5,99.3983 C588.5,131.1383 588.5,180.6083 588.5,209.6083 " fill="none" id="TicTacToeView-backto-GameGridsContext" style="stroke:#181818;stroke-width:1.0;stroke-dasharray:7.0,7.0;"/><polygon fill="#181818" points="588.5,94.4283,584.5,103.4283,588.5,99.4283,592.5,103.4283,588.5,94.4283" style="stroke:#181818;stroke-width:1.0;"/></g><!--MD5=[14c9ed68bc88abbb860ec41f84bed8eb]
reverse link TicTacToeView to GamePlayersContext--><g id="link_TicTacToeView_GamePlayersContext"><path codeLine="48" d="M654.92,95.1583 C695.04,110.6683 748.58,131.3683 801.97,151.9983 " fill="none" id="TicTacToeView-backto-GamePlayersContext" style="stroke:#181818;stroke-width:1.0;stroke-dasharray:7.0,7.0;"/><polygon fill="#181818" points="650.52,93.4583,657.4799,100.4268,655.1856,95.256,660.3563,92.9618,650.52,93.4583" style="stroke:#181818;stroke-width:1.0;"/></g><!--MD5=[4cd321331402e874aa2a24daa0975c80]
reverse link TicTacToeView to GameStateContext--><g id="link_TicTacToeView_GameStateContext"><path codeLine="49" d="M530.58,95.5683 C496.64,111.2683 453.17,132.1183 415.5,152.4883 C382.14,170.5283 345.34,193.0183 318.92,209.6283 " fill="none" id="TicTacToeView-backto-GameStateContext" style="stroke:#181818;stroke-width:1.0;stroke-dasharray:7.0,7.0;"/><polygon fill="#181818" points="534.99,93.5283,525.1424,93.6857,530.454,95.6317,528.5079,100.9433,534.99,93.5283" style="stroke:#181818;stroke-width:1.0;"/></g><!--MD5=[458d4672a17c73c009c1039fc981c788]
reverse link TicTacToeView to GameTurnContext--><g id="link_TicTacToeView_GameTurnContext"><path codeLine="50" d="M674.72,76.7183 C855.86,92.2583 1264.2,129.3483 1323.5,152.4883 C1356.57,165.3983 1388.65,190.8183 1409.55,209.6483 " fill="none" id="TicTacToeView-backto-GameTurnContext" style="stroke:#181818;stroke-width:1.0;stroke-dasharray:7.0,7.0;"/><polygon fill="#181818" points="669.88,76.2983,678.5032,81.0565,674.8615,76.7277,679.1903,73.0861,669.88,76.2983" style="stroke:#181818;stroke-width:1.0;"/></g><!--MD5=[dc240c15edcce5978054aee51e126020]
reverse link TicTacToeView to useConstants--><g id="link_TicTacToeView_useConstants"><path codeLine="51" d="M535.54,96.3083 C513.9,110.0683 490.85,128.9483 477.5,152.4883 C431.5,233.5983 439.81,350.5583 446.01,399.7783 " fill="none" id="TicTacToeView-backto-useConstants" style="stroke:#181818;stroke-width:1.0;stroke-dasharray:7.0,7.0;"/><polygon fill="#181818" points="539.72,93.7083,529.9607,95.0331,535.4656,96.3351,534.1636,101.8401,539.72,93.7083" style="stroke:#181818;stroke-width:1.0;"/></g><!--MD5=[e5066b5d666859bee8b6d69b098c8cec]
reverse link GameGridsContext to useConstants--><g id="link_GameGridsContext_useConstants"><path codeLine="53" d="M567.6,263.2483 C540.14,300.3983 492.38,364.9883 466.82,399.5583 " fill="none" id="GameGridsContext-backto-useConstants" style="stroke:#181818;stroke-width:1.0;stroke-dasharray:7.0,7.0;"/><polygon fill="#181818" points="570.28,259.6383,561.7104,264.4923,567.3052,263.6571,568.1405,269.2519,570.28,259.6383" style="stroke:#181818;stroke-width:1.0;"/></g><!--MD5=[a1f66c080045af8a70bc3ab64340083b]
reverse link GameGridsContext to useGameGrids--><g id="link_GameGridsContext_useGameGrids"><path codeLine="54" d="M594.81,264.6283 C602.75,301.9783 616.25,365.4083 623.52,399.5583 " fill="none" id="GameGridsContext-backto-useGameGrids" style="stroke:#181818;stroke-width:1.0;stroke-dasharray:7.0,7.0;"/><polygon fill="#181818" points="593.8,259.8983,591.7669,269.535,594.8437,264.7881,599.5906,267.865,593.8,259.8983" style="stroke:#181818;stroke-width:1.0;"/></g><!--MD5=[7a3c80ba6279f3c46be02023be9bcbb0]
reverse link GamePlayersContext to useConstants--><g id="link_GamePlayersContext_useConstants"><path codeLine="56" d="M710.79,313.8983 C652.54,332.0383 592.53,352.7683 537.5,375.4883 C520.97,382.3083 503.5,391.3383 488.51,399.6783 " fill="none" id="GamePlayersContext-backto-useConstants" style="stroke:#181818;stroke-width:1.0;stroke-dasharray:7.0,7.0;"/><polygon fill="#181818" points="715.34,312.4883,705.5587,311.3365,710.5648,313.9707,707.9306,318.9768,715.34,312.4883" style="stroke:#181818;stroke-width:1.0;"/></g><!--MD5=[050668626466de976c14fb648cf88e3b]
reverse link GamePlayersContext to useGamePlayers--><g id="link_GamePlayersContext_useGamePlayers"><path codeLine="57" d="M1020.76,321.9883 C1022.7,340.2483 1024.68,358.8683 1026.4,375.0683 " fill="none" id="GamePlayersContext-backto-useGamePlayers" style="stroke:#181818;stroke-width:1.0;stroke-dasharray:7.0,7.0;"/><polygon fill="#181818" points="1020.26,317.3183,1017.234,326.6907,1020.7886,322.2903,1025.1891,325.8449,1020.26,317.3183" style="stroke:#181818;stroke-width:1.0;"/></g><!--MD5=[03c53a3867f4f059d2e6201bb47d3a2a]
reverse link GameStateContext to useConstants--><g id="link_GameStateContext_useConstants"><path codeLine="59" d="M307.61,263.2483 C340.61,300.3983 397.98,364.9883 428.69,399.5583 " fill="none" id="GameStateContext-backto-useConstants" style="stroke:#181818;stroke-width:1.0;stroke-dasharray:7.0,7.0;"/><polygon fill="#181818" points="304.32,259.5483,307.2918,268.9381,307.6347,263.2916,313.2812,263.6345,304.32,259.5483" style="stroke:#181818;stroke-width:1.0;"/></g><!--MD5=[ac371e7f51464c8e45158f980fdf5f3d]
reverse link GameStateContext to useGameMode--><g id="link_GameStateContext_useGameMode"><path codeLine="60" d="M280.45,264.6283 C277.87,301.9783 273.48,365.4083 271.12,399.5583 " fill="none" id="GameStateContext-backto-useGameMode" style="stroke:#181818;stroke-width:1.0;stroke-dasharray:7.0,7.0;"/><polygon fill="#181818" points="280.78,259.9283,276.1737,268.6336,280.4379,264.9166,284.1549,269.1808,280.78,259.9283" style="stroke:#181818;stroke-width:1.0;"/></g><!--MD5=[4e1d77a966a791b0c48cbd015e3bb9d6]
reverse link GameStateContext to useGameResult--><g id="link_GameStateContext_useGameResult"><path codeLine="61" d="M253.06,262.7983 C213.82,299.8783 145.04,364.8483 108.3,399.5583 " fill="none" id="GameStateContext-backto-useGameResult" style="stroke:#181818;stroke-width:1.0;stroke-dasharray:7.0,7.0;"/><polygon fill="#181818" points="256.6,259.4583,247.3115,262.733,252.9661,262.8927,252.8065,268.5473,256.6,259.4583" style="stroke:#181818;stroke-width:1.0;"/></g><!--MD5=[35474c8f76436187ff0ed171c4228f6a]
reverse link GameTurnContext to useGamePlayers--><g id="link_GameTurnContext_useGamePlayers"><path codeLine="63" d="M1401.08,262.4583 C1379.98,279.3683 1351.3,300.5783 1323.5,315.4883 C1280.65,338.4683 1231.84,358.5783 1186.56,374.9883 " fill="none" id="GameTurnContext-backto-useGamePlayers" style="stroke:#181818;stroke-width:1.0;stroke-dasharray:7.0,7.0;"/><polygon fill="#181818" points="1404.83,259.4383,1395.3169,261.9881,1400.9424,262.5826,1400.3479,268.2081,1404.83,259.4383" style="stroke:#181818;stroke-width:1.0;"/></g><!--MD5=[e7f648dc2ea7f5f29a01f41293c72613]
reverse link GameTurnContext to useGameTurn--><g id="link_GameTurnContext_useGameTurn"><path codeLine="64" d="M1433.5,264.6283 C1433.5,301.9783 1433.5,365.4083 1433.5,399.5583 " fill="none" id="GameTurnContext-backto-useGameTurn" style="stroke:#181818;stroke-width:1.0;stroke-dasharray:7.0,7.0;"/><polygon fill="#181818" points="1433.5,259.9283,1429.5,268.9283,1433.5,264.9283,1437.5,268.9283,1433.5,259.9283" style="stroke:#181818;stroke-width:1.0;"/></g><!--MD5=[1520de90ea4bc549fe0238cd487176af]
reverse link GameTurnContext to useGamePlayerKeyOnTurn--><g id="link_GameTurnContext_useGamePlayerKeyOnTurn"><path codeLine="65" d="M1466.07,262.5683 C1509.81,299.6083 1586.76,364.7783 1627.83,399.5583 " fill="none" id="GameTurnContext-backto-useGamePlayerKeyOnTurn" style="stroke:#181818;stroke-width:1.0;stroke-dasharray:7.0,7.0;"/><polygon fill="#181818" points="1462.32,259.3983,1466.6216,268.2581,1466.1423,262.6216,1471.7789,262.1424,1462.32,259.3983" style="stroke:#181818;stroke-width:1.0;"/></g><!--MD5=[3326cc9b1e5d10e1acc28008253a9e2b]
@startuml
title コンテキストとフックの関連図

class "UserRegistView.tsx" as UserRegistView {

}
class "TicTacToeView.tsx" as TicTacToeView {

}


class "GameGridsContext.tsx" as GameGridsContext {
}

class "GamePlayersContext" as GamePlayersContext {
      gamePlayers: Map<GamePlayerKey, GamePlayerName>
      getGamePlayerName: () => GamePlayerName
      getYourName: () => GamePlayerName
      getOpponentName: () => GamePlayerName
      getGamePlayerKeyRandomly: () => GamePlayerKey
      setGamePlayerNames: (you: GamePlayerName, opponent: GamePlayerName) => void
      initGamePlayerNames: () => void
}

class "GameStateContext.tsx" as GameStateContext {
}

class "GameTurnContext.tsx" as GameTurnContext {
}


class "useConstants.ts" as useConstants {}

class "useGameGrids.ts" as useGameGrids {}

class "useGamePlayers.ts" as useGamePlayers {
      gamePlayers: Map<GamePlayerKey, GamePlayerName>
      getGamePlayerName: () => GamePlayerName
      setGamePlayerNames: (you: GamePlayerName, opponent: GamePlayerName) => void
}

class "useGameMode.ts" as useGameMode {}
class "useGameResult.ts" as useGameResult {}
class "useGameTurn.ts" as useGameTurn {}
class "useGamePlayerKeyOnTurn.ts" as useGamePlayerKeyOnTurn {}

UserRegistView <.. GamePlayersContext
TicTacToeView <.. GameGridsContext
TicTacToeView <.. GamePlayersContext
TicTacToeView <.. GameStateContext
TicTacToeView <.. GameTurnContext
TicTacToeView <.. useConstants

GameGridsContext <.. useConstants
GameGridsContext <.. useGameGrids

GamePlayersContext <.. useConstants
GamePlayersContext <.. useGamePlayers

GameStateContext <.. useConstants
GameStateContext <.. useGameMode
GameStateContext <.. useGameResult

GameTurnContext <.. useGamePlayers
GameTurnContext <.. useGameTurn
GameTurnContext <.. useGamePlayerKeyOnTurn

@enduml	   

PlantUML version 1.2022.13(Sat Nov 19 22:22:17 JST 2022)
(GPL source distribution)
Java Runtime: OpenJDK Runtime Environment
JVM: OpenJDK 64-Bit Server VM
Default Encoding: UTF-8
Language: ja
Country: JP
--></g></svg>