<?xml version="1.0" encoding="UTF-8" standalone="no"?><svg xmlns="http://www.w3.org/2000/svg" xmlns:xlink="http://www.w3.org/1999/xlink" contentStyleType="text/css" height="857px" preserveAspectRatio="none" style="width:1268px;height:857px;background:#FFFFFF;" version="1.1" viewBox="0 0 1268 857" width="1268px" zoomAndPan="magnify"><defs/><g><text fill="#000000" font-family="sans-serif" font-size="14" font-weight="bold" lengthAdjust="spacing" textLength="158" x="551" y="27.9951">Init Game Sequence</text><rect fill="#FFFFFF" height="698.125" style="stroke:#181818;stroke-width:1.0;" width="10" x="126" y="134.5938"/><rect fill="#FFFFFF" height="639.9922" style="stroke:#181818;stroke-width:1.0;" width="10" x="131" y="171.7266"/><rect fill="#FFFFFF" height="71.2656" style="stroke:#181818;stroke-width:1.0;" width="10" x="318" y="291.125"/><rect fill="#FFFFFF" height="56.1328" style="stroke:#181818;stroke-width:1.0;" width="10" x="537" y="205.8594"/><rect fill="#FFFFFF" height="167.3984" style="stroke:#181818;stroke-width:1.0;" width="10" x="688" y="609.1875"/><rect fill="#FFFFFF" height="109.2656" style="stroke:#181818;stroke-width:1.0;" width="10" x="693" y="646.3203"/><rect fill="#FFFFFF" height="177.9648" style="stroke:#181818;stroke-width:1.0;" width="10" x="841" y="402.0898"/><rect fill="#FFFFFF" height="109.2656" style="stroke:#181818;stroke-width:1.0;" width="10" x="846" y="449.7891"/><line style="stroke:#181818;stroke-width:0.5;stroke-dasharray:5.0,5.0;" x1="33" x2="33" y1="118.5938" y2="850.7188"/><line style="stroke:#181818;stroke-width:0.5;stroke-dasharray:5.0,5.0;" x1="131" x2="131" y1="118.5938" y2="850.7188"/><line style="stroke:#181818;stroke-width:0.5;stroke-dasharray:5.0,5.0;" x1="323" x2="323" y1="118.5938" y2="850.7188"/><line style="stroke:#181818;stroke-width:0.5;stroke-dasharray:5.0,5.0;" x1="541.5" x2="541.5" y1="118.5938" y2="850.7188"/><line style="stroke:#181818;stroke-width:0.5;stroke-dasharray:5.0,5.0;" x1="692.5" x2="692.5" y1="118.5938" y2="850.7188"/><line style="stroke:#181818;stroke-width:0.5;stroke-dasharray:5.0,5.0;" x1="845.5" x2="845.5" y1="118.5938" y2="850.7188"/><text fill="#000000" font-family="sans-serif" font-size="14" lengthAdjust="spacing" textLength="51" x="5" y="115.292">System</text><ellipse cx="33.5" cy="50.7969" fill="#E2E2F0" rx="8" ry="8" style="stroke:#181818;stroke-width:0.5;"/><path d="M33.5,58.7969 L33.5,85.7969 M20.5,66.7969 L46.5,66.7969 M33.5,85.7969 L20.5,100.7969 M33.5,85.7969 L46.5,100.7969 " fill="none" style="stroke:#181818;stroke-width:0.5;"/><rect fill="#E2E2F0" height="30.2969" rx="2.5" ry="2.5" style="stroke:#181818;stroke-width:0.5;" width="118" x="72" y="87.2969"/><text fill="#000000" font-family="sans-serif" font-size="14" lengthAdjust="spacing" textLength="104" x="79" y="107.292">TicTacToeView</text><rect fill="#E2E2F0" height="30.2969" rx="2.5" ry="2.5" style="stroke:#181818;stroke-width:0.5;" width="158" x="244" y="87.2969"/><text fill="#000000" font-family="sans-serif" font-size="14" lengthAdjust="spacing" textLength="144" x="251" y="107.292">GamePlayersContext</text><rect fill="#E2E2F0" height="30.2969" rx="2.5" ry="2.5" style="stroke:#181818;stroke-width:0.5;" width="137" x="473.5" y="87.2969"/><text fill="#000000" font-family="sans-serif" font-size="14" lengthAdjust="spacing" textLength="123" x="480.5" y="107.292">GameGridContext</text><rect fill="#E2E2F0" height="30.2969" rx="2.5" ry="2.5" style="stroke:#181818;stroke-width:0.5;" width="145" x="620.5" y="87.2969"/><text fill="#000000" font-family="sans-serif" font-size="14" lengthAdjust="spacing" textLength="131" x="627.5" y="107.292">GameStateContext</text><rect fill="#E2E2F0" height="30.2969" rx="2.5" ry="2.5" style="stroke:#181818;stroke-width:0.5;" width="141" x="775.5" y="87.2969"/><text fill="#000000" font-family="sans-serif" font-size="14" lengthAdjust="spacing" textLength="127" x="782.5" y="107.292">GameTurnContext</text><rect fill="#FFFFFF" height="698.125" style="stroke:#181818;stroke-width:1.0;" width="10" x="126" y="134.5938"/><rect fill="#FFFFFF" height="639.9922" style="stroke:#181818;stroke-width:1.0;" width="10" x="131" y="171.7266"/><rect fill="#FFFFFF" height="71.2656" style="stroke:#181818;stroke-width:1.0;" width="10" x="318" y="291.125"/><rect fill="#FFFFFF" height="56.1328" style="stroke:#181818;stroke-width:1.0;" width="10" x="537" y="205.8594"/><rect fill="#FFFFFF" height="167.3984" style="stroke:#181818;stroke-width:1.0;" width="10" x="688" y="609.1875"/><rect fill="#FFFFFF" height="109.2656" style="stroke:#181818;stroke-width:1.0;" width="10" x="693" y="646.3203"/><rect fill="#FFFFFF" height="177.9648" style="stroke:#181818;stroke-width:1.0;" width="10" x="841" y="402.0898"/><rect fill="#FFFFFF" height="109.2656" style="stroke:#181818;stroke-width:1.0;" width="10" x="846" y="449.7891"/><polygon fill="#181818" points="114,130.5938,124,134.5938,114,138.5938,118,134.5938" style="stroke:#181818;stroke-width:1.0;"/><line style="stroke:#181818;stroke-width:1.0;" x1="33.5" x2="120" y1="134.5938" y2="134.5938"/><line style="stroke:#181818;stroke-width:1.0;" x1="136" x2="183" y1="158.7266" y2="158.7266"/><line style="stroke:#181818;stroke-width:1.0;" x1="183" x2="183" y1="158.7266" y2="171.7266"/><line style="stroke:#181818;stroke-width:1.0;" x1="142" x2="183" y1="171.7266" y2="171.7266"/><polygon fill="#181818" points="152,167.7266,142,171.7266,152,175.7266,148,171.7266" style="stroke:#181818;stroke-width:1.0;"/><text fill="#000000" font-family="sans-serif" font-size="13" lengthAdjust="spacing" textLength="68" x="148" y="153.6606">initGame()</text><polygon fill="#181818" points="525,201.8594,535,205.8594,525,209.8594,529,205.8594" style="stroke:#181818;stroke-width:1.0;"/><line style="stroke:#181818;stroke-width:1.0;" x1="141" x2="531" y1="205.8594" y2="205.8594"/><text fill="#000000" font-family="sans-serif" font-size="13" lengthAdjust="spacing" textLength="86" x="148" y="200.7935">initialize grids</text><line style="stroke:#181818;stroke-width:1.0;" x1="547" x2="589" y1="234.9922" y2="234.9922"/><line style="stroke:#181818;stroke-width:1.0;" x1="589" x2="589" y1="234.9922" y2="247.9922"/><line style="stroke:#181818;stroke-width:1.0;" x1="548" x2="589" y1="247.9922" y2="247.9922"/><polygon fill="#181818" points="558,243.9922,548,247.9922,558,251.9922,554,247.9922" style="stroke:#181818;stroke-width:1.0;"/><text fill="#000000" font-family="sans-serif" font-size="13" lengthAdjust="spacing" textLength="101" x="554" y="229.9263">initGameGrids()</text><polygon fill="#181818" points="152,257.9922,142,261.9922,152,265.9922,148,261.9922" style="stroke:#181818;stroke-width:1.0;"/><line style="stroke:#181818;stroke-width:1.0;stroke-dasharray:2.0,2.0;" x1="146" x2="541" y1="261.9922" y2="261.9922"/><polygon fill="#181818" points="306,287.125,316,291.125,306,295.125,310,291.125" style="stroke:#181818;stroke-width:1.0;"/><line style="stroke:#181818;stroke-width:1.0;" x1="141" x2="312" y1="291.125" y2="291.125"/><text fill="#000000" font-family="sans-serif" font-size="13" lengthAdjust="spacing" textLength="158" x="148" y="286.0591">get the first game player</text><line style="stroke:#181818;stroke-width:1.0;" x1="328" x2="370" y1="320.2578" y2="320.2578"/><line style="stroke:#181818;stroke-width:1.0;" x1="370" x2="370" y1="320.2578" y2="333.2578"/><line style="stroke:#181818;stroke-width:1.0;" x1="329" x2="370" y1="333.2578" y2="333.2578"/><polygon fill="#181818" points="339,329.2578,329,333.2578,339,337.2578,335,333.2578" style="stroke:#181818;stroke-width:1.0;"/><text fill="#000000" font-family="sans-serif" font-size="13" lengthAdjust="spacing" textLength="195" x="335" y="315.1919">getGamePlayerKeyRandomly()</text><polygon fill="#181818" points="152,358.3906,142,362.3906,152,366.3906,148,362.3906" style="stroke:#181818;stroke-width:1.0;"/><line style="stroke:#181818;stroke-width:1.0;stroke-dasharray:2.0,2.0;" x1="146" x2="322" y1="362.3906" y2="362.3906"/><text fill="#000000" font-family="sans-serif" font-size="13" lengthAdjust="spacing" textLength="99" x="158" y="357.3247">gamePlayerKey</text><polygon fill="#181818" points="829,398.0898,839,402.0898,829,406.0898,833,402.0898" style="stroke:#181818;stroke-width:1.0;"/><line style="stroke:#181818;stroke-width:1.0;" x1="141" x2="835" y1="402.0898" y2="402.0898"/><text fill="#000000" font-family="sans-serif" font-size="13" lengthAdjust="spacing" textLength="81" x="148" y="397.0239">initialize turn</text><path d="M856,375.3906 L856,415.3906 L1261,415.3906 L1261,385.3906 L1251,375.3906 L856,375.3906 " fill="#FEFFDD" style="stroke:#181818;stroke-width:0.5;"/><path d="M1251,375.3906 L1251,385.3906 L1261,385.3906 L1251,375.3906 " fill="#FEFFDD" style="stroke:#181818;stroke-width:0.5;"/><text fill="#000000" font-family="sans-serif" font-size="13" lengthAdjust="spacing" textLength="206" x="862" y="392.4575">turn number is initialized to one,</text><text fill="#000000" font-family="sans-serif" font-size="13" lengthAdjust="spacing" textLength="384" x="862" y="407.5903">first game player is defined randomly from you or opponent.</text><line style="stroke:#181818;stroke-width:1.0;" x1="851" x2="898" y1="436.7891" y2="436.7891"/><line style="stroke:#181818;stroke-width:1.0;" x1="898" x2="898" y1="436.7891" y2="449.7891"/><line style="stroke:#181818;stroke-width:1.0;" x1="857" x2="898" y1="449.7891" y2="449.7891"/><polygon fill="#181818" points="867,445.7891,857,449.7891,867,453.7891,863,449.7891" style="stroke:#181818;stroke-width:1.0;"/><text fill="#000000" font-family="sans-serif" font-size="13" lengthAdjust="spacing" textLength="195" x="863" y="431.7231">initGameTurn(gamePlayerKey)</text><line style="stroke:#181818;stroke-width:1.0;" x1="856" x2="898" y1="483.9219" y2="483.9219"/><line style="stroke:#181818;stroke-width:1.0;" x1="898" x2="898" y1="483.9219" y2="496.9219"/><line style="stroke:#181818;stroke-width:1.0;" x1="857" x2="898" y1="496.9219" y2="496.9219"/><polygon fill="#181818" points="867,492.9219,857,496.9219,867,500.9219,863,496.9219" style="stroke:#181818;stroke-width:1.0;"/><text fill="#000000" font-family="sans-serif" font-size="13" lengthAdjust="spacing" textLength="124" x="863" y="478.856">setFirstGameTurn()</text><line style="stroke:#181818;stroke-width:1.0;" x1="856" x2="898" y1="526.0547" y2="526.0547"/><line style="stroke:#181818;stroke-width:1.0;" x1="898" x2="898" y1="526.0547" y2="539.0547"/><line style="stroke:#181818;stroke-width:1.0;" x1="857" x2="898" y1="539.0547" y2="539.0547"/><polygon fill="#181818" points="867,535.0547,857,539.0547,867,543.0547,863,539.0547" style="stroke:#181818;stroke-width:1.0;"/><text fill="#000000" font-family="sans-serif" font-size="13" lengthAdjust="spacing" textLength="301" x="863" y="520.9888">initGamePlayerKeyOnTurn(firstGamePlayerKey)</text><line style="stroke:#181818;stroke-width:1.0;stroke-dasharray:2.0,2.0;" x1="856" x2="898" y1="558.0547" y2="558.0547"/><line style="stroke:#181818;stroke-width:1.0;stroke-dasharray:2.0,2.0;" x1="898" x2="898" y1="558.0547" y2="571.0547"/><line style="stroke:#181818;stroke-width:1.0;stroke-dasharray:2.0,2.0;" x1="851" x2="898" y1="571.0547" y2="571.0547"/><polygon fill="#181818" points="861,567.0547,851,571.0547,861,575.0547,857,571.0547" style="stroke:#181818;stroke-width:1.0;"/><polygon fill="#181818" points="152,576.0547,142,580.0547,152,584.0547,148,580.0547" style="stroke:#181818;stroke-width:1.0;"/><line style="stroke:#181818;stroke-width:1.0;stroke-dasharray:2.0,2.0;" x1="146" x2="845" y1="580.0547" y2="580.0547"/><polygon fill="#181818" points="676,605.1875,686,609.1875,676,613.1875,680,609.1875" style="stroke:#181818;stroke-width:1.0;"/><line style="stroke:#181818;stroke-width:1.0;" x1="141" x2="682" y1="609.1875" y2="609.1875"/><text fill="#000000" font-family="sans-serif" font-size="13" lengthAdjust="spacing" textLength="88" x="148" y="604.1216">initialize state</text><line style="stroke:#181818;stroke-width:1.0;" x1="698" x2="745" y1="633.3203" y2="633.3203"/><line style="stroke:#181818;stroke-width:1.0;" x1="745" x2="745" y1="633.3203" y2="646.3203"/><line style="stroke:#181818;stroke-width:1.0;" x1="704" x2="745" y1="646.3203" y2="646.3203"/><polygon fill="#181818" points="714,642.3203,704,646.3203,714,650.3203,710,646.3203" style="stroke:#181818;stroke-width:1.0;"/><text fill="#000000" font-family="sans-serif" font-size="13" lengthAdjust="spacing" textLength="103" x="710" y="628.2544">initGameState()</text><path d="M825,625.6875 L825,650.6875 L1090,650.6875 L1090,635.6875 L1080,625.6875 L825,625.6875 " fill="#FEFFDD" style="stroke:#181818;stroke-width:0.5;"/><path d="M1080,625.6875 L1080,635.6875 L1090,635.6875 L1080,625.6875 " fill="#FEFFDD" style="stroke:#181818;stroke-width:0.5;"/><text fill="#000000" font-family="sans-serif" font-size="13" lengthAdjust="spacing" textLength="244" x="831" y="642.7544">game-mode is initialized to 'on game'.</text><line style="stroke:#181818;stroke-width:1.0;" x1="703" x2="745" y1="680.4531" y2="680.4531"/><line style="stroke:#181818;stroke-width:1.0;" x1="745" x2="745" y1="680.4531" y2="693.4531"/><line style="stroke:#181818;stroke-width:1.0;" x1="704" x2="745" y1="693.4531" y2="693.4531"/><polygon fill="#181818" points="714,689.4531,704,693.4531,714,697.4531,710,693.4531" style="stroke:#181818;stroke-width:1.0;"/><text fill="#000000" font-family="sans-serif" font-size="13" lengthAdjust="spacing" textLength="103" x="710" y="675.3872">initGameMode()</text><line style="stroke:#181818;stroke-width:1.0;" x1="703" x2="745" y1="722.5859" y2="722.5859"/><line style="stroke:#181818;stroke-width:1.0;" x1="745" x2="745" y1="722.5859" y2="735.5859"/><line style="stroke:#181818;stroke-width:1.0;" x1="704" x2="745" y1="735.5859" y2="735.5859"/><polygon fill="#181818" points="714,731.5859,704,735.5859,714,739.5859,710,735.5859" style="stroke:#181818;stroke-width:1.0;"/><text fill="#000000" font-family="sans-serif" font-size="13" lengthAdjust="spacing" textLength="107" x="710" y="717.52">initGameResult()</text><line style="stroke:#181818;stroke-width:1.0;stroke-dasharray:2.0,2.0;" x1="703" x2="745" y1="754.5859" y2="754.5859"/><line style="stroke:#181818;stroke-width:1.0;stroke-dasharray:2.0,2.0;" x1="745" x2="745" y1="754.5859" y2="767.5859"/><line style="stroke:#181818;stroke-width:1.0;stroke-dasharray:2.0,2.0;" x1="698" x2="745" y1="767.5859" y2="767.5859"/><polygon fill="#181818" points="708,763.5859,698,767.5859,708,771.5859,704,767.5859" style="stroke:#181818;stroke-width:1.0;"/><polygon fill="#181818" points="152,772.5859,142,776.5859,152,780.5859,148,776.5859" style="stroke:#181818;stroke-width:1.0;"/><line style="stroke:#181818;stroke-width:1.0;stroke-dasharray:2.0,2.0;" x1="146" x2="692" y1="776.5859" y2="776.5859"/><line style="stroke:#181818;stroke-width:1.0;stroke-dasharray:2.0,2.0;" x1="141" x2="183" y1="810.7188" y2="810.7188"/><line style="stroke:#181818;stroke-width:1.0;stroke-dasharray:2.0,2.0;" x1="183" x2="183" y1="810.7188" y2="823.7188"/><line style="stroke:#181818;stroke-width:1.0;stroke-dasharray:2.0,2.0;" x1="136" x2="183" y1="823.7188" y2="823.7188"/><polygon fill="#181818" points="146,819.7188,136,823.7188,146,827.7188,142,823.7188" style="stroke:#181818;stroke-width:1.0;"/><text fill="#000000" font-family="sans-serif" font-size="13" lengthAdjust="spacing" textLength="68" x="148" y="805.6528">initGame()</text><polygon fill="#181818" points="44.5,828.7188,34.5,832.7188,44.5,836.7188,40.5,832.7188" style="stroke:#181818;stroke-width:1.0;"/><line style="stroke:#181818;stroke-width:1.0;stroke-dasharray:2.0,2.0;" x1="38.5" x2="130" y1="832.7188" y2="832.7188"/><!--MD5=[1ec6007603e3582b3542789be70f5ba9]
@startuml
title Init Game Sequence
hide footbox

Actor "System" as Player
participant "TicTacToeView" as TicTacToeView
participant "GamePlayersContext" as GamePlayers
participant "GameGridContext" as GameGrid
participant "GameStateContext" as GameState
participant "GameTurnContext" as GameTurn

Player -> TicTacToeView ++ : 

TicTacToeView -> TicTacToeView ++ : initGame()

TicTacToeView -> GameGrid ++ : initialize grids
GameGrid -> GameGrid : initGameGrids()
GameGrid - -> TicTacToeView - - :

TicTacToeView -> GamePlayers ++ : get the first game player
GamePlayers -> GamePlayers : getGamePlayerKeyRandomly()
GamePlayers - -> TicTacToeView - - : gamePlayerKey

TicTacToeView -> GameTurn ++ : initialize turn
note right
	turn number is initialized to one,
	first game player is defined randomly from you or opponent.
end note
GameTurn -> GameTurn ++ : initGameTurn(gamePlayerKey)
GameTurn -> GameTurn : setFirstGameTurn()
GameTurn -> GameTurn : initGamePlayerKeyOnTurn(firstGamePlayerKey)
GameTurn - -> GameTurn - - :
GameTurn - -> TicTacToeView - - :

TicTacToeView -> GameState ++ : initialize state
GameState -> GameState ++ : initGameState()
note right
	game-mode is initialized to 'on game'.
end note
GameState -> GameState : initGameMode()
GameState -> GameState : initGameResult()
GameState - -> GameState - - : 
GameState - -> TicTacToeView - - : 

TicTacToeView - -> TicTacToeView - - : initGame()
TicTacToeView - -> Player - -: 
@enduml

PlantUML version 1.2022.13(Sat Nov 19 22:22:17 JST 2022)
(GPL source distribution)
Java Runtime: OpenJDK Runtime Environment
JVM: OpenJDK 64-Bit Server VM
Default Encoding: UTF-8
Language: en
Country: US
--></g></svg>