<?xml version="1.0" encoding="UTF-8" standalone="no"?><svg xmlns="http://www.w3.org/2000/svg" xmlns:xlink="http://www.w3.org/1999/xlink" contentStyleType="text/css" height="830px" preserveAspectRatio="none" style="width:1294px;height:830px;background:#FFFFFF;" version="1.1" viewBox="0 0 1294 830" width="1294px" zoomAndPan="magnify"><defs/><g><text fill="#000000" font-family="sans-serif" font-size="14" font-weight="bold" lengthAdjust="spacing" textLength="171" x="557.5" y="27.9951">Grid Select Sequence</text><rect fill="#FFFFFF" height="671.125" style="stroke:#181818;stroke-width:1.0;" width="10" x="152" y="134.5938"/><rect fill="#FFFFFF" height="612.9922" style="stroke:#181818;stroke-width:1.0;" width="10" x="157" y="171.7266"/><rect fill="#FFFFFF" height="71.2656" style="stroke:#181818;stroke-width:1.0;" width="10" x="344" y="291.125"/><rect fill="#FFFFFF" height="56.1328" style="stroke:#181818;stroke-width:1.0;" width="10" x="563" y="205.8594"/><rect fill="#FFFFFF" height="119.3984" style="stroke:#181818;stroke-width:1.0;" width="10" x="714" y="609.1875"/><rect fill="#FFFFFF" height="40.1328" style="stroke:#181818;stroke-width:1.0;" width="10" x="719" y="646.3203"/><rect fill="#FFFFFF" height="177.9648" style="stroke:#181818;stroke-width:1.0;" width="10" x="867" y="402.0898"/><rect fill="#FFFFFF" height="109.2656" style="stroke:#181818;stroke-width:1.0;" width="10" x="872" y="449.7891"/><line style="stroke:#181818;stroke-width:0.5;stroke-dasharray:5.0,5.0;" x1="46" x2="46" y1="118.5938" y2="823.7188"/><line style="stroke:#181818;stroke-width:0.5;stroke-dasharray:5.0,5.0;" x1="157" x2="157" y1="118.5938" y2="823.7188"/><line style="stroke:#181818;stroke-width:0.5;stroke-dasharray:5.0,5.0;" x1="349" x2="349" y1="118.5938" y2="823.7188"/><line style="stroke:#181818;stroke-width:0.5;stroke-dasharray:5.0,5.0;" x1="567.5" x2="567.5" y1="118.5938" y2="823.7188"/><line style="stroke:#181818;stroke-width:0.5;stroke-dasharray:5.0,5.0;" x1="718.5" x2="718.5" y1="118.5938" y2="823.7188"/><line style="stroke:#181818;stroke-width:0.5;stroke-dasharray:5.0,5.0;" x1="871.5" x2="871.5" y1="118.5938" y2="823.7188"/><text fill="#000000" font-family="sans-serif" font-size="14" lengthAdjust="spacing" textLength="77" x="5" y="115.292">Turn Player</text><ellipse cx="46.5" cy="50.7969" fill="#E2E2F0" rx="8" ry="8" style="stroke:#181818;stroke-width:0.5;"/><path d="M46.5,58.7969 L46.5,85.7969 M33.5,66.7969 L59.5,66.7969 M46.5,85.7969 L33.5,100.7969 M46.5,85.7969 L59.5,100.7969 " fill="none" style="stroke:#181818;stroke-width:0.5;"/><rect fill="#E2E2F0" height="30.2969" rx="2.5" ry="2.5" style="stroke:#181818;stroke-width:0.5;" width="118" x="98" y="87.2969"/><text fill="#000000" font-family="sans-serif" font-size="14" lengthAdjust="spacing" textLength="104" x="105" y="107.292">TicTacToeView</text><rect fill="#E2E2F0" height="30.2969" rx="2.5" ry="2.5" style="stroke:#181818;stroke-width:0.5;" width="158" x="270" y="87.2969"/><text fill="#000000" font-family="sans-serif" font-size="14" lengthAdjust="spacing" textLength="144" x="277" y="107.292">GamePlayersContext</text><rect fill="#E2E2F0" height="30.2969" rx="2.5" ry="2.5" style="stroke:#181818;stroke-width:0.5;" width="137" x="499.5" y="87.2969"/><text fill="#000000" font-family="sans-serif" font-size="14" lengthAdjust="spacing" textLength="123" x="506.5" y="107.292">GameGridContext</text><rect fill="#E2E2F0" height="30.2969" rx="2.5" ry="2.5" style="stroke:#181818;stroke-width:0.5;" width="145" x="646.5" y="87.2969"/><text fill="#000000" font-family="sans-serif" font-size="14" lengthAdjust="spacing" textLength="131" x="653.5" y="107.292">GameStateContext</text><rect fill="#E2E2F0" height="30.2969" rx="2.5" ry="2.5" style="stroke:#181818;stroke-width:0.5;" width="141" x="801.5" y="87.2969"/><text fill="#000000" font-family="sans-serif" font-size="14" lengthAdjust="spacing" textLength="127" x="808.5" y="107.292">GameTurnContext</text><rect fill="#FFFFFF" height="671.125" style="stroke:#181818;stroke-width:1.0;" width="10" x="152" y="134.5938"/><rect fill="#FFFFFF" height="612.9922" style="stroke:#181818;stroke-width:1.0;" width="10" x="157" y="171.7266"/><rect fill="#FFFFFF" height="71.2656" style="stroke:#181818;stroke-width:1.0;" width="10" x="344" y="291.125"/><rect fill="#FFFFFF" height="56.1328" style="stroke:#181818;stroke-width:1.0;" width="10" x="563" y="205.8594"/><rect fill="#FFFFFF" height="119.3984" style="stroke:#181818;stroke-width:1.0;" width="10" x="714" y="609.1875"/><rect fill="#FFFFFF" height="40.1328" style="stroke:#181818;stroke-width:1.0;" width="10" x="719" y="646.3203"/><rect fill="#FFFFFF" height="177.9648" style="stroke:#181818;stroke-width:1.0;" width="10" x="867" y="402.0898"/><rect fill="#FFFFFF" height="109.2656" style="stroke:#181818;stroke-width:1.0;" width="10" x="872" y="449.7891"/><polygon fill="#181818" points="140,130.5938,150,134.5938,140,138.5938,144,134.5938" style="stroke:#181818;stroke-width:1.0;"/><line style="stroke:#181818;stroke-width:1.0;" x1="46.5" x2="146" y1="134.5938" y2="134.5938"/><line style="stroke:#181818;stroke-width:1.0;" x1="162" x2="209" y1="158.7266" y2="158.7266"/><line style="stroke:#181818;stroke-width:1.0;" x1="209" x2="209" y1="158.7266" y2="171.7266"/><line style="stroke:#181818;stroke-width:1.0;" x1="168" x2="209" y1="171.7266" y2="171.7266"/><polygon fill="#181818" points="178,167.7266,168,171.7266,178,175.7266,174,171.7266" style="stroke:#181818;stroke-width:1.0;"/><text fill="#000000" font-family="sans-serif" font-size="13" lengthAdjust="spacing" textLength="68" x="174" y="153.6606">initGame()</text><polygon fill="#181818" points="551,201.8594,561,205.8594,551,209.8594,555,205.8594" style="stroke:#181818;stroke-width:1.0;"/><line style="stroke:#181818;stroke-width:1.0;" x1="167" x2="557" y1="205.8594" y2="205.8594"/><text fill="#000000" font-family="sans-serif" font-size="13" lengthAdjust="spacing" textLength="86" x="174" y="200.7935">initialize grids</text><line style="stroke:#181818;stroke-width:1.0;" x1="573" x2="615" y1="234.9922" y2="234.9922"/><line style="stroke:#181818;stroke-width:1.0;" x1="615" x2="615" y1="234.9922" y2="247.9922"/><line style="stroke:#181818;stroke-width:1.0;" x1="574" x2="615" y1="247.9922" y2="247.9922"/><polygon fill="#181818" points="584,243.9922,574,247.9922,584,251.9922,580,247.9922" style="stroke:#181818;stroke-width:1.0;"/><text fill="#000000" font-family="sans-serif" font-size="13" lengthAdjust="spacing" textLength="101" x="580" y="229.9263">initGameGrids()</text><polygon fill="#181818" points="178,257.9922,168,261.9922,178,265.9922,174,261.9922" style="stroke:#181818;stroke-width:1.0;"/><line style="stroke:#181818;stroke-width:1.0;stroke-dasharray:2.0,2.0;" x1="172" x2="567" y1="261.9922" y2="261.9922"/><polygon fill="#181818" points="332,287.125,342,291.125,332,295.125,336,291.125" style="stroke:#181818;stroke-width:1.0;"/><line style="stroke:#181818;stroke-width:1.0;" x1="167" x2="338" y1="291.125" y2="291.125"/><text fill="#000000" font-family="sans-serif" font-size="13" lengthAdjust="spacing" textLength="158" x="174" y="286.0591">get the first game player</text><line style="stroke:#181818;stroke-width:1.0;" x1="354" x2="396" y1="320.2578" y2="320.2578"/><line style="stroke:#181818;stroke-width:1.0;" x1="396" x2="396" y1="320.2578" y2="333.2578"/><line style="stroke:#181818;stroke-width:1.0;" x1="355" x2="396" y1="333.2578" y2="333.2578"/><polygon fill="#181818" points="365,329.2578,355,333.2578,365,337.2578,361,333.2578" style="stroke:#181818;stroke-width:1.0;"/><text fill="#000000" font-family="sans-serif" font-size="13" lengthAdjust="spacing" textLength="195" x="361" y="315.1919">getGamePlayerKeyRandomly()</text><polygon fill="#181818" points="178,358.3906,168,362.3906,178,366.3906,174,362.3906" style="stroke:#181818;stroke-width:1.0;"/><line style="stroke:#181818;stroke-width:1.0;stroke-dasharray:2.0,2.0;" x1="172" x2="348" y1="362.3906" y2="362.3906"/><text fill="#000000" font-family="sans-serif" font-size="13" lengthAdjust="spacing" textLength="99" x="184" y="357.3247">gamePlayerKey</text><polygon fill="#181818" points="855,398.0898,865,402.0898,855,406.0898,859,402.0898" style="stroke:#181818;stroke-width:1.0;"/><line style="stroke:#181818;stroke-width:1.0;" x1="167" x2="861" y1="402.0898" y2="402.0898"/><text fill="#000000" font-family="sans-serif" font-size="13" lengthAdjust="spacing" textLength="81" x="174" y="397.0239">initialize turn</text><path d="M882,375.3906 L882,415.3906 L1287,415.3906 L1287,385.3906 L1277,375.3906 L882,375.3906 " fill="#FEFFDD" style="stroke:#181818;stroke-width:0.5;"/><path d="M1277,375.3906 L1277,385.3906 L1287,385.3906 L1277,375.3906 " fill="#FEFFDD" style="stroke:#181818;stroke-width:0.5;"/><text fill="#000000" font-family="sans-serif" font-size="13" lengthAdjust="spacing" textLength="206" x="888" y="392.4575">turn number is initialized to one,</text><text fill="#000000" font-family="sans-serif" font-size="13" lengthAdjust="spacing" textLength="384" x="888" y="407.5903">first game player is defined randomly from you or opponent.</text><line style="stroke:#181818;stroke-width:1.0;" x1="877" x2="924" y1="436.7891" y2="436.7891"/><line style="stroke:#181818;stroke-width:1.0;" x1="924" x2="924" y1="436.7891" y2="449.7891"/><line style="stroke:#181818;stroke-width:1.0;" x1="883" x2="924" y1="449.7891" y2="449.7891"/><polygon fill="#181818" points="893,445.7891,883,449.7891,893,453.7891,889,449.7891" style="stroke:#181818;stroke-width:1.0;"/><text fill="#000000" font-family="sans-serif" font-size="13" lengthAdjust="spacing" textLength="195" x="889" y="431.7231">initGameTurn(gamePlayerKey)</text><line style="stroke:#181818;stroke-width:1.0;" x1="882" x2="924" y1="483.9219" y2="483.9219"/><line style="stroke:#181818;stroke-width:1.0;" x1="924" x2="924" y1="483.9219" y2="496.9219"/><line style="stroke:#181818;stroke-width:1.0;" x1="883" x2="924" y1="496.9219" y2="496.9219"/><polygon fill="#181818" points="893,492.9219,883,496.9219,893,500.9219,889,496.9219" style="stroke:#181818;stroke-width:1.0;"/><text fill="#000000" font-family="sans-serif" font-size="13" lengthAdjust="spacing" textLength="124" x="889" y="478.856">setFirstGameTurn()</text><line style="stroke:#181818;stroke-width:1.0;" x1="882" x2="924" y1="526.0547" y2="526.0547"/><line style="stroke:#181818;stroke-width:1.0;" x1="924" x2="924" y1="526.0547" y2="539.0547"/><line style="stroke:#181818;stroke-width:1.0;" x1="883" x2="924" y1="539.0547" y2="539.0547"/><polygon fill="#181818" points="893,535.0547,883,539.0547,893,543.0547,889,539.0547" style="stroke:#181818;stroke-width:1.0;"/><text fill="#000000" font-family="sans-serif" font-size="13" lengthAdjust="spacing" textLength="301" x="889" y="520.9888">initGamePlayerKeyOnTurn(firstGamePlayerKey)</text><line style="stroke:#181818;stroke-width:1.0;stroke-dasharray:2.0,2.0;" x1="882" x2="924" y1="558.0547" y2="558.0547"/><line style="stroke:#181818;stroke-width:1.0;stroke-dasharray:2.0,2.0;" x1="924" x2="924" y1="558.0547" y2="571.0547"/><line style="stroke:#181818;stroke-width:1.0;stroke-dasharray:2.0,2.0;" x1="877" x2="924" y1="571.0547" y2="571.0547"/><polygon fill="#181818" points="887,567.0547,877,571.0547,887,575.0547,883,571.0547" style="stroke:#181818;stroke-width:1.0;"/><polygon fill="#181818" points="178,576.0547,168,580.0547,178,584.0547,174,580.0547" style="stroke:#181818;stroke-width:1.0;"/><line style="stroke:#181818;stroke-width:1.0;stroke-dasharray:2.0,2.0;" x1="172" x2="871" y1="580.0547" y2="580.0547"/><polygon fill="#181818" points="702,605.1875,712,609.1875,702,613.1875,706,609.1875" style="stroke:#181818;stroke-width:1.0;"/><line style="stroke:#181818;stroke-width:1.0;" x1="167" x2="708" y1="609.1875" y2="609.1875"/><text fill="#000000" font-family="sans-serif" font-size="13" lengthAdjust="spacing" textLength="88" x="174" y="604.1216">initialize state</text><line style="stroke:#181818;stroke-width:1.0;" x1="724" x2="771" y1="633.3203" y2="633.3203"/><line style="stroke:#181818;stroke-width:1.0;" x1="771" x2="771" y1="633.3203" y2="646.3203"/><line style="stroke:#181818;stroke-width:1.0;" x1="730" x2="771" y1="646.3203" y2="646.3203"/><polygon fill="#181818" points="740,642.3203,730,646.3203,740,650.3203,736,646.3203" style="stroke:#181818;stroke-width:1.0;"/><text fill="#000000" font-family="sans-serif" font-size="13" lengthAdjust="spacing" textLength="103" x="736" y="628.2544">initGameState()</text><path d="M851,625.6875 L851,650.6875 L1116,650.6875 L1116,635.6875 L1106,625.6875 L851,625.6875 " fill="#FEFFDD" style="stroke:#181818;stroke-width:0.5;"/><path d="M1106,625.6875 L1106,635.6875 L1116,635.6875 L1106,625.6875 " fill="#FEFFDD" style="stroke:#181818;stroke-width:0.5;"/><text fill="#000000" font-family="sans-serif" font-size="13" lengthAdjust="spacing" textLength="244" x="857" y="642.7544">game-mode is initialized to 'on game'.</text><line style="stroke:#181818;stroke-width:1.0;" x1="729" x2="771" y1="685.4531" y2="685.4531"/><line style="stroke:#181818;stroke-width:1.0;" x1="771" x2="771" y1="685.4531" y2="698.4531"/><line style="stroke:#181818;stroke-width:1.0;" x1="724" x2="771" y1="698.4531" y2="698.4531"/><polygon fill="#181818" points="734,694.4531,724,698.4531,734,702.4531,730,698.4531" style="stroke:#181818;stroke-width:1.0;"/><text fill="#000000" font-family="sans-serif" font-size="13" lengthAdjust="spacing" textLength="103" x="736" y="680.3872">initGameMode()</text><line style="stroke:#181818;stroke-width:1.0;" x1="724" x2="766" y1="727.5859" y2="727.5859"/><line style="stroke:#181818;stroke-width:1.0;" x1="766" x2="766" y1="727.5859" y2="740.5859"/><line style="stroke:#181818;stroke-width:1.0;" x1="719" x2="766" y1="740.5859" y2="740.5859"/><polygon fill="#181818" points="729,736.5859,719,740.5859,729,744.5859,725,740.5859" style="stroke:#181818;stroke-width:1.0;"/><text fill="#000000" font-family="sans-serif" font-size="13" lengthAdjust="spacing" textLength="107" x="731" y="722.52">initGameResult()</text><polygon fill="#181818" points="178,745.5859,168,749.5859,178,753.5859,174,749.5859" style="stroke:#181818;stroke-width:1.0;"/><line style="stroke:#181818;stroke-width:1.0;stroke-dasharray:2.0,2.0;" x1="172" x2="718" y1="749.5859" y2="749.5859"/><line style="stroke:#181818;stroke-width:1.0;stroke-dasharray:2.0,2.0;" x1="167" x2="209" y1="783.7188" y2="783.7188"/><line style="stroke:#181818;stroke-width:1.0;stroke-dasharray:2.0,2.0;" x1="209" x2="209" y1="783.7188" y2="796.7188"/><line style="stroke:#181818;stroke-width:1.0;stroke-dasharray:2.0,2.0;" x1="162" x2="209" y1="796.7188" y2="796.7188"/><polygon fill="#181818" points="172,792.7188,162,796.7188,172,800.7188,168,796.7188" style="stroke:#181818;stroke-width:1.0;"/><text fill="#000000" font-family="sans-serif" font-size="13" lengthAdjust="spacing" textLength="68" x="174" y="778.6528">initGame()</text><polygon fill="#181818" points="57.5,801.7188,47.5,805.7188,57.5,809.7188,53.5,805.7188" style="stroke:#181818;stroke-width:1.0;"/><line style="stroke:#181818;stroke-width:1.0;stroke-dasharray:2.0,2.0;" x1="51.5" x2="156" y1="805.7188" y2="805.7188"/><!--MD5=[0a44c9787e6bc29b28d2c8ba05ec29f2]
@startuml
title Grid Select Sequence
hide footbox

Actor "Turn Player" as Player
participant "TicTacToeView" as TicTacToeView
participant "GamePlayersContext" as GamePlayers
participant "GameGridContext" as GameGrid
participant "GameStateContext" as GameState
participant "GameTurnContext" as GameTurn

Player -> TicTacToeView ++ : 

TicTacToeView -> TicTacToeView ++ : initGame()

TicTacToeView -> GameGrid ++ : initialize grids
GameGrid -> GameGrid : initGameGrids()
GameGrid - -> TicTacToeView - - :

TicTacToeView -> GamePlayers ++ : get the first game player
GamePlayers -> GamePlayers : getGamePlayerKeyRandomly()
GamePlayers - -> TicTacToeView - - : gamePlayerKey

TicTacToeView -> GameTurn ++ : initialize turn
note right
	turn number is initialized to one,
	first game player is defined randomly from you or opponent.
end note
GameTurn -> GameTurn ++ : initGameTurn(gamePlayerKey)
GameTurn -> GameTurn : setFirstGameTurn()
GameTurn -> GameTurn : initGamePlayerKeyOnTurn(firstGamePlayerKey)
GameTurn - -> GameTurn - - :
GameTurn - -> TicTacToeView - - :

TicTacToeView -> GameState ++ : initialize state
GameState -> GameState ++ : initGameState()
note right
	game-mode is initialized to 'on game'.
end note
GameState -> GameState - - : initGameMode()
GameState -> GameState - - : initGameResult()
GameState - -> TicTacToeView - - : 

TicTacToeView - -> TicTacToeView - - : initGame()
TicTacToeView - -> Player - -: 
@enduml

PlantUML version 1.2022.13(Sat Nov 19 22:22:17 JST 2022)
(GPL source distribution)
Java Runtime: OpenJDK Runtime Environment
JVM: OpenJDK 64-Bit Server VM
Default Encoding: UTF-8
Language: en
Country: US
--></g></svg>