<?xml version="1.0" encoding="UTF-8" standalone="no"?><svg xmlns="http://www.w3.org/2000/svg" xmlns:xlink="http://www.w3.org/1999/xlink" contentStyleType="text/css" height="479px" preserveAspectRatio="none" style="width:1777px;height:479px;background:#FFFFFF;" version="1.1" viewBox="0 0 1777 479" width="1777px" zoomAndPan="magnify"><defs/><g><text fill="#000000" font-family="sans-serif" font-size="14" font-weight="bold" lengthAdjust="spacing" textLength="328" x="717.5" y="23.5352">Relationship Diagram of Hooks and Contexts</text><!--MD5=[ae8439213318281d253ad18006a87dc5]
class UserRegistView--><g id="elem_UserRegistView"><rect codeLine="3" fill="#F1F1F1" height="48" id="UserRegistView" rx="2.5" ry="2.5" style="stroke:#181818;stroke-width:0.5;" width="162" x="838.5" y="44.4883"/><ellipse cx="853.5" cy="60.4883" fill="#ADD1B2" rx="11" ry="11" style="stroke:#181818;stroke-width:1.0;"/><path d="M855.9731,66.6313 Q855.3921,66.9302 854.7529,67.0796 Q854.1138,67.229 853.4082,67.229 Q850.9014,67.229 849.5815,65.5771 Q848.2617,63.9253 848.2617,60.8042 Q848.2617,57.6748 849.5815,56.0229 Q850.9014,54.3711 853.4082,54.3711 Q854.1138,54.3711 854.7612,54.5205 Q855.4087,54.6699 855.9731,54.9688 L855.9731,57.6914 Q855.3423,57.1104 854.7488,56.8406 Q854.1553,56.5708 853.5244,56.5708 Q852.1797,56.5708 851.4949,57.6375 Q850.8101,58.7041 850.8101,60.8042 Q850.8101,62.896 851.4949,63.9626 Q852.1797,65.0293 853.5244,65.0293 Q854.1553,65.0293 854.7488,64.7595 Q855.3423,64.4897 855.9731,63.9087 Z " fill="#000000"/><text fill="#000000" font-family="sans-serif" font-size="14" lengthAdjust="spacing" textLength="130" x="867.5" y="65.7793">UserRegistView.tsx</text><line style="stroke:#181818;stroke-width:0.5;" x1="839.5" x2="999.5" y1="76.4883" y2="76.4883"/><line style="stroke:#181818;stroke-width:0.5;" x1="839.5" x2="999.5" y1="84.4883" y2="84.4883"/></g><!--MD5=[9dee31518fe58d48174303dc5f2c1aec]
class TicTacToeView--><g id="elem_TicTacToeView"><rect codeLine="6" fill="#F1F1F1" height="48" id="TicTacToeView" rx="2.5" ry="2.5" style="stroke:#181818;stroke-width:0.5;" width="159" x="517" y="44.4883"/><ellipse cx="532" cy="60.4883" fill="#ADD1B2" rx="11" ry="11" style="stroke:#181818;stroke-width:1.0;"/><path d="M534.4731,66.6313 Q533.8921,66.9302 533.2529,67.0796 Q532.6138,67.229 531.9082,67.229 Q529.4014,67.229 528.0815,65.5771 Q526.7617,63.9253 526.7617,60.8042 Q526.7617,57.6748 528.0815,56.0229 Q529.4014,54.3711 531.9082,54.3711 Q532.6138,54.3711 533.2612,54.5205 Q533.9087,54.6699 534.4731,54.9688 L534.4731,57.6914 Q533.8423,57.1104 533.2488,56.8406 Q532.6553,56.5708 532.0244,56.5708 Q530.6797,56.5708 529.9949,57.6375 Q529.3101,58.7041 529.3101,60.8042 Q529.3101,62.896 529.9949,63.9626 Q530.6797,65.0293 532.0244,65.0293 Q532.6553,65.0293 533.2488,64.7595 Q533.8423,64.4897 534.4731,63.9087 Z " fill="#000000"/><text fill="#000000" font-family="sans-serif" font-size="14" lengthAdjust="spacing" textLength="127" x="546" y="65.7793">TicTacToeView.tsx</text><line style="stroke:#181818;stroke-width:0.5;" x1="518" x2="675" y1="76.4883" y2="76.4883"/><line style="stroke:#181818;stroke-width:0.5;" x1="518" x2="675" y1="84.4883" y2="84.4883"/></g><!--MD5=[fb70df6079b8c7aa6defa38ba3cf4955]
class GameGridsContext--><g id="elem_GameGridsContext"><rect codeLine="11" fill="#F1F1F1" height="48" id="GameGridsContext" rx="2.5" ry="2.5" style="stroke:#181818;stroke-width:0.5;" width="187" x="503" y="209.9883"/><ellipse cx="518" cy="225.9883" fill="#ADD1B2" rx="11" ry="11" style="stroke:#181818;stroke-width:1.0;"/><path d="M520.4731,232.1313 Q519.8921,232.4302 519.2529,232.5796 Q518.6138,232.729 517.9082,232.729 Q515.4014,232.729 514.0815,231.0771 Q512.7617,229.4253 512.7617,226.3042 Q512.7617,223.1748 514.0815,221.5229 Q515.4014,219.8711 517.9082,219.8711 Q518.6138,219.8711 519.2612,220.0205 Q519.9087,220.1699 520.4731,220.4688 L520.4731,223.1914 Q519.8423,222.6104 519.2488,222.3406 Q518.6553,222.0708 518.0244,222.0708 Q516.6797,222.0708 515.9949,223.1375 Q515.3101,224.2041 515.3101,226.3042 Q515.3101,228.396 515.9949,229.4626 Q516.6797,230.5293 518.0244,230.5293 Q518.6553,230.5293 519.2488,230.2595 Q519.8423,229.9897 520.4731,229.4087 Z " fill="#000000"/><text fill="#000000" font-family="sans-serif" font-size="14" lengthAdjust="spacing" textLength="155" x="532" y="231.2793">GameGridsContext.tsx</text><line style="stroke:#181818;stroke-width:0.5;" x1="504" x2="689" y1="241.9883" y2="241.9883"/><line style="stroke:#181818;stroke-width:0.5;" x1="504" x2="689" y1="249.9883" y2="249.9883"/></g><!--MD5=[407986f5752d98a72da282f608205af4]
class GamePlayersContext--><g id="elem_GamePlayersContext"><rect codeLine="14" fill="#F1F1F1" height="163.418" id="GamePlayersContext" rx="2.5" ry="2.5" style="stroke:#181818;stroke-width:0.5;" width="388" x="725.5" y="152.4883"/><ellipse cx="844.25" cy="168.4883" fill="#ADD1B2" rx="11" ry="11" style="stroke:#181818;stroke-width:1.0;"/><path d="M846.7231,174.6313 Q846.1421,174.9302 845.5029,175.0796 Q844.8638,175.229 844.1582,175.229 Q841.6514,175.229 840.3315,173.5771 Q839.0117,171.9253 839.0117,168.8042 Q839.0117,165.6748 840.3315,164.0229 Q841.6514,162.3711 844.1582,162.3711 Q844.8638,162.3711 845.5112,162.5205 Q846.1587,162.6699 846.7231,162.9688 L846.7231,165.6914 Q846.0923,165.1104 845.4988,164.8406 Q844.9053,164.5708 844.2744,164.5708 Q842.9297,164.5708 842.2449,165.6375 Q841.5601,166.7041 841.5601,168.8042 Q841.5601,170.896 842.2449,171.9626 Q842.9297,173.0293 844.2744,173.0293 Q844.9053,173.0293 845.4988,172.7595 Q846.0923,172.4897 846.7231,171.9087 Z " fill="#000000"/><text fill="#000000" font-family="sans-serif" font-size="14" lengthAdjust="spacing" textLength="142" x="864.75" y="173.7793">GamePlayersContext</text><line style="stroke:#181818;stroke-width:0.5;" x1="726.5" x2="1112.5" y1="184.4883" y2="184.4883"/><text fill="#000000" font-family="sans-serif" font-size="14" lengthAdjust="spacing" textLength="376" x="731.5" y="202.0234">gamePlayers: Map&lt;GamePlayerKey, GamePlayerName&gt;</text><line style="stroke:#181818;stroke-width:0.5;" x1="726.5" x2="1112.5" y1="208.9766" y2="208.9766"/><text fill="#000000" font-family="sans-serif" font-size="14" lengthAdjust="spacing" textLength="151" x="731.5" y="226.5117">getGamePlayerName()</text><text fill="#000000" font-family="sans-serif" font-size="14" lengthAdjust="spacing" textLength="104" x="731.5" y="243">getYourName()</text><text fill="#000000" font-family="sans-serif" font-size="14" lengthAdjust="spacing" textLength="140" x="731.5" y="259.4883">getOpponentName()</text><text fill="#000000" font-family="sans-serif" font-size="14" lengthAdjust="spacing" textLength="204" x="731.5" y="275.9766">getGamePlayerKeyRandomly()</text><text fill="#000000" font-family="sans-serif" font-size="14" lengthAdjust="spacing" textLength="251" x="731.5" y="292.4648">setGamePlayerNames(you, opponent</text><text fill="#000000" font-family="sans-serif" font-size="14" lengthAdjust="spacing" textLength="158" x="731.5" y="308.9531">initGamePlayerNames()</text></g><!--MD5=[271274cd3dec61aff7303e0b3e594f59]
class GameStateContext--><g id="elem_GameStateContext"><rect codeLine="24" fill="#F1F1F1" height="48" id="GameStateContext" rx="2.5" ry="2.5" style="stroke:#181818;stroke-width:0.5;" width="185" x="194" y="209.9883"/><ellipse cx="209" cy="225.9883" fill="#ADD1B2" rx="11" ry="11" style="stroke:#181818;stroke-width:1.0;"/><path d="M211.4731,232.1313 Q210.8921,232.4302 210.2529,232.5796 Q209.6138,232.729 208.9082,232.729 Q206.4014,232.729 205.0815,231.0771 Q203.7617,229.4253 203.7617,226.3042 Q203.7617,223.1748 205.0815,221.5229 Q206.4014,219.8711 208.9082,219.8711 Q209.6138,219.8711 210.2612,220.0205 Q210.9087,220.1699 211.4731,220.4688 L211.4731,223.1914 Q210.8423,222.6104 210.2488,222.3406 Q209.6553,222.0708 209.0244,222.0708 Q207.6797,222.0708 206.9949,223.1375 Q206.3101,224.2041 206.3101,226.3042 Q206.3101,228.396 206.9949,229.4626 Q207.6797,230.5293 209.0244,230.5293 Q209.6553,230.5293 210.2488,230.2595 Q210.8423,229.9897 211.4731,229.4087 Z " fill="#000000"/><text fill="#000000" font-family="sans-serif" font-size="14" lengthAdjust="spacing" textLength="153" x="223" y="231.2793">GameStateContext.tsx</text><line style="stroke:#181818;stroke-width:0.5;" x1="195" x2="378" y1="241.9883" y2="241.9883"/><line style="stroke:#181818;stroke-width:0.5;" x1="195" x2="378" y1="249.9883" y2="249.9883"/></g><!--MD5=[99e5bccf41373de8b1fea0e7e19d690b]
class GameTurnContext--><g id="elem_GameTurnContext"><rect codeLine="27" fill="#F1F1F1" height="48" id="GameTurnContext" rx="2.5" ry="2.5" style="stroke:#181818;stroke-width:0.5;" width="184" x="1244.5" y="209.9883"/><ellipse cx="1259.5" cy="225.9883" fill="#ADD1B2" rx="11" ry="11" style="stroke:#181818;stroke-width:1.0;"/><path d="M1261.9731,232.1313 Q1261.3921,232.4302 1260.7529,232.5796 Q1260.1138,232.729 1259.4082,232.729 Q1256.9014,232.729 1255.5815,231.0771 Q1254.2617,229.4253 1254.2617,226.3042 Q1254.2617,223.1748 1255.5815,221.5229 Q1256.9014,219.8711 1259.4082,219.8711 Q1260.1138,219.8711 1260.7612,220.0205 Q1261.4087,220.1699 1261.9731,220.4688 L1261.9731,223.1914 Q1261.3423,222.6104 1260.7488,222.3406 Q1260.1553,222.0708 1259.5244,222.0708 Q1258.1797,222.0708 1257.4949,223.1375 Q1256.8101,224.2041 1256.8101,226.3042 Q1256.8101,228.396 1257.4949,229.4626 Q1258.1797,230.5293 1259.5244,230.5293 Q1260.1553,230.5293 1260.7488,230.2595 Q1261.3423,229.9897 1261.9731,229.4087 Z " fill="#000000"/><text fill="#000000" font-family="sans-serif" font-size="14" lengthAdjust="spacing" textLength="152" x="1273.5" y="231.2793">GameTurnContext.tsx</text><line style="stroke:#181818;stroke-width:0.5;" x1="1245.5" x2="1427.5" y1="241.9883" y2="241.9883"/><line style="stroke:#181818;stroke-width:0.5;" x1="1245.5" x2="1427.5" y1="249.9883" y2="249.9883"/></g><!--MD5=[45766bac5053e7b4f64dc163870b212a]
class useConstants--><g id="elem_useConstants"><rect codeLine="31" fill="#F1F1F1" height="48" id="useConstants" rx="2.5" ry="2.5" style="stroke:#181818;stroke-width:0.5;" width="141" x="379" y="399.9883"/><ellipse cx="394" cy="415.9883" fill="#ADD1B2" rx="11" ry="11" style="stroke:#181818;stroke-width:1.0;"/><path d="M396.4731,422.1313 Q395.8921,422.4302 395.2529,422.5796 Q394.6138,422.729 393.9082,422.729 Q391.4014,422.729 390.0815,421.0771 Q388.7617,419.4253 388.7617,416.3042 Q388.7617,413.1748 390.0815,411.5229 Q391.4014,409.8711 393.9082,409.8711 Q394.6138,409.8711 395.2612,410.0205 Q395.9087,410.1699 396.4731,410.4688 L396.4731,413.1914 Q395.8423,412.6104 395.2488,412.3406 Q394.6553,412.0708 394.0244,412.0708 Q392.6797,412.0708 391.9949,413.1375 Q391.3101,414.2041 391.3101,416.3042 Q391.3101,418.396 391.9949,419.4626 Q392.6797,420.5293 394.0244,420.5293 Q394.6553,420.5293 395.2488,420.2595 Q395.8423,419.9897 396.4731,419.4087 Z " fill="#000000"/><text fill="#000000" font-family="sans-serif" font-size="14" lengthAdjust="spacing" textLength="109" x="408" y="421.2793">useConstants.ts</text><line style="stroke:#181818;stroke-width:0.5;" x1="380" x2="519" y1="431.9883" y2="431.9883"/><line style="stroke:#181818;stroke-width:0.5;" x1="380" x2="519" y1="439.9883" y2="439.9883"/></g><!--MD5=[459c93c415d6d7f0f4fefb92fe317108]
class useGameGrids--><g id="elem_useGameGrids"><rect codeLine="33" fill="#F1F1F1" height="48" id="useGameGrids" rx="2.5" ry="2.5" style="stroke:#181818;stroke-width:0.5;" width="147" x="555" y="399.9883"/><ellipse cx="570" cy="415.9883" fill="#ADD1B2" rx="11" ry="11" style="stroke:#181818;stroke-width:1.0;"/><path d="M572.4731,422.1313 Q571.8921,422.4302 571.2529,422.5796 Q570.6138,422.729 569.9082,422.729 Q567.4014,422.729 566.0815,421.0771 Q564.7617,419.4253 564.7617,416.3042 Q564.7617,413.1748 566.0815,411.5229 Q567.4014,409.8711 569.9082,409.8711 Q570.6138,409.8711 571.2612,410.0205 Q571.9087,410.1699 572.4731,410.4688 L572.4731,413.1914 Q571.8423,412.6104 571.2488,412.3406 Q570.6553,412.0708 570.0244,412.0708 Q568.6797,412.0708 567.9949,413.1375 Q567.3101,414.2041 567.3101,416.3042 Q567.3101,418.396 567.9949,419.4626 Q568.6797,420.5293 570.0244,420.5293 Q570.6553,420.5293 571.2488,420.2595 Q571.8423,419.9897 572.4731,419.4087 Z " fill="#000000"/><text fill="#000000" font-family="sans-serif" font-size="14" lengthAdjust="spacing" textLength="115" x="584" y="421.2793">useGameGrids.ts</text><line style="stroke:#181818;stroke-width:0.5;" x1="556" x2="701" y1="431.9883" y2="431.9883"/><line style="stroke:#181818;stroke-width:0.5;" x1="556" x2="701" y1="439.9883" y2="439.9883"/></g><!--MD5=[3bc5ff66e1a85a21f345313a9f77016d]
class useGamePlayers--><g id="elem_useGamePlayers"><rect codeLine="35" fill="#F1F1F1" height="97.4648" id="useGamePlayers" rx="2.5" ry="2.5" style="stroke:#181818;stroke-width:0.5;" width="589" x="737" y="375.4883"/><ellipse cx="963.75" cy="391.4883" fill="#ADD1B2" rx="11" ry="11" style="stroke:#181818;stroke-width:1.0;"/><path d="M966.2231,397.6313 Q965.6421,397.9302 965.0029,398.0796 Q964.3638,398.229 963.6582,398.229 Q961.1514,398.229 959.8315,396.5771 Q958.5117,394.9253 958.5117,391.8042 Q958.5117,388.6748 959.8315,387.0229 Q961.1514,385.3711 963.6582,385.3711 Q964.3638,385.3711 965.0112,385.5205 Q965.6587,385.6699 966.2231,385.9688 L966.2231,388.6914 Q965.5923,388.1104 964.9988,387.8406 Q964.4053,387.5708 963.7744,387.5708 Q962.4297,387.5708 961.7449,388.6375 Q961.0601,389.7041 961.0601,391.8042 Q961.0601,393.896 961.7449,394.9626 Q962.4297,396.0293 963.7744,396.0293 Q964.4053,396.0293 964.9988,395.7595 Q965.5923,395.4897 966.2231,394.9087 Z " fill="#000000"/><text fill="#000000" font-family="sans-serif" font-size="14" lengthAdjust="spacing" textLength="127" x="984.25" y="396.7793">useGamePlayers.ts</text><line style="stroke:#181818;stroke-width:0.5;" x1="738" x2="1325" y1="407.4883" y2="407.4883"/><text fill="#000000" font-family="sans-serif" font-size="14" lengthAdjust="spacing" textLength="376" x="743" y="425.0234">gamePlayers: Map&lt;GamePlayerKey, GamePlayerName&gt;</text><line style="stroke:#181818;stroke-width:0.5;" x1="738" x2="1325" y1="431.9766" y2="431.9766"/><text fill="#000000" font-family="sans-serif" font-size="14" lengthAdjust="spacing" textLength="308" x="743" y="449.5117">getGamePlayerName: () =&gt; GamePlayerName</text><text fill="#000000" font-family="sans-serif" font-size="14" lengthAdjust="spacing" textLength="577" x="743" y="466">setGamePlayerNames: (you: GamePlayerName, opponent: GamePlayerName) =&gt; void</text></g><!--MD5=[25ce75281466841eb35daa014b3cff59]
class useGameMode--><g id="elem_useGameMode"><rect codeLine="41" fill="#F1F1F1" height="48" id="useGameMode" rx="2.5" ry="2.5" style="stroke:#181818;stroke-width:0.5;" width="149" x="195" y="399.9883"/><ellipse cx="210" cy="415.9883" fill="#ADD1B2" rx="11" ry="11" style="stroke:#181818;stroke-width:1.0;"/><path d="M212.4731,422.1313 Q211.8921,422.4302 211.2529,422.5796 Q210.6138,422.729 209.9082,422.729 Q207.4014,422.729 206.0815,421.0771 Q204.7617,419.4253 204.7617,416.3042 Q204.7617,413.1748 206.0815,411.5229 Q207.4014,409.8711 209.9082,409.8711 Q210.6138,409.8711 211.2612,410.0205 Q211.9087,410.1699 212.4731,410.4688 L212.4731,413.1914 Q211.8423,412.6104 211.2488,412.3406 Q210.6553,412.0708 210.0244,412.0708 Q208.6797,412.0708 207.9949,413.1375 Q207.3101,414.2041 207.3101,416.3042 Q207.3101,418.396 207.9949,419.4626 Q208.6797,420.5293 210.0244,420.5293 Q210.6553,420.5293 211.2488,420.2595 Q211.8423,419.9897 212.4731,419.4087 Z " fill="#000000"/><text fill="#000000" font-family="sans-serif" font-size="14" lengthAdjust="spacing" textLength="117" x="224" y="421.2793">useGameMode.ts</text><line style="stroke:#181818;stroke-width:0.5;" x1="196" x2="343" y1="431.9883" y2="431.9883"/><line style="stroke:#181818;stroke-width:0.5;" x1="196" x2="343" y1="439.9883" y2="439.9883"/></g><!--MD5=[3a23a806d3b93c292a3ae7d3e5f8701c]
class useGameResult--><g id="elem_useGameResult"><rect codeLine="42" fill="#F1F1F1" height="48" id="useGameResult" rx="2.5" ry="2.5" style="stroke:#181818;stroke-width:0.5;" width="153" x="7" y="399.9883"/><ellipse cx="22" cy="415.9883" fill="#ADD1B2" rx="11" ry="11" style="stroke:#181818;stroke-width:1.0;"/><path d="M24.4731,422.1313 Q23.8921,422.4302 23.2529,422.5796 Q22.6138,422.729 21.9082,422.729 Q19.4014,422.729 18.0815,421.0771 Q16.7617,419.4253 16.7617,416.3042 Q16.7617,413.1748 18.0815,411.5229 Q19.4014,409.8711 21.9082,409.8711 Q22.6138,409.8711 23.2612,410.0205 Q23.9087,410.1699 24.4731,410.4688 L24.4731,413.1914 Q23.8423,412.6104 23.2488,412.3406 Q22.6553,412.0708 22.0244,412.0708 Q20.6797,412.0708 19.9949,413.1375 Q19.3101,414.2041 19.3101,416.3042 Q19.3101,418.396 19.9949,419.4626 Q20.6797,420.5293 22.0244,420.5293 Q22.6553,420.5293 23.2488,420.2595 Q23.8423,419.9897 24.4731,419.4087 Z " fill="#000000"/><text fill="#000000" font-family="sans-serif" font-size="14" lengthAdjust="spacing" textLength="121" x="36" y="421.2793">useGameResult.ts</text><line style="stroke:#181818;stroke-width:0.5;" x1="8" x2="159" y1="431.9883" y2="431.9883"/><line style="stroke:#181818;stroke-width:0.5;" x1="8" x2="159" y1="439.9883" y2="439.9883"/></g><!--MD5=[78a636ae5a25bfaa2a4b382c5530d5c2]
class useGameTurn--><g id="elem_useGameTurn"><rect codeLine="43" fill="#F1F1F1" height="48" id="useGameTurn" rx="2.5" ry="2.5" style="stroke:#181818;stroke-width:0.5;" width="144" x="1361.5" y="399.9883"/><ellipse cx="1376.5" cy="415.9883" fill="#ADD1B2" rx="11" ry="11" style="stroke:#181818;stroke-width:1.0;"/><path d="M1378.9731,422.1313 Q1378.3921,422.4302 1377.7529,422.5796 Q1377.1138,422.729 1376.4082,422.729 Q1373.9014,422.729 1372.5815,421.0771 Q1371.2617,419.4253 1371.2617,416.3042 Q1371.2617,413.1748 1372.5815,411.5229 Q1373.9014,409.8711 1376.4082,409.8711 Q1377.1138,409.8711 1377.7612,410.0205 Q1378.4087,410.1699 1378.9731,410.4688 L1378.9731,413.1914 Q1378.3423,412.6104 1377.7488,412.3406 Q1377.1553,412.0708 1376.5244,412.0708 Q1375.1797,412.0708 1374.4949,413.1375 Q1373.8101,414.2041 1373.8101,416.3042 Q1373.8101,418.396 1374.4949,419.4626 Q1375.1797,420.5293 1376.5244,420.5293 Q1377.1553,420.5293 1377.7488,420.2595 Q1378.3423,419.9897 1378.9731,419.4087 Z " fill="#000000"/><text fill="#000000" font-family="sans-serif" font-size="14" lengthAdjust="spacing" textLength="112" x="1390.5" y="421.2793">useGameTurn.ts</text><line style="stroke:#181818;stroke-width:0.5;" x1="1362.5" x2="1504.5" y1="431.9883" y2="431.9883"/><line style="stroke:#181818;stroke-width:0.5;" x1="1362.5" x2="1504.5" y1="439.9883" y2="439.9883"/></g><!--MD5=[b011b5ae82fbcca0852cbb113df240ef]
class useGamePlayerKeyOnTurn--><g id="elem_useGamePlayerKeyOnTurn"><rect codeLine="44" fill="#F1F1F1" height="48" id="useGamePlayerKeyOnTurn" rx="2.5" ry="2.5" style="stroke:#181818;stroke-width:0.5;" width="229" x="1541" y="399.9883"/><ellipse cx="1556" cy="415.9883" fill="#ADD1B2" rx="11" ry="11" style="stroke:#181818;stroke-width:1.0;"/><path d="M1558.4731,422.1313 Q1557.8921,422.4302 1557.2529,422.5796 Q1556.6138,422.729 1555.9082,422.729 Q1553.4014,422.729 1552.0815,421.0771 Q1550.7617,419.4253 1550.7617,416.3042 Q1550.7617,413.1748 1552.0815,411.5229 Q1553.4014,409.8711 1555.9082,409.8711 Q1556.6138,409.8711 1557.2612,410.0205 Q1557.9087,410.1699 1558.4731,410.4688 L1558.4731,413.1914 Q1557.8423,412.6104 1557.2488,412.3406 Q1556.6553,412.0708 1556.0244,412.0708 Q1554.6797,412.0708 1553.9949,413.1375 Q1553.3101,414.2041 1553.3101,416.3042 Q1553.3101,418.396 1553.9949,419.4626 Q1554.6797,420.5293 1556.0244,420.5293 Q1556.6553,420.5293 1557.2488,420.2595 Q1557.8423,419.9897 1558.4731,419.4087 Z " fill="#000000"/><text fill="#000000" font-family="sans-serif" font-size="14" lengthAdjust="spacing" textLength="197" x="1570" y="421.2793">useGamePlayerKeyOnTurn.ts</text><line style="stroke:#181818;stroke-width:0.5;" x1="1542" x2="1769" y1="431.9883" y2="431.9883"/><line style="stroke:#181818;stroke-width:0.5;" x1="1542" x2="1769" y1="439.9883" y2="439.9883"/></g><!--MD5=[174337d06a678160a2cfdeed01de7721]
reverse link UserRegistView to GamePlayersContext--><g id="link_UserRegistView_GamePlayersContext"><path codeLine="46" d="M919.5,99.0783 C919.5,114.0583 919.5,133.0583 919.5,151.9983 " fill="none" id="UserRegistView-backto-GamePlayersContext" style="stroke:#181818;stroke-width:1.0;stroke-dasharray:7.0,7.0;"/><polygon fill="#181818" points="919.5,94.4283,915.5,103.4283,919.5,99.4283,923.5,103.4283,919.5,94.4283" style="stroke:#181818;stroke-width:1.0;"/></g><!--MD5=[f02dd5a5d7dd589288d2d6806a227b88]
reverse link TicTacToeView to GameGridsContext--><g id="link_TicTacToeView_GameGridsContext"><path codeLine="47" d="M596.5,99.3983 C596.5,131.1383 596.5,180.6083 596.5,209.6083 " fill="none" id="TicTacToeView-backto-GameGridsContext" style="stroke:#181818;stroke-width:1.0;stroke-dasharray:7.0,7.0;"/><polygon fill="#181818" points="596.5,94.4283,592.5,103.4283,596.5,99.4283,600.5,103.4283,596.5,94.4283" style="stroke:#181818;stroke-width:1.0;"/></g><!--MD5=[14c9ed68bc88abbb860ec41f84bed8eb]
reverse link TicTacToeView to GamePlayersContext--><g id="link_TicTacToeView_GamePlayersContext"><path codeLine="48" d="M648.36,95.7383 C678.86,111.1783 719.24,131.6183 759.5,151.9983 " fill="none" id="TicTacToeView-backto-GamePlayersContext" style="stroke:#181818;stroke-width:1.0;stroke-dasharray:7.0,7.0;"/><polygon fill="#181818" points="644.13,93.5983,650.352,101.2328,648.5906,95.8572,653.9663,94.0958,644.13,93.5983" style="stroke:#181818;stroke-width:1.0;"/></g><!--MD5=[4cd321331402e874aa2a24daa0975c80]
reverse link TicTacToeView to GameStateContext--><g id="link_TicTacToeView_GameStateContext"><path codeLine="49" d="M539.05,95.5783 C505.09,111.3583 461.44,132.2883 423.5,152.4883 C389.41,170.6383 351.63,193.0183 324.4,209.5583 " fill="none" id="TicTacToeView-backto-GameStateContext" style="stroke:#181818;stroke-width:1.0;stroke-dasharray:7.0,7.0;"/><polygon fill="#181818" points="543.47,93.5283,533.6222,93.6739,538.9315,95.6263,536.979,100.9355,543.47,93.5283" style="stroke:#181818;stroke-width:1.0;"/></g><!--MD5=[458d4672a17c73c009c1039fc981c788]
reverse link TicTacToeView to GameTurnContext--><g id="link_TicTacToeView_GameTurnContext"><path codeLine="50" d="M682.61,77.0283 C789.17,87.6983 975.51,110.6983 1130.5,152.4883 C1185,167.1783 1244.83,191.5483 1285.91,209.6283 " fill="none" id="TicTacToeView-backto-GameTurnContext" style="stroke:#181818;stroke-width:1.0;stroke-dasharray:7.0,7.0;"/><polygon fill="#181818" points="677.85,76.5583,686.4059,81.4364,682.825,77.0572,687.2042,73.4763,677.85,76.5583" style="stroke:#181818;stroke-width:1.0;"/></g><!--MD5=[dc240c15edcce5978054aee51e126020]
reverse link TicTacToeView to useConstants--><g id="link_TicTacToeView_useConstants"><path codeLine="51" d="M544.13,96.3183 C522.47,110.1383 499.25,129.0483 485.5,152.4883 C438.16,233.1983 442.44,350.3683 446.86,399.7083 " fill="none" id="TicTacToeView-backto-useConstants" style="stroke:#181818;stroke-width:1.0;stroke-dasharray:7.0,7.0;"/><polygon fill="#181818" points="548.31,93.7183,538.5559,95.0815,544.066,96.3619,542.7857,101.8719,548.31,93.7183" style="stroke:#181818;stroke-width:1.0;"/></g><!--MD5=[e5066b5d666859bee8b6d69b098c8cec]
reverse link GameGridsContext to useConstants--><g id="link_GameGridsContext_useConstants"><path codeLine="53" d="M574.4,263.2483 C545.35,300.3983 494.85,364.9883 467.82,399.5583 " fill="none" id="GameGridsContext-backto-useConstants" style="stroke:#181818;stroke-width:1.0;stroke-dasharray:7.0,7.0;"/><polygon fill="#181818" points="577.25,259.6083,568.5532,264.2306,574.1685,263.5458,574.8532,269.1611,577.25,259.6083" style="stroke:#181818;stroke-width:1.0;"/></g><!--MD5=[a1f66c080045af8a70bc3ab64340083b]
reverse link GameGridsContext to useGameGrids--><g id="link_GameGridsContext_useGameGrids"><path codeLine="54" d="M601.55,264.6283 C607.9,301.9783 618.7,365.4083 624.51,399.5583 " fill="none" id="GameGridsContext-backto-useGameGrids" style="stroke:#181818;stroke-width:1.0;stroke-dasharray:7.0,7.0;"/><polygon fill="#181818" points="600.74,259.9083,598.3143,269.4538,601.5828,264.8367,606.1999,268.1052,600.74,259.9083" style="stroke:#181818;stroke-width:1.0;"/></g><!--MD5=[7a3c80ba6279f3c46be02023be9bcbb0]
reverse link GamePlayersContext to useConstants--><g id="link_GamePlayersContext_useConstants"><path codeLine="56" d="M719.34,311.1383 C715.36,312.6083 711.41,314.0583 707.5,315.4883 C632.26,343.0483 610.75,343.0283 537.5,375.4883 C521.47,382.5883 504.39,391.4883 489.58,399.6483 " fill="none" id="GamePlayersContext-backto-useConstants" style="stroke:#181818;stroke-width:1.0;stroke-dasharray:7.0,7.0;"/><polygon fill="#181818" points="723.77,309.4983,713.9425,308.8507,719.0773,311.2242,716.7039,316.359,723.77,309.4983" style="stroke:#181818;stroke-width:1.0;"/></g><!--MD5=[050668626466de976c14fb648cf88e3b]
reverse link GamePlayersContext to useGamePlayers--><g id="link_GamePlayersContext_useGamePlayers"><path codeLine="57" d="M970.76,321.0283 C981.82,339.6083 993.14,358.5883 1002.95,375.0683 " fill="none" id="GamePlayersContext-backto-useGamePlayers" style="stroke:#181818;stroke-width:1.0;stroke-dasharray:7.0,7.0;"/><polygon fill="#181818" points="968.42,317.1083,969.5822,326.8883,970.9757,321.4058,976.4582,322.7993,968.42,317.1083" style="stroke:#181818;stroke-width:1.0;"/></g><!--MD5=[03c53a3867f4f059d2e6201bb47d3a2a]
reverse link GameStateContext to useConstants--><g id="link_GameStateContext_useConstants"><path codeLine="59" d="M311,263.2483 C343.22,300.3983 399.21,364.9883 429.19,399.5583 " fill="none" id="GameStateContext-backto-useConstants" style="stroke:#181818;stroke-width:1.0;stroke-dasharray:7.0,7.0;"/><polygon fill="#181818" points="307.81,259.5583,310.6857,268.978,311.0863,263.3353,316.7289,263.7359,307.81,259.5583" style="stroke:#181818;stroke-width:1.0;"/></g><!--MD5=[ac371e7f51464c8e45158f980fdf5f3d]
reverse link GameStateContext to useGameMode--><g id="link_GameStateContext_useGameMode"><path codeLine="60" d="M283.82,264.6283 C280.44,301.9783 274.71,365.4083 271.62,399.5583 " fill="none" id="GameStateContext-backto-useGameMode" style="stroke:#181818;stroke-width:1.0;stroke-dasharray:7.0,7.0;"/><polygon fill="#181818" points="284.24,259.9283,279.4594,268.5391,283.7976,264.9087,287.428,269.2469,284.24,259.9283" style="stroke:#181818;stroke-width:1.0;"/></g><!--MD5=[4e1d77a966a791b0c48cbd015e3bb9d6]
reverse link GameStateContext to useGameResult--><g id="link_GameStateContext_useGameResult"><path codeLine="61" d="M256.47,262.7983 C216.44,299.8783 146.28,364.8483 108.8,399.5583 " fill="none" id="GameStateContext-backto-useGameResult" style="stroke:#181818;stroke-width:1.0;stroke-dasharray:7.0,7.0;"/><polygon fill="#181818" points="260.09,259.4483,250.7688,262.6286,256.4215,262.8456,256.2045,268.4983,260.09,259.4483" style="stroke:#181818;stroke-width:1.0;"/></g><!--MD5=[35474c8f76436187ff0ed171c4228f6a]
reverse link GameTurnContext to useGamePlayers--><g id="link_GameTurnContext_useGamePlayers"><path codeLine="63" d="M1293.1,261.7383 C1245.36,291.1683 1167.68,339.0483 1109.34,375.0083 " fill="none" id="GameTurnContext-backto-useGamePlayers" style="stroke:#181818;stroke-width:1.0;stroke-dasharray:7.0,7.0;"/><polygon fill="#181818" points="1297.2,259.2083,1287.4375,260.5094,1292.9393,261.8248,1291.6239,267.3266,1297.2,259.2083" style="stroke:#181818;stroke-width:1.0;"/></g><!--MD5=[e7f648dc2ea7f5f29a01f41293c72613]
reverse link GameTurnContext to useGameTurn--><g id="link_GameTurnContext_useGameTurn"><path codeLine="64" d="M1351.55,264.1683 C1370.79,301.4583 1403.72,365.2683 1421.41,399.5583 " fill="none" id="GameTurnContext-backto-useGameTurn" style="stroke:#181818;stroke-width:1.0;stroke-dasharray:7.0,7.0;"/><polygon fill="#181818" points="1349.28,259.7683,1349.8404,269.6012,1351.5674,264.2144,1356.9542,265.9414,1349.28,259.7683" style="stroke:#181818;stroke-width:1.0;"/></g><!--MD5=[1520de90ea4bc549fe0238cd487176af]
reverse link GameTurnContext to useGamePlayerKeyOnTurn--><g id="link_GameTurnContext_useGamePlayerKeyOnTurn"><path codeLine="65" d="M1381.78,261.6783 C1444.35,298.5483 1556.25,364.4983 1615.74,399.5583 " fill="none" id="GameTurnContext-backto-useGamePlayerKeyOnTurn" style="stroke:#181818;stroke-width:1.0;stroke-dasharray:7.0,7.0;"/><polygon fill="#181818" points="1377.56,259.1883,1383.2824,267.2042,1381.8675,261.7271,1387.3445,260.3122,1377.56,259.1883" style="stroke:#181818;stroke-width:1.0;"/></g><!--MD5=[a4c9d58171a16f8f03336fe906afb656]
@startuml
title Relationship Diagram of Hooks and Contexts

class "UserRegistView.tsx" as UserRegistView {

}
class "TicTacToeView.tsx" as TicTacToeView {

}


class "GameGridsContext.tsx" as GameGridsContext {
}

class "GamePlayersContext" as GamePlayersContext {
      gamePlayers: Map<GamePlayerKey, GamePlayerName>
      getGamePlayerName()
      getYourName()
      getOpponentName()
      getGamePlayerKeyRandomly()
      setGamePlayerNames(you, opponent
      initGamePlayerNames()
}

class "GameStateContext.tsx" as GameStateContext {
}

class "GameTurnContext.tsx" as GameTurnContext {
}


class "useConstants.ts" as useConstants {}

class "useGameGrids.ts" as useGameGrids {}

class "useGamePlayers.ts" as useGamePlayers {
      gamePlayers: Map<GamePlayerKey, GamePlayerName>
      getGamePlayerName: () => GamePlayerName
      setGamePlayerNames: (you: GamePlayerName, opponent: GamePlayerName) => void
}

class "useGameMode.ts" as useGameMode {}
class "useGameResult.ts" as useGameResult {}
class "useGameTurn.ts" as useGameTurn {}
class "useGamePlayerKeyOnTurn.ts" as useGamePlayerKeyOnTurn {}

UserRegistView <.. GamePlayersContext
TicTacToeView <.. GameGridsContext
TicTacToeView <.. GamePlayersContext
TicTacToeView <.. GameStateContext
TicTacToeView <.. GameTurnContext
TicTacToeView <.. useConstants

GameGridsContext <.. useConstants
GameGridsContext <.. useGameGrids

GamePlayersContext <.. useConstants
GamePlayersContext <.. useGamePlayers

GameStateContext <.. useConstants
GameStateContext <.. useGameMode
GameStateContext <.. useGameResult

GameTurnContext <.. useGamePlayers
GameTurnContext <.. useGameTurn
GameTurnContext <.. useGamePlayerKeyOnTurn

@enduml	   

PlantUML version 1.2022.13(Sat Nov 19 22:22:17 JST 2022)
(GPL source distribution)
Java Runtime: OpenJDK Runtime Environment
JVM: OpenJDK 64-Bit Server VM
Default Encoding: UTF-8
Language: ja
Country: JP
--></g></svg>