<?xml version="1.0" encoding="UTF-8" standalone="no"?><svg xmlns="http://www.w3.org/2000/svg" xmlns:xlink="http://www.w3.org/1999/xlink" contentStyleType="text/css" height="985px" preserveAspectRatio="none" style="width:1371px;height:985px;background:#FFFFFF;" version="1.1" viewBox="0 0 1371 985" width="1371px" zoomAndPan="magnify"><defs/><g><text fill="#000000" font-family="sans-serif" font-size="14" font-weight="bold" lengthAdjust="spacing" textLength="148" x="607.5" y="28.5352">Grid Select Sequence</text><rect fill="#FFFFFF" height="810.1426" style="stroke:#181818;stroke-width:1.0;" width="10" x="191" y="150.2871"/><rect fill="#FFFFFF" height="29.3105" style="stroke:#181818;stroke-width:1.0;" width="10" x="530" y="325.8398"/><rect fill="#FFFFFF" height="71.6211" style="stroke:#181818;stroke-width:1.0;" width="10" x="530" y="393.4609"/><rect fill="#FFFFFF" height="14" style="stroke:#181818;stroke-width:1.0;" width="10" x="530" y="530.7031"/><rect fill="#FFFFFF" height="32.3105" style="stroke:#181818;stroke-width:1.0;" width="10" x="530" y="601.3242"/><rect fill="#FFFFFF" height="32.3105" style="stroke:#181818;stroke-width:1.0;" width="10" x="530" y="769.877"/><rect fill="#FFFFFF" height="71.6211" style="stroke:#181818;stroke-width:1.0;" width="10" x="832" y="188.5977"/><rect fill="#FFFFFF" height="14" style="stroke:#181818;stroke-width:1.0;" width="10" x="832" y="662.9453"/><rect fill="#FFFFFF" height="14" style="stroke:#181818;stroke-width:1.0;" width="10" x="832" y="831.498"/><rect fill="#FFFFFF" height="24.6553" style="stroke:#181818;stroke-width:1.0;" width="10" x="1060" y="921.7744"/><rect fill="none" height="132.2422" style="stroke:#000000;stroke-width:1.5;" width="1055" x="10" y="165.2871"/><rect fill="none" height="132.2422" style="stroke:#000000;stroke-width:1.5;" width="827" x="10" y="370.1504"/><rect fill="none" height="154.5527" style="stroke:#000000;stroke-width:1.5;" width="992" x="10" y="559.7031"/><rect fill="none" height="154.5527" style="stroke:#000000;stroke-width:1.5;" width="908" x="10" y="728.2559"/><line style="stroke:#181818;stroke-width:0.5;stroke-dasharray:5.0,5.0;" x1="62" x2="62" y1="118.9766" y2="978.4297"/><line style="stroke:#181818;stroke-width:0.5;stroke-dasharray:5.0,5.0;" x1="196" x2="196" y1="118.9766" y2="978.4297"/><line style="stroke:#181818;stroke-width:0.5;stroke-dasharray:5.0,5.0;" x1="534.5" x2="534.5" y1="118.9766" y2="978.4297"/><line style="stroke:#181818;stroke-width:0.5;stroke-dasharray:5.0,5.0;" x1="837" x2="837" y1="118.9766" y2="978.4297"/><line style="stroke:#181818;stroke-width:0.5;stroke-dasharray:5.0,5.0;" x1="1064.5" x2="1064.5" y1="118.9766" y2="978.4297"/><text fill="#000000" font-family="sans-serif" font-size="14" lengthAdjust="spacing" textLength="78" x="20" y="116.0234">Turn Player</text><ellipse cx="62" cy="50.9883" fill="#E2E2F0" rx="8" ry="8" style="stroke:#181818;stroke-width:0.5;"/><path d="M62,58.9883 L62,85.9883 M49,66.9883 L75,66.9883 M62,85.9883 L49,100.9883 M62,85.9883 L75,100.9883 " fill="none" style="stroke:#181818;stroke-width:0.5;"/><rect fill="#E2E2F0" height="30.4883" rx="2.5" ry="2.5" style="stroke:#181818;stroke-width:0.5;" width="116" x="138" y="87.4883"/><text fill="#000000" font-family="sans-serif" font-size="14" lengthAdjust="spacing" textLength="102" x="145" y="108.0234">TicTacToeView</text><rect fill="#E2E2F0" height="30.4883" rx="2.5" ry="2.5" style="stroke:#181818;stroke-width:0.5;" width="137" x="466.5" y="87.4883"/><text fill="#000000" font-family="sans-serif" font-size="14" lengthAdjust="spacing" textLength="123" x="473.5" y="108.0234">GameGridContext</text><rect fill="#E2E2F0" height="30.4883" rx="2.5" ry="2.5" style="stroke:#181818;stroke-width:0.5;" width="142" x="766" y="87.4883"/><text fill="#000000" font-family="sans-serif" font-size="14" lengthAdjust="spacing" textLength="128" x="773" y="108.0234">GameStateContext</text><rect fill="#E2E2F0" height="30.4883" rx="2.5" ry="2.5" style="stroke:#181818;stroke-width:0.5;" width="141" x="994.5" y="87.4883"/><text fill="#000000" font-family="sans-serif" font-size="14" lengthAdjust="spacing" textLength="127" x="1001.5" y="108.0234">GameTurnContext</text><rect fill="#FFFFFF" height="810.1426" style="stroke:#181818;stroke-width:1.0;" width="10" x="191" y="150.2871"/><rect fill="#FFFFFF" height="29.3105" style="stroke:#181818;stroke-width:1.0;" width="10" x="530" y="325.8398"/><rect fill="#FFFFFF" height="71.6211" style="stroke:#181818;stroke-width:1.0;" width="10" x="530" y="393.4609"/><rect fill="#FFFFFF" height="14" style="stroke:#181818;stroke-width:1.0;" width="10" x="530" y="530.7031"/><rect fill="#FFFFFF" height="32.3105" style="stroke:#181818;stroke-width:1.0;" width="10" x="530" y="601.3242"/><rect fill="#FFFFFF" height="32.3105" style="stroke:#181818;stroke-width:1.0;" width="10" x="530" y="769.877"/><rect fill="#FFFFFF" height="71.6211" style="stroke:#181818;stroke-width:1.0;" width="10" x="832" y="188.5977"/><rect fill="#FFFFFF" height="14" style="stroke:#181818;stroke-width:1.0;" width="10" x="832" y="662.9453"/><rect fill="#FFFFFF" height="14" style="stroke:#181818;stroke-width:1.0;" width="10" x="832" y="831.498"/><rect fill="#FFFFFF" height="24.6553" style="stroke:#181818;stroke-width:1.0;" width="10" x="1060" y="921.7744"/><polygon fill="#181818" points="179,146.2871,189,150.2871,179,154.2871,183,150.2871" style="stroke:#181818;stroke-width:1.0;"/><line style="stroke:#181818;stroke-width:1.0;" x1="62" x2="185" y1="150.2871" y2="150.2871"/><text fill="#000000" font-family="sans-serif" font-size="13" lengthAdjust="spacing" textLength="110" x="69" y="145.5449">selectGameGrid( )</text><path d="M10,165.2871 L77,165.2871 L77,172.5977 L67,182.5977 L10,182.5977 L10,165.2871 " fill="#EEEEEE" style="stroke:#000000;stroke-width:1.5;"/><rect fill="none" height="132.2422" style="stroke:#000000;stroke-width:1.5;" width="1055" x="10" y="165.2871"/><text fill="#000000" font-family="sans-serif" font-size="13" font-weight="bold" lengthAdjust="spacing" textLength="22" x="25" y="178.8555">opt</text><text fill="#000000" font-family="sans-serif" font-size="11" font-weight="bold" lengthAdjust="spacing" textLength="159" x="92" y="177.9219">[when game is not on game]</text><polygon fill="#181818" points="820,184.5977,830,188.5977,820,192.5977,824,188.5977" style="stroke:#181818;stroke-width:1.0;"/><line style="stroke:#181818;stroke-width:1.0;" x1="201" x2="826" y1="188.5977" y2="188.5977"/><line style="stroke:#181818;stroke-width:1.0;" x1="842" x2="884" y1="217.9082" y2="217.9082"/><line style="stroke:#181818;stroke-width:1.0;" x1="884" x2="884" y1="217.9082" y2="230.9082"/><line style="stroke:#181818;stroke-width:1.0;" x1="843" x2="884" y1="230.9082" y2="230.9082"/><polygon fill="#181818" points="853,226.9082,843,230.9082,853,234.9082,849,230.9082" style="stroke:#181818;stroke-width:1.0;"/><text fill="#000000" font-family="sans-serif" font-size="13" lengthAdjust="spacing" textLength="204" x="849" y="213.166">check gameMode !== 'on_game'</text><polygon fill="#181818" points="212,256.2188,202,260.2188,212,264.2188,208,260.2188" style="stroke:#181818;stroke-width:1.0;"/><line style="stroke:#181818;stroke-width:1.0;stroke-dasharray:2.0,2.0;" x1="206" x2="836" y1="260.2188" y2="260.2188"/><text fill="#000000" font-family="sans-serif" font-size="13" lengthAdjust="spacing" textLength="50" x="218" y="255.4766">boolean</text><polygon fill="#181818" points="73,285.5293,63,289.5293,73,293.5293,69,289.5293" style="stroke:#181818;stroke-width:1.0;"/><line style="stroke:#181818;stroke-width:1.0;stroke-dasharray:2.0,2.0;" x1="67" x2="190" y1="289.5293" y2="289.5293"/><text fill="#000000" font-family="sans-serif" font-size="13" lengthAdjust="spacing" textLength="72" x="79" y="284.7871">early return</text><polygon fill="#181818" points="518,321.8398,528,325.8398,518,329.8398,522,325.8398" style="stroke:#181818;stroke-width:1.0;"/><line style="stroke:#181818;stroke-width:1.0;" x1="201" x2="524" y1="325.8398" y2="325.8398"/><text fill="#000000" font-family="sans-serif" font-size="13" lengthAdjust="spacing" textLength="139" x="208" y="321.0977">getGameGrid(row, col)</text><polygon fill="#181818" points="212,351.1504,202,355.1504,212,359.1504,208,355.1504" style="stroke:#181818;stroke-width:1.0;"/><line style="stroke:#181818;stroke-width:1.0;stroke-dasharray:2.0,2.0;" x1="206" x2="534" y1="355.1504" y2="355.1504"/><text fill="#000000" font-family="sans-serif" font-size="13" lengthAdjust="spacing" textLength="113" x="218" y="350.4082">selectedGameGrid</text><path d="M10,370.1504 L77,370.1504 L77,377.4609 L67,387.4609 L10,387.4609 L10,370.1504 " fill="#EEEEEE" style="stroke:#000000;stroke-width:1.5;"/><rect fill="none" height="132.2422" style="stroke:#000000;stroke-width:1.5;" width="827" x="10" y="370.1504"/><text fill="#000000" font-family="sans-serif" font-size="13" font-weight="bold" lengthAdjust="spacing" textLength="22" x="25" y="383.7188">opt</text><text fill="#000000" font-family="sans-serif" font-size="11" font-weight="bold" lengthAdjust="spacing" textLength="225" x="92" y="382.7852">[when selected grid is already occupied]</text><polygon fill="#181818" points="518,389.4609,528,393.4609,518,397.4609,522,393.4609" style="stroke:#181818;stroke-width:1.0;"/><line style="stroke:#181818;stroke-width:1.0;" x1="201" x2="524" y1="393.4609" y2="393.4609"/><line style="stroke:#181818;stroke-width:1.0;" x1="540" x2="582" y1="422.7715" y2="422.7715"/><line style="stroke:#181818;stroke-width:1.0;" x1="582" x2="582" y1="422.7715" y2="435.7715"/><line style="stroke:#181818;stroke-width:1.0;" x1="541" x2="582" y1="435.7715" y2="435.7715"/><polygon fill="#181818" points="551,431.7715,541,435.7715,551,439.7715,547,435.7715" style="stroke:#181818;stroke-width:1.0;"/><text fill="#000000" font-family="sans-serif" font-size="13" lengthAdjust="spacing" textLength="278" x="547" y="418.0293">check selectedGameGrid.occupied === true</text><polygon fill="#181818" points="212,461.082,202,465.082,212,469.082,208,465.082" style="stroke:#181818;stroke-width:1.0;"/><line style="stroke:#181818;stroke-width:1.0;stroke-dasharray:2.0,2.0;" x1="206" x2="534" y1="465.082" y2="465.082"/><text fill="#000000" font-family="sans-serif" font-size="13" lengthAdjust="spacing" textLength="50" x="218" y="460.3398">boolean</text><polygon fill="#181818" points="73,490.3926,63,494.3926,73,498.3926,69,494.3926" style="stroke:#181818;stroke-width:1.0;"/><line style="stroke:#181818;stroke-width:1.0;stroke-dasharray:2.0,2.0;" x1="67" x2="190" y1="494.3926" y2="494.3926"/><text fill="#000000" font-family="sans-serif" font-size="13" lengthAdjust="spacing" textLength="72" x="79" y="489.6504">early return</text><polygon fill="#181818" points="518,526.7031,528,530.7031,518,534.7031,522,530.7031" style="stroke:#181818;stroke-width:1.0;"/><line style="stroke:#181818;stroke-width:1.0;" x1="201" x2="524" y1="530.7031" y2="530.7031"/><text fill="#000000" font-family="sans-serif" font-size="13" lengthAdjust="spacing" textLength="310" x="208" y="525.9609">setGameGrid(row, col, gamePlayerKey, gameTurn)</text><polygon fill="#181818" points="212,540.7031,202,544.7031,212,548.7031,208,544.7031" style="stroke:#181818;stroke-width:1.0;"/><line style="stroke:#181818;stroke-width:1.0;stroke-dasharray:2.0,2.0;" x1="206" x2="534" y1="544.7031" y2="544.7031"/><path d="M10,559.7031 L77,559.7031 L77,567.0137 L67,577.0137 L10,577.0137 L10,559.7031 " fill="#EEEEEE" style="stroke:#000000;stroke-width:1.5;"/><rect fill="none" height="154.5527" style="stroke:#000000;stroke-width:1.5;" width="992" x="10" y="559.7031"/><text fill="#000000" font-family="sans-serif" font-size="13" font-weight="bold" lengthAdjust="spacing" textLength="22" x="25" y="573.2715">opt</text><text fill="#000000" font-family="sans-serif" font-size="11" font-weight="bold" lengthAdjust="spacing" textLength="105" x="92" y="572.3379">[when player wins]</text><polygon fill="#181818" points="518,597.3242,528,601.3242,518,605.3242,522,601.3242" style="stroke:#181818;stroke-width:1.0;"/><line style="stroke:#181818;stroke-width:1.0;" x1="201" x2="524" y1="601.3242" y2="601.3242"/><text fill="#000000" font-family="sans-serif" font-size="13" lengthAdjust="spacing" textLength="161" x="208" y="596.582">checkWin(gamePlayerKey)</text><path d="M545,582.0137 L545,607.0137 L997,607.0137 L997,592.0137 L987,582.0137 L545,582.0137 " fill="#FEFFDD" style="stroke:#181818;stroke-width:0.5;"/><path d="M987,582.0137 L987,592.0137 L997,592.0137 L987,582.0137 " fill="#FEFFDD" style="stroke:#181818;stroke-width:0.5;"/><text fill="#000000" font-family="sans-serif" font-size="13" lengthAdjust="spacing" textLength="431" x="551" y="599.582">Three same marks are placed in horizontal, vertical, or diagonal row.</text><polygon fill="#181818" points="212,629.6348,202,633.6348,212,637.6348,208,633.6348" style="stroke:#181818;stroke-width:1.0;"/><line style="stroke:#181818;stroke-width:1.0;stroke-dasharray:2.0,2.0;" x1="206" x2="534" y1="633.6348" y2="633.6348"/><text fill="#000000" font-family="sans-serif" font-size="13" lengthAdjust="spacing" textLength="50" x="218" y="628.8926">boolean</text><polygon fill="#181818" points="820,658.9453,830,662.9453,820,666.9453,824,662.9453" style="stroke:#181818;stroke-width:1.0;"/><line style="stroke:#181818;stroke-width:1.0;" x1="201" x2="826" y1="662.9453" y2="662.9453"/><text fill="#000000" font-family="sans-serif" font-size="13" lengthAdjust="spacing" textLength="229" x="208" y="658.2031">setGameEndWithWin(gamePlayerKey)</text><polygon fill="#181818" points="212,672.9453,202,676.9453,212,680.9453,208,676.9453" style="stroke:#181818;stroke-width:1.0;"/><line style="stroke:#181818;stroke-width:1.0;stroke-dasharray:2.0,2.0;" x1="206" x2="836" y1="676.9453" y2="676.9453"/><polygon fill="#181818" points="73,702.2559,63,706.2559,73,710.2559,69,706.2559" style="stroke:#181818;stroke-width:1.0;"/><line style="stroke:#181818;stroke-width:1.0;stroke-dasharray:2.0,2.0;" x1="67" x2="190" y1="706.2559" y2="706.2559"/><text fill="#000000" font-family="sans-serif" font-size="13" lengthAdjust="spacing" textLength="72" x="79" y="701.5137">early return</text><path d="M10,728.2559 L77,728.2559 L77,735.5664 L67,745.5664 L10,745.5664 L10,728.2559 " fill="#EEEEEE" style="stroke:#000000;stroke-width:1.5;"/><rect fill="none" height="154.5527" style="stroke:#000000;stroke-width:1.5;" width="908" x="10" y="728.2559"/><text fill="#000000" font-family="sans-serif" font-size="13" font-weight="bold" lengthAdjust="spacing" textLength="22" x="25" y="741.8242">opt</text><text fill="#000000" font-family="sans-serif" font-size="11" font-weight="bold" lengthAdjust="spacing" textLength="116" x="92" y="740.8906">[when game is draw]</text><polygon fill="#181818" points="518,765.877,528,769.877,518,773.877,522,769.877" style="stroke:#181818;stroke-width:1.0;"/><line style="stroke:#181818;stroke-width:1.0;" x1="201" x2="524" y1="769.877" y2="769.877"/><text fill="#000000" font-family="sans-serif" font-size="13" lengthAdjust="spacing" textLength="170" x="208" y="765.1348">checkDraw(gamePlayerKey)</text><path d="M545,750.5664 L545,775.5664 L781,775.5664 L781,760.5664 L771,750.5664 L545,750.5664 " fill="#FEFFDD" style="stroke:#181818;stroke-width:0.5;"/><path d="M771,750.5664 L771,760.5664 L781,760.5664 L771,750.5664 " fill="#FEFFDD" style="stroke:#181818;stroke-width:0.5;"/><text fill="#000000" font-family="sans-serif" font-size="13" lengthAdjust="spacing" textLength="215" x="551" y="768.1348">All grids are occupied with marks.</text><polygon fill="#181818" points="212,798.1875,202,802.1875,212,806.1875,208,802.1875" style="stroke:#181818;stroke-width:1.0;"/><line style="stroke:#181818;stroke-width:1.0;stroke-dasharray:2.0,2.0;" x1="206" x2="534" y1="802.1875" y2="802.1875"/><text fill="#000000" font-family="sans-serif" font-size="13" lengthAdjust="spacing" textLength="50" x="218" y="797.4453">boolean</text><polygon fill="#181818" points="820,827.498,830,831.498,820,835.498,824,831.498" style="stroke:#181818;stroke-width:1.0;"/><line style="stroke:#181818;stroke-width:1.0;" x1="201" x2="826" y1="831.498" y2="831.498"/><text fill="#000000" font-family="sans-serif" font-size="13" lengthAdjust="spacing" textLength="149" x="208" y="826.7559">setGameEndWithDraw( )</text><polygon fill="#181818" points="212,841.498,202,845.498,212,849.498,208,845.498" style="stroke:#181818;stroke-width:1.0;"/><line style="stroke:#181818;stroke-width:1.0;stroke-dasharray:2.0,2.0;" x1="206" x2="836" y1="845.498" y2="845.498"/><polygon fill="#181818" points="73,870.8086,63,874.8086,73,878.8086,69,874.8086" style="stroke:#181818;stroke-width:1.0;"/><line style="stroke:#181818;stroke-width:1.0;stroke-dasharray:2.0,2.0;" x1="67" x2="190" y1="874.8086" y2="874.8086"/><text fill="#000000" font-family="sans-serif" font-size="13" lengthAdjust="spacing" textLength="72" x="79" y="870.0664">early return</text><polygon fill="#181818" points="1048,917.7744,1058,921.7744,1048,925.7744,1052,921.7744" style="stroke:#181818;stroke-width:1.0;"/><line style="stroke:#181818;stroke-width:1.0;" x1="201" x2="1054" y1="921.7744" y2="921.7744"/><text fill="#000000" font-family="sans-serif" font-size="13" lengthAdjust="spacing" textLength="127" x="208" y="917.0322">advanceGameTurn( )</text><path d="M1075,894.8086 L1075,934.8086 L1364,934.8086 L1364,904.8086 L1354,894.8086 L1075,894.8086 " fill="#FEFFDD" style="stroke:#181818;stroke-width:0.5;"/><path d="M1354,894.8086 L1354,904.8086 L1364,904.8086 L1354,894.8086 " fill="#FEFFDD" style="stroke:#181818;stroke-width:0.5;"/><text fill="#000000" font-family="sans-serif" font-size="13" lengthAdjust="spacing" textLength="268" x="1081" y="912.377">Go to next turn, and change player on turn</text><text fill="#000000" font-family="sans-serif" font-size="13" lengthAdjust="spacing" textLength="161" x="1081" y="927.6875">when game does not end.</text><polygon fill="#181818" points="212,942.4297,202,946.4297,212,950.4297,208,946.4297" style="stroke:#181818;stroke-width:1.0;"/><line style="stroke:#181818;stroke-width:1.0;stroke-dasharray:2.0,2.0;" x1="206" x2="1064" y1="946.4297" y2="946.4297"/><polygon fill="#181818" points="73,956.4297,63,960.4297,73,964.4297,69,960.4297" style="stroke:#181818;stroke-width:1.0;"/><line style="stroke:#181818;stroke-width:1.0;stroke-dasharray:2.0,2.0;" x1="67" x2="195" y1="960.4297" y2="960.4297"/><!--MD5=[73565fc5263fbaead3be37a2b2a7199e]
@startuml
title Grid Select Sequence
hide footbox

Actor "Turn Player" as Player
participant "TicTacToeView" as TicTacToeView
participant "GameGridContext" as GameGrid
participant "GameStateContext" as GameState
participant "GameTurnContext" as GameTurn

Player -> TicTacToeView: selectGameGrid( )
activate TicTacToeView

opt when game is not on game
    TicTacToeView -> GameState:
    activate GameState
    GameState -> GameState: check gameMode !== 'on_game'
    GameState - -> TicTacToeView: boolean
    deactivate GameState
    TicTacToeView - -> Player: early return
end

TicTacToeView -> GameGrid: getGameGrid(row, col)
activate GameGrid
GameGrid - -> TicTacToeView: selectedGameGrid
deactivate GameGrid

opt when selected grid is already occupied
    TicTacToeView -> GameGrid
    activate GameGrid
    GameGrid -> GameGrid: check selectedGameGrid.occupied === true
    GameGrid - -> TicTacToeView:boolean
    deactivate GameGrid
    TicTacToeView - -> Player: early return
end

TicTacToeView -> GameGrid: setGameGrid(row, col, gamePlayerKey, gameTurn)
activate GameGrid
GameGrid - -> TicTacToeView:
deactivate GameGrid

opt when player wins
    TicTacToeView -> GameGrid: checkWin(gamePlayerKey)
    note right
    	 Three same marks are placed in horizontal, vertical, or diagonal row.
    end note
    activate GameGrid
    GameGrid - -> TicTacToeView: boolean
    deactivate GameGrid

    TicTacToeView -> GameState: setGameEndWithWin(gamePlayerKey)
    activate GameState
    GameState - -> TicTacToeView
    deactivate GameState
    TicTacToeView - -> Player: early return
end

opt when game is draw
    TicTacToeView -> GameGrid: checkDraw(gamePlayerKey)
    note right
    	 All grids are occupied with marks.
    end note
    activate GameGrid
    GameGrid - -> TicTacToeView: boolean
    deactivate GameGrid

    TicTacToeView -> GameState: setGameEndWithDraw( )
    activate GameState
    GameState - -> TicTacToeView
    deactivate GameState
    TicTacToeView - -> Player: early return
end

TicTacToeView -> GameTurn: advanceGameTurn( )
note right
     Go to next turn, and change player on turn
     when game does not end.
end note
activate GameTurn
GameTurn - -> TicTacToeView
deactivate GameTurn

TicTacToeView - -> Player: 
deactivate TicTacToeView

@enduml

PlantUML version 1.2022.13(Sat Nov 19 22:22:17 JST 2022)
(GPL source distribution)
Java Runtime: OpenJDK Runtime Environment
JVM: OpenJDK 64-Bit Server VM
Default Encoding: UTF-8
Language: ja
Country: JP
--></g></svg>