<?xml version="1.0" encoding="UTF-8" standalone="no"?><svg xmlns="http://www.w3.org/2000/svg" xmlns:xlink="http://www.w3.org/1999/xlink" contentStyleType="text/css" height="170px" preserveAspectRatio="none" style="width:86px;height:170px;background:#FFFFFF;" version="1.1" viewBox="0 0 86 170" width="86px" zoomAndPan="magnify"><defs/><g><!--MD5=[f9acffdcd4b442177af46c634f706455]
class Hello--><g id="elem_Hello"><rect fill="#F1F1F1" height="48" id="Hello" rx="2.5" ry="2.5" style="stroke:#181818;stroke-width:0.5;" width="67" x="9.5" y="7"/><ellipse cx="24.5" cy="23" fill="#ADD1B2" rx="11" ry="11" style="stroke:#181818;stroke-width:1.0;"/><path d="M26.9731,29.1431 Q26.3921,29.4419 25.7529,29.5913 Q25.1138,29.7407 24.4082,29.7407 Q21.9014,29.7407 20.5815,28.0889 Q19.2617,26.437 19.2617,23.3159 Q19.2617,20.1865 20.5815,18.5347 Q21.9014,16.8828 24.4082,16.8828 Q25.1138,16.8828 25.7612,17.0322 Q26.4087,17.1816 26.9731,17.4805 L26.9731,20.2031 Q26.3423,19.6221 25.7488,19.3523 Q25.1553,19.0825 24.5244,19.0825 Q23.1797,19.0825 22.4949,20.1492 Q21.8101,21.2158 21.8101,23.3159 Q21.8101,25.4077 22.4949,26.4744 Q23.1797,27.541 24.5244,27.541 Q25.1553,27.541 25.7488,27.2712 Q26.3423,27.0015 26.9731,26.4204 Z " fill="#000000"/><text fill="#000000" font-family="sans-serif" font-size="14" lengthAdjust="spacing" textLength="35" x="38.5" y="28.291">Hello</text><line style="stroke:#181818;stroke-width:0.5;" x1="10.5" x2="75.5" y1="39" y2="39"/><line style="stroke:#181818;stroke-width:0.5;" x1="10.5" x2="75.5" y1="47" y2="47"/></g><!--MD5=[1b1562314ef50edf921bad0cd204186a]
class World--><g id="elem_World"><rect fill="#F1F1F1" height="48" id="World" rx="2.5" ry="2.5" style="stroke:#181818;stroke-width:0.5;" width="72" x="7" y="115"/><ellipse cx="22" cy="131" fill="#ADD1B2" rx="11" ry="11" style="stroke:#181818;stroke-width:1.0;"/><path d="M24.4731,137.1431 Q23.8921,137.4419 23.2529,137.5913 Q22.6138,137.7407 21.9082,137.7407 Q19.4014,137.7407 18.0815,136.0889 Q16.7617,134.437 16.7617,131.3159 Q16.7617,128.1865 18.0815,126.5347 Q19.4014,124.8828 21.9082,124.8828 Q22.6138,124.8828 23.2612,125.0322 Q23.9087,125.1816 24.4731,125.4805 L24.4731,128.2031 Q23.8423,127.6221 23.2488,127.3523 Q22.6553,127.0825 22.0244,127.0825 Q20.6797,127.0825 19.9949,128.1492 Q19.3101,129.2158 19.3101,131.3159 Q19.3101,133.4077 19.9949,134.4744 Q20.6797,135.541 22.0244,135.541 Q22.6553,135.541 23.2488,135.2712 Q23.8423,135.0015 24.4731,134.4204 Z " fill="#000000"/><text fill="#000000" font-family="sans-serif" font-size="14" lengthAdjust="spacing" textLength="40" x="36" y="136.291">World</text><line style="stroke:#181818;stroke-width:0.5;" x1="8" x2="78" y1="147" y2="147"/><line style="stroke:#181818;stroke-width:0.5;" x1="8" x2="78" y1="155" y2="155"/></g><!--MD5=[131216dfe11fc1021ddbc65d30eb7fc4]
reverse link Hello to World--><g id="link_Hello_World"><path codeLine="1" d="M43,76.72 C43,89.82 43,103.62 43,114.79 " fill="none" id="Hello-backto-World" style="stroke:#181818;stroke-width:1.0;"/><polygon fill="none" points="36,76.78,43,56.78,50,76.78,36,76.78" style="stroke:#181818;stroke-width:1.0;"/></g><!--MD5=[bd1d81dbae71b13c0ce35a4a9787696c]
@startuml
Hello <|- - World
@enduml

PlantUML version 1.2022.13(Sat Nov 19 22:22:17 JST 2022)
(GPL source distribution)
Java Runtime: OpenJDK Runtime Environment
JVM: OpenJDK 64-Bit Server VM
Default Encoding: UTF-8
Language: ja
Country: JP
--></g></svg>